<?xml version="1.0" encoding="utf-8" standalone="no"?>
<!DOCTYPE svg PUBLIC "-//W3C//DTD SVG 1.1//EN"
  "http://www.w3.org/Graphics/SVG/1.1/DTD/svg11.dtd">
<!-- Created with matplotlib (https://matplotlib.org/) -->
<svg height="360pt" version="1.1" viewBox="0 0 864 360" width="864pt" xmlns="http://www.w3.org/2000/svg" xmlns:xlink="http://www.w3.org/1999/xlink">
 <metadata>
  <rdf:RDF xmlns:cc="http://creativecommons.org/ns#" xmlns:dc="http://purl.org/dc/elements/1.1/" xmlns:rdf="http://www.w3.org/1999/02/22-rdf-syntax-ns#">
   <cc:Work>
    <dc:type rdf:resource="http://purl.org/dc/dcmitype/StillImage"/>
    <dc:date>2021-03-14T03:20:44.916844</dc:date>
    <dc:format>image/svg+xml</dc:format>
    <dc:creator>
     <cc:Agent>
      <dc:title>Matplotlib v3.3.2, https://matplotlib.org/</dc:title>
     </cc:Agent>
    </dc:creator>
   </cc:Work>
  </rdf:RDF>
 </metadata>
 <defs>
  <style type="text/css">*{stroke-linecap:butt;stroke-linejoin:round;}</style>
 </defs>
 <g id="figure_1">
  <g id="patch_1">
   <path d="M 0 360 
L 864 360 
L 864 0 
L 0 0 
z
" style="fill:#ffffff;"/>
  </g>
  <g id="axes_1">
   <g id="patch_2">
    <path d="M 78.536 105.7973 
L 851.04 105.7973 
L 851.04 12.96 
L 78.536 12.96 
z
" style="fill:#ffffff;"/>
   </g>
   <g id="matplotlib.axis_1">
    <g id="xtick_1">
     <g id="line2d_1">
      <defs>
       <path d="M 0 0 
L 0 3.5 
" id="ma91dd140ac" style="stroke:#000000;stroke-width:0.8;"/>
      </defs>
      <g>
       <use style="stroke:#000000;stroke-width:0.8;" x="113.649818" xlink:href="#ma91dd140ac" y="105.7973"/>
      </g>
     </g>
    </g>
    <g id="xtick_2">
     <g id="line2d_2">
      <g>
       <use style="stroke:#000000;stroke-width:0.8;" x="250.94725" xlink:href="#ma91dd140ac" y="105.7973"/>
      </g>
     </g>
    </g>
    <g id="xtick_3">
     <g id="line2d_3">
      <g>
       <use style="stroke:#000000;stroke-width:0.8;" x="388.244682" xlink:href="#ma91dd140ac" y="105.7973"/>
      </g>
     </g>
    </g>
    <g id="xtick_4">
     <g id="line2d_4">
      <g>
       <use style="stroke:#000000;stroke-width:0.8;" x="525.542114" xlink:href="#ma91dd140ac" y="105.7973"/>
      </g>
     </g>
    </g>
    <g id="xtick_5">
     <g id="line2d_5">
      <g>
       <use style="stroke:#000000;stroke-width:0.8;" x="662.839545" xlink:href="#ma91dd140ac" y="105.7973"/>
      </g>
     </g>
    </g>
    <g id="xtick_6">
     <g id="line2d_6">
      <g>
       <use style="stroke:#000000;stroke-width:0.8;" x="800.136977" xlink:href="#ma91dd140ac" y="105.7973"/>
      </g>
     </g>
    </g>
   </g>
   <g id="matplotlib.axis_2">
    <g id="ytick_1">
     <g id="line2d_7">
      <defs>
       <path d="M 0 0 
L -3.5 0 
" id="m95a580ce7f" style="stroke:#000000;stroke-width:0.8;"/>
      </defs>
      <g>
       <use style="stroke:#000000;stroke-width:0.8;" x="78.536" xlink:href="#m95a580ce7f" y="67.152432"/>
      </g>
     </g>
     <g id="text_1">
      <!-- 0.00 -->
      <g transform="translate(44.81725 71.711495)scale(0.12 -0.12)">
       <defs>
        <path d="M 31.78125 66.40625 
Q 24.171875 66.40625 20.328125 58.90625 
Q 16.5 51.421875 16.5 36.375 
Q 16.5 21.390625 20.328125 13.890625 
Q 24.171875 6.390625 31.78125 6.390625 
Q 39.453125 6.390625 43.28125 13.890625 
Q 47.125 21.390625 47.125 36.375 
Q 47.125 51.421875 43.28125 58.90625 
Q 39.453125 66.40625 31.78125 66.40625 
z
M 31.78125 74.21875 
Q 44.046875 74.21875 50.515625 64.515625 
Q 56.984375 54.828125 56.984375 36.375 
Q 56.984375 17.96875 50.515625 8.265625 
Q 44.046875 -1.421875 31.78125 -1.421875 
Q 19.53125 -1.421875 13.0625 8.265625 
Q 6.59375 17.96875 6.59375 36.375 
Q 6.59375 54.828125 13.0625 64.515625 
Q 19.53125 74.21875 31.78125 74.21875 
z
" id="DejaVuSans-48"/>
        <path d="M 10.6875 12.40625 
L 21 12.40625 
L 21 0 
L 10.6875 0 
z
" id="DejaVuSans-46"/>
       </defs>
       <use xlink:href="#DejaVuSans-48"/>
       <use x="63.623047" xlink:href="#DejaVuSans-46"/>
       <use x="95.410156" xlink:href="#DejaVuSans-48"/>
       <use x="159.033203" xlink:href="#DejaVuSans-48"/>
      </g>
     </g>
    </g>
    <g id="ytick_2">
     <g id="line2d_8">
      <g>
       <use style="stroke:#000000;stroke-width:0.8;" x="78.536" xlink:href="#m95a580ce7f" y="25.937608"/>
      </g>
     </g>
     <g id="text_2">
      <!-- 0.01 -->
      <g transform="translate(44.81725 30.49667)scale(0.12 -0.12)">
       <defs>
        <path d="M 12.40625 8.296875 
L 28.515625 8.296875 
L 28.515625 63.921875 
L 10.984375 60.40625 
L 10.984375 69.390625 
L 28.421875 72.90625 
L 38.28125 72.90625 
L 38.28125 8.296875 
L 54.390625 8.296875 
L 54.390625 0 
L 12.40625 0 
z
" id="DejaVuSans-49"/>
       </defs>
       <use xlink:href="#DejaVuSans-48"/>
       <use x="63.623047" xlink:href="#DejaVuSans-46"/>
       <use x="95.410156" xlink:href="#DejaVuSans-48"/>
       <use x="159.033203" xlink:href="#DejaVuSans-49"/>
      </g>
     </g>
    </g>
    <g id="text_3">
     <!-- Preprocessing -->
     <g transform="translate(38.321625 101.2474)rotate(-90)scale(0.12 -0.12)">
      <defs>
       <path d="M 19.671875 64.796875 
L 19.671875 37.40625 
L 32.078125 37.40625 
Q 38.96875 37.40625 42.71875 40.96875 
Q 46.484375 44.53125 46.484375 51.125 
Q 46.484375 57.671875 42.71875 61.234375 
Q 38.96875 64.796875 32.078125 64.796875 
z
M 9.8125 72.90625 
L 32.078125 72.90625 
Q 44.34375 72.90625 50.609375 67.359375 
Q 56.890625 61.8125 56.890625 51.125 
Q 56.890625 40.328125 50.609375 34.8125 
Q 44.34375 29.296875 32.078125 29.296875 
L 19.671875 29.296875 
L 19.671875 0 
L 9.8125 0 
z
" id="DejaVuSans-80"/>
       <path d="M 41.109375 46.296875 
Q 39.59375 47.171875 37.8125 47.578125 
Q 36.03125 48 33.890625 48 
Q 26.265625 48 22.1875 43.046875 
Q 18.109375 38.09375 18.109375 28.8125 
L 18.109375 0 
L 9.078125 0 
L 9.078125 54.6875 
L 18.109375 54.6875 
L 18.109375 46.1875 
Q 20.953125 51.171875 25.484375 53.578125 
Q 30.03125 56 36.53125 56 
Q 37.453125 56 38.578125 55.875 
Q 39.703125 55.765625 41.0625 55.515625 
z
" id="DejaVuSans-114"/>
       <path d="M 56.203125 29.59375 
L 56.203125 25.203125 
L 14.890625 25.203125 
Q 15.484375 15.921875 20.484375 11.0625 
Q 25.484375 6.203125 34.421875 6.203125 
Q 39.59375 6.203125 44.453125 7.46875 
Q 49.3125 8.734375 54.109375 11.28125 
L 54.109375 2.78125 
Q 49.265625 0.734375 44.1875 -0.34375 
Q 39.109375 -1.421875 33.890625 -1.421875 
Q 20.796875 -1.421875 13.15625 6.1875 
Q 5.515625 13.8125 5.515625 26.8125 
Q 5.515625 40.234375 12.765625 48.109375 
Q 20.015625 56 32.328125 56 
Q 43.359375 56 49.78125 48.890625 
Q 56.203125 41.796875 56.203125 29.59375 
z
M 47.21875 32.234375 
Q 47.125 39.59375 43.09375 43.984375 
Q 39.0625 48.390625 32.421875 48.390625 
Q 24.90625 48.390625 20.390625 44.140625 
Q 15.875 39.890625 15.1875 32.171875 
z
" id="DejaVuSans-101"/>
       <path d="M 18.109375 8.203125 
L 18.109375 -20.796875 
L 9.078125 -20.796875 
L 9.078125 54.6875 
L 18.109375 54.6875 
L 18.109375 46.390625 
Q 20.953125 51.265625 25.265625 53.625 
Q 29.59375 56 35.59375 56 
Q 45.5625 56 51.78125 48.09375 
Q 58.015625 40.1875 58.015625 27.296875 
Q 58.015625 14.40625 51.78125 6.484375 
Q 45.5625 -1.421875 35.59375 -1.421875 
Q 29.59375 -1.421875 25.265625 0.953125 
Q 20.953125 3.328125 18.109375 8.203125 
z
M 48.6875 27.296875 
Q 48.6875 37.203125 44.609375 42.84375 
Q 40.53125 48.484375 33.40625 48.484375 
Q 26.265625 48.484375 22.1875 42.84375 
Q 18.109375 37.203125 18.109375 27.296875 
Q 18.109375 17.390625 22.1875 11.75 
Q 26.265625 6.109375 33.40625 6.109375 
Q 40.53125 6.109375 44.609375 11.75 
Q 48.6875 17.390625 48.6875 27.296875 
z
" id="DejaVuSans-112"/>
       <path d="M 30.609375 48.390625 
Q 23.390625 48.390625 19.1875 42.75 
Q 14.984375 37.109375 14.984375 27.296875 
Q 14.984375 17.484375 19.15625 11.84375 
Q 23.34375 6.203125 30.609375 6.203125 
Q 37.796875 6.203125 41.984375 11.859375 
Q 46.1875 17.53125 46.1875 27.296875 
Q 46.1875 37.015625 41.984375 42.703125 
Q 37.796875 48.390625 30.609375 48.390625 
z
M 30.609375 56 
Q 42.328125 56 49.015625 48.375 
Q 55.71875 40.765625 55.71875 27.296875 
Q 55.71875 13.875 49.015625 6.21875 
Q 42.328125 -1.421875 30.609375 -1.421875 
Q 18.84375 -1.421875 12.171875 6.21875 
Q 5.515625 13.875 5.515625 27.296875 
Q 5.515625 40.765625 12.171875 48.375 
Q 18.84375 56 30.609375 56 
z
" id="DejaVuSans-111"/>
       <path d="M 48.78125 52.59375 
L 48.78125 44.1875 
Q 44.96875 46.296875 41.140625 47.34375 
Q 37.3125 48.390625 33.40625 48.390625 
Q 24.65625 48.390625 19.8125 42.84375 
Q 14.984375 37.3125 14.984375 27.296875 
Q 14.984375 17.28125 19.8125 11.734375 
Q 24.65625 6.203125 33.40625 6.203125 
Q 37.3125 6.203125 41.140625 7.25 
Q 44.96875 8.296875 48.78125 10.40625 
L 48.78125 2.09375 
Q 45.015625 0.34375 40.984375 -0.53125 
Q 36.96875 -1.421875 32.421875 -1.421875 
Q 20.0625 -1.421875 12.78125 6.34375 
Q 5.515625 14.109375 5.515625 27.296875 
Q 5.515625 40.671875 12.859375 48.328125 
Q 20.21875 56 33.015625 56 
Q 37.15625 56 41.109375 55.140625 
Q 45.0625 54.296875 48.78125 52.59375 
z
" id="DejaVuSans-99"/>
       <path d="M 44.28125 53.078125 
L 44.28125 44.578125 
Q 40.484375 46.53125 36.375 47.5 
Q 32.28125 48.484375 27.875 48.484375 
Q 21.1875 48.484375 17.84375 46.4375 
Q 14.5 44.390625 14.5 40.28125 
Q 14.5 37.15625 16.890625 35.375 
Q 19.28125 33.59375 26.515625 31.984375 
L 29.59375 31.296875 
Q 39.15625 29.25 43.1875 25.515625 
Q 47.21875 21.78125 47.21875 15.09375 
Q 47.21875 7.46875 41.1875 3.015625 
Q 35.15625 -1.421875 24.609375 -1.421875 
Q 20.21875 -1.421875 15.453125 -0.5625 
Q 10.6875 0.296875 5.421875 2 
L 5.421875 11.28125 
Q 10.40625 8.6875 15.234375 7.390625 
Q 20.0625 6.109375 24.8125 6.109375 
Q 31.15625 6.109375 34.5625 8.28125 
Q 37.984375 10.453125 37.984375 14.40625 
Q 37.984375 18.0625 35.515625 20.015625 
Q 33.0625 21.96875 24.703125 23.78125 
L 21.578125 24.515625 
Q 13.234375 26.265625 9.515625 29.90625 
Q 5.8125 33.546875 5.8125 39.890625 
Q 5.8125 47.609375 11.28125 51.796875 
Q 16.75 56 26.8125 56 
Q 31.78125 56 36.171875 55.265625 
Q 40.578125 54.546875 44.28125 53.078125 
z
" id="DejaVuSans-115"/>
       <path d="M 9.421875 54.6875 
L 18.40625 54.6875 
L 18.40625 0 
L 9.421875 0 
z
M 9.421875 75.984375 
L 18.40625 75.984375 
L 18.40625 64.59375 
L 9.421875 64.59375 
z
" id="DejaVuSans-105"/>
       <path d="M 54.890625 33.015625 
L 54.890625 0 
L 45.90625 0 
L 45.90625 32.71875 
Q 45.90625 40.484375 42.875 44.328125 
Q 39.84375 48.1875 33.796875 48.1875 
Q 26.515625 48.1875 22.3125 43.546875 
Q 18.109375 38.921875 18.109375 30.90625 
L 18.109375 0 
L 9.078125 0 
L 9.078125 54.6875 
L 18.109375 54.6875 
L 18.109375 46.1875 
Q 21.34375 51.125 25.703125 53.5625 
Q 30.078125 56 35.796875 56 
Q 45.21875 56 50.046875 50.171875 
Q 54.890625 44.34375 54.890625 33.015625 
z
" id="DejaVuSans-110"/>
       <path d="M 45.40625 27.984375 
Q 45.40625 37.75 41.375 43.109375 
Q 37.359375 48.484375 30.078125 48.484375 
Q 22.859375 48.484375 18.828125 43.109375 
Q 14.796875 37.75 14.796875 27.984375 
Q 14.796875 18.265625 18.828125 12.890625 
Q 22.859375 7.515625 30.078125 7.515625 
Q 37.359375 7.515625 41.375 12.890625 
Q 45.40625 18.265625 45.40625 27.984375 
z
M 54.390625 6.78125 
Q 54.390625 -7.171875 48.1875 -13.984375 
Q 42 -20.796875 29.203125 -20.796875 
Q 24.46875 -20.796875 20.265625 -20.09375 
Q 16.0625 -19.390625 12.109375 -17.921875 
L 12.109375 -9.1875 
Q 16.0625 -11.328125 19.921875 -12.34375 
Q 23.78125 -13.375 27.78125 -13.375 
Q 36.625 -13.375 41.015625 -8.765625 
Q 45.40625 -4.15625 45.40625 5.171875 
L 45.40625 9.625 
Q 42.625 4.78125 38.28125 2.390625 
Q 33.9375 0 27.875 0 
Q 17.828125 0 11.671875 7.65625 
Q 5.515625 15.328125 5.515625 27.984375 
Q 5.515625 40.671875 11.671875 48.328125 
Q 17.828125 56 27.875 56 
Q 33.9375 56 38.28125 53.609375 
Q 42.625 51.21875 45.40625 46.390625 
L 45.40625 54.6875 
L 54.390625 54.6875 
z
" id="DejaVuSans-103"/>
      </defs>
      <use xlink:href="#DejaVuSans-80"/>
      <use x="58.552734" xlink:href="#DejaVuSans-114"/>
      <use x="97.416016" xlink:href="#DejaVuSans-101"/>
      <use x="158.939453" xlink:href="#DejaVuSans-112"/>
      <use x="222.416016" xlink:href="#DejaVuSans-114"/>
      <use x="261.279297" xlink:href="#DejaVuSans-111"/>
      <use x="322.460938" xlink:href="#DejaVuSans-99"/>
      <use x="377.441406" xlink:href="#DejaVuSans-101"/>
      <use x="438.964844" xlink:href="#DejaVuSans-115"/>
      <use x="491.064453" xlink:href="#DejaVuSans-115"/>
      <use x="543.164062" xlink:href="#DejaVuSans-105"/>
      <use x="570.947266" xlink:href="#DejaVuSans-110"/>
      <use x="634.326172" xlink:href="#DejaVuSans-103"/>
     </g>
    </g>
   </g>
   <g id="line2d_9">
    <path clip-path="url(#p147cbea390)" d="M 113.649818 67.211471 
L 115.022792 30.627284 
L 115.70928 19.675441 
L 116.395767 17.179877 
L 117.082254 23.953449 
L 117.768741 37.980586 
L 118.455228 54.643521 
L 119.141715 68.562124 
L 119.828203 76.147363 
L 120.51469 77.29072 
L 121.201177 75.055591 
L 121.887664 73.545138 
L 122.574151 75.35114 
L 123.947126 85.713383 
L 124.633613 89.037922 
L 125.3201 88.857058 
L 126.006587 85.659631 
L 127.379561 75.326616 
L 128.066049 69.15381 
L 130.12551 46.193262 
L 130.811997 41.380145 
L 131.498484 41.098623 
L 132.184971 45.742168 
L 132.871459 54.172158 
L 134.244433 74.246303 
L 134.93092 82.09749 
L 135.617407 86.542723 
L 136.303894 86.520097 
L 136.990382 81.679157 
L 139.049843 55.876588 
L 139.73633 53.569645 
L 140.422817 56.724132 
L 141.795792 69.10455 
L 142.482279 72.214142 
L 143.168766 72.256868 
L 143.855253 71.244525 
L 144.54174 71.51693 
L 145.228227 73.776229 
L 145.914715 76.519121 
L 146.601202 77.294664 
L 147.287689 74.757044 
L 148.660663 65.06868 
L 149.34715 62.577718 
L 150.033638 62.386852 
L 150.720125 62.406223 
L 151.406612 60.187092 
L 152.093099 55.074924 
L 152.779586 49.062564 
L 153.466073 45.637029 
L 154.152561 47.453605 
L 154.839048 54.549706 
L 156.212022 73.470424 
L 156.898509 79.626068 
L 157.584996 82.752157 
L 158.271484 84.219486 
L 158.957971 85.253986 
L 159.644458 85.785311 
L 160.330945 84.606471 
L 161.017432 80.612172 
L 163.076894 61.279981 
L 163.763381 59.183187 
L 164.449868 60.316132 
L 165.136355 62.902896 
L 165.822842 64.72746 
L 166.509329 64.444928 
L 167.195817 62.214171 
L 167.882304 59.343467 
L 168.568791 57.29737 
L 169.255278 56.772441 
L 169.941765 57.420946 
L 170.628252 58.321415 
L 171.31474 58.801441 
L 172.001227 59.022611 
L 172.687714 59.936431 
L 173.374201 62.652896 
L 174.060688 67.634744 
L 175.433662 80.702936 
L 176.12015 85.045324 
L 176.806637 85.678194 
L 177.493124 82.262281 
L 178.866098 69.31501 
L 179.552585 65.068396 
L 180.239073 65.175436 
L 180.92556 69.469485 
L 181.612047 75.327976 
L 182.298534 78.64856 
L 182.985021 75.986758 
L 183.671508 66.798276 
L 184.357996 54.326339 
L 185.044483 44.245211 
L 185.73097 41.554308 
L 186.417457 47.534398 
L 187.790431 69.259619 
L 188.476919 73.838007 
L 189.163406 71.545927 
L 189.849893 65.831946 
L 190.53638 62.02574 
L 191.222867 63.687521 
L 191.909354 70.383845 
L 192.595841 78.297391 
L 193.282329 83.014213 
L 193.968816 82.368886 
L 194.655303 77.403603 
L 195.34179 71.061065 
L 196.028277 65.902284 
L 196.714764 62.657768 
L 198.087739 58.555504 
L 198.774226 56.961402 
L 199.460713 56.928261 
L 200.1472 59.503376 
L 202.206662 73.950763 
L 202.893149 75.215244 
L 203.579636 74.076319 
L 204.95261 70.08618 
L 205.639097 69.024264 
L 207.012072 67.838523 
L 207.698559 67.502588 
L 208.385046 68.09593 
L 209.071533 70.08609 
L 209.75802 72.911564 
L 210.444508 74.844799 
L 211.130995 73.771127 
L 211.817482 68.476223 
L 213.876943 42.86666 
L 214.563431 41.376547 
L 215.249918 46.311654 
L 217.309379 76.797138 
L 217.995866 82.109021 
L 218.682354 83.279395 
L 219.368841 81.988341 
L 220.055328 80.452208 
L 220.741815 80.04294 
L 221.428302 80.499198 
L 222.114789 80.168077 
L 222.801276 77.151114 
L 223.487764 70.712366 
L 224.860738 54.291931 
L 225.547225 50.457162 
L 226.233712 52.291715 
L 226.920199 58.853172 
L 227.606687 66.909396 
L 228.293174 72.641988 
L 228.979661 73.75339 
L 229.666148 70.669803 
L 230.352635 66.046039 
L 231.039122 62.883996 
L 231.72561 62.537539 
L 232.412097 63.982579 
L 233.098584 64.843867 
L 233.785071 63.391016 
L 235.158045 56.897333 
L 235.844532 56.568356 
L 236.53102 59.791727 
L 237.903994 70.164842 
L 238.590481 73.337652 
L 239.276968 75.13796 
L 239.963455 77.320432 
L 241.33643 84.951418 
L 242.022917 86.39529 
L 242.709404 82.777208 
L 244.768866 58.071258 
L 245.455353 57.943642 
L 246.828327 68.426817 
L 247.514814 69.56793 
L 248.201301 64.562445 
L 248.887789 56.020297 
L 249.574276 49.176402 
L 250.260763 48.315199 
L 250.94725 53.911283 
L 251.633737 62.45326 
L 252.320224 68.974474 
L 253.006711 70.418763 
L 253.693199 67.474904 
L 254.379686 63.711495 
L 255.066173 62.800265 
L 255.75266 65.902331 
L 256.439147 71.038957 
L 257.125634 74.752941 
L 257.812122 74.740266 
L 259.185096 68.155617 
L 259.871583 67.952128 
L 260.55807 72.355763 
L 261.931045 86.811062 
L 262.617532 89.580763 
L 263.304019 86.343887 
L 263.990506 77.89014 
L 265.36348 56.918295 
L 266.049967 50.174015 
L 266.736455 47.647027 
L 267.422942 48.706469 
L 269.482403 58.017438 
L 271.541865 63.827626 
L 272.914839 68.632717 
L 273.601326 69.707659 
L 274.287813 69.461033 
L 274.974301 69.014372 
L 275.660788 70.228025 
L 276.347275 74.28355 
L 277.033762 80.331328 
L 277.720249 85.370577 
L 278.406736 85.805702 
L 279.093223 79.87901 
L 280.466198 58.874601 
L 281.152685 53.603254 
L 281.839172 55.71386 
L 283.212146 69.842526 
L 283.898634 71.398698 
L 284.585121 66.490435 
L 285.271608 58.924864 
L 285.958095 55.051341 
L 286.644582 59.417987 
L 288.017557 84.813345 
L 288.704044 91.935195 
L 289.390531 87.800125 
L 290.077018 73.576705 
L 290.763505 55.835589 
L 291.449992 42.603602 
L 292.13648 38.789817 
L 292.822967 43.918723 
L 294.195941 62.074671 
L 294.882428 67.475905 
L 296.255402 73.529686 
L 297.628377 81.561193 
L 298.314864 82.213422 
L 299.001351 77.824737 
L 300.374325 61.850054 
L 301.060813 59.15579 
L 301.7473 63.861791 
L 303.120274 84.586363 
L 303.806761 89.127569 
L 304.493248 84.029882 
L 305.179736 70.111182 
L 305.866223 52.611495 
L 306.55271 38.878869 
L 307.239197 34.88805 
L 307.925684 42.255897 
L 309.298658 72.996026 
L 309.985146 82.460925 
L 310.671633 82.887036 
L 312.044607 69.890789 
L 312.731094 67.535507 
L 313.417581 70.750944 
L 314.104069 75.942177 
L 314.790556 77.681846 
L 315.477043 72.888602 
L 316.850017 54.349659 
L 317.536504 51.355389 
L 318.222992 55.648559 
L 318.909479 63.666732 
L 319.595966 69.538745 
L 320.282453 69.270901 
L 321.655427 56.892568 
L 322.341915 54.909186 
L 323.028402 60.136426 
L 324.401376 82.245202 
L 325.087863 89.515312 
L 325.77435 90.108454 
L 326.460837 84.512759 
L 327.833812 65.734186 
L 328.520299 58.460128 
L 329.206786 55.15435 
L 329.893273 56.188806 
L 330.57976 60.535789 
L 331.266248 66.00094 
L 331.952735 70.072349 
L 332.639222 71.160329 
L 333.325709 69.438758 
L 334.012196 66.548341 
L 334.698683 64.240809 
L 336.071658 61.81603 
L 336.758145 59.509201 
L 337.444632 56.407601 
L 338.131119 54.924193 
L 338.817606 58.105277 
L 339.504093 67.006314 
L 340.190581 78.904729 
L 340.877068 88.03382 
L 341.563555 88.781659 
L 342.250042 79.406108 
L 343.623016 49.401345 
L 344.309504 43.826938 
L 344.995991 49.91525 
L 346.368965 80.424364 
L 347.055452 90.138368 
L 347.741939 89.995208 
L 348.428427 81.48303 
L 349.114914 69.836357 
L 349.801401 60.832001 
L 350.487888 57.766704 
L 351.174375 60.180546 
L 351.860862 64.728922 
L 352.54735 67.441247 
L 353.233837 66.034552 
L 354.606811 55.784949 
L 355.293298 53.873018 
L 355.979785 57.762326 
L 356.666272 66.818986 
L 357.35276 77.349143 
L 358.039247 84.253642 
L 358.725734 83.675588 
L 359.412221 75.26313 
L 360.785195 51.977632 
L 361.471683 48.33287 
L 362.15817 53.406247 
L 363.531144 75.935048 
L 364.217631 82.608891 
L 364.904118 82.104602 
L 365.590606 75.713457 
L 366.277093 67.130666 
L 366.96358 60.257911 
L 367.650067 57.473621 
L 368.336554 59.132922 
L 369.023041 64.066937 
L 370.396016 75.689937 
L 371.082503 77.973172 
L 371.76899 75.649872 
L 372.455477 68.721317 
L 373.828451 51.435112 
L 374.514939 49.011241 
L 375.201426 54.046336 
L 377.260887 87.20358 
L 377.947374 89.627761 
L 378.633862 85.020909 
L 380.006836 66.982013 
L 380.693323 60.44366 
L 381.37981 57.396463 
L 382.066297 56.747519 
L 382.752785 56.676407 
L 383.439272 56.020743 
L 384.125759 55.026174 
L 384.812246 55.076262 
L 385.498733 57.589277 
L 386.18522 62.752637 
L 386.871707 68.944409 
L 387.558195 73.392653 
L 388.244682 73.875269 
L 388.931169 70.44387 
L 389.617656 65.878518 
L 390.304143 64.244076 
L 390.99063 68.246854 
L 392.363605 86.855919 
L 393.050092 92.330386 
L 393.736579 90.746849 
L 394.423066 83.109769 
L 395.796041 64.559805 
L 396.482528 58.432445 
L 398.541989 43.627485 
L 399.228476 42.324953 
L 399.914963 47.332528 
L 401.287938 70.693991 
L 401.974425 77.996784 
L 402.660912 76.228601 
L 404.033886 57.281232 
L 404.720374 54.582972 
L 405.406861 62.430454 
L 406.779835 91.748831 
L 407.466322 96.946811 
L 408.152809 89.999858 
L 409.525784 58.117738 
L 410.212271 48.728061 
L 410.898758 49.72345 
L 411.585245 59.187054 
L 412.271732 71.63934 
L 412.958219 81.320263 
L 413.644707 84.877249 
L 414.331194 82.188577 
L 415.017681 75.393496 
L 416.390655 59.425883 
L 417.077142 52.968203 
L 417.76363 48.007944 
L 418.450117 44.865375 
L 419.136604 44.317768 
L 419.823091 47.363566 
L 420.509578 54.573455 
L 421.882553 77.94018 
L 422.56904 89.037962 
L 423.255527 95.292585 
L 423.942014 94.201487 
L 424.628501 85.373518 
L 426.001476 56.416161 
L 426.687963 46.729484 
L 427.37445 46.318947 
L 428.060937 55.723675 
L 429.433911 84.862847 
L 430.120398 90.202089 
L 430.806886 83.553595 
L 432.17986 49.875296 
L 432.866347 39.866257 
L 433.552834 43.083768 
L 434.239321 58.238594 
L 434.925809 77.668345 
L 435.612296 91.583854 
L 436.298783 93.585822 
L 436.98527 84.068952 
L 437.671757 69.41243 
L 438.358244 57.608917 
L 439.044732 53.34518 
L 439.731219 55.815464 
L 440.417706 60.48418 
L 441.104193 63.117622 
L 441.79068 62.850652 
L 442.477167 62.026029 
L 443.163654 63.260754 
L 443.850142 66.475081 
L 444.536629 68.606256 
L 445.223116 66.406473 
L 446.59609 53.899796 
L 447.282577 54.410328 
L 447.969065 64.676418 
L 449.342039 96.674904 
L 450.028526 101.577422 
L 450.715013 93.137729 
L 452.087988 58.421643 
L 452.774475 49.305588 
L 453.460962 50.881522 
L 454.833936 68.574502 
L 455.520423 73.241227 
L 456.206911 72.464167 
L 456.893398 68.278064 
L 458.266372 58.332525 
L 458.952859 54.012463 
L 459.639346 51.121643 
L 460.325833 51.859802 
L 461.012321 58.228928 
L 462.385295 80.970839 
L 463.071782 86.268662 
L 463.758269 81.419734 
L 465.131244 55.049283 
L 465.817731 49.90296 
L 466.504218 56.959637 
L 467.877192 86.850324 
L 468.563679 91.362213 
L 469.250167 83.127213 
L 470.623141 52.177084 
L 471.309628 46.138578 
L 471.996115 50.684071 
L 473.369089 72.878425 
L 474.055577 79.470075 
L 474.742064 80.765762 
L 475.428551 78.948281 
L 477.488012 71.964824 
L 478.1745 67.579741 
L 479.547474 54.614992 
L 480.233961 50.039263 
L 480.920448 49.421177 
L 481.606935 53.012472 
L 483.666397 70.982331 
L 484.352884 73.328839 
L 485.039371 73.57676 
L 486.412346 72.478542 
L 487.098833 71.960826 
L 487.78532 70.389355 
L 488.471807 66.861143 
L 489.158294 61.862668 
L 489.844781 57.689086 
L 490.531268 57.425634 
L 491.217756 62.919506 
L 492.59073 83.791668 
L 493.277217 89.975234 
L 493.963704 88.391104 
L 494.650191 79.663073 
L 495.336679 67.960451 
L 496.023166 58.533843 
L 496.709653 54.6886 
L 497.39614 56.172282 
L 498.082627 59.955493 
L 498.769114 62.706662 
L 499.455602 63.105212 
L 500.142089 62.342182 
L 500.828576 62.572939 
L 501.515063 64.664848 
L 502.20155 67.132893 
L 502.888037 67.231889 
L 503.574524 63.439425 
L 504.261012 57.339785 
L 504.947499 53.204837 
L 505.633986 55.24925 
L 506.320473 64.40202 
L 507.00696 77.037212 
L 507.693447 86.868091 
L 508.379935 88.932633 
L 509.066422 82.942466 
L 509.752909 73.53075 
L 510.439396 67.047777 
L 511.125883 67.053883 
L 511.81237 71.718769 
L 512.498858 75.104089 
L 513.185345 71.577496 
L 513.871832 60.300018 
L 514.558319 46.527116 
L 515.244806 38.590702 
L 515.931293 42.448419 
L 516.617781 57.483112 
L 517.304268 76.502213 
L 517.990755 90.06833 
L 518.677242 92.313499 
L 519.363729 84.333849 
L 520.050216 72.905374 
L 520.736703 65.494657 
L 521.423191 65.105141 
L 522.109678 68.576971 
L 522.796165 69.469359 
L 523.482652 63.360055 
L 524.855626 41.116179 
L 525.542114 39.307706 
L 526.228601 49.30554 
L 527.601575 84.712576 
L 528.288062 93.583411 
L 528.974549 91.042882 
L 530.347524 68.855957 
L 531.034011 61.994704 
L 531.720498 61.780208 
L 533.093472 70.646838 
L 533.779959 72.667701 
L 534.466447 71.076553 
L 535.152934 66.611729 
L 536.525908 55.132428 
L 537.212395 51.717422 
L 537.898882 52.484134 
L 538.58537 58.490263 
L 539.958344 78.599616 
L 540.644831 83.771043 
L 541.331318 80.944201 
L 542.704293 61.065846 
L 543.39078 56.335013 
L 544.077267 60.526727 
L 545.450241 80.322795 
L 546.136728 81.909973 
L 546.823215 74.059505 
L 547.509703 61.786863 
L 548.19619 53.465691 
L 548.882677 54.990459 
L 550.255651 77.578079 
L 550.942138 82.467533 
L 551.628626 75.820294 
L 553.0016 46.332749 
L 553.688087 40.709989 
L 554.374574 47.031241 
L 555.747549 75.994696 
L 556.434036 84.243974 
L 557.120523 84.305334 
L 558.493497 73.149586 
L 559.179984 69.490175 
L 560.552959 66.72764 
L 561.239446 64.233551 
L 561.925933 61.010527 
L 562.61242 59.048252 
L 563.298907 60.083917 
L 563.985394 64.113653 
L 564.671882 69.327727 
L 565.358369 73.392416 
L 566.044856 74.963727 
L 566.731343 74.266811 
L 568.104317 70.384332 
L 568.790805 68.111055 
L 570.850266 59.462985 
L 571.536753 60.015504 
L 572.22324 64.644423 
L 573.596215 79.108682 
L 574.282702 81.154827 
L 574.969189 75.809704 
L 577.02865 41.290975 
L 577.715138 40.261089 
L 578.401625 47.999763 
L 579.774599 73.446746 
L 580.461086 80.574508 
L 581.147573 80.451864 
L 581.834061 74.918038 
L 582.520548 68.396175 
L 583.207035 65.597048 
L 583.893522 69.147641 
L 585.266496 88.575265 
L 585.952984 94.716413 
L 586.639471 92.342217 
L 587.325958 80.978246 
L 588.698932 50.788936 
L 589.385419 45.665385 
L 590.071907 51.666578 
L 591.444881 77.519873 
L 592.131368 80.788401 
L 592.817855 71.180129 
L 594.190829 32.464732 
L 594.877317 21.802316 
L 595.563804 25.258833 
L 596.250291 41.111568 
L 597.623265 80.994387 
L 598.309752 92.240157 
L 598.99624 95.974575 
L 599.682727 95.122896 
L 600.369214 92.562661 
L 601.055701 89.064315 
L 601.742188 83.625712 
L 603.80165 58.858453 
L 604.488137 56.695106 
L 605.174624 60.273604 
L 605.861111 66.926233 
L 606.547598 72.378607 
L 607.234085 73.564727 
L 607.920573 70.518125 
L 608.60706 65.949251 
L 609.293547 62.905376 
L 609.980034 62.377161 
L 610.666521 62.724682 
L 611.353008 61.343498 
L 612.039496 57.209075 
L 612.725983 52.210477 
L 613.41247 50.085963 
L 614.098957 53.630037 
L 615.471931 71.77096 
L 616.158419 76.948531 
L 616.844906 74.899168 
L 618.21788 59.296929 
L 618.904367 56.812202 
L 619.590854 62.350864 
L 620.963829 85.049725 
L 621.650316 90.710033 
L 622.336803 87.95043 
L 623.02329 78.323419 
L 623.709777 66.3359 
L 624.396264 56.867503 
L 625.082752 53.00764 
L 625.769239 55.347295 
L 626.455726 62.545725 
L 627.8287 81.534002 
L 628.515187 87.28202 
L 629.201675 86.632297 
L 629.888162 78.364157 
L 631.261136 49.457232 
L 631.947623 40.304663 
L 632.63411 41.273908 
L 633.320598 51.904541 
L 634.007085 66.504427 
L 634.693572 77.057106 
L 635.380059 77.818674 
L 636.066546 68.743651 
L 636.753033 55.505781 
L 637.43952 46.089077 
L 638.126008 46.158822 
L 638.812495 56.099202 
L 640.185469 85.212595 
L 640.871956 92.649606 
L 641.558443 91.957903 
L 642.244931 84.763204 
L 643.617905 64.624111 
L 644.304392 57.978544 
L 644.990879 56.042198 
L 645.677366 58.877334 
L 647.050341 71.611293 
L 647.736828 75.807225 
L 648.423315 75.824222 
L 649.109802 72.135209 
L 649.796289 67.240068 
L 650.482777 64.23704 
L 651.169264 64.978197 
L 651.855751 68.957549 
L 652.542238 73.607906 
L 653.228725 75.767169 
L 653.915212 73.382483 
L 654.601699 66.496123 
L 655.974674 48.241802 
L 656.661161 42.662388 
L 657.347648 42.038958 
L 658.034135 46.510742 
L 658.720622 54.814588 
L 660.093597 74.252659 
L 660.780084 81.468315 
L 661.466571 85.71282 
L 662.153058 86.965011 
L 662.839545 85.439288 
L 663.526033 81.290519 
L 664.21252 74.872247 
L 665.585494 61.050836 
L 666.271981 58.62526 
L 666.958468 61.551174 
L 668.331443 75.701138 
L 669.01793 78.134073 
L 669.704417 73.312394 
L 671.077391 52.651593 
L 671.763878 48.505065 
L 672.450366 53.48514 
L 673.82334 77.576163 
L 674.509827 83.888414 
L 675.196314 81.448686 
L 676.569289 63.195661 
L 677.255776 58.301864 
L 677.942263 59.544679 
L 678.62875 64.282672 
L 679.315237 67.81275 
L 680.001724 66.631356 
L 680.688211 60.653444 
L 681.374699 53.134724 
L 682.061186 48.595011 
L 682.747673 50.179008 
L 683.43416 57.995297 
L 684.807134 79.481708 
L 685.493622 85.226503 
L 686.180109 85.001795 
L 686.866596 80.070904 
L 687.553083 73.611048 
L 688.23957 69.088663 
L 688.926057 68.521853 
L 689.612545 71.470794 
L 690.299032 75.323564 
L 690.985519 76.814625 
L 691.672006 73.998445 
L 693.04498 60.493562 
L 693.731468 56.589032 
L 694.417955 58.006116 
L 695.104442 63.941608 
L 695.790929 70.87661 
L 696.477416 74.438131 
L 697.163903 71.821574 
L 697.85039 63.422527 
L 698.536878 52.782977 
L 699.223365 44.886068 
L 699.909852 43.697595 
L 700.596339 50.205696 
L 701.969313 74.039229 
L 702.655801 81.727918 
L 703.342288 82.360463 
L 704.028775 76.704964 
L 704.715262 68.455517 
L 705.401749 62.34811 
L 706.088236 61.782928 
L 706.774724 67.143942 
L 708.147698 82.97326 
L 708.834185 85.290117 
L 709.520672 81.403155 
L 711.580134 57.565145 
L 712.266621 55.892729 
L 712.953108 58.620013 
L 714.326082 68.976451 
L 715.012569 71.973651 
L 715.699057 71.581992 
L 716.385544 67.788704 
L 717.758518 56.753625 
L 718.445005 55.098145 
L 719.131492 58.747906 
L 720.504467 75.131342 
L 721.190954 78.968022 
L 721.877441 75.129343 
L 723.250415 53.282507 
L 723.936903 47.168089 
L 724.62339 50.27044 
L 725.309877 61.270519 
L 725.996364 74.572898 
L 726.682851 83.846989 
L 727.369338 85.781873 
L 728.055825 81.532308 
L 728.742313 75.12488 
L 729.4288 70.324573 
L 730.115287 68.403876 
L 730.801774 68.251428 
L 731.488261 68.229677 
L 732.174748 67.85553 
L 732.861236 67.802811 
L 733.547723 68.451706 
L 734.23421 68.664143 
L 734.920697 66.316542 
L 735.607184 60.451903 
L 736.293671 53.179408 
L 736.980159 49.263291 
L 737.666646 53.062271 
L 738.353133 64.811643 
L 739.03962 79.225463 
L 739.726107 88.026868 
L 740.412594 85.145477 
L 741.099081 71.105533 
L 741.785569 53.365565 
L 742.472056 42.053983 
L 743.158543 43.78396 
L 743.84503 57.643381 
L 744.531517 75.976577 
L 745.218004 89.276004 
L 745.904492 91.782354 
L 746.590979 84.165818 
L 747.963953 61.350365 
L 748.65044 55.66148 
L 749.336927 54.498243 
L 750.023415 55.689983 
L 750.709902 57.785684 
L 751.396389 61.021844 
L 752.082876 66.238474 
L 753.45585 79.214369 
L 754.142338 81.745601 
L 754.828825 79.231275 
L 756.201799 67.080737 
L 756.888286 64.547014 
L 757.574773 66.492524 
L 758.26126 70.755963 
L 758.947748 73.534712 
L 759.634235 71.89476 
L 760.320722 65.593492 
L 761.007209 57.108334 
L 761.693696 50.05476 
L 762.380183 47.17964 
L 763.066671 49.18878 
L 763.753158 54.907916 
L 765.126132 69.728961 
L 765.812619 75.990884 
L 766.499106 80.485973 
L 767.185594 82.615068 
L 767.872081 81.742603 
L 768.558568 77.585523 
L 770.618029 56.889952 
L 771.304516 54.60158 
L 771.991004 57.190352 
L 772.677491 63.803162 
L 773.363978 71.908717 
L 774.050465 78.29187 
L 774.736952 80.454008 
L 775.423439 77.782544 
L 776.796414 65.865796 
L 777.482901 62.73685 
L 778.169388 63.877389 
L 779.542362 72.971261 
L 780.22885 74.886548 
L 780.915337 72.376438 
L 782.974798 54.201618 
L 783.661285 52.924768 
L 784.347773 54.789251 
L 785.03426 57.665019 
L 785.720747 59.377471 
L 786.407234 59.17515 
L 787.093721 58.210377 
L 787.780208 58.742524 
L 788.466695 62.571311 
L 789.153183 69.687435 
L 789.83967 78.010157 
L 790.526157 84.430532 
L 791.212644 86.567128 
L 791.899131 84.155538 
L 793.272106 74.513152 
L 793.958593 72.189848 
L 794.64508 72.039808 
L 795.331567 72.083764 
L 796.018054 70.188044 
L 797.391029 61.023744 
L 798.077516 58.474777 
L 798.764003 60.027481 
L 800.136977 69.318267 
L 800.823464 70.209762 
L 801.509951 66.222892 
L 802.196439 59.49509 
L 802.882926 54.133223 
L 803.569413 53.362291 
L 804.2559 57.245267 
L 804.942387 62.674276 
L 805.628874 65.6719 
L 806.315362 64.308153 
L 807.001849 60.069751 
L 807.688336 56.697831 
L 808.374823 57.436915 
L 809.06131 62.811042 
L 810.434285 77.551008 
L 811.120772 82.158673 
L 812.493746 87.397519 
L 813.180233 89.987229 
L 813.86672 91.115339 
L 814.553208 88.22878 
L 815.239695 80.049702 
L 815.926182 68.10508 
L 815.926182 68.10508 
" style="fill:none;stroke:#1f77b4;stroke-linecap:square;stroke-width:1.5;"/>
   </g>
   <g id="patch_3">
    <path d="M 78.536 105.7973 
L 78.536 12.96 
" style="fill:none;stroke:#000000;stroke-linecap:square;stroke-linejoin:miter;stroke-width:0.8;"/>
   </g>
   <g id="patch_4">
    <path d="M 851.04 105.7973 
L 851.04 12.96 
" style="fill:none;stroke:#000000;stroke-linecap:square;stroke-linejoin:miter;stroke-width:0.8;"/>
   </g>
   <g id="patch_5">
    <path d="M 78.536 105.7973 
L 851.04 105.7973 
" style="fill:none;stroke:#000000;stroke-linecap:square;stroke-linejoin:miter;stroke-width:0.8;"/>
   </g>
   <g id="patch_6">
    <path d="M 78.536 12.96 
L 851.04 12.96 
" style="fill:none;stroke:#000000;stroke-linecap:square;stroke-linejoin:miter;stroke-width:0.8;"/>
   </g>
  </g>
  <g id="axes_2">
   <g id="patch_7">
    <path d="M 78.536 216.43865 
L 851.04 216.43865 
L 851.04 123.60135 
L 78.536 123.60135 
z
" style="fill:#ffffff;"/>
   </g>
   <g id="matplotlib.axis_3">
    <g id="xtick_7">
     <g id="line2d_10">
      <g>
       <use style="stroke:#000000;stroke-width:0.8;" x="113.649818" xlink:href="#ma91dd140ac" y="216.43865"/>
      </g>
     </g>
    </g>
    <g id="xtick_8">
     <g id="line2d_11">
      <g>
       <use style="stroke:#000000;stroke-width:0.8;" x="250.94725" xlink:href="#ma91dd140ac" y="216.43865"/>
      </g>
     </g>
    </g>
    <g id="xtick_9">
     <g id="line2d_12">
      <g>
       <use style="stroke:#000000;stroke-width:0.8;" x="388.244682" xlink:href="#ma91dd140ac" y="216.43865"/>
      </g>
     </g>
    </g>
    <g id="xtick_10">
     <g id="line2d_13">
      <g>
       <use style="stroke:#000000;stroke-width:0.8;" x="525.542114" xlink:href="#ma91dd140ac" y="216.43865"/>
      </g>
     </g>
    </g>
    <g id="xtick_11">
     <g id="line2d_14">
      <g>
       <use style="stroke:#000000;stroke-width:0.8;" x="662.839545" xlink:href="#ma91dd140ac" y="216.43865"/>
      </g>
     </g>
    </g>
    <g id="xtick_12">
     <g id="line2d_15">
      <g>
       <use style="stroke:#000000;stroke-width:0.8;" x="800.136977" xlink:href="#ma91dd140ac" y="216.43865"/>
      </g>
     </g>
    </g>
   </g>
   <g id="matplotlib.axis_4">
    <g id="ytick_3">
     <g id="line2d_16">
      <g>
       <use style="stroke:#000000;stroke-width:0.8;" x="78.536" xlink:href="#m95a580ce7f" y="177.793783"/>
      </g>
     </g>
     <g id="text_4">
      <!-- 0.00 -->
      <g transform="translate(44.81725 182.352845)scale(0.12 -0.12)">
       <use xlink:href="#DejaVuSans-48"/>
       <use x="63.623047" xlink:href="#DejaVuSans-46"/>
       <use x="95.410156" xlink:href="#DejaVuSans-48"/>
       <use x="159.033203" xlink:href="#DejaVuSans-48"/>
      </g>
     </g>
    </g>
    <g id="ytick_4">
     <g id="line2d_17">
      <g>
       <use style="stroke:#000000;stroke-width:0.8;" x="78.536" xlink:href="#m95a580ce7f" y="136.578958"/>
      </g>
     </g>
     <g id="text_5">
      <!-- 0.01 -->
      <g transform="translate(44.81725 141.13802)scale(0.12 -0.12)">
       <use xlink:href="#DejaVuSans-48"/>
       <use x="63.623047" xlink:href="#DejaVuSans-46"/>
       <use x="95.410156" xlink:href="#DejaVuSans-48"/>
       <use x="159.033203" xlink:href="#DejaVuSans-49"/>
      </g>
     </g>
    </g>
    <g id="text_6">
     <!-- Inversed -->
     <g transform="translate(24.88425 195.92875)rotate(-90)scale(0.12 -0.12)">
      <defs>
       <path d="M 9.8125 72.90625 
L 19.671875 72.90625 
L 19.671875 0 
L 9.8125 0 
z
" id="DejaVuSans-73"/>
       <path d="M 2.984375 54.6875 
L 12.5 54.6875 
L 29.59375 8.796875 
L 46.6875 54.6875 
L 56.203125 54.6875 
L 35.6875 0 
L 23.484375 0 
z
" id="DejaVuSans-118"/>
       <path d="M 45.40625 46.390625 
L 45.40625 75.984375 
L 54.390625 75.984375 
L 54.390625 0 
L 45.40625 0 
L 45.40625 8.203125 
Q 42.578125 3.328125 38.25 0.953125 
Q 33.9375 -1.421875 27.875 -1.421875 
Q 17.96875 -1.421875 11.734375 6.484375 
Q 5.515625 14.40625 5.515625 27.296875 
Q 5.515625 40.1875 11.734375 48.09375 
Q 17.96875 56 27.875 56 
Q 33.9375 56 38.25 53.625 
Q 42.578125 51.265625 45.40625 46.390625 
z
M 14.796875 27.296875 
Q 14.796875 17.390625 18.875 11.75 
Q 22.953125 6.109375 30.078125 6.109375 
Q 37.203125 6.109375 41.296875 11.75 
Q 45.40625 17.390625 45.40625 27.296875 
Q 45.40625 37.203125 41.296875 42.84375 
Q 37.203125 48.484375 30.078125 48.484375 
Q 22.953125 48.484375 18.875 42.84375 
Q 14.796875 37.203125 14.796875 27.296875 
z
" id="DejaVuSans-100"/>
      </defs>
      <use xlink:href="#DejaVuSans-73"/>
      <use x="29.492188" xlink:href="#DejaVuSans-110"/>
      <use x="92.871094" xlink:href="#DejaVuSans-118"/>
      <use x="152.050781" xlink:href="#DejaVuSans-101"/>
      <use x="213.574219" xlink:href="#DejaVuSans-114"/>
      <use x="254.6875" xlink:href="#DejaVuSans-115"/>
      <use x="306.787109" xlink:href="#DejaVuSans-101"/>
      <use x="368.310547" xlink:href="#DejaVuSans-100"/>
     </g>
     <!-- preprocessing -->
     <g transform="translate(38.321625 212.185)rotate(-90)scale(0.12 -0.12)">
      <use xlink:href="#DejaVuSans-112"/>
      <use x="63.476562" xlink:href="#DejaVuSans-114"/>
      <use x="102.339844" xlink:href="#DejaVuSans-101"/>
      <use x="163.863281" xlink:href="#DejaVuSans-112"/>
      <use x="227.339844" xlink:href="#DejaVuSans-114"/>
      <use x="266.203125" xlink:href="#DejaVuSans-111"/>
      <use x="327.384766" xlink:href="#DejaVuSans-99"/>
      <use x="382.365234" xlink:href="#DejaVuSans-101"/>
      <use x="443.888672" xlink:href="#DejaVuSans-115"/>
      <use x="495.988281" xlink:href="#DejaVuSans-115"/>
      <use x="548.087891" xlink:href="#DejaVuSans-105"/>
      <use x="575.871094" xlink:href="#DejaVuSans-110"/>
      <use x="639.25" xlink:href="#DejaVuSans-103"/>
     </g>
    </g>
   </g>
   <g id="line2d_18">
    <path clip-path="url(#p599d37f5da)" d="M 113.649818 177.852821 
L 115.022792 141.268634 
L 115.70928 130.316791 
L 116.395767 127.821227 
L 117.082254 134.5948 
L 117.768741 148.621936 
L 118.455228 165.284871 
L 119.141715 179.203474 
L 119.828203 186.788713 
L 120.51469 187.93207 
L 121.201177 185.696941 
L 121.887664 184.186488 
L 122.574151 185.992491 
L 123.947126 196.354733 
L 124.633613 199.679272 
L 125.3201 199.498408 
L 126.006587 196.300981 
L 127.379561 185.967966 
L 128.066049 179.79516 
L 130.12551 156.834612 
L 130.811997 152.021495 
L 131.498484 151.739973 
L 132.184971 156.383518 
L 132.871459 164.813509 
L 134.244433 184.887653 
L 134.93092 192.73884 
L 135.617407 197.184073 
L 136.303894 197.161448 
L 136.990382 192.320507 
L 139.049843 166.517938 
L 139.73633 164.210995 
L 140.422817 167.365482 
L 141.795792 179.7459 
L 142.482279 182.855492 
L 143.168766 182.898219 
L 143.855253 181.885875 
L 144.54174 182.15828 
L 145.228227 184.417579 
L 145.914715 187.160471 
L 146.601202 187.936014 
L 147.287689 185.398394 
L 148.660663 175.71003 
L 149.34715 173.219068 
L 150.033638 173.028202 
L 150.720125 173.047573 
L 151.406612 170.828442 
L 152.093099 165.716274 
L 152.779586 159.703915 
L 153.466073 156.278379 
L 154.152561 158.094955 
L 154.839048 165.191057 
L 156.212022 184.111774 
L 156.898509 190.267418 
L 157.584996 193.393507 
L 158.271484 194.860836 
L 158.957971 195.895337 
L 159.644458 196.426661 
L 160.330945 195.247822 
L 161.017432 191.253522 
L 163.076894 171.921331 
L 163.763381 169.824537 
L 164.449868 170.957482 
L 165.136355 173.544246 
L 165.822842 175.36881 
L 166.509329 175.086278 
L 167.195817 172.855521 
L 167.882304 169.984817 
L 168.568791 167.93872 
L 169.255278 167.413791 
L 169.941765 168.062296 
L 170.628252 168.962765 
L 171.31474 169.442791 
L 172.001227 169.663961 
L 172.687714 170.577781 
L 173.374201 173.294246 
L 174.060688 178.276095 
L 175.433662 191.344287 
L 176.12015 195.686674 
L 176.806637 196.319544 
L 177.493124 192.903631 
L 178.866098 179.95636 
L 179.552585 175.709746 
L 180.239073 175.816786 
L 180.92556 180.110836 
L 181.612047 185.969326 
L 182.298534 189.28991 
L 182.985021 186.628108 
L 183.671508 177.439627 
L 184.357996 164.967689 
L 185.044483 154.886561 
L 185.73097 152.195658 
L 186.417457 158.175748 
L 187.790431 179.900969 
L 188.476919 184.479357 
L 189.163406 182.187277 
L 189.849893 176.473296 
L 190.53638 172.66709 
L 191.222867 174.328871 
L 191.909354 181.025195 
L 192.595841 188.938741 
L 193.282329 193.655563 
L 193.968816 193.010236 
L 194.655303 188.044954 
L 195.34179 181.702415 
L 196.028277 176.543634 
L 196.714764 173.299119 
L 198.087739 169.196854 
L 198.774226 167.602752 
L 199.460713 167.569611 
L 200.1472 170.144727 
L 202.206662 184.592113 
L 202.893149 185.856594 
L 203.579636 184.717669 
L 204.95261 180.72753 
L 205.639097 179.665614 
L 207.012072 178.479873 
L 207.698559 178.143938 
L 208.385046 178.73728 
L 209.071533 180.72744 
L 209.75802 183.552914 
L 210.444508 185.486149 
L 211.130995 184.412477 
L 211.817482 179.117573 
L 213.876943 153.50801 
L 214.563431 152.017897 
L 215.249918 156.953004 
L 217.309379 187.438488 
L 217.995866 192.750371 
L 218.682354 193.920745 
L 219.368841 192.629691 
L 220.055328 191.093558 
L 220.741815 190.68429 
L 221.428302 191.140548 
L 222.114789 190.809427 
L 222.801276 187.792464 
L 223.487764 181.353717 
L 224.860738 164.933281 
L 225.547225 161.098512 
L 226.233712 162.933065 
L 226.920199 169.494522 
L 227.606687 177.550746 
L 228.293174 183.283339 
L 228.979661 184.39474 
L 229.666148 181.311153 
L 230.352635 176.68739 
L 231.039122 173.525346 
L 231.72561 173.17889 
L 232.412097 174.623929 
L 233.098584 175.485217 
L 233.785071 174.032366 
L 235.158045 167.538683 
L 235.844532 167.209706 
L 236.53102 170.433077 
L 237.903994 180.806192 
L 238.590481 183.979002 
L 239.276968 185.77931 
L 239.963455 187.961782 
L 241.33643 195.592768 
L 242.022917 197.03664 
L 242.709404 193.418559 
L 244.768866 168.712608 
L 245.455353 168.584992 
L 246.828327 179.068167 
L 247.514814 180.20928 
L 248.201301 175.203795 
L 248.887789 166.661647 
L 249.574276 159.817752 
L 250.260763 158.956549 
L 250.94725 164.552633 
L 251.633737 173.09461 
L 252.320224 179.615824 
L 253.006711 181.060113 
L 253.693199 178.116254 
L 254.379686 174.352845 
L 255.066173 173.441615 
L 255.75266 176.543681 
L 256.439147 181.680307 
L 257.125634 185.394291 
L 257.812122 185.381616 
L 259.185096 178.796967 
L 259.871583 178.593478 
L 260.55807 182.997113 
L 261.931045 197.452413 
L 262.617532 200.222113 
L 263.304019 196.985237 
L 263.990506 188.531491 
L 265.36348 167.559645 
L 266.049967 160.815365 
L 266.736455 158.288378 
L 267.422942 159.34782 
L 269.482403 168.658788 
L 271.541865 174.468977 
L 272.914839 179.274067 
L 273.601326 180.349009 
L 274.287813 180.102383 
L 274.974301 179.655722 
L 275.660788 180.869375 
L 276.347275 184.924901 
L 277.033762 190.972678 
L 277.720249 196.011927 
L 278.406736 196.447052 
L 279.093223 190.52036 
L 280.466198 169.515951 
L 281.152685 164.244604 
L 281.839172 166.35521 
L 283.212146 180.483876 
L 283.898634 182.040048 
L 284.585121 177.131786 
L 285.271608 169.566215 
L 285.958095 165.692692 
L 286.644582 170.059338 
L 288.017557 195.454695 
L 288.704044 202.576545 
L 289.390531 198.441475 
L 290.077018 184.218055 
L 290.763505 166.476939 
L 291.449992 153.244952 
L 292.13648 149.431167 
L 292.822967 154.560074 
L 294.195941 172.716021 
L 294.882428 178.117255 
L 296.255402 184.171036 
L 297.628377 192.202544 
L 298.314864 192.854772 
L 299.001351 188.466087 
L 300.374325 172.491404 
L 301.060813 169.79714 
L 301.7473 174.503141 
L 303.120274 195.227713 
L 303.806761 199.76892 
L 304.493248 194.671232 
L 305.179736 180.752532 
L 305.866223 163.252845 
L 306.55271 149.520219 
L 307.239197 145.5294 
L 307.925684 152.897247 
L 309.298658 183.637376 
L 309.985146 193.102275 
L 310.671633 193.528386 
L 312.044607 180.532139 
L 312.731094 178.176857 
L 313.417581 181.392294 
L 314.104069 186.583527 
L 314.790556 188.323196 
L 315.477043 183.529952 
L 316.850017 164.991009 
L 317.536504 161.996739 
L 318.222992 166.289909 
L 318.909479 174.308082 
L 319.595966 180.180096 
L 320.282453 179.912251 
L 321.655427 167.533919 
L 322.341915 165.550536 
L 323.028402 170.777776 
L 324.401376 192.886552 
L 325.087863 200.156663 
L 325.77435 200.749804 
L 326.460837 195.154109 
L 327.833812 176.375536 
L 328.520299 169.101478 
L 329.206786 165.7957 
L 329.893273 166.830157 
L 330.57976 171.177139 
L 331.266248 176.64229 
L 331.952735 180.713699 
L 332.639222 181.801679 
L 333.325709 180.080109 
L 334.012196 177.189691 
L 334.698683 174.882159 
L 336.071658 172.45738 
L 336.758145 170.150551 
L 337.444632 167.048951 
L 338.131119 165.565543 
L 338.817606 168.746627 
L 339.504093 177.647664 
L 340.190581 189.546079 
L 340.877068 198.67517 
L 341.563555 199.423009 
L 342.250042 190.047458 
L 343.623016 160.042695 
L 344.309504 154.468289 
L 344.995991 160.5566 
L 346.368965 191.065715 
L 347.055452 200.779719 
L 347.741939 200.636558 
L 348.428427 192.124381 
L 349.114914 180.477707 
L 349.801401 171.473351 
L 350.487888 168.408055 
L 351.174375 170.821896 
L 351.860862 175.370272 
L 352.54735 178.082597 
L 353.233837 176.675902 
L 354.606811 166.426299 
L 355.293298 164.514368 
L 355.979785 168.403676 
L 356.666272 177.460336 
L 357.35276 187.990493 
L 358.039247 194.894992 
L 358.725734 194.316939 
L 359.412221 185.90448 
L 360.785195 162.618982 
L 361.471683 158.97422 
L 362.15817 164.047597 
L 363.531144 186.576398 
L 364.217631 193.250241 
L 364.904118 192.745953 
L 365.590606 186.354807 
L 366.277093 177.772016 
L 366.96358 170.899262 
L 367.650067 168.114971 
L 368.336554 169.774272 
L 369.023041 174.708288 
L 370.396016 186.331288 
L 371.082503 188.614522 
L 371.76899 186.291222 
L 372.455477 179.362667 
L 373.828451 162.076463 
L 374.514939 159.652591 
L 375.201426 164.687687 
L 377.260887 197.84493 
L 377.947374 200.269111 
L 378.633862 195.662259 
L 380.006836 177.623363 
L 380.693323 171.08501 
L 381.37981 168.037814 
L 382.066297 167.388869 
L 382.752785 167.317758 
L 383.439272 166.662093 
L 384.125759 165.667524 
L 384.812246 165.717612 
L 385.498733 168.230627 
L 386.18522 173.393988 
L 386.871707 179.585759 
L 387.558195 184.034003 
L 388.244682 184.516619 
L 388.931169 181.08522 
L 389.617656 176.519869 
L 390.304143 174.885427 
L 390.99063 178.888204 
L 392.363605 197.497269 
L 393.050092 202.971736 
L 393.736579 201.388199 
L 394.423066 193.751119 
L 395.796041 175.201155 
L 396.482528 169.073795 
L 398.541989 154.268835 
L 399.228476 152.966303 
L 399.914963 157.973878 
L 401.287938 181.335341 
L 401.974425 188.638134 
L 402.660912 186.869951 
L 404.033886 167.922582 
L 404.720374 165.224322 
L 405.406861 173.071804 
L 406.779835 202.390181 
L 407.466322 207.588161 
L 408.152809 200.641208 
L 409.525784 168.759088 
L 410.212271 159.369411 
L 410.898758 160.3648 
L 411.585245 169.828404 
L 412.271732 182.28069 
L 412.958219 191.961613 
L 413.644707 195.518599 
L 414.331194 192.829927 
L 415.017681 186.034847 
L 416.390655 170.067233 
L 417.077142 163.609553 
L 417.76363 158.649294 
L 418.450117 155.506725 
L 419.136604 154.959119 
L 419.823091 158.004916 
L 420.509578 165.214805 
L 421.882553 188.581531 
L 422.56904 199.679312 
L 423.255527 205.933935 
L 423.942014 204.842837 
L 424.628501 196.014868 
L 426.001476 167.057511 
L 426.687963 157.370834 
L 427.37445 156.960297 
L 428.060937 166.365025 
L 429.433911 195.504197 
L 430.120398 200.843439 
L 430.806886 194.194945 
L 432.17986 160.516646 
L 432.866347 150.507607 
L 433.552834 153.725119 
L 434.239321 168.879944 
L 434.925809 188.309695 
L 435.612296 202.225204 
L 436.298783 204.227173 
L 436.98527 194.710302 
L 437.671757 180.05378 
L 438.358244 168.250267 
L 439.044732 163.98653 
L 439.731219 166.456814 
L 440.417706 171.12553 
L 441.104193 173.758972 
L 441.79068 173.492002 
L 442.477167 172.667379 
L 443.163654 173.902104 
L 443.850142 177.116432 
L 444.536629 179.247606 
L 445.223116 177.047823 
L 446.59609 164.541146 
L 447.282577 165.051678 
L 447.969065 175.317768 
L 449.342039 207.316254 
L 450.028526 212.218773 
L 450.715013 203.779079 
L 452.087988 169.062993 
L 452.774475 159.946938 
L 453.460962 161.522872 
L 454.833936 179.215852 
L 455.520423 183.882577 
L 456.206911 183.105517 
L 456.893398 178.919414 
L 458.266372 168.973875 
L 458.952859 164.653813 
L 459.639346 161.762993 
L 460.325833 162.501152 
L 461.012321 168.870278 
L 462.385295 191.612189 
L 463.071782 196.910012 
L 463.758269 192.061084 
L 465.131244 165.690633 
L 465.817731 160.54431 
L 466.504218 167.600987 
L 467.877192 197.491674 
L 468.563679 202.003563 
L 469.250167 193.768563 
L 470.623141 162.818434 
L 471.309628 156.779928 
L 471.996115 161.325422 
L 473.369089 183.519775 
L 474.055577 190.111425 
L 474.742064 191.407112 
L 475.428551 189.589631 
L 477.488012 182.606174 
L 478.1745 178.221091 
L 479.547474 165.256342 
L 480.233961 160.680613 
L 480.920448 160.062528 
L 481.606935 163.653822 
L 483.666397 181.623681 
L 484.352884 183.970189 
L 485.039371 184.21811 
L 486.412346 183.119892 
L 487.098833 182.602177 
L 487.78532 181.030705 
L 488.471807 177.502493 
L 489.158294 172.504018 
L 489.844781 168.330436 
L 490.531268 168.066984 
L 491.217756 173.560856 
L 492.59073 194.433018 
L 493.277217 200.616585 
L 493.963704 199.032454 
L 494.650191 190.304423 
L 495.336679 178.601801 
L 496.023166 169.175193 
L 496.709653 165.32995 
L 497.39614 166.813632 
L 498.082627 170.596843 
L 498.769114 173.348013 
L 499.455602 173.746562 
L 500.142089 172.983532 
L 500.828576 173.214289 
L 501.515063 175.306198 
L 502.20155 177.774243 
L 502.888037 177.873239 
L 503.574524 174.080775 
L 504.261012 167.981135 
L 504.947499 163.846187 
L 505.633986 165.8906 
L 506.320473 175.04337 
L 507.00696 187.678562 
L 507.693447 197.509441 
L 508.379935 199.573983 
L 509.066422 193.583816 
L 509.752909 184.1721 
L 510.439396 177.689127 
L 511.125883 177.695233 
L 511.81237 182.360119 
L 512.498858 185.74544 
L 513.185345 182.218846 
L 513.871832 170.941368 
L 514.558319 157.168467 
L 515.244806 149.232052 
L 515.931293 153.089769 
L 516.617781 168.124462 
L 517.304268 187.143563 
L 517.990755 200.70968 
L 518.677242 202.954849 
L 519.363729 194.975199 
L 520.050216 183.546724 
L 520.736703 176.136007 
L 521.423191 175.746492 
L 522.109678 179.218321 
L 522.796165 180.11071 
L 523.482652 174.001405 
L 524.855626 151.757529 
L 525.542114 149.949056 
L 526.228601 159.94689 
L 527.601575 195.353926 
L 528.288062 204.224761 
L 528.974549 201.684232 
L 530.347524 179.497307 
L 531.034011 172.636054 
L 531.720498 172.421558 
L 533.093472 181.288188 
L 533.779959 183.309051 
L 534.466447 181.717904 
L 535.152934 177.253079 
L 536.525908 165.773778 
L 537.212395 162.358773 
L 537.898882 163.125484 
L 538.58537 169.131613 
L 539.958344 189.240966 
L 540.644831 194.412393 
L 541.331318 191.585551 
L 542.704293 171.707196 
L 543.39078 166.976363 
L 544.077267 171.168077 
L 545.450241 190.964145 
L 546.136728 192.551323 
L 546.823215 184.700855 
L 547.509703 172.428213 
L 548.19619 164.107041 
L 548.882677 165.631809 
L 550.255651 188.219429 
L 550.942138 193.108883 
L 551.628626 186.461644 
L 553.0016 156.974099 
L 553.688087 151.351339 
L 554.374574 157.672591 
L 555.747549 186.636046 
L 556.434036 194.885324 
L 557.120523 194.946684 
L 558.493497 183.790936 
L 559.179984 180.131525 
L 560.552959 177.36899 
L 561.239446 174.874901 
L 561.925933 171.651877 
L 562.61242 169.689602 
L 563.298907 170.725267 
L 563.985394 174.755003 
L 564.671882 179.969077 
L 565.358369 184.033766 
L 566.044856 185.605077 
L 566.731343 184.908161 
L 568.104317 181.025682 
L 568.790805 178.752405 
L 570.850266 170.104336 
L 571.536753 170.656855 
L 572.22324 175.285774 
L 573.596215 189.750033 
L 574.282702 191.796177 
L 574.969189 186.451054 
L 577.02865 151.932325 
L 577.715138 150.902439 
L 578.401625 158.641114 
L 579.774599 184.088096 
L 580.461086 191.215858 
L 581.147573 191.093214 
L 581.834061 185.559388 
L 582.520548 179.037525 
L 583.207035 176.238398 
L 583.893522 179.788991 
L 585.266496 199.216615 
L 585.952984 205.357763 
L 586.639471 202.983567 
L 587.325958 191.619596 
L 588.698932 161.430287 
L 589.385419 156.306735 
L 590.071907 162.307928 
L 591.444881 188.161223 
L 592.131368 191.429752 
L 592.817855 181.821479 
L 594.190829 143.106082 
L 594.877317 132.443666 
L 595.563804 135.900183 
L 596.250291 151.752918 
L 597.623265 191.635737 
L 598.309752 202.881507 
L 598.99624 206.615925 
L 599.682727 205.764247 
L 600.369214 203.204011 
L 601.055701 199.705665 
L 601.742188 194.267062 
L 603.80165 169.499804 
L 604.488137 167.336456 
L 605.174624 170.914954 
L 605.861111 177.567583 
L 606.547598 183.019957 
L 607.234085 184.206078 
L 607.920573 181.159476 
L 608.60706 176.590601 
L 609.293547 173.546726 
L 609.980034 173.018511 
L 610.666521 173.366032 
L 611.353008 171.984848 
L 612.039496 167.850425 
L 612.725983 162.851827 
L 613.41247 160.727313 
L 614.098957 164.271387 
L 615.471931 182.412311 
L 616.158419 187.589881 
L 616.844906 185.540518 
L 618.21788 169.938279 
L 618.904367 167.453552 
L 619.590854 172.992214 
L 620.963829 195.691075 
L 621.650316 201.351383 
L 622.336803 198.59178 
L 623.02329 188.964769 
L 623.709777 176.97725 
L 624.396264 167.508853 
L 625.082752 163.648991 
L 625.769239 165.988645 
L 626.455726 173.187075 
L 627.8287 192.175352 
L 628.515187 197.92337 
L 629.201675 197.273647 
L 629.888162 189.005507 
L 631.261136 160.098582 
L 631.947623 150.946013 
L 632.63411 151.915258 
L 633.320598 162.545891 
L 634.007085 177.145777 
L 634.693572 187.698457 
L 635.380059 188.460024 
L 636.066546 179.385001 
L 636.753033 166.147131 
L 637.43952 156.730427 
L 638.126008 156.800172 
L 638.812495 166.740553 
L 640.185469 195.853945 
L 640.871956 203.290956 
L 641.558443 202.599253 
L 642.244931 195.404554 
L 643.617905 175.265461 
L 644.304392 168.619894 
L 644.990879 166.683548 
L 645.677366 169.518684 
L 647.050341 182.252643 
L 647.736828 186.448575 
L 648.423315 186.465573 
L 649.109802 182.776559 
L 649.796289 177.881418 
L 650.482777 174.87839 
L 651.169264 175.619548 
L 651.855751 179.5989 
L 652.542238 184.249256 
L 653.228725 186.408519 
L 653.915212 184.023833 
L 654.601699 177.137473 
L 655.974674 158.883152 
L 656.661161 153.303739 
L 657.347648 152.680309 
L 658.034135 157.152092 
L 658.720622 165.455938 
L 660.093597 184.894009 
L 660.780084 192.109665 
L 661.466571 196.35417 
L 662.153058 197.606361 
L 662.839545 196.080638 
L 663.526033 191.931869 
L 664.21252 185.513597 
L 665.585494 171.692186 
L 666.271981 169.26661 
L 666.958468 172.192524 
L 668.331443 186.342488 
L 669.01793 188.775423 
L 669.704417 183.953744 
L 671.077391 163.292944 
L 671.763878 159.146415 
L 672.450366 164.126491 
L 673.82334 188.217514 
L 674.509827 194.529764 
L 675.196314 192.090036 
L 676.569289 173.837011 
L 677.255776 168.943214 
L 677.942263 170.186029 
L 678.62875 174.924022 
L 679.315237 178.4541 
L 680.001724 177.272706 
L 680.688211 171.294795 
L 681.374699 163.776074 
L 682.061186 159.236361 
L 682.747673 160.820359 
L 683.43416 168.636647 
L 684.807134 190.123058 
L 685.493622 195.867853 
L 686.180109 195.643145 
L 686.866596 190.712254 
L 687.553083 184.252398 
L 688.23957 179.730013 
L 688.926057 179.163203 
L 689.612545 182.112144 
L 690.299032 185.964914 
L 690.985519 187.455975 
L 691.672006 184.639795 
L 693.04498 171.134912 
L 693.731468 167.230382 
L 694.417955 168.647467 
L 695.104442 174.582959 
L 695.790929 181.517961 
L 696.477416 185.079481 
L 697.163903 182.462924 
L 697.85039 174.063877 
L 698.536878 163.424327 
L 699.223365 155.527419 
L 699.909852 154.338945 
L 700.596339 160.847046 
L 701.969313 184.680579 
L 702.655801 192.369269 
L 703.342288 193.001813 
L 704.028775 187.346314 
L 704.715262 179.096867 
L 705.401749 172.989461 
L 706.088236 172.424278 
L 706.774724 177.785292 
L 708.147698 193.61461 
L 708.834185 195.931467 
L 709.520672 192.044506 
L 711.580134 168.206495 
L 712.266621 166.534079 
L 712.953108 169.261363 
L 714.326082 179.617802 
L 715.012569 182.615001 
L 715.699057 182.223343 
L 716.385544 178.430054 
L 717.758518 167.394975 
L 718.445005 165.739495 
L 719.131492 169.389256 
L 720.504467 185.772693 
L 721.190954 189.609373 
L 721.877441 185.770693 
L 723.250415 163.923857 
L 723.936903 157.809439 
L 724.62339 160.91179 
L 725.309877 171.911869 
L 725.996364 185.214249 
L 726.682851 194.488339 
L 727.369338 196.423223 
L 728.055825 192.173658 
L 728.742313 185.76623 
L 729.4288 180.965923 
L 730.115287 179.045226 
L 730.801774 178.892778 
L 731.488261 178.871027 
L 732.174748 178.49688 
L 732.861236 178.444161 
L 733.547723 179.093056 
L 734.23421 179.305494 
L 734.920697 176.957892 
L 735.607184 171.093253 
L 736.293671 163.820758 
L 736.980159 159.904641 
L 737.666646 163.703622 
L 738.353133 175.452993 
L 739.03962 189.866813 
L 739.726107 198.668218 
L 740.412594 195.786827 
L 741.099081 181.746883 
L 741.785569 164.006916 
L 742.472056 152.695333 
L 743.158543 154.42531 
L 743.84503 168.284732 
L 744.531517 186.617927 
L 745.218004 199.917354 
L 745.904492 202.423704 
L 746.590979 194.807169 
L 747.963953 171.991716 
L 748.65044 166.30283 
L 749.336927 165.139593 
L 750.023415 166.331333 
L 750.709902 168.427034 
L 751.396389 171.663195 
L 752.082876 176.879825 
L 753.45585 189.855719 
L 754.142338 192.386951 
L 754.828825 189.872625 
L 756.201799 177.722088 
L 756.888286 175.188365 
L 757.574773 177.133874 
L 758.26126 181.397313 
L 758.947748 184.176062 
L 759.634235 182.53611 
L 760.320722 176.234842 
L 761.007209 167.749685 
L 761.693696 160.69611 
L 762.380183 157.82099 
L 763.066671 159.83013 
L 763.753158 165.549266 
L 765.126132 180.370311 
L 765.812619 186.632234 
L 766.499106 191.127323 
L 767.185594 193.256419 
L 767.872081 192.383953 
L 768.558568 188.226873 
L 770.618029 167.531302 
L 771.304516 165.242931 
L 771.991004 167.831702 
L 772.677491 174.444512 
L 773.363978 182.550067 
L 774.050465 188.93322 
L 774.736952 191.095358 
L 775.423439 188.423895 
L 776.796414 176.507146 
L 777.482901 173.3782 
L 778.169388 174.51874 
L 779.542362 183.612611 
L 780.22885 185.527898 
L 780.915337 183.017788 
L 782.974798 164.842968 
L 783.661285 163.566118 
L 784.347773 165.430601 
L 785.03426 168.30637 
L 785.720747 170.018822 
L 786.407234 169.816501 
L 787.093721 168.851727 
L 787.780208 169.383874 
L 788.466695 173.212661 
L 789.153183 180.328785 
L 789.83967 188.651507 
L 790.526157 195.071882 
L 791.212644 197.208478 
L 791.899131 194.796888 
L 793.272106 185.154502 
L 793.958593 182.831198 
L 794.64508 182.681158 
L 795.331567 182.725114 
L 796.018054 180.829394 
L 797.391029 171.665094 
L 798.077516 169.116127 
L 798.764003 170.668831 
L 800.136977 179.959617 
L 800.823464 180.851112 
L 801.509951 176.864242 
L 802.196439 170.13644 
L 802.882926 164.774573 
L 803.569413 164.003641 
L 804.2559 167.886617 
L 804.942387 173.315626 
L 805.628874 176.31325 
L 806.315362 174.949504 
L 807.001849 170.711101 
L 807.688336 167.339181 
L 808.374823 168.078265 
L 809.06131 173.452392 
L 810.434285 188.192358 
L 811.120772 192.800023 
L 812.493746 198.038869 
L 813.180233 200.628579 
L 813.86672 201.756689 
L 814.553208 198.87013 
L 815.239695 190.691052 
L 815.926182 178.74643 
L 815.926182 178.74643 
" style="fill:none;stroke:#1f77b4;stroke-linecap:square;stroke-width:1.5;"/>
   </g>
   <g id="patch_8">
    <path d="M 78.536 216.43865 
L 78.536 123.60135 
" style="fill:none;stroke:#000000;stroke-linecap:square;stroke-linejoin:miter;stroke-width:0.8;"/>
   </g>
   <g id="patch_9">
    <path d="M 851.04 216.43865 
L 851.04 123.60135 
" style="fill:none;stroke:#000000;stroke-linecap:square;stroke-linejoin:miter;stroke-width:0.8;"/>
   </g>
   <g id="patch_10">
    <path d="M 78.536 216.43865 
L 851.04 216.43865 
" style="fill:none;stroke:#000000;stroke-linecap:square;stroke-linejoin:miter;stroke-width:0.8;"/>
   </g>
   <g id="patch_11">
    <path d="M 78.536 123.60135 
L 851.04 123.60135 
" style="fill:none;stroke:#000000;stroke-linecap:square;stroke-linejoin:miter;stroke-width:0.8;"/>
   </g>
  </g>
  <g id="axes_3">
   <g id="patch_12">
    <path d="M 78.536 327.08 
L 851.04 327.08 
L 851.04 234.2427 
L 78.536 234.2427 
z
" style="fill:#ffffff;"/>
   </g>
   <g id="matplotlib.axis_5">
    <g id="xtick_13">
     <g id="line2d_19">
      <g>
       <use style="stroke:#000000;stroke-width:0.8;" x="113.649818" xlink:href="#ma91dd140ac" y="327.08"/>
      </g>
     </g>
     <g id="text_7">
      <!-- 0 -->
      <g transform="translate(109.832318 343.198125)scale(0.12 -0.12)">
       <use xlink:href="#DejaVuSans-48"/>
      </g>
     </g>
    </g>
    <g id="xtick_14">
     <g id="line2d_20">
      <g>
       <use style="stroke:#000000;stroke-width:0.8;" x="250.94725" xlink:href="#ma91dd140ac" y="327.08"/>
      </g>
     </g>
     <g id="text_8">
      <!-- 200 -->
      <g transform="translate(239.49475 343.198125)scale(0.12 -0.12)">
       <defs>
        <path d="M 19.1875 8.296875 
L 53.609375 8.296875 
L 53.609375 0 
L 7.328125 0 
L 7.328125 8.296875 
Q 12.9375 14.109375 22.625 23.890625 
Q 32.328125 33.6875 34.8125 36.53125 
Q 39.546875 41.84375 41.421875 45.53125 
Q 43.3125 49.21875 43.3125 52.78125 
Q 43.3125 58.59375 39.234375 62.25 
Q 35.15625 65.921875 28.609375 65.921875 
Q 23.96875 65.921875 18.8125 64.3125 
Q 13.671875 62.703125 7.8125 59.421875 
L 7.8125 69.390625 
Q 13.765625 71.78125 18.9375 73 
Q 24.125 74.21875 28.421875 74.21875 
Q 39.75 74.21875 46.484375 68.546875 
Q 53.21875 62.890625 53.21875 53.421875 
Q 53.21875 48.921875 51.53125 44.890625 
Q 49.859375 40.875 45.40625 35.40625 
Q 44.1875 33.984375 37.640625 27.21875 
Q 31.109375 20.453125 19.1875 8.296875 
z
" id="DejaVuSans-50"/>
       </defs>
       <use xlink:href="#DejaVuSans-50"/>
       <use x="63.623047" xlink:href="#DejaVuSans-48"/>
       <use x="127.246094" xlink:href="#DejaVuSans-48"/>
      </g>
     </g>
    </g>
    <g id="xtick_15">
     <g id="line2d_21">
      <g>
       <use style="stroke:#000000;stroke-width:0.8;" x="388.244682" xlink:href="#ma91dd140ac" y="327.08"/>
      </g>
     </g>
     <g id="text_9">
      <!-- 400 -->
      <g transform="translate(376.792182 343.198125)scale(0.12 -0.12)">
       <defs>
        <path d="M 37.796875 64.3125 
L 12.890625 25.390625 
L 37.796875 25.390625 
z
M 35.203125 72.90625 
L 47.609375 72.90625 
L 47.609375 25.390625 
L 58.015625 25.390625 
L 58.015625 17.1875 
L 47.609375 17.1875 
L 47.609375 0 
L 37.796875 0 
L 37.796875 17.1875 
L 4.890625 17.1875 
L 4.890625 26.703125 
z
" id="DejaVuSans-52"/>
       </defs>
       <use xlink:href="#DejaVuSans-52"/>
       <use x="63.623047" xlink:href="#DejaVuSans-48"/>
       <use x="127.246094" xlink:href="#DejaVuSans-48"/>
      </g>
     </g>
    </g>
    <g id="xtick_16">
     <g id="line2d_22">
      <g>
       <use style="stroke:#000000;stroke-width:0.8;" x="525.542114" xlink:href="#ma91dd140ac" y="327.08"/>
      </g>
     </g>
     <g id="text_10">
      <!-- 600 -->
      <g transform="translate(514.089614 343.198125)scale(0.12 -0.12)">
       <defs>
        <path d="M 33.015625 40.375 
Q 26.375 40.375 22.484375 35.828125 
Q 18.609375 31.296875 18.609375 23.390625 
Q 18.609375 15.53125 22.484375 10.953125 
Q 26.375 6.390625 33.015625 6.390625 
Q 39.65625 6.390625 43.53125 10.953125 
Q 47.40625 15.53125 47.40625 23.390625 
Q 47.40625 31.296875 43.53125 35.828125 
Q 39.65625 40.375 33.015625 40.375 
z
M 52.59375 71.296875 
L 52.59375 62.3125 
Q 48.875 64.0625 45.09375 64.984375 
Q 41.3125 65.921875 37.59375 65.921875 
Q 27.828125 65.921875 22.671875 59.328125 
Q 17.53125 52.734375 16.796875 39.40625 
Q 19.671875 43.65625 24.015625 45.921875 
Q 28.375 48.1875 33.59375 48.1875 
Q 44.578125 48.1875 50.953125 41.515625 
Q 57.328125 34.859375 57.328125 23.390625 
Q 57.328125 12.15625 50.6875 5.359375 
Q 44.046875 -1.421875 33.015625 -1.421875 
Q 20.359375 -1.421875 13.671875 8.265625 
Q 6.984375 17.96875 6.984375 36.375 
Q 6.984375 53.65625 15.1875 63.9375 
Q 23.390625 74.21875 37.203125 74.21875 
Q 40.921875 74.21875 44.703125 73.484375 
Q 48.484375 72.75 52.59375 71.296875 
z
" id="DejaVuSans-54"/>
       </defs>
       <use xlink:href="#DejaVuSans-54"/>
       <use x="63.623047" xlink:href="#DejaVuSans-48"/>
       <use x="127.246094" xlink:href="#DejaVuSans-48"/>
      </g>
     </g>
    </g>
    <g id="xtick_17">
     <g id="line2d_23">
      <g>
       <use style="stroke:#000000;stroke-width:0.8;" x="662.839545" xlink:href="#ma91dd140ac" y="327.08"/>
      </g>
     </g>
     <g id="text_11">
      <!-- 800 -->
      <g transform="translate(651.387045 343.198125)scale(0.12 -0.12)">
       <defs>
        <path d="M 31.78125 34.625 
Q 24.75 34.625 20.71875 30.859375 
Q 16.703125 27.09375 16.703125 20.515625 
Q 16.703125 13.921875 20.71875 10.15625 
Q 24.75 6.390625 31.78125 6.390625 
Q 38.8125 6.390625 42.859375 10.171875 
Q 46.921875 13.96875 46.921875 20.515625 
Q 46.921875 27.09375 42.890625 30.859375 
Q 38.875 34.625 31.78125 34.625 
z
M 21.921875 38.8125 
Q 15.578125 40.375 12.03125 44.71875 
Q 8.5 49.078125 8.5 55.328125 
Q 8.5 64.0625 14.71875 69.140625 
Q 20.953125 74.21875 31.78125 74.21875 
Q 42.671875 74.21875 48.875 69.140625 
Q 55.078125 64.0625 55.078125 55.328125 
Q 55.078125 49.078125 51.53125 44.71875 
Q 48 40.375 41.703125 38.8125 
Q 48.828125 37.15625 52.796875 32.3125 
Q 56.78125 27.484375 56.78125 20.515625 
Q 56.78125 9.90625 50.3125 4.234375 
Q 43.84375 -1.421875 31.78125 -1.421875 
Q 19.734375 -1.421875 13.25 4.234375 
Q 6.78125 9.90625 6.78125 20.515625 
Q 6.78125 27.484375 10.78125 32.3125 
Q 14.796875 37.15625 21.921875 38.8125 
z
M 18.3125 54.390625 
Q 18.3125 48.734375 21.84375 45.5625 
Q 25.390625 42.390625 31.78125 42.390625 
Q 38.140625 42.390625 41.71875 45.5625 
Q 45.3125 48.734375 45.3125 54.390625 
Q 45.3125 60.0625 41.71875 63.234375 
Q 38.140625 66.40625 31.78125 66.40625 
Q 25.390625 66.40625 21.84375 63.234375 
Q 18.3125 60.0625 18.3125 54.390625 
z
" id="DejaVuSans-56"/>
       </defs>
       <use xlink:href="#DejaVuSans-56"/>
       <use x="63.623047" xlink:href="#DejaVuSans-48"/>
       <use x="127.246094" xlink:href="#DejaVuSans-48"/>
      </g>
     </g>
    </g>
    <g id="xtick_18">
     <g id="line2d_24">
      <g>
       <use style="stroke:#000000;stroke-width:0.8;" x="800.136977" xlink:href="#ma91dd140ac" y="327.08"/>
      </g>
     </g>
     <g id="text_12">
      <!-- 1000 -->
      <g transform="translate(784.866977 343.198125)scale(0.12 -0.12)">
       <use xlink:href="#DejaVuSans-49"/>
       <use x="63.623047" xlink:href="#DejaVuSans-48"/>
       <use x="127.246094" xlink:href="#DejaVuSans-48"/>
       <use x="190.869141" xlink:href="#DejaVuSans-48"/>
      </g>
     </g>
    </g>
   </g>
   <g id="matplotlib.axis_6">
    <g id="ytick_5">
     <g id="line2d_25">
      <g>
       <use style="stroke:#000000;stroke-width:0.8;" x="78.536" xlink:href="#m95a580ce7f" y="322.920185"/>
      </g>
     </g>
     <g id="text_13">
      <!-- 0.99 -->
      <g transform="translate(44.81725 327.479248)scale(0.12 -0.12)">
       <defs>
        <path d="M 10.984375 1.515625 
L 10.984375 10.5 
Q 14.703125 8.734375 18.5 7.8125 
Q 22.3125 6.890625 25.984375 6.890625 
Q 35.75 6.890625 40.890625 13.453125 
Q 46.046875 20.015625 46.78125 33.40625 
Q 43.953125 29.203125 39.59375 26.953125 
Q 35.25 24.703125 29.984375 24.703125 
Q 19.046875 24.703125 12.671875 31.3125 
Q 6.296875 37.9375 6.296875 49.421875 
Q 6.296875 60.640625 12.9375 67.421875 
Q 19.578125 74.21875 30.609375 74.21875 
Q 43.265625 74.21875 49.921875 64.515625 
Q 56.59375 54.828125 56.59375 36.375 
Q 56.59375 19.140625 48.40625 8.859375 
Q 40.234375 -1.421875 26.421875 -1.421875 
Q 22.703125 -1.421875 18.890625 -0.6875 
Q 15.09375 0.046875 10.984375 1.515625 
z
M 30.609375 32.421875 
Q 37.25 32.421875 41.125 36.953125 
Q 45.015625 41.5 45.015625 49.421875 
Q 45.015625 57.28125 41.125 61.84375 
Q 37.25 66.40625 30.609375 66.40625 
Q 23.96875 66.40625 20.09375 61.84375 
Q 16.21875 57.28125 16.21875 49.421875 
Q 16.21875 41.5 20.09375 36.953125 
Q 23.96875 32.421875 30.609375 32.421875 
z
" id="DejaVuSans-57"/>
       </defs>
       <use xlink:href="#DejaVuSans-48"/>
       <use x="63.623047" xlink:href="#DejaVuSans-46"/>
       <use x="95.410156" xlink:href="#DejaVuSans-57"/>
       <use x="159.033203" xlink:href="#DejaVuSans-57"/>
      </g>
     </g>
    </g>
    <g id="ytick_6">
     <g id="line2d_26">
      <g>
       <use style="stroke:#000000;stroke-width:0.8;" x="78.536" xlink:href="#m95a580ce7f" y="280.685726"/>
      </g>
     </g>
     <g id="text_14">
      <!-- 1.00 -->
      <g transform="translate(44.81725 285.244789)scale(0.12 -0.12)">
       <use xlink:href="#DejaVuSans-49"/>
       <use x="63.623047" xlink:href="#DejaVuSans-46"/>
       <use x="95.410156" xlink:href="#DejaVuSans-48"/>
       <use x="159.033203" xlink:href="#DejaVuSans-48"/>
      </g>
     </g>
    </g>
    <g id="ytick_7">
     <g id="line2d_27">
      <g>
       <use style="stroke:#000000;stroke-width:0.8;" x="78.536" xlink:href="#m95a580ce7f" y="238.451267"/>
      </g>
     </g>
     <g id="text_15">
      <!-- 1.01 -->
      <g transform="translate(44.81725 243.01033)scale(0.12 -0.12)">
       <use xlink:href="#DejaVuSans-49"/>
       <use x="63.623047" xlink:href="#DejaVuSans-46"/>
       <use x="95.410156" xlink:href="#DejaVuSans-48"/>
       <use x="159.033203" xlink:href="#DejaVuSans-49"/>
      </g>
     </g>
    </g>
    <g id="text_16">
     <!-- Raw -->
     <g transform="translate(24.88425 293.279163)rotate(-90)scale(0.12 -0.12)">
      <defs>
       <path d="M 44.390625 34.1875 
Q 47.5625 33.109375 50.5625 29.59375 
Q 53.5625 26.078125 56.59375 19.921875 
L 66.609375 0 
L 56 0 
L 46.6875 18.703125 
Q 43.0625 26.03125 39.671875 28.421875 
Q 36.28125 30.8125 30.421875 30.8125 
L 19.671875 30.8125 
L 19.671875 0 
L 9.8125 0 
L 9.8125 72.90625 
L 32.078125 72.90625 
Q 44.578125 72.90625 50.734375 67.671875 
Q 56.890625 62.453125 56.890625 51.90625 
Q 56.890625 45.015625 53.6875 40.46875 
Q 50.484375 35.9375 44.390625 34.1875 
z
M 19.671875 64.796875 
L 19.671875 38.921875 
L 32.078125 38.921875 
Q 39.203125 38.921875 42.84375 42.21875 
Q 46.484375 45.515625 46.484375 51.90625 
Q 46.484375 58.296875 42.84375 61.546875 
Q 39.203125 64.796875 32.078125 64.796875 
z
" id="DejaVuSans-82"/>
       <path d="M 34.28125 27.484375 
Q 23.390625 27.484375 19.1875 25 
Q 14.984375 22.515625 14.984375 16.5 
Q 14.984375 11.71875 18.140625 8.90625 
Q 21.296875 6.109375 26.703125 6.109375 
Q 34.1875 6.109375 38.703125 11.40625 
Q 43.21875 16.703125 43.21875 25.484375 
L 43.21875 27.484375 
z
M 52.203125 31.203125 
L 52.203125 0 
L 43.21875 0 
L 43.21875 8.296875 
Q 40.140625 3.328125 35.546875 0.953125 
Q 30.953125 -1.421875 24.3125 -1.421875 
Q 15.921875 -1.421875 10.953125 3.296875 
Q 6 8.015625 6 15.921875 
Q 6 25.140625 12.171875 29.828125 
Q 18.359375 34.515625 30.609375 34.515625 
L 43.21875 34.515625 
L 43.21875 35.40625 
Q 43.21875 41.609375 39.140625 45 
Q 35.0625 48.390625 27.6875 48.390625 
Q 23 48.390625 18.546875 47.265625 
Q 14.109375 46.140625 10.015625 43.890625 
L 10.015625 52.203125 
Q 14.9375 54.109375 19.578125 55.046875 
Q 24.21875 56 28.609375 56 
Q 40.484375 56 46.34375 49.84375 
Q 52.203125 43.703125 52.203125 31.203125 
z
" id="DejaVuSans-97"/>
       <path d="M 4.203125 54.6875 
L 13.1875 54.6875 
L 24.421875 12.015625 
L 35.59375 54.6875 
L 46.1875 54.6875 
L 57.421875 12.015625 
L 68.609375 54.6875 
L 77.59375 54.6875 
L 63.28125 0 
L 52.6875 0 
L 40.921875 44.828125 
L 29.109375 0 
L 18.5 0 
z
" id="DejaVuSans-119"/>
      </defs>
      <use xlink:href="#DejaVuSans-82"/>
      <use x="67.232422" xlink:href="#DejaVuSans-97"/>
      <use x="128.511719" xlink:href="#DejaVuSans-119"/>
     </g>
     <!-- data -->
     <g transform="translate(38.321625 294.17635)rotate(-90)scale(0.12 -0.12)">
      <defs>
       <path d="M 18.3125 70.21875 
L 18.3125 54.6875 
L 36.8125 54.6875 
L 36.8125 47.703125 
L 18.3125 47.703125 
L 18.3125 18.015625 
Q 18.3125 11.328125 20.140625 9.421875 
Q 21.96875 7.515625 27.59375 7.515625 
L 36.8125 7.515625 
L 36.8125 0 
L 27.59375 0 
Q 17.1875 0 13.234375 3.875 
Q 9.28125 7.765625 9.28125 18.015625 
L 9.28125 47.703125 
L 2.6875 47.703125 
L 2.6875 54.6875 
L 9.28125 54.6875 
L 9.28125 70.21875 
z
" id="DejaVuSans-116"/>
      </defs>
      <use xlink:href="#DejaVuSans-100"/>
      <use x="63.476562" xlink:href="#DejaVuSans-97"/>
      <use x="124.755859" xlink:href="#DejaVuSans-116"/>
      <use x="163.964844" xlink:href="#DejaVuSans-97"/>
     </g>
    </g>
   </g>
   <g id="line2d_28">
    <path clip-path="url(#pb7ab376c88)" d="M 113.649818 314.577825 
L 114.336305 256.435937 
L 115.022792 294.773647 
L 115.70928 239.703445 
L 116.395767 283.557449 
L 117.082254 245.911805 
L 117.768741 245.958798 
L 118.455228 288.712437 
L 119.141715 314.483351 
L 119.828203 276.096954 
L 120.51469 310.269458 
L 121.201177 322.71434 
L 121.887664 247.04723 
L 122.574151 296.627938 
L 123.260638 315.166666 
L 123.947126 303.010345 
L 124.633613 298.656595 
L 125.3201 300.08359 
L 126.006587 301.246895 
L 126.693074 276.434868 
L 127.379561 322.794114 
L 128.066049 250.526426 
L 128.752536 294.397189 
L 129.439023 263.688919 
L 130.12551 249.6349 
L 130.811997 258.254494 
L 131.498484 261.430974 
L 132.184971 254.354207 
L 132.871459 268.243059 
L 133.557946 268.654959 
L 134.244433 322.360182 
L 134.93092 273.026521 
L 135.617407 306.530527 
L 136.303894 304.676044 
L 136.990382 308.042924 
L 137.676869 264.881158 
L 138.363356 317.380791 
L 139.049843 255.9466 
L 139.73633 261.728882 
L 140.422817 283.499215 
L 141.109305 286.327014 
L 142.482279 271.119587 
L 143.168766 322.755549 
L 143.855253 290.758511 
L 144.54174 290.629341 
L 145.228227 240.648999 
L 145.914715 321.19488 
L 146.601202 320.807759 
L 147.287689 298.43353 
L 147.974176 246.169372 
L 148.660663 300.48986 
L 149.34715 274.226656 
L 150.033638 287.281739 
L 150.720125 282.638341 
L 151.406612 261.583541 
L 152.093099 285.278683 
L 152.779586 264.46524 
L 153.466073 249.200974 
L 154.152561 276.692264 
L 154.839048 239.077974 
L 155.525535 304.103985 
L 156.212022 310.423032 
L 156.898509 242.224651 
L 157.584996 321.256683 
L 158.271484 313.417335 
L 158.957971 252.72047 
L 159.644458 322.452717 
L 160.330945 311.995799 
L 161.017432 278.087921 
L 161.703919 266.255366 
L 162.390406 298.207922 
L 163.076894 265.427756 
L 163.763381 240.573868 
L 164.449868 300.497372 
L 165.136355 291.123363 
L 165.822842 239.127219 
L 166.509329 256.276821 
L 167.195817 306.007281 
L 167.882304 256.556923 
L 168.568791 294.335233 
L 169.255278 248.093913 
L 169.941765 254.745777 
L 171.31474 303.179174 
L 172.001227 261.635947 
L 172.687714 263.781133 
L 173.374201 304.765792 
L 174.060688 268.587468 
L 174.747175 299.122346 
L 175.433662 320.683851 
L 176.12015 295.910466 
L 176.806637 313.038895 
L 177.493124 319.295535 
L 178.179611 301.245824 
L 178.866098 278.499026 
L 179.552585 300.235928 
L 180.239073 301.552154 
L 180.92556 308.956516 
L 181.612047 299.389951 
L 182.298534 288.235168 
L 182.985021 305.364457 
L 183.671508 290.668412 
L 184.357996 310.796641 
L 185.044483 263.756823 
L 185.73097 242.671296 
L 186.417457 283.103707 
L 187.103944 274.311188 
L 187.790431 285.464271 
L 188.476919 306.28407 
L 189.163406 311.806726 
L 189.849893 273.407287 
L 190.53638 242.389023 
L 191.222867 311.382873 
L 191.909354 273.944865 
L 192.595841 320.517567 
L 193.282329 281.15153 
L 193.968816 283.399714 
L 194.655303 322.315741 
L 195.34179 257.591302 
L 196.028277 281.829521 
L 196.714764 278.417375 
L 197.401252 280.299075 
L 198.087739 289.299035 
L 198.774226 243.794077 
L 199.460713 246.513751 
L 200.1472 319.909206 
L 200.833687 263.532439 
L 201.520175 270.086565 
L 202.206662 293.000205 
L 202.893149 285.123116 
L 203.579636 319.065348 
L 204.266123 254.501386 
L 204.95261 265.789429 
L 205.639097 291.662229 
L 206.325585 311.240732 
L 207.012072 283.360264 
L 207.698559 248.329802 
L 208.385046 252.645914 
L 209.071533 311.018594 
L 209.75802 308.380578 
L 210.444508 267.389369 
L 211.130995 259.488702 
L 211.817482 285.53389 
L 212.503969 269.30165 
L 213.190456 260.829204 
L 213.876943 238.462578 
L 214.563431 256.452228 
L 215.249918 249.128361 
L 215.936405 258.147578 
L 216.622892 241.554605 
L 217.309379 322.764804 
L 217.995866 284.086346 
L 218.682354 275.43704 
L 219.368841 293.365064 
L 220.055328 263.444073 
L 220.741815 299.375269 
L 221.428302 309.412486 
L 222.801276 258.44487 
L 223.487764 297.195824 
L 224.174251 242.118424 
L 224.860738 319.126662 
L 225.547225 245.811571 
L 226.233712 245.068195 
L 226.920199 267.052099 
L 227.606687 311.147067 
L 228.293174 276.790218 
L 228.979661 282.738116 
L 229.666148 301.52061 
L 230.352635 275.500174 
L 231.039122 272.111356 
L 231.72561 305.518147 
L 232.412097 282.549825 
L 233.098584 247.83598 
L 233.785071 300.447371 
L 234.471558 306.254168 
L 235.158045 249.071914 
L 235.844532 278.738709 
L 236.53102 293.592081 
L 237.217507 258.720873 
L 237.903994 279.819982 
L 238.590481 315.102499 
L 239.276968 320.60124 
L 239.963455 242.718511 
L 240.649943 312.47264 
L 241.33643 289.809682 
L 242.022917 316.448284 
L 242.709404 288.593988 
L 243.395891 314.372012 
L 244.082378 263.275982 
L 244.768866 242.3604 
L 245.455353 283.727491 
L 246.14184 303.069521 
L 246.828327 262.038478 
L 247.514814 280.709785 
L 248.201301 288.011861 
L 248.887789 242.463957 
L 249.574276 293.57348 
L 250.260763 251.37144 
L 250.94725 261.302625 
L 251.633737 273.491212 
L 252.320224 292.706988 
L 253.006711 273.470867 
L 253.693199 318.663035 
L 254.379686 243.290334 
L 255.066173 263.662323 
L 255.75266 308.787917 
L 256.439147 292.293229 
L 257.125634 298.216124 
L 257.812122 260.763075 
L 258.498609 281.12241 
L 259.185096 307.452707 
L 259.871583 306.351633 
L 260.55807 259.782129 
L 261.244557 275.982708 
L 261.931045 317.496045 
L 262.617532 318.199609 
L 263.304019 320.953543 
L 263.990506 256.997565 
L 264.676993 266.553373 
L 265.36348 292.53124 
L 266.049967 271.660463 
L 266.736455 266.093054 
L 267.422942 239.229095 
L 268.109429 260.900686 
L 268.795916 286.393113 
L 269.482403 242.332616 
L 270.16889 288.031605 
L 270.855378 295.845508 
L 271.541865 242.490249 
L 272.228352 280.059606 
L 272.914839 276.474986 
L 273.601326 301.15781 
L 274.287813 252.102318 
L 274.974301 307.414978 
L 275.660788 269.539178 
L 276.347275 268.946934 
L 277.033762 306.589072 
L 277.720249 287.081151 
L 278.406736 303.403917 
L 279.093223 281.157706 
L 279.779711 297.291072 
L 280.466198 241.540767 
L 281.152685 272.127845 
L 281.839172 270.291149 
L 282.525659 269.04475 
L 283.212146 297.929922 
L 283.898634 241.251999 
L 284.585121 288.474084 
L 285.271608 297.746337 
L 285.958095 254.239685 
L 286.644582 250.289228 
L 288.017557 322.838619 
L 288.704044 281.790395 
L 289.390531 315.100144 
L 290.077018 273.843024 
L 290.763505 285.444338 
L 291.449992 255.127055 
L 292.13648 255.44941 
L 292.822967 252.328642 
L 293.509454 261.839856 
L 294.195941 293.982802 
L 294.882428 316.764421 
L 295.568915 251.885662 
L 296.255402 304.04589 
L 296.94189 288.438349 
L 297.628377 308.992339 
L 298.314864 312.510872 
L 299.001351 305.9646 
L 299.687838 283.248411 
L 300.374325 285.994173 
L 301.060813 238.71975 
L 301.7473 316.155932 
L 302.433787 300.013553 
L 303.120274 316.211857 
L 303.806761 267.339891 
L 304.493248 307.389386 
L 305.179736 301.858947 
L 305.866223 245.006828 
L 306.55271 251.124384 
L 307.239197 247.518228 
L 307.925684 284.123646 
L 308.612171 244.003798 
L 309.298658 238.64906 
L 309.985146 310.766112 
L 310.671633 297.653429 
L 311.35812 308.847974 
L 312.044607 252.407568 
L 312.731094 269.927925 
L 313.417581 249.668283 
L 314.104069 287.096705 
L 314.790556 318.233997 
L 315.477043 255.630067 
L 316.16353 288.29396 
L 316.850017 242.688093 
L 317.536504 241.492627 
L 318.222992 268.258139 
L 318.909479 305.193528 
L 319.595966 263.658338 
L 320.282453 268.952915 
L 320.96894 294.786399 
L 321.655427 269.908146 
L 322.341915 238.734218 
L 323.028402 285.877707 
L 323.714889 317.213875 
L 324.401376 273.370806 
L 325.087863 313.936501 
L 325.77435 310.139954 
L 326.460837 286.31289 
L 327.147325 303.105947 
L 327.833812 289.270583 
L 328.520299 239.836206 
L 329.206786 320.755919 
L 329.893273 250.883122 
L 330.57976 285.835396 
L 331.266248 247.030503 
L 331.952735 274.593723 
L 332.639222 312.72969 
L 333.325709 310.462111 
L 334.012196 254.919713 
L 334.698683 258.258778 
L 335.385171 254.199728 
L 336.071658 279.071998 
L 336.758145 309.480994 
L 337.444632 258.874525 
L 338.131119 252.032675 
L 338.817606 249.531323 
L 339.504093 264.740479 
L 340.190581 319.128813 
L 340.877068 315.57499 
L 341.563555 281.711397 
L 342.250042 288.256967 
L 342.936529 261.442279 
L 343.623016 284.543311 
L 344.309504 258.481424 
L 344.995991 262.374835 
L 345.682478 274.521786 
L 346.368965 307.868185 
L 347.055452 291.42913 
L 347.741939 322.393524 
L 348.428427 320.357037 
L 349.114914 247.89218 
L 349.801401 295.035672 
L 350.487888 305.847088 
L 351.174375 243.140456 
L 351.860862 301.326956 
L 352.54735 287.973846 
L 353.233837 283.265776 
L 353.920324 282.70016 
L 354.606811 268.892311 
L 355.293298 258.974935 
L 355.979785 300.533065 
L 356.666272 281.854122 
L 357.35276 291.083745 
L 358.039247 275.795806 
L 358.725734 315.312082 
L 359.412221 297.466968 
L 360.098708 275.455809 
L 360.785195 267.612898 
L 361.471683 253.085444 
L 362.15817 270.132671 
L 362.844657 259.252397 
L 363.531144 314.579067 
L 364.217631 298.203868 
L 364.904118 273.453869 
L 365.590606 311.561861 
L 366.277093 276.712517 
L 366.96358 250.769822 
L 367.650067 281.69094 
L 368.336554 287.208417 
L 369.023041 279.977217 
L 369.709528 278.60084 
L 370.396016 284.524662 
L 371.082503 287.092531 
L 371.76899 286.086202 
L 372.455477 319.029863 
L 373.141964 247.476364 
L 373.828451 261.005464 
L 374.514939 283.684141 
L 375.201426 238.562517 
L 375.887913 281.646856 
L 376.5744 299.722401 
L 377.260887 297.622862 
L 377.947374 303.073511 
L 378.633862 286.418576 
L 379.320349 288.211185 
L 380.006836 245.922847 
L 380.693323 285.877895 
L 381.37981 269.009344 
L 383.439272 244.429489 
L 384.125759 244.414296 
L 384.812246 272.755277 
L 385.498733 244.628519 
L 386.18522 294.401107 
L 386.871707 257.303171 
L 387.558195 241.051509 
L 388.244682 270.932152 
L 388.931169 260.694701 
L 389.617656 320.651279 
L 390.304143 259.846747 
L 390.99063 244.379331 
L 391.677118 245.018836 
L 392.363605 322.713386 
L 393.050092 284.821641 
L 393.736579 314.326979 
L 394.423066 322.173727 
L 395.109553 240.272766 
L 395.796041 250.517846 
L 396.482528 284.253574 
L 397.169015 268.749156 
L 397.855502 287.477887 
L 398.541989 247.30797 
L 399.228476 252.407939 
L 399.914963 239.807561 
L 400.601451 281.165014 
L 401.287938 291.918383 
L 401.974425 309.900945 
L 402.660912 313.382328 
L 403.347399 255.585503 
L 404.033886 254.780262 
L 404.720374 290.549282 
L 405.406861 304.278963 
L 406.093348 265.849591 
L 406.779835 320.282707 
L 408.152809 307.516238 
L 408.839297 272.381514 
L 409.525784 290.700845 
L 410.212271 244.982289 
L 410.898758 254.328689 
L 411.585245 313.784238 
L 412.271732 240.238187 
L 413.644707 321.154501 
L 414.331194 278.050549 
L 415.017681 267.826718 
L 415.704168 299.333058 
L 416.390655 257.588345 
L 417.077142 248.380731 
L 417.76363 244.90278 
L 418.450117 251.386434 
L 419.136604 275.469272 
L 419.823091 243.172711 
L 420.509578 240.337385 
L 421.196065 266.397052 
L 421.882553 311.184007 
L 422.56904 292.327143 
L 423.255527 315.238611 
L 423.942014 262.695358 
L 424.628501 316.435986 
L 425.314988 305.742692 
L 426.001476 258.20795 
L 426.687963 246.820738 
L 427.37445 248.095489 
L 428.060937 295.284219 
L 428.747424 292.182435 
L 429.433911 292.573615 
L 430.120398 301.255152 
L 430.806886 298.378035 
L 431.493373 311.485635 
L 432.17986 250.929596 
L 432.866347 263.955447 
L 433.552834 247.483672 
L 434.239321 322.449792 
L 434.925809 277.352217 
L 435.612296 286.683139 
L 436.298783 322.702616 
L 436.98527 319.766375 
L 437.671757 319.29482 
L 438.358244 254.684402 
L 439.044732 258.443203 
L 439.731219 255.120959 
L 440.417706 304.449168 
L 441.104193 292.193465 
L 441.79068 305.447884 
L 442.477167 239.854473 
L 443.163654 261.468922 
L 443.850142 303.991204 
L 444.536629 289.114879 
L 445.223116 270.104333 
L 445.909603 302.929413 
L 446.59609 246.850856 
L 447.282577 256.794626 
L 447.969065 268.480639 
L 448.655552 314.474233 
L 449.342039 311.278961 
L 450.028526 310.76558 
L 450.715013 309.489091 
L 451.4015 250.566971 
L 452.087988 318.343161 
L 452.774475 242.497984 
L 453.460962 260.795254 
L 454.147449 246.93849 
L 454.833936 306.258581 
L 455.520423 288.888519 
L 456.206911 295.953501 
L 456.893398 253.020887 
L 457.579885 277.155244 
L 458.266372 276.11274 
L 458.952859 261.936871 
L 459.639346 290.22849 
L 460.325833 252.880393 
L 461.012321 280.949828 
L 461.698808 252.762372 
L 462.385295 307.683134 
L 463.071782 304.04997 
L 463.758269 311.703993 
L 464.444756 267.946078 
L 465.131244 286.784571 
L 465.817731 242.530641 
L 466.504218 270.725303 
L 467.190705 271.76146 
L 467.877192 318.418305 
L 468.563679 306.594203 
L 469.250167 317.892512 
L 469.936654 247.22485 
L 470.623141 243.856462 
L 471.309628 256.971245 
L 471.996115 293.214853 
L 472.682602 248.009044 
L 473.369089 305.321422 
L 474.055577 281.669688 
L 474.742064 246.616969 
L 475.428551 300.206608 
L 476.115038 301.832495 
L 476.801525 290.316613 
L 477.488012 271.552305 
L 478.1745 262.429638 
L 478.860987 269.649924 
L 479.547474 267.143875 
L 480.233961 242.59081 
L 480.920448 257.823981 
L 481.606935 303.803373 
L 482.293423 250.476139 
L 482.97991 246.260225 
L 483.666397 278.199868 
L 484.352884 302.715595 
L 485.039371 285.725126 
L 485.725858 317.106246 
L 486.412346 242.235959 
L 487.098833 274.320753 
L 487.78532 291.906481 
L 488.471807 280.102759 
L 489.158294 301.378208 
L 489.844781 246.365955 
L 490.531268 259.085019 
L 491.217756 265.688678 
L 491.904243 308.359764 
L 492.59073 268.766873 
L 493.277217 312.735379 
L 493.963704 304.399229 
L 494.650191 268.351641 
L 495.336679 269.557452 
L 496.023166 264.123701 
L 496.709653 275.333655 
L 497.39614 249.341152 
L 498.082627 261.628832 
L 498.769114 260.969302 
L 499.455602 250.575647 
L 500.142089 287.601238 
L 500.828576 266.893201 
L 502.20155 248.084856 
L 502.888037 301.429694 
L 503.574524 244.484876 
L 504.261012 263.518452 
L 504.947499 288.466532 
L 505.633986 247.328912 
L 506.320473 244.554645 
L 507.00696 304.266775 
L 507.693447 308.830703 
L 508.379935 298.709411 
L 509.066422 319.976553 
L 509.752909 242.502469 
L 510.439396 308.185238 
L 511.125883 299.046326 
L 511.81237 282.139356 
L 512.498858 289.921748 
L 513.185345 308.223704 
L 513.871832 287.291696 
L 514.558319 250.747509 
L 515.244806 270.276712 
L 515.931293 276.742021 
L 516.617781 272.554053 
L 517.304268 321.79007 
L 517.990755 289.318197 
L 518.677242 312.311506 
L 519.363729 321.381713 
L 520.050216 307.718536 
L 520.736703 290.070608 
L 521.423191 243.650874 
L 522.109678 319.657201 
L 522.796165 260.120572 
L 523.482652 308.007845 
L 524.169139 257.55775 
L 524.855626 257.174653 
L 525.542114 239.455529 
L 526.228601 249.425968 
L 526.915088 277.023985 
L 527.601575 313.437332 
L 528.288062 303.482463 
L 528.974549 275.289696 
L 529.661037 308.047623 
L 530.347524 247.747706 
L 531.034011 274.214097 
L 531.720498 276.475972 
L 532.406985 282.186469 
L 533.093472 238.672537 
L 533.779959 303.856849 
L 534.466447 287.599404 
L 535.152934 247.968578 
L 535.839421 244.119925 
L 536.525908 308.263027 
L 537.212395 246.532721 
L 537.898882 261.840227 
L 538.58537 264.043705 
L 539.271857 247.233158 
L 539.958344 318.358409 
L 540.644831 317.197271 
L 541.331318 255.961319 
L 542.017805 299.930285 
L 542.704293 262.553922 
L 543.39078 286.260571 
L 544.077267 272.855276 
L 544.763754 280.919571 
L 545.450241 296.170916 
L 546.136728 284.428064 
L 546.823215 312.04903 
L 547.509703 282.955745 
L 548.19619 271.705929 
L 548.882677 239.067871 
L 549.569164 322.860123 
L 550.255651 266.156969 
L 550.942138 305.838552 
L 551.628626 318.01188 
L 553.0016 247.75935 
L 553.688087 239.946905 
L 555.061061 300.667195 
L 555.747549 314.823652 
L 556.434036 267.890845 
L 557.120523 307.282105 
L 557.80701 304.660931 
L 558.493497 285.546522 
L 559.179984 294.01308 
L 559.866472 282.818576 
L 560.552959 294.135794 
L 561.239446 280.978442 
L 561.925933 257.166028 
L 562.61242 285.867341 
L 563.298907 257.964407 
L 563.985394 304.194633 
L 564.671882 300.463773 
L 565.358369 255.417359 
L 566.044856 260.013225 
L 566.731343 319.739145 
L 567.41783 311.328996 
L 568.104317 242.845451 
L 568.790805 274.016544 
L 569.477292 295.92415 
L 570.163779 251.257043 
L 570.850266 270.174433 
L 571.536753 292.967415 
L 572.22324 242.473722 
L 572.909728 285.893082 
L 573.596215 276.128671 
L 574.282702 308.470467 
L 574.969189 270.646045 
L 575.655676 272.809203 
L 576.342163 244.779207 
L 577.02865 260.544044 
L 577.715138 241.036087 
L 578.401625 243.200295 
L 579.088112 276.65837 
L 579.774599 282.274541 
L 580.461086 284.219967 
L 581.147573 296.702548 
L 581.834061 254.769877 
L 582.520548 303.57872 
L 583.207035 282.509886 
L 583.893522 244.019176 
L 584.580009 307.293715 
L 585.266496 318.106425 
L 585.952984 299.512623 
L 586.639471 276.517787 
L 587.325958 302.03246 
L 588.012445 320.173788 
L 588.698932 239.936022 
L 589.385419 249.399499 
L 590.071907 266.125978 
L 590.758394 311.250903 
L 591.444881 280.418892 
L 592.131368 286.439492 
L 592.817855 301.160973 
L 593.504342 277.263385 
L 594.190829 248.41518 
L 594.877317 239.492506 
L 595.563804 248.93813 
L 596.250291 251.030899 
L 596.936778 277.738813 
L 597.623265 319.561755 
L 598.309752 322.458569 
L 598.99624 294.875688 
L 599.682727 318.821283 
L 600.369214 317.440774 
L 601.055701 306.62159 
L 601.742188 300.950328 
L 602.428675 300.944847 
L 603.115163 291.185983 
L 603.80165 252.914666 
L 604.488137 286.184804 
L 605.174624 267.686595 
L 606.547598 300.105685 
L 607.234085 270.663061 
L 607.920573 292.524076 
L 608.60706 274.675442 
L 609.293547 266.789956 
L 609.980034 273.085916 
L 610.666521 296.112959 
L 611.353008 240.860245 
L 612.039496 282.851172 
L 612.725983 261.106034 
L 613.41247 247.738081 
L 614.098957 274.27812 
L 614.785444 272.76584 
L 615.471931 257.261132 
L 616.158419 299.845845 
L 616.844906 312.777375 
L 617.531393 241.968891 
L 618.21788 248.281407 
L 618.904367 315.265217 
L 619.590854 258.980766 
L 620.277342 252.675184 
L 620.963829 319.760541 
L 622.336803 289.726879 
L 623.02329 279.319 
L 623.709777 298.072491 
L 624.396264 252.957375 
L 625.082752 261.87296 
L 625.769239 280.129611 
L 626.455726 247.792886 
L 627.142213 296.89263 
L 627.8287 308.851691 
L 628.515187 296.727323 
L 629.201675 268.956117 
L 629.888162 318.579943 
L 630.574649 253.889631 
L 631.261136 282.41581 
L 631.947623 260.835924 
L 632.63411 253.000132 
L 633.320598 252.707674 
L 634.007085 261.631336 
L 634.693572 311.515322 
L 635.380059 308.329043 
L 636.066546 295.443735 
L 636.753033 256.590186 
L 638.126008 247.981692 
L 638.812495 288.363005 
L 639.498982 316.157469 
L 640.185469 299.73799 
L 640.871956 292.741828 
L 641.558443 313.394227 
L 642.244931 281.726544 
L 642.931418 306.366938 
L 643.617905 301.825544 
L 644.304392 289.104781 
L 644.990879 240.949516 
L 645.677366 247.0757 
L 646.363854 301.697809 
L 647.050341 320.723511 
L 647.736828 258.906658 
L 648.423315 291.898797 
L 649.109802 274.404496 
L 649.796289 293.496596 
L 650.482777 278.595607 
L 651.169264 254.357688 
L 651.855751 297.53313 
L 652.542238 271.977583 
L 653.228725 301.030708 
L 653.915212 266.287893 
L 654.601699 300.887837 
L 655.288187 247.73636 
L 655.974674 241.950494 
L 656.661161 282.102652 
L 657.347648 256.779952 
L 658.034135 256.463516 
L 658.720622 247.706186 
L 659.40711 305.002384 
L 660.093597 262.118734 
L 660.780084 313.545153 
L 661.466571 321.092635 
L 662.153058 292.688168 
L 662.839545 302.05009 
L 663.526033 304.251495 
L 664.21252 290.904244 
L 664.899007 282.792884 
L 665.585494 300.743604 
L 666.958468 270.006215 
L 668.331443 294.910879 
L 669.01793 317.497445 
L 669.704417 267.912491 
L 670.390904 308.112191 
L 671.763878 243.649489 
L 672.450366 248.183404 
L 673.136853 309.11157 
L 673.82334 293.364769 
L 674.509827 306.697987 
L 675.196314 251.801395 
L 675.882801 313.659768 
L 676.569289 265.618012 
L 677.255776 255.360084 
L 677.942263 271.127488 
L 678.62875 282.135144 
L 679.315237 257.524559 
L 680.001724 287.26921 
L 680.688211 243.625271 
L 681.374699 277.685728 
L 682.061186 245.041311 
L 682.747673 245.739767 
L 684.120647 290.426335 
L 684.807134 290.641983 
L 685.493622 254.343516 
L 686.180109 311.10384 
L 686.866596 305.453397 
L 687.553083 260.209988 
L 688.23957 303.949246 
L 688.926057 285.793292 
L 689.612545 243.376023 
L 690.299032 306.102763 
L 690.985519 303.117288 
L 691.672006 281.960113 
L 692.358493 314.252902 
L 693.04498 245.436234 
L 693.731468 252.626013 
L 694.417955 299.760134 
L 695.104442 320.579114 
L 695.790929 256.028882 
L 696.477416 293.551095 
L 697.163903 288.124839 
L 697.85039 307.579941 
L 699.223365 245.707809 
L 699.909852 281.114169 
L 700.596339 276.894733 
L 701.969313 293.253909 
L 702.655801 320.98826 
L 703.342288 296.015407 
L 704.028775 314.974296 
L 704.715262 309.605699 
L 705.401749 247.465883 
L 706.088236 310.759244 
L 706.774724 314.085883 
L 707.461211 307.05275 
L 708.147698 272.709519 
L 708.834185 322.541881 
L 709.520672 313.203391 
L 710.207159 319.294639 
L 710.893646 284.801751 
L 711.580134 279.550732 
L 712.266621 247.659705 
L 712.953108 291.695557 
L 713.639595 317.899821 
L 714.326082 288.156286 
L 715.012569 270.093476 
L 715.699057 296.942084 
L 716.385544 283.801456 
L 717.072031 272.939573 
L 717.758518 269.711497 
L 718.445005 299.336376 
L 719.131492 269.875467 
L 719.81798 256.948367 
L 720.504467 279.569256 
L 721.190954 290.728515 
L 721.877441 315.140044 
L 722.563928 270.135425 
L 723.250415 261.532869 
L 723.936903 246.999628 
L 724.62339 258.879274 
L 725.309877 263.416263 
L 725.996364 306.292845 
L 726.682851 298.597517 
L 727.369338 292.715521 
L 728.055825 282.817348 
L 728.742313 291.879557 
L 729.4288 306.398324 
L 730.115287 245.728794 
L 730.801774 302.844686 
L 731.488261 280.734281 
L 732.174748 320.148924 
L 732.861236 244.952064 
L 733.547723 279.705767 
L 734.23421 302.254055 
L 734.920697 283.81251 
L 735.607184 294.231482 
L 736.293671 252.506803 
L 736.980159 269.089935 
L 737.666646 278.89601 
L 738.353133 272.968932 
L 739.03962 305.335248 
L 739.726107 291.520545 
L 740.412594 318.263565 
L 741.099081 274.627266 
L 741.785569 281.004538 
L 742.472056 250.192361 
L 743.158543 255.833237 
L 743.84503 240.45294 
L 744.531517 312.246396 
L 745.218004 312.380701 
L 745.904492 308.431634 
L 746.590979 263.493864 
L 747.277466 292.233086 
L 747.963953 244.820151 
L 748.65044 309.167611 
L 749.336927 251.949176 
L 750.023415 245.961254 
L 750.709902 279.379893 
L 751.396389 256.823601 
L 752.082876 293.341902 
L 752.769363 288.000714 
L 753.45585 256.166959 
L 754.142338 321.759319 
L 754.828825 295.863691 
L 755.515312 310.245541 
L 756.201799 239.771974 
L 756.888286 277.31847 
L 757.574773 304.359701 
L 758.26126 305.419553 
L 758.947748 293.760282 
L 760.320722 260.626842 
L 761.007209 301.652781 
L 761.693696 301.446407 
L 762.380183 243.611213 
L 763.066671 258.195067 
L 764.439645 306.238079 
L 765.126132 277.008181 
L 765.812619 280.172002 
L 766.499106 321.748417 
L 767.872081 286.625809 
L 768.558568 305.736043 
L 769.245055 266.048342 
L 769.931542 316.473875 
L 770.618029 239.09756 
L 771.304516 277.616432 
L 771.991004 263.934954 
L 772.677491 281.658168 
L 773.363978 291.548703 
L 774.050465 275.320544 
L 774.736952 291.631964 
L 775.423439 289.267849 
L 776.109927 290.793219 
L 776.796414 259.341499 
L 777.482901 288.564695 
L 778.169388 270.53362 
L 778.855875 288.263774 
L 779.542362 248.96147 
L 780.22885 313.648005 
L 780.915337 286.518927 
L 781.601824 297.482807 
L 782.288311 240.022304 
L 782.974798 268.986178 
L 783.661285 285.06893 
L 784.347773 257.165375 
L 785.03426 283.362118 
L 785.720747 292.901729 
L 786.407234 250.048245 
L 787.093721 251.44508 
L 787.780208 301.242338 
L 788.466695 299.533783 
L 789.153183 266.174095 
L 790.526157 298.013113 
L 791.212644 309.063862 
L 791.899131 282.867731 
L 792.585618 321.129361 
L 793.272106 270.707059 
L 793.958593 260.539466 
L 794.64508 305.477061 
L 795.331567 261.443836 
L 796.018054 304.388517 
L 796.704541 252.598462 
L 797.391029 278.017174 
L 798.077516 251.89632 
L 798.764003 278.897522 
L 799.45049 291.565431 
L 800.136977 241.346249 
L 800.823464 288.960907 
L 801.509951 282.645542 
L 802.196439 283.50953 
L 802.882926 249.514119 
L 803.569413 261.487338 
L 804.2559 280.785532 
L 804.942387 273.418781 
L 805.628874 252.176215 
L 806.315362 313.522675 
L 807.001849 275.263335 
L 807.688336 262.147691 
L 808.374823 261.831223 
L 809.06131 245.299926 
L 809.747797 318.10661 
L 810.434285 291.518099 
L 811.120772 275.640305 
L 811.807259 291.269187 
L 812.493746 267.313466 
L 813.180233 280.755925 
L 813.86672 321.127489 
L 814.553208 259.846681 
L 815.239695 252.521152 
L 815.926182 247.047292 
L 815.926182 247.047292 
" style="fill:none;stroke:#1f77b4;stroke-linecap:square;stroke-width:1.5;"/>
   </g>
   <g id="patch_13">
    <path d="M 78.536 327.08 
L 78.536 234.2427 
" style="fill:none;stroke:#000000;stroke-linecap:square;stroke-linejoin:miter;stroke-width:0.8;"/>
   </g>
   <g id="patch_14">
    <path d="M 851.04 327.08 
L 851.04 234.2427 
" style="fill:none;stroke:#000000;stroke-linecap:square;stroke-linejoin:miter;stroke-width:0.8;"/>
   </g>
   <g id="patch_15">
    <path d="M 78.536 327.08 
L 851.04 327.08 
" style="fill:none;stroke:#000000;stroke-linecap:square;stroke-linejoin:miter;stroke-width:0.8;"/>
   </g>
   <g id="patch_16">
    <path d="M 78.536 234.2427 
L 851.04 234.2427 
" style="fill:none;stroke:#000000;stroke-linecap:square;stroke-linejoin:miter;stroke-width:0.8;"/>
   </g>
  </g>
 </g>
 <defs>
  <clipPath id="p147cbea390">
   <rect height="92.8373" width="772.504" x="78.536" y="12.96"/>
  </clipPath>
  <clipPath id="p599d37f5da">
   <rect height="92.8373" width="772.504" x="78.536" y="123.60135"/>
  </clipPath>
  <clipPath id="pb7ab376c88">
   <rect height="92.8373" width="772.504" x="78.536" y="234.2427"/>
  </clipPath>
 </defs>
</svg>
