<?xml version="1.0" encoding="utf-8" standalone="no"?>
<!DOCTYPE svg PUBLIC "-//W3C//DTD SVG 1.1//EN"
  "http://www.w3.org/Graphics/SVG/1.1/DTD/svg11.dtd">
<!-- Created with matplotlib (https://matplotlib.org/) -->
<svg height="396pt" version="1.1" viewBox="0 0 432 396" width="432pt" xmlns="http://www.w3.org/2000/svg" xmlns:xlink="http://www.w3.org/1999/xlink">
 <metadata>
  <rdf:RDF xmlns:cc="http://creativecommons.org/ns#" xmlns:dc="http://purl.org/dc/elements/1.1/" xmlns:rdf="http://www.w3.org/1999/02/22-rdf-syntax-ns#">
   <cc:Work>
    <dc:type rdf:resource="http://purl.org/dc/dcmitype/StillImage"/>
    <dc:date>2021-03-14T01:50:21.390013</dc:date>
    <dc:format>image/svg+xml</dc:format>
    <dc:creator>
     <cc:Agent>
      <dc:title>Matplotlib v3.3.2, https://matplotlib.org/</dc:title>
     </cc:Agent>
    </dc:creator>
   </cc:Work>
  </rdf:RDF>
 </metadata>
 <defs>
  <style type="text/css">*{stroke-linecap:butt;stroke-linejoin:round;}</style>
 </defs>
 <g id="figure_1">
  <g id="patch_1">
   <path d="M 0 396 
L 432 396 
L 432 0 
L 0 0 
z
" style="fill:#ffffff;"/>
  </g>
  <g id="axes_1">
   <g id="patch_2">
    <path d="M 77.87 339.64 
L 403.92 339.64 
L 403.92 15.12 
L 77.87 15.12 
z
" style="fill:#e5e5e5;"/>
   </g>
   <g id="matplotlib.axis_1">
    <g id="xtick_1">
     <g id="line2d_1">
      <path clip-path="url(#p249bdeb85d)" d="M 92.690455 339.64 
L 92.690455 15.12 
" style="fill:none;stroke:#ffffff;stroke-linecap:square;stroke-width:0.8;"/>
     </g>
     <g id="line2d_2">
      <defs>
       <path d="M 0 0 
L 0 3.5 
" id="m32482de668" style="stroke:#555555;stroke-width:0.8;"/>
      </defs>
      <g>
       <use style="fill:#555555;stroke:#555555;stroke-width:0.8;" x="92.690455" xlink:href="#m32482de668" y="339.64"/>
      </g>
     </g>
     <g id="text_1">
      <!-- 0 -->
      <g style="fill:#555555;" transform="translate(88.236705 357.277812)scale(0.14 -0.14)">
       <defs>
        <path d="M 31.78125 66.40625 
Q 24.171875 66.40625 20.328125 58.90625 
Q 16.5 51.421875 16.5 36.375 
Q 16.5 21.390625 20.328125 13.890625 
Q 24.171875 6.390625 31.78125 6.390625 
Q 39.453125 6.390625 43.28125 13.890625 
Q 47.125 21.390625 47.125 36.375 
Q 47.125 51.421875 43.28125 58.90625 
Q 39.453125 66.40625 31.78125 66.40625 
z
M 31.78125 74.21875 
Q 44.046875 74.21875 50.515625 64.515625 
Q 56.984375 54.828125 56.984375 36.375 
Q 56.984375 17.96875 50.515625 8.265625 
Q 44.046875 -1.421875 31.78125 -1.421875 
Q 19.53125 -1.421875 13.0625 8.265625 
Q 6.59375 17.96875 6.59375 36.375 
Q 6.59375 54.828125 13.0625 64.515625 
Q 19.53125 74.21875 31.78125 74.21875 
z
" id="DejaVuSans-48"/>
       </defs>
       <use xlink:href="#DejaVuSans-48"/>
      </g>
     </g>
    </g>
    <g id="xtick_2">
     <g id="line2d_3">
      <path clip-path="url(#p249bdeb85d)" d="M 151.972273 339.64 
L 151.972273 15.12 
" style="fill:none;stroke:#ffffff;stroke-linecap:square;stroke-width:0.8;"/>
     </g>
     <g id="line2d_4">
      <g>
       <use style="fill:#555555;stroke:#555555;stroke-width:0.8;" x="151.972273" xlink:href="#m32482de668" y="339.64"/>
      </g>
     </g>
     <g id="text_2">
      <!-- 5 -->
      <g style="fill:#555555;" transform="translate(147.518523 357.277812)scale(0.14 -0.14)">
       <defs>
        <path d="M 10.796875 72.90625 
L 49.515625 72.90625 
L 49.515625 64.59375 
L 19.828125 64.59375 
L 19.828125 46.734375 
Q 21.96875 47.46875 24.109375 47.828125 
Q 26.265625 48.1875 28.421875 48.1875 
Q 40.625 48.1875 47.75 41.5 
Q 54.890625 34.8125 54.890625 23.390625 
Q 54.890625 11.625 47.5625 5.09375 
Q 40.234375 -1.421875 26.90625 -1.421875 
Q 22.3125 -1.421875 17.546875 -0.640625 
Q 12.796875 0.140625 7.71875 1.703125 
L 7.71875 11.625 
Q 12.109375 9.234375 16.796875 8.0625 
Q 21.484375 6.890625 26.703125 6.890625 
Q 35.15625 6.890625 40.078125 11.328125 
Q 45.015625 15.765625 45.015625 23.390625 
Q 45.015625 31 40.078125 35.4375 
Q 35.15625 39.890625 26.703125 39.890625 
Q 22.75 39.890625 18.8125 39.015625 
Q 14.890625 38.140625 10.796875 36.28125 
z
" id="DejaVuSans-53"/>
       </defs>
       <use xlink:href="#DejaVuSans-53"/>
      </g>
     </g>
    </g>
    <g id="xtick_3">
     <g id="line2d_5">
      <path clip-path="url(#p249bdeb85d)" d="M 211.254091 339.64 
L 211.254091 15.12 
" style="fill:none;stroke:#ffffff;stroke-linecap:square;stroke-width:0.8;"/>
     </g>
     <g id="line2d_6">
      <g>
       <use style="fill:#555555;stroke:#555555;stroke-width:0.8;" x="211.254091" xlink:href="#m32482de668" y="339.64"/>
      </g>
     </g>
     <g id="text_3">
      <!-- 10 -->
      <g style="fill:#555555;" transform="translate(202.346591 357.277812)scale(0.14 -0.14)">
       <defs>
        <path d="M 12.40625 8.296875 
L 28.515625 8.296875 
L 28.515625 63.921875 
L 10.984375 60.40625 
L 10.984375 69.390625 
L 28.421875 72.90625 
L 38.28125 72.90625 
L 38.28125 8.296875 
L 54.390625 8.296875 
L 54.390625 0 
L 12.40625 0 
z
" id="DejaVuSans-49"/>
       </defs>
       <use xlink:href="#DejaVuSans-49"/>
       <use x="63.623047" xlink:href="#DejaVuSans-48"/>
      </g>
     </g>
    </g>
    <g id="xtick_4">
     <g id="line2d_7">
      <path clip-path="url(#p249bdeb85d)" d="M 270.535909 339.64 
L 270.535909 15.12 
" style="fill:none;stroke:#ffffff;stroke-linecap:square;stroke-width:0.8;"/>
     </g>
     <g id="line2d_8">
      <g>
       <use style="fill:#555555;stroke:#555555;stroke-width:0.8;" x="270.535909" xlink:href="#m32482de668" y="339.64"/>
      </g>
     </g>
     <g id="text_4">
      <!-- 15 -->
      <g style="fill:#555555;" transform="translate(261.628409 357.277812)scale(0.14 -0.14)">
       <use xlink:href="#DejaVuSans-49"/>
       <use x="63.623047" xlink:href="#DejaVuSans-53"/>
      </g>
     </g>
    </g>
    <g id="xtick_5">
     <g id="line2d_9">
      <path clip-path="url(#p249bdeb85d)" d="M 329.817727 339.64 
L 329.817727 15.12 
" style="fill:none;stroke:#ffffff;stroke-linecap:square;stroke-width:0.8;"/>
     </g>
     <g id="line2d_10">
      <g>
       <use style="fill:#555555;stroke:#555555;stroke-width:0.8;" x="329.817727" xlink:href="#m32482de668" y="339.64"/>
      </g>
     </g>
     <g id="text_5">
      <!-- 20 -->
      <g style="fill:#555555;" transform="translate(320.910227 357.277812)scale(0.14 -0.14)">
       <defs>
        <path d="M 19.1875 8.296875 
L 53.609375 8.296875 
L 53.609375 0 
L 7.328125 0 
L 7.328125 8.296875 
Q 12.9375 14.109375 22.625 23.890625 
Q 32.328125 33.6875 34.8125 36.53125 
Q 39.546875 41.84375 41.421875 45.53125 
Q 43.3125 49.21875 43.3125 52.78125 
Q 43.3125 58.59375 39.234375 62.25 
Q 35.15625 65.921875 28.609375 65.921875 
Q 23.96875 65.921875 18.8125 64.3125 
Q 13.671875 62.703125 7.8125 59.421875 
L 7.8125 69.390625 
Q 13.765625 71.78125 18.9375 73 
Q 24.125 74.21875 28.421875 74.21875 
Q 39.75 74.21875 46.484375 68.546875 
Q 53.21875 62.890625 53.21875 53.421875 
Q 53.21875 48.921875 51.53125 44.890625 
Q 49.859375 40.875 45.40625 35.40625 
Q 44.1875 33.984375 37.640625 27.21875 
Q 31.109375 20.453125 19.1875 8.296875 
z
" id="DejaVuSans-50"/>
       </defs>
       <use xlink:href="#DejaVuSans-50"/>
       <use x="63.623047" xlink:href="#DejaVuSans-48"/>
      </g>
     </g>
    </g>
    <g id="xtick_6">
     <g id="line2d_11">
      <path clip-path="url(#p249bdeb85d)" d="M 389.099545 339.64 
L 389.099545 15.12 
" style="fill:none;stroke:#ffffff;stroke-linecap:square;stroke-width:0.8;"/>
     </g>
     <g id="line2d_12">
      <g>
       <use style="fill:#555555;stroke:#555555;stroke-width:0.8;" x="389.099545" xlink:href="#m32482de668" y="339.64"/>
      </g>
     </g>
     <g id="text_6">
      <!-- 25 -->
      <g style="fill:#555555;" transform="translate(380.192045 357.277812)scale(0.14 -0.14)">
       <use xlink:href="#DejaVuSans-50"/>
       <use x="63.623047" xlink:href="#DejaVuSans-53"/>
      </g>
     </g>
    </g>
    <g id="text_7">
     <!-- x -->
     <g style="fill:#555555;" transform="translate(235.92325 376.95475)scale(0.168 -0.168)">
      <defs>
       <path d="M 54.890625 54.6875 
L 35.109375 28.078125 
L 55.90625 0 
L 45.3125 0 
L 29.390625 21.484375 
L 13.484375 0 
L 2.875 0 
L 24.125 28.609375 
L 4.6875 54.6875 
L 15.28125 54.6875 
L 29.78125 35.203125 
L 44.28125 54.6875 
z
" id="DejaVuSans-120"/>
      </defs>
      <use xlink:href="#DejaVuSans-120"/>
     </g>
    </g>
   </g>
   <g id="matplotlib.axis_2">
    <g id="ytick_1">
     <g id="line2d_13">
      <path clip-path="url(#p249bdeb85d)" d="M 77.87 339.64 
L 403.92 339.64 
" style="fill:none;stroke:#ffffff;stroke-linecap:square;stroke-width:0.8;"/>
     </g>
     <g id="line2d_14">
      <defs>
       <path d="M 0 0 
L -3.5 0 
" id="mb19248b784" style="stroke:#555555;stroke-width:0.8;"/>
      </defs>
      <g>
       <use style="fill:#555555;stroke:#555555;stroke-width:0.8;" x="77.87" xlink:href="#mb19248b784" y="339.64"/>
      </g>
     </g>
     <g id="text_8">
      <!-- 0.0 -->
      <g style="fill:#555555;" transform="translate(48.605625 344.958906)scale(0.14 -0.14)">
       <defs>
        <path d="M 10.6875 12.40625 
L 21 12.40625 
L 21 0 
L 10.6875 0 
z
" id="DejaVuSans-46"/>
       </defs>
       <use xlink:href="#DejaVuSans-48"/>
       <use x="63.623047" xlink:href="#DejaVuSans-46"/>
       <use x="95.410156" xlink:href="#DejaVuSans-48"/>
      </g>
     </g>
    </g>
    <g id="ytick_2">
     <g id="line2d_15">
      <path clip-path="url(#p249bdeb85d)" d="M 77.87 274.436062 
L 403.92 274.436062 
" style="fill:none;stroke:#ffffff;stroke-linecap:square;stroke-width:0.8;"/>
     </g>
     <g id="line2d_16">
      <g>
       <use style="fill:#555555;stroke:#555555;stroke-width:0.8;" x="77.87" xlink:href="#mb19248b784" y="274.436062"/>
      </g>
     </g>
     <g id="text_9">
      <!-- 0.1 -->
      <g style="fill:#555555;" transform="translate(48.605625 279.754968)scale(0.14 -0.14)">
       <use xlink:href="#DejaVuSans-48"/>
       <use x="63.623047" xlink:href="#DejaVuSans-46"/>
       <use x="95.410156" xlink:href="#DejaVuSans-49"/>
      </g>
     </g>
    </g>
    <g id="ytick_3">
     <g id="line2d_17">
      <path clip-path="url(#p249bdeb85d)" d="M 77.87 209.232124 
L 403.92 209.232124 
" style="fill:none;stroke:#ffffff;stroke-linecap:square;stroke-width:0.8;"/>
     </g>
     <g id="line2d_18">
      <g>
       <use style="fill:#555555;stroke:#555555;stroke-width:0.8;" x="77.87" xlink:href="#mb19248b784" y="209.232124"/>
      </g>
     </g>
     <g id="text_10">
      <!-- 0.2 -->
      <g style="fill:#555555;" transform="translate(48.605625 214.55103)scale(0.14 -0.14)">
       <use xlink:href="#DejaVuSans-48"/>
       <use x="63.623047" xlink:href="#DejaVuSans-46"/>
       <use x="95.410156" xlink:href="#DejaVuSans-50"/>
      </g>
     </g>
    </g>
    <g id="ytick_4">
     <g id="line2d_19">
      <path clip-path="url(#p249bdeb85d)" d="M 77.87 144.028186 
L 403.92 144.028186 
" style="fill:none;stroke:#ffffff;stroke-linecap:square;stroke-width:0.8;"/>
     </g>
     <g id="line2d_20">
      <g>
       <use style="fill:#555555;stroke:#555555;stroke-width:0.8;" x="77.87" xlink:href="#mb19248b784" y="144.028186"/>
      </g>
     </g>
     <g id="text_11">
      <!-- 0.3 -->
      <g style="fill:#555555;" transform="translate(48.605625 149.347092)scale(0.14 -0.14)">
       <defs>
        <path d="M 40.578125 39.3125 
Q 47.65625 37.796875 51.625 33 
Q 55.609375 28.21875 55.609375 21.1875 
Q 55.609375 10.40625 48.1875 4.484375 
Q 40.765625 -1.421875 27.09375 -1.421875 
Q 22.515625 -1.421875 17.65625 -0.515625 
Q 12.796875 0.390625 7.625 2.203125 
L 7.625 11.71875 
Q 11.71875 9.328125 16.59375 8.109375 
Q 21.484375 6.890625 26.8125 6.890625 
Q 36.078125 6.890625 40.9375 10.546875 
Q 45.796875 14.203125 45.796875 21.1875 
Q 45.796875 27.640625 41.28125 31.265625 
Q 36.765625 34.90625 28.71875 34.90625 
L 20.21875 34.90625 
L 20.21875 43.015625 
L 29.109375 43.015625 
Q 36.375 43.015625 40.234375 45.921875 
Q 44.09375 48.828125 44.09375 54.296875 
Q 44.09375 59.90625 40.109375 62.90625 
Q 36.140625 65.921875 28.71875 65.921875 
Q 24.65625 65.921875 20.015625 65.03125 
Q 15.375 64.15625 9.8125 62.3125 
L 9.8125 71.09375 
Q 15.4375 72.65625 20.34375 73.4375 
Q 25.25 74.21875 29.59375 74.21875 
Q 40.828125 74.21875 47.359375 69.109375 
Q 53.90625 64.015625 53.90625 55.328125 
Q 53.90625 49.265625 50.4375 45.09375 
Q 46.96875 40.921875 40.578125 39.3125 
z
" id="DejaVuSans-51"/>
       </defs>
       <use xlink:href="#DejaVuSans-48"/>
       <use x="63.623047" xlink:href="#DejaVuSans-46"/>
       <use x="95.410156" xlink:href="#DejaVuSans-51"/>
      </g>
     </g>
    </g>
    <g id="ytick_5">
     <g id="line2d_21">
      <path clip-path="url(#p249bdeb85d)" d="M 77.87 78.824248 
L 403.92 78.824248 
" style="fill:none;stroke:#ffffff;stroke-linecap:square;stroke-width:0.8;"/>
     </g>
     <g id="line2d_22">
      <g>
       <use style="fill:#555555;stroke:#555555;stroke-width:0.8;" x="77.87" xlink:href="#mb19248b784" y="78.824248"/>
      </g>
     </g>
     <g id="text_12">
      <!-- 0.4 -->
      <g style="fill:#555555;" transform="translate(48.605625 84.143154)scale(0.14 -0.14)">
       <defs>
        <path d="M 37.796875 64.3125 
L 12.890625 25.390625 
L 37.796875 25.390625 
z
M 35.203125 72.90625 
L 47.609375 72.90625 
L 47.609375 25.390625 
L 58.015625 25.390625 
L 58.015625 17.1875 
L 47.609375 17.1875 
L 47.609375 0 
L 37.796875 0 
L 37.796875 17.1875 
L 4.890625 17.1875 
L 4.890625 26.703125 
z
" id="DejaVuSans-52"/>
       </defs>
       <use xlink:href="#DejaVuSans-48"/>
       <use x="63.623047" xlink:href="#DejaVuSans-46"/>
       <use x="95.410156" xlink:href="#DejaVuSans-52"/>
      </g>
     </g>
    </g>
    <g id="text_13">
     <!-- Number of samples -->
     <g style="fill:#555555;" transform="translate(41.11175 259.476875)rotate(-90)scale(0.168 -0.168)">
      <defs>
       <path d="M 9.8125 72.90625 
L 23.09375 72.90625 
L 55.421875 11.921875 
L 55.421875 72.90625 
L 64.984375 72.90625 
L 64.984375 0 
L 51.703125 0 
L 19.390625 60.984375 
L 19.390625 0 
L 9.8125 0 
z
" id="DejaVuSans-78"/>
       <path d="M 8.5 21.578125 
L 8.5 54.6875 
L 17.484375 54.6875 
L 17.484375 21.921875 
Q 17.484375 14.15625 20.5 10.265625 
Q 23.53125 6.390625 29.59375 6.390625 
Q 36.859375 6.390625 41.078125 11.03125 
Q 45.3125 15.671875 45.3125 23.6875 
L 45.3125 54.6875 
L 54.296875 54.6875 
L 54.296875 0 
L 45.3125 0 
L 45.3125 8.40625 
Q 42.046875 3.421875 37.71875 1 
Q 33.40625 -1.421875 27.6875 -1.421875 
Q 18.265625 -1.421875 13.375 4.4375 
Q 8.5 10.296875 8.5 21.578125 
z
M 31.109375 56 
z
" id="DejaVuSans-117"/>
       <path d="M 52 44.1875 
Q 55.375 50.25 60.0625 53.125 
Q 64.75 56 71.09375 56 
Q 79.640625 56 84.28125 50.015625 
Q 88.921875 44.046875 88.921875 33.015625 
L 88.921875 0 
L 79.890625 0 
L 79.890625 32.71875 
Q 79.890625 40.578125 77.09375 44.375 
Q 74.3125 48.1875 68.609375 48.1875 
Q 61.625 48.1875 57.5625 43.546875 
Q 53.515625 38.921875 53.515625 30.90625 
L 53.515625 0 
L 44.484375 0 
L 44.484375 32.71875 
Q 44.484375 40.625 41.703125 44.40625 
Q 38.921875 48.1875 33.109375 48.1875 
Q 26.21875 48.1875 22.15625 43.53125 
Q 18.109375 38.875 18.109375 30.90625 
L 18.109375 0 
L 9.078125 0 
L 9.078125 54.6875 
L 18.109375 54.6875 
L 18.109375 46.1875 
Q 21.1875 51.21875 25.484375 53.609375 
Q 29.78125 56 35.6875 56 
Q 41.65625 56 45.828125 52.96875 
Q 50 49.953125 52 44.1875 
z
" id="DejaVuSans-109"/>
       <path d="M 48.6875 27.296875 
Q 48.6875 37.203125 44.609375 42.84375 
Q 40.53125 48.484375 33.40625 48.484375 
Q 26.265625 48.484375 22.1875 42.84375 
Q 18.109375 37.203125 18.109375 27.296875 
Q 18.109375 17.390625 22.1875 11.75 
Q 26.265625 6.109375 33.40625 6.109375 
Q 40.53125 6.109375 44.609375 11.75 
Q 48.6875 17.390625 48.6875 27.296875 
z
M 18.109375 46.390625 
Q 20.953125 51.265625 25.265625 53.625 
Q 29.59375 56 35.59375 56 
Q 45.5625 56 51.78125 48.09375 
Q 58.015625 40.1875 58.015625 27.296875 
Q 58.015625 14.40625 51.78125 6.484375 
Q 45.5625 -1.421875 35.59375 -1.421875 
Q 29.59375 -1.421875 25.265625 0.953125 
Q 20.953125 3.328125 18.109375 8.203125 
L 18.109375 0 
L 9.078125 0 
L 9.078125 75.984375 
L 18.109375 75.984375 
z
" id="DejaVuSans-98"/>
       <path d="M 56.203125 29.59375 
L 56.203125 25.203125 
L 14.890625 25.203125 
Q 15.484375 15.921875 20.484375 11.0625 
Q 25.484375 6.203125 34.421875 6.203125 
Q 39.59375 6.203125 44.453125 7.46875 
Q 49.3125 8.734375 54.109375 11.28125 
L 54.109375 2.78125 
Q 49.265625 0.734375 44.1875 -0.34375 
Q 39.109375 -1.421875 33.890625 -1.421875 
Q 20.796875 -1.421875 13.15625 6.1875 
Q 5.515625 13.8125 5.515625 26.8125 
Q 5.515625 40.234375 12.765625 48.109375 
Q 20.015625 56 32.328125 56 
Q 43.359375 56 49.78125 48.890625 
Q 56.203125 41.796875 56.203125 29.59375 
z
M 47.21875 32.234375 
Q 47.125 39.59375 43.09375 43.984375 
Q 39.0625 48.390625 32.421875 48.390625 
Q 24.90625 48.390625 20.390625 44.140625 
Q 15.875 39.890625 15.1875 32.171875 
z
" id="DejaVuSans-101"/>
       <path d="M 41.109375 46.296875 
Q 39.59375 47.171875 37.8125 47.578125 
Q 36.03125 48 33.890625 48 
Q 26.265625 48 22.1875 43.046875 
Q 18.109375 38.09375 18.109375 28.8125 
L 18.109375 0 
L 9.078125 0 
L 9.078125 54.6875 
L 18.109375 54.6875 
L 18.109375 46.1875 
Q 20.953125 51.171875 25.484375 53.578125 
Q 30.03125 56 36.53125 56 
Q 37.453125 56 38.578125 55.875 
Q 39.703125 55.765625 41.0625 55.515625 
z
" id="DejaVuSans-114"/>
       <path id="DejaVuSans-32"/>
       <path d="M 30.609375 48.390625 
Q 23.390625 48.390625 19.1875 42.75 
Q 14.984375 37.109375 14.984375 27.296875 
Q 14.984375 17.484375 19.15625 11.84375 
Q 23.34375 6.203125 30.609375 6.203125 
Q 37.796875 6.203125 41.984375 11.859375 
Q 46.1875 17.53125 46.1875 27.296875 
Q 46.1875 37.015625 41.984375 42.703125 
Q 37.796875 48.390625 30.609375 48.390625 
z
M 30.609375 56 
Q 42.328125 56 49.015625 48.375 
Q 55.71875 40.765625 55.71875 27.296875 
Q 55.71875 13.875 49.015625 6.21875 
Q 42.328125 -1.421875 30.609375 -1.421875 
Q 18.84375 -1.421875 12.171875 6.21875 
Q 5.515625 13.875 5.515625 27.296875 
Q 5.515625 40.765625 12.171875 48.375 
Q 18.84375 56 30.609375 56 
z
" id="DejaVuSans-111"/>
       <path d="M 37.109375 75.984375 
L 37.109375 68.5 
L 28.515625 68.5 
Q 23.6875 68.5 21.796875 66.546875 
Q 19.921875 64.59375 19.921875 59.515625 
L 19.921875 54.6875 
L 34.71875 54.6875 
L 34.71875 47.703125 
L 19.921875 47.703125 
L 19.921875 0 
L 10.890625 0 
L 10.890625 47.703125 
L 2.296875 47.703125 
L 2.296875 54.6875 
L 10.890625 54.6875 
L 10.890625 58.5 
Q 10.890625 67.625 15.140625 71.796875 
Q 19.390625 75.984375 28.609375 75.984375 
z
" id="DejaVuSans-102"/>
       <path d="M 44.28125 53.078125 
L 44.28125 44.578125 
Q 40.484375 46.53125 36.375 47.5 
Q 32.28125 48.484375 27.875 48.484375 
Q 21.1875 48.484375 17.84375 46.4375 
Q 14.5 44.390625 14.5 40.28125 
Q 14.5 37.15625 16.890625 35.375 
Q 19.28125 33.59375 26.515625 31.984375 
L 29.59375 31.296875 
Q 39.15625 29.25 43.1875 25.515625 
Q 47.21875 21.78125 47.21875 15.09375 
Q 47.21875 7.46875 41.1875 3.015625 
Q 35.15625 -1.421875 24.609375 -1.421875 
Q 20.21875 -1.421875 15.453125 -0.5625 
Q 10.6875 0.296875 5.421875 2 
L 5.421875 11.28125 
Q 10.40625 8.6875 15.234375 7.390625 
Q 20.0625 6.109375 24.8125 6.109375 
Q 31.15625 6.109375 34.5625 8.28125 
Q 37.984375 10.453125 37.984375 14.40625 
Q 37.984375 18.0625 35.515625 20.015625 
Q 33.0625 21.96875 24.703125 23.78125 
L 21.578125 24.515625 
Q 13.234375 26.265625 9.515625 29.90625 
Q 5.8125 33.546875 5.8125 39.890625 
Q 5.8125 47.609375 11.28125 51.796875 
Q 16.75 56 26.8125 56 
Q 31.78125 56 36.171875 55.265625 
Q 40.578125 54.546875 44.28125 53.078125 
z
" id="DejaVuSans-115"/>
       <path d="M 34.28125 27.484375 
Q 23.390625 27.484375 19.1875 25 
Q 14.984375 22.515625 14.984375 16.5 
Q 14.984375 11.71875 18.140625 8.90625 
Q 21.296875 6.109375 26.703125 6.109375 
Q 34.1875 6.109375 38.703125 11.40625 
Q 43.21875 16.703125 43.21875 25.484375 
L 43.21875 27.484375 
z
M 52.203125 31.203125 
L 52.203125 0 
L 43.21875 0 
L 43.21875 8.296875 
Q 40.140625 3.328125 35.546875 0.953125 
Q 30.953125 -1.421875 24.3125 -1.421875 
Q 15.921875 -1.421875 10.953125 3.296875 
Q 6 8.015625 6 15.921875 
Q 6 25.140625 12.171875 29.828125 
Q 18.359375 34.515625 30.609375 34.515625 
L 43.21875 34.515625 
L 43.21875 35.40625 
Q 43.21875 41.609375 39.140625 45 
Q 35.0625 48.390625 27.6875 48.390625 
Q 23 48.390625 18.546875 47.265625 
Q 14.109375 46.140625 10.015625 43.890625 
L 10.015625 52.203125 
Q 14.9375 54.109375 19.578125 55.046875 
Q 24.21875 56 28.609375 56 
Q 40.484375 56 46.34375 49.84375 
Q 52.203125 43.703125 52.203125 31.203125 
z
" id="DejaVuSans-97"/>
       <path d="M 18.109375 8.203125 
L 18.109375 -20.796875 
L 9.078125 -20.796875 
L 9.078125 54.6875 
L 18.109375 54.6875 
L 18.109375 46.390625 
Q 20.953125 51.265625 25.265625 53.625 
Q 29.59375 56 35.59375 56 
Q 45.5625 56 51.78125 48.09375 
Q 58.015625 40.1875 58.015625 27.296875 
Q 58.015625 14.40625 51.78125 6.484375 
Q 45.5625 -1.421875 35.59375 -1.421875 
Q 29.59375 -1.421875 25.265625 0.953125 
Q 20.953125 3.328125 18.109375 8.203125 
z
M 48.6875 27.296875 
Q 48.6875 37.203125 44.609375 42.84375 
Q 40.53125 48.484375 33.40625 48.484375 
Q 26.265625 48.484375 22.1875 42.84375 
Q 18.109375 37.203125 18.109375 27.296875 
Q 18.109375 17.390625 22.1875 11.75 
Q 26.265625 6.109375 33.40625 6.109375 
Q 40.53125 6.109375 44.609375 11.75 
Q 48.6875 17.390625 48.6875 27.296875 
z
" id="DejaVuSans-112"/>
       <path d="M 9.421875 75.984375 
L 18.40625 75.984375 
L 18.40625 0 
L 9.421875 0 
z
" id="DejaVuSans-108"/>
      </defs>
      <use xlink:href="#DejaVuSans-78"/>
      <use x="74.804688" xlink:href="#DejaVuSans-117"/>
      <use x="138.183594" xlink:href="#DejaVuSans-109"/>
      <use x="235.595703" xlink:href="#DejaVuSans-98"/>
      <use x="299.072266" xlink:href="#DejaVuSans-101"/>
      <use x="360.595703" xlink:href="#DejaVuSans-114"/>
      <use x="401.708984" xlink:href="#DejaVuSans-32"/>
      <use x="433.496094" xlink:href="#DejaVuSans-111"/>
      <use x="494.677734" xlink:href="#DejaVuSans-102"/>
      <use x="529.882812" xlink:href="#DejaVuSans-32"/>
      <use x="561.669922" xlink:href="#DejaVuSans-115"/>
      <use x="613.769531" xlink:href="#DejaVuSans-97"/>
      <use x="675.048828" xlink:href="#DejaVuSans-109"/>
      <use x="772.460938" xlink:href="#DejaVuSans-112"/>
      <use x="835.9375" xlink:href="#DejaVuSans-108"/>
      <use x="863.720703" xlink:href="#DejaVuSans-101"/>
      <use x="925.244141" xlink:href="#DejaVuSans-115"/>
     </g>
    </g>
   </g>
   <g id="patch_3">
    <path clip-path="url(#p249bdeb85d)" d="M 92.690455 339.64 
L 96.442468 339.64 
L 96.442468 339.64 
L 92.690455 339.64 
z
" style="fill:#e24a33;opacity:0.8;"/>
   </g>
   <g id="patch_4">
    <path clip-path="url(#p249bdeb85d)" d="M 96.442468 339.64 
L 100.194482 339.64 
L 100.194482 339.64 
L 96.442468 339.64 
z
" style="fill:#e24a33;opacity:0.8;"/>
   </g>
   <g id="patch_5">
    <path clip-path="url(#p249bdeb85d)" d="M 100.194482 339.64 
L 103.946496 339.64 
L 103.946496 339.64 
L 100.194482 339.64 
z
" style="fill:#e24a33;opacity:0.8;"/>
   </g>
   <g id="patch_6">
    <path clip-path="url(#p249bdeb85d)" d="M 103.946496 339.64 
L 107.69851 339.64 
L 107.69851 339.64 
L 103.946496 339.64 
z
" style="fill:#e24a33;opacity:0.8;"/>
   </g>
   <g id="patch_7">
    <path clip-path="url(#p249bdeb85d)" d="M 107.69851 339.64 
L 111.450524 339.64 
L 111.450524 339.64 
L 107.69851 339.64 
z
" style="fill:#e24a33;opacity:0.8;"/>
   </g>
   <g id="patch_8">
    <path clip-path="url(#p249bdeb85d)" d="M 111.450524 339.64 
L 115.202537 339.64 
L 115.202537 339.64 
L 111.450524 339.64 
z
" style="fill:#e24a33;opacity:0.8;"/>
   </g>
   <g id="patch_9">
    <path clip-path="url(#p249bdeb85d)" d="M 115.202537 339.64 
L 118.954551 339.64 
L 118.954551 339.64 
L 115.202537 339.64 
z
" style="fill:#e24a33;opacity:0.8;"/>
   </g>
   <g id="patch_10">
    <path clip-path="url(#p249bdeb85d)" d="M 118.954551 339.64 
L 122.706565 339.64 
L 122.706565 339.64 
L 118.954551 339.64 
z
" style="fill:#e24a33;opacity:0.8;"/>
   </g>
   <g id="patch_11">
    <path clip-path="url(#p249bdeb85d)" d="M 122.706565 339.64 
L 126.458579 339.64 
L 126.458579 339.64 
L 122.706565 339.64 
z
" style="fill:#e24a33;opacity:0.8;"/>
   </g>
   <g id="patch_12">
    <path clip-path="url(#p249bdeb85d)" d="M 126.458579 339.64 
L 130.210593 339.64 
L 130.210593 339.64 
L 126.458579 339.64 
z
" style="fill:#e24a33;opacity:0.8;"/>
   </g>
   <g id="patch_13">
    <path clip-path="url(#p249bdeb85d)" d="M 130.210593 339.64 
L 133.962606 339.64 
L 133.962606 339.64 
L 130.210593 339.64 
z
" style="fill:#e24a33;opacity:0.8;"/>
   </g>
   <g id="patch_14">
    <path clip-path="url(#p249bdeb85d)" d="M 133.962606 339.64 
L 137.71462 339.64 
L 137.71462 339.64 
L 133.962606 339.64 
z
" style="fill:#e24a33;opacity:0.8;"/>
   </g>
   <g id="patch_15">
    <path clip-path="url(#p249bdeb85d)" d="M 137.71462 339.64 
L 141.466634 339.64 
L 141.466634 339.64 
L 137.71462 339.64 
z
" style="fill:#e24a33;opacity:0.8;"/>
   </g>
   <g id="patch_16">
    <path clip-path="url(#p249bdeb85d)" d="M 141.466634 339.64 
L 145.218648 339.64 
L 145.218648 339.64 
L 141.466634 339.64 
z
" style="fill:#e24a33;opacity:0.8;"/>
   </g>
   <g id="patch_17">
    <path clip-path="url(#p249bdeb85d)" d="M 145.218648 339.64 
L 148.970662 339.64 
L 148.970662 319.035556 
L 145.218648 319.035556 
z
" style="fill:#e24a33;opacity:0.8;"/>
   </g>
   <g id="patch_18">
    <path clip-path="url(#p249bdeb85d)" d="M 148.970662 339.64 
L 152.722675 339.64 
L 152.722675 298.431111 
L 148.970662 298.431111 
z
" style="fill:#e24a33;opacity:0.8;"/>
   </g>
   <g id="patch_19">
    <path clip-path="url(#p249bdeb85d)" d="M 152.722675 339.64 
L 156.474689 339.64 
L 156.474689 257.222222 
L 152.722675 257.222222 
z
" style="fill:#e24a33;opacity:0.8;"/>
   </g>
   <g id="patch_20">
    <path clip-path="url(#p249bdeb85d)" d="M 156.474689 339.64 
L 160.226703 339.64 
L 160.226703 277.826667 
L 156.474689 277.826667 
z
" style="fill:#e24a33;opacity:0.8;"/>
   </g>
   <g id="patch_21">
    <path clip-path="url(#p249bdeb85d)" d="M 160.226703 339.64 
L 163.978717 339.64 
L 163.978717 92.386667 
L 160.226703 92.386667 
z
" style="fill:#e24a33;opacity:0.8;"/>
   </g>
   <g id="patch_22">
    <path clip-path="url(#p249bdeb85d)" d="M 163.978717 339.64 
L 167.730731 339.64 
L 167.730731 154.2 
L 163.978717 154.2 
z
" style="fill:#e24a33;opacity:0.8;"/>
   </g>
   <g id="patch_23">
    <path clip-path="url(#p249bdeb85d)" d="M 167.730731 339.64 
L 171.482745 339.64 
L 171.482745 30.573333 
L 167.730731 30.573333 
z
" style="fill:#e24a33;opacity:0.8;"/>
   </g>
   <g id="patch_24">
    <path clip-path="url(#p249bdeb85d)" d="M 171.482745 339.64 
L 175.234758 339.64 
L 175.234758 195.408889 
L 171.482745 195.408889 
z
" style="fill:#e24a33;opacity:0.8;"/>
   </g>
   <g id="patch_25">
    <path clip-path="url(#p249bdeb85d)" d="M 175.234758 339.64 
L 178.986772 339.64 
L 178.986772 112.991111 
L 175.234758 112.991111 
z
" style="fill:#e24a33;opacity:0.8;"/>
   </g>
   <g id="patch_26">
    <path clip-path="url(#p249bdeb85d)" d="M 178.986772 339.64 
L 182.738786 339.64 
L 182.738786 133.595556 
L 178.986772 133.595556 
z
" style="fill:#e24a33;opacity:0.8;"/>
   </g>
   <g id="patch_27">
    <path clip-path="url(#p249bdeb85d)" d="M 182.738786 339.64 
L 186.4908 339.64 
L 186.4908 195.408889 
L 182.738786 195.408889 
z
" style="fill:#e24a33;opacity:0.8;"/>
   </g>
   <g id="patch_28">
    <path clip-path="url(#p249bdeb85d)" d="M 186.4908 339.64 
L 190.242814 339.64 
L 190.242814 195.408889 
L 186.4908 195.408889 
z
" style="fill:#e24a33;opacity:0.8;"/>
   </g>
   <g id="patch_29">
    <path clip-path="url(#p249bdeb85d)" d="M 190.242814 339.64 
L 193.994827 339.64 
L 193.994827 216.013333 
L 190.242814 216.013333 
z
" style="fill:#e24a33;opacity:0.8;"/>
   </g>
   <g id="patch_30">
    <path clip-path="url(#p249bdeb85d)" d="M 193.994827 339.64 
L 197.746841 339.64 
L 197.746841 257.222222 
L 193.994827 257.222222 
z
" style="fill:#e24a33;opacity:0.8;"/>
   </g>
   <g id="patch_31">
    <path clip-path="url(#p249bdeb85d)" d="M 197.746841 339.64 
L 201.498855 339.64 
L 201.498855 319.035556 
L 197.746841 319.035556 
z
" style="fill:#e24a33;opacity:0.8;"/>
   </g>
   <g id="patch_32">
    <path clip-path="url(#p249bdeb85d)" d="M 201.498855 339.64 
L 205.250869 339.64 
L 205.250869 339.64 
L 201.498855 339.64 
z
" style="fill:#e24a33;opacity:0.8;"/>
   </g>
   <g id="patch_33">
    <path clip-path="url(#p249bdeb85d)" d="M 205.250869 339.64 
L 209.002883 339.64 
L 209.002883 319.035556 
L 205.250869 319.035556 
z
" style="fill:#e24a33;opacity:0.8;"/>
   </g>
   <g id="patch_34">
    <path clip-path="url(#p249bdeb85d)" d="M 209.002883 339.64 
L 212.754896 339.64 
L 212.754896 339.64 
L 209.002883 339.64 
z
" style="fill:#e24a33;opacity:0.8;"/>
   </g>
   <g id="patch_35">
    <path clip-path="url(#p249bdeb85d)" d="M 212.754896 339.64 
L 216.50691 339.64 
L 216.50691 339.64 
L 212.754896 339.64 
z
" style="fill:#e24a33;opacity:0.8;"/>
   </g>
   <g id="patch_36">
    <path clip-path="url(#p249bdeb85d)" d="M 216.50691 339.64 
L 220.258924 339.64 
L 220.258924 339.64 
L 216.50691 339.64 
z
" style="fill:#e24a33;opacity:0.8;"/>
   </g>
   <g id="patch_37">
    <path clip-path="url(#p249bdeb85d)" d="M 220.258924 339.64 
L 224.010938 339.64 
L 224.010938 339.64 
L 220.258924 339.64 
z
" style="fill:#e24a33;opacity:0.8;"/>
   </g>
   <g id="patch_38">
    <path clip-path="url(#p249bdeb85d)" d="M 224.010938 339.64 
L 227.762952 339.64 
L 227.762952 339.64 
L 224.010938 339.64 
z
" style="fill:#e24a33;opacity:0.8;"/>
   </g>
   <g id="patch_39">
    <path clip-path="url(#p249bdeb85d)" d="M 227.762952 339.64 
L 231.514965 339.64 
L 231.514965 339.64 
L 227.762952 339.64 
z
" style="fill:#e24a33;opacity:0.8;"/>
   </g>
   <g id="patch_40">
    <path clip-path="url(#p249bdeb85d)" d="M 231.514965 339.64 
L 235.266979 339.64 
L 235.266979 339.64 
L 231.514965 339.64 
z
" style="fill:#e24a33;opacity:0.8;"/>
   </g>
   <g id="patch_41">
    <path clip-path="url(#p249bdeb85d)" d="M 235.266979 339.64 
L 239.018993 339.64 
L 239.018993 339.64 
L 235.266979 339.64 
z
" style="fill:#e24a33;opacity:0.8;"/>
   </g>
   <g id="patch_42">
    <path clip-path="url(#p249bdeb85d)" d="M 239.018993 339.64 
L 242.771007 339.64 
L 242.771007 339.64 
L 239.018993 339.64 
z
" style="fill:#e24a33;opacity:0.8;"/>
   </g>
   <g id="patch_43">
    <path clip-path="url(#p249bdeb85d)" d="M 242.771007 339.64 
L 246.523021 339.64 
L 246.523021 339.64 
L 242.771007 339.64 
z
" style="fill:#e24a33;opacity:0.8;"/>
   </g>
   <g id="patch_44">
    <path clip-path="url(#p249bdeb85d)" d="M 246.523021 339.64 
L 250.275035 339.64 
L 250.275035 339.64 
L 246.523021 339.64 
z
" style="fill:#e24a33;opacity:0.8;"/>
   </g>
   <g id="patch_45">
    <path clip-path="url(#p249bdeb85d)" d="M 250.275035 339.64 
L 254.027048 339.64 
L 254.027048 339.64 
L 250.275035 339.64 
z
" style="fill:#e24a33;opacity:0.8;"/>
   </g>
   <g id="patch_46">
    <path clip-path="url(#p249bdeb85d)" d="M 254.027048 339.64 
L 257.779062 339.64 
L 257.779062 339.64 
L 254.027048 339.64 
z
" style="fill:#e24a33;opacity:0.8;"/>
   </g>
   <g id="patch_47">
    <path clip-path="url(#p249bdeb85d)" d="M 257.779062 339.64 
L 261.531076 339.64 
L 261.531076 339.64 
L 257.779062 339.64 
z
" style="fill:#e24a33;opacity:0.8;"/>
   </g>
   <g id="patch_48">
    <path clip-path="url(#p249bdeb85d)" d="M 261.531076 339.64 
L 265.28309 339.64 
L 265.28309 339.64 
L 261.531076 339.64 
z
" style="fill:#e24a33;opacity:0.8;"/>
   </g>
   <g id="patch_49">
    <path clip-path="url(#p249bdeb85d)" d="M 265.28309 339.64 
L 269.035104 339.64 
L 269.035104 339.64 
L 265.28309 339.64 
z
" style="fill:#e24a33;opacity:0.8;"/>
   </g>
   <g id="patch_50">
    <path clip-path="url(#p249bdeb85d)" d="M 269.035104 339.64 
L 272.787117 339.64 
L 272.787117 339.64 
L 269.035104 339.64 
z
" style="fill:#e24a33;opacity:0.8;"/>
   </g>
   <g id="patch_51">
    <path clip-path="url(#p249bdeb85d)" d="M 272.787117 339.64 
L 276.539131 339.64 
L 276.539131 339.64 
L 272.787117 339.64 
z
" style="fill:#e24a33;opacity:0.8;"/>
   </g>
   <g id="patch_52">
    <path clip-path="url(#p249bdeb85d)" d="M 276.539131 339.64 
L 280.291145 339.64 
L 280.291145 339.64 
L 276.539131 339.64 
z
" style="fill:#e24a33;opacity:0.8;"/>
   </g>
   <g id="patch_53">
    <path clip-path="url(#p249bdeb85d)" d="M 280.291145 339.64 
L 284.043159 339.64 
L 284.043159 339.64 
L 280.291145 339.64 
z
" style="fill:#e24a33;opacity:0.8;"/>
   </g>
   <g id="patch_54">
    <path clip-path="url(#p249bdeb85d)" d="M 284.043159 339.64 
L 287.795173 339.64 
L 287.795173 339.64 
L 284.043159 339.64 
z
" style="fill:#e24a33;opacity:0.8;"/>
   </g>
   <g id="patch_55">
    <path clip-path="url(#p249bdeb85d)" d="M 287.795173 339.64 
L 291.547186 339.64 
L 291.547186 339.64 
L 287.795173 339.64 
z
" style="fill:#e24a33;opacity:0.8;"/>
   </g>
   <g id="patch_56">
    <path clip-path="url(#p249bdeb85d)" d="M 291.547186 339.64 
L 295.2992 339.64 
L 295.2992 339.64 
L 291.547186 339.64 
z
" style="fill:#e24a33;opacity:0.8;"/>
   </g>
   <g id="patch_57">
    <path clip-path="url(#p249bdeb85d)" d="M 295.2992 339.64 
L 299.051214 339.64 
L 299.051214 339.64 
L 295.2992 339.64 
z
" style="fill:#e24a33;opacity:0.8;"/>
   </g>
   <g id="patch_58">
    <path clip-path="url(#p249bdeb85d)" d="M 299.051214 339.64 
L 302.803228 339.64 
L 302.803228 339.64 
L 299.051214 339.64 
z
" style="fill:#e24a33;opacity:0.8;"/>
   </g>
   <g id="patch_59">
    <path clip-path="url(#p249bdeb85d)" d="M 302.803228 339.64 
L 306.555242 339.64 
L 306.555242 339.64 
L 302.803228 339.64 
z
" style="fill:#e24a33;opacity:0.8;"/>
   </g>
   <g id="patch_60">
    <path clip-path="url(#p249bdeb85d)" d="M 306.555242 339.64 
L 310.307255 339.64 
L 310.307255 339.64 
L 306.555242 339.64 
z
" style="fill:#e24a33;opacity:0.8;"/>
   </g>
   <g id="patch_61">
    <path clip-path="url(#p249bdeb85d)" d="M 310.307255 339.64 
L 314.059269 339.64 
L 314.059269 339.64 
L 310.307255 339.64 
z
" style="fill:#e24a33;opacity:0.8;"/>
   </g>
   <g id="patch_62">
    <path clip-path="url(#p249bdeb85d)" d="M 314.059269 339.64 
L 317.811283 339.64 
L 317.811283 339.64 
L 314.059269 339.64 
z
" style="fill:#e24a33;opacity:0.8;"/>
   </g>
   <g id="patch_63">
    <path clip-path="url(#p249bdeb85d)" d="M 317.811283 339.64 
L 321.563297 339.64 
L 321.563297 339.64 
L 317.811283 339.64 
z
" style="fill:#e24a33;opacity:0.8;"/>
   </g>
   <g id="patch_64">
    <path clip-path="url(#p249bdeb85d)" d="M 321.563297 339.64 
L 325.315311 339.64 
L 325.315311 339.64 
L 321.563297 339.64 
z
" style="fill:#e24a33;opacity:0.8;"/>
   </g>
   <g id="patch_65">
    <path clip-path="url(#p249bdeb85d)" d="M 325.315311 339.64 
L 329.067325 339.64 
L 329.067325 339.64 
L 325.315311 339.64 
z
" style="fill:#e24a33;opacity:0.8;"/>
   </g>
   <g id="patch_66">
    <path clip-path="url(#p249bdeb85d)" d="M 329.067325 339.64 
L 332.819338 339.64 
L 332.819338 339.64 
L 329.067325 339.64 
z
" style="fill:#e24a33;opacity:0.8;"/>
   </g>
   <g id="patch_67">
    <path clip-path="url(#p249bdeb85d)" d="M 332.819338 339.64 
L 336.571352 339.64 
L 336.571352 339.64 
L 332.819338 339.64 
z
" style="fill:#e24a33;opacity:0.8;"/>
   </g>
   <g id="patch_68">
    <path clip-path="url(#p249bdeb85d)" d="M 336.571352 339.64 
L 340.323366 339.64 
L 340.323366 339.64 
L 336.571352 339.64 
z
" style="fill:#e24a33;opacity:0.8;"/>
   </g>
   <g id="patch_69">
    <path clip-path="url(#p249bdeb85d)" d="M 340.323366 339.64 
L 344.07538 339.64 
L 344.07538 339.64 
L 340.323366 339.64 
z
" style="fill:#e24a33;opacity:0.8;"/>
   </g>
   <g id="patch_70">
    <path clip-path="url(#p249bdeb85d)" d="M 344.07538 339.64 
L 347.827394 339.64 
L 347.827394 339.64 
L 344.07538 339.64 
z
" style="fill:#e24a33;opacity:0.8;"/>
   </g>
   <g id="patch_71">
    <path clip-path="url(#p249bdeb85d)" d="M 347.827394 339.64 
L 351.579407 339.64 
L 351.579407 339.64 
L 347.827394 339.64 
z
" style="fill:#e24a33;opacity:0.8;"/>
   </g>
   <g id="patch_72">
    <path clip-path="url(#p249bdeb85d)" d="M 351.579407 339.64 
L 355.331421 339.64 
L 355.331421 339.64 
L 351.579407 339.64 
z
" style="fill:#e24a33;opacity:0.8;"/>
   </g>
   <g id="patch_73">
    <path clip-path="url(#p249bdeb85d)" d="M 355.331421 339.64 
L 359.083435 339.64 
L 359.083435 339.64 
L 355.331421 339.64 
z
" style="fill:#e24a33;opacity:0.8;"/>
   </g>
   <g id="patch_74">
    <path clip-path="url(#p249bdeb85d)" d="M 359.083435 339.64 
L 362.835449 339.64 
L 362.835449 339.64 
L 359.083435 339.64 
z
" style="fill:#e24a33;opacity:0.8;"/>
   </g>
   <g id="patch_75">
    <path clip-path="url(#p249bdeb85d)" d="M 362.835449 339.64 
L 366.587463 339.64 
L 366.587463 339.64 
L 362.835449 339.64 
z
" style="fill:#e24a33;opacity:0.8;"/>
   </g>
   <g id="patch_76">
    <path clip-path="url(#p249bdeb85d)" d="M 366.587463 339.64 
L 370.339476 339.64 
L 370.339476 339.64 
L 366.587463 339.64 
z
" style="fill:#e24a33;opacity:0.8;"/>
   </g>
   <g id="patch_77">
    <path clip-path="url(#p249bdeb85d)" d="M 370.339476 339.64 
L 374.09149 339.64 
L 374.09149 339.64 
L 370.339476 339.64 
z
" style="fill:#e24a33;opacity:0.8;"/>
   </g>
   <g id="patch_78">
    <path clip-path="url(#p249bdeb85d)" d="M 374.09149 339.64 
L 377.843504 339.64 
L 377.843504 339.64 
L 374.09149 339.64 
z
" style="fill:#e24a33;opacity:0.8;"/>
   </g>
   <g id="patch_79">
    <path clip-path="url(#p249bdeb85d)" d="M 377.843504 339.64 
L 381.595518 339.64 
L 381.595518 339.64 
L 377.843504 339.64 
z
" style="fill:#e24a33;opacity:0.8;"/>
   </g>
   <g id="patch_80">
    <path clip-path="url(#p249bdeb85d)" d="M 381.595518 339.64 
L 385.347532 339.64 
L 385.347532 339.64 
L 381.595518 339.64 
z
" style="fill:#e24a33;opacity:0.8;"/>
   </g>
   <g id="patch_81">
    <path clip-path="url(#p249bdeb85d)" d="M 385.347532 339.64 
L 389.099545 339.64 
L 389.099545 339.64 
L 385.347532 339.64 
z
" style="fill:#e24a33;opacity:0.8;"/>
   </g>
   <g id="patch_82">
    <path clip-path="url(#p249bdeb85d)" d="M 92.690455 339.64 
L 96.442468 339.64 
L 96.442468 339.64 
L 92.690455 339.64 
z
" style="fill:#348abd;opacity:0.8;"/>
   </g>
   <g id="patch_83">
    <path clip-path="url(#p249bdeb85d)" d="M 96.442468 339.64 
L 100.194482 339.64 
L 100.194482 339.64 
L 96.442468 339.64 
z
" style="fill:#348abd;opacity:0.8;"/>
   </g>
   <g id="patch_84">
    <path clip-path="url(#p249bdeb85d)" d="M 100.194482 339.64 
L 103.946496 339.64 
L 103.946496 339.64 
L 100.194482 339.64 
z
" style="fill:#348abd;opacity:0.8;"/>
   </g>
   <g id="patch_85">
    <path clip-path="url(#p249bdeb85d)" d="M 103.946496 339.64 
L 107.69851 339.64 
L 107.69851 339.64 
L 103.946496 339.64 
z
" style="fill:#348abd;opacity:0.8;"/>
   </g>
   <g id="patch_86">
    <path clip-path="url(#p249bdeb85d)" d="M 107.69851 339.64 
L 111.450524 339.64 
L 111.450524 337.579556 
L 107.69851 337.579556 
z
" style="fill:#348abd;opacity:0.8;"/>
   </g>
   <g id="patch_87">
    <path clip-path="url(#p249bdeb85d)" d="M 111.450524 339.64 
L 115.202537 339.64 
L 115.202537 339.64 
L 111.450524 339.64 
z
" style="fill:#348abd;opacity:0.8;"/>
   </g>
   <g id="patch_88">
    <path clip-path="url(#p249bdeb85d)" d="M 115.202537 339.64 
L 118.954551 339.64 
L 118.954551 339.64 
L 115.202537 339.64 
z
" style="fill:#348abd;opacity:0.8;"/>
   </g>
   <g id="patch_89">
    <path clip-path="url(#p249bdeb85d)" d="M 118.954551 339.64 
L 122.706565 339.64 
L 122.706565 339.64 
L 118.954551 339.64 
z
" style="fill:#348abd;opacity:0.8;"/>
   </g>
   <g id="patch_90">
    <path clip-path="url(#p249bdeb85d)" d="M 122.706565 339.64 
L 126.458579 339.64 
L 126.458579 339.64 
L 122.706565 339.64 
z
" style="fill:#348abd;opacity:0.8;"/>
   </g>
   <g id="patch_91">
    <path clip-path="url(#p249bdeb85d)" d="M 126.458579 339.64 
L 130.210593 339.64 
L 130.210593 339.64 
L 126.458579 339.64 
z
" style="fill:#348abd;opacity:0.8;"/>
   </g>
   <g id="patch_92">
    <path clip-path="url(#p249bdeb85d)" d="M 130.210593 339.64 
L 133.962606 339.64 
L 133.962606 337.579556 
L 130.210593 337.579556 
z
" style="fill:#348abd;opacity:0.8;"/>
   </g>
   <g id="patch_93">
    <path clip-path="url(#p249bdeb85d)" d="M 133.962606 339.64 
L 137.71462 339.64 
L 137.71462 337.579556 
L 133.962606 337.579556 
z
" style="fill:#348abd;opacity:0.8;"/>
   </g>
   <g id="patch_94">
    <path clip-path="url(#p249bdeb85d)" d="M 137.71462 339.64 
L 141.466634 339.64 
L 141.466634 337.579556 
L 137.71462 337.579556 
z
" style="fill:#348abd;opacity:0.8;"/>
   </g>
   <g id="patch_95">
    <path clip-path="url(#p249bdeb85d)" d="M 141.466634 339.64 
L 145.218648 339.64 
L 145.218648 337.579556 
L 141.466634 337.579556 
z
" style="fill:#348abd;opacity:0.8;"/>
   </g>
   <g id="patch_96">
    <path clip-path="url(#p249bdeb85d)" d="M 145.218648 339.64 
L 148.970662 339.64 
L 148.970662 333.458667 
L 145.218648 333.458667 
z
" style="fill:#348abd;opacity:0.8;"/>
   </g>
   <g id="patch_97">
    <path clip-path="url(#p249bdeb85d)" d="M 148.970662 339.64 
L 152.722675 339.64 
L 152.722675 331.398222 
L 148.970662 331.398222 
z
" style="fill:#348abd;opacity:0.8;"/>
   </g>
   <g id="patch_98">
    <path clip-path="url(#p249bdeb85d)" d="M 152.722675 339.64 
L 156.474689 339.64 
L 156.474689 337.579556 
L 152.722675 337.579556 
z
" style="fill:#348abd;opacity:0.8;"/>
   </g>
   <g id="patch_99">
    <path clip-path="url(#p249bdeb85d)" d="M 156.474689 339.64 
L 160.226703 339.64 
L 160.226703 333.458667 
L 156.474689 333.458667 
z
" style="fill:#348abd;opacity:0.8;"/>
   </g>
   <g id="patch_100">
    <path clip-path="url(#p249bdeb85d)" d="M 160.226703 339.64 
L 163.978717 339.64 
L 163.978717 323.156444 
L 160.226703 323.156444 
z
" style="fill:#348abd;opacity:0.8;"/>
   </g>
   <g id="patch_101">
    <path clip-path="url(#p249bdeb85d)" d="M 163.978717 339.64 
L 167.730731 339.64 
L 167.730731 331.398222 
L 163.978717 331.398222 
z
" style="fill:#348abd;opacity:0.8;"/>
   </g>
   <g id="patch_102">
    <path clip-path="url(#p249bdeb85d)" d="M 167.730731 339.64 
L 171.482745 339.64 
L 171.482745 319.035556 
L 167.730731 319.035556 
z
" style="fill:#348abd;opacity:0.8;"/>
   </g>
   <g id="patch_103">
    <path clip-path="url(#p249bdeb85d)" d="M 171.482745 339.64 
L 175.234758 339.64 
L 175.234758 335.519111 
L 171.482745 335.519111 
z
" style="fill:#348abd;opacity:0.8;"/>
   </g>
   <g id="patch_104">
    <path clip-path="url(#p249bdeb85d)" d="M 175.234758 339.64 
L 178.986772 339.64 
L 178.986772 310.793778 
L 175.234758 310.793778 
z
" style="fill:#348abd;opacity:0.8;"/>
   </g>
   <g id="patch_105">
    <path clip-path="url(#p249bdeb85d)" d="M 178.986772 339.64 
L 182.738786 339.64 
L 182.738786 296.370667 
L 178.986772 296.370667 
z
" style="fill:#348abd;opacity:0.8;"/>
   </g>
   <g id="patch_106">
    <path clip-path="url(#p249bdeb85d)" d="M 182.738786 339.64 
L 186.4908 339.64 
L 186.4908 300.491556 
L 182.738786 300.491556 
z
" style="fill:#348abd;opacity:0.8;"/>
   </g>
   <g id="patch_107">
    <path clip-path="url(#p249bdeb85d)" d="M 186.4908 339.64 
L 190.242814 339.64 
L 190.242814 304.612444 
L 186.4908 304.612444 
z
" style="fill:#348abd;opacity:0.8;"/>
   </g>
   <g id="patch_108">
    <path clip-path="url(#p249bdeb85d)" d="M 190.242814 339.64 
L 193.994827 339.64 
L 193.994827 298.431111 
L 190.242814 298.431111 
z
" style="fill:#348abd;opacity:0.8;"/>
   </g>
   <g id="patch_109">
    <path clip-path="url(#p249bdeb85d)" d="M 193.994827 339.64 
L 197.746841 339.64 
L 197.746841 302.552 
L 193.994827 302.552 
z
" style="fill:#348abd;opacity:0.8;"/>
   </g>
   <g id="patch_110">
    <path clip-path="url(#p249bdeb85d)" d="M 197.746841 339.64 
L 201.498855 339.64 
L 201.498855 300.491556 
L 197.746841 300.491556 
z
" style="fill:#348abd;opacity:0.8;"/>
   </g>
   <g id="patch_111">
    <path clip-path="url(#p249bdeb85d)" d="M 201.498855 339.64 
L 205.250869 339.64 
L 205.250869 279.887111 
L 201.498855 279.887111 
z
" style="fill:#348abd;opacity:0.8;"/>
   </g>
   <g id="patch_112">
    <path clip-path="url(#p249bdeb85d)" d="M 205.250869 339.64 
L 209.002883 339.64 
L 209.002883 271.645333 
L 205.250869 271.645333 
z
" style="fill:#348abd;opacity:0.8;"/>
   </g>
   <g id="patch_113">
    <path clip-path="url(#p249bdeb85d)" d="M 209.002883 339.64 
L 212.754896 339.64 
L 212.754896 271.645333 
L 209.002883 271.645333 
z
" style="fill:#348abd;opacity:0.8;"/>
   </g>
   <g id="patch_114">
    <path clip-path="url(#p249bdeb85d)" d="M 212.754896 339.64 
L 216.50691 339.64 
L 216.50691 263.403556 
L 212.754896 263.403556 
z
" style="fill:#348abd;opacity:0.8;"/>
   </g>
   <g id="patch_115">
    <path clip-path="url(#p249bdeb85d)" d="M 216.50691 339.64 
L 220.258924 339.64 
L 220.258924 251.040889 
L 216.50691 251.040889 
z
" style="fill:#348abd;opacity:0.8;"/>
   </g>
   <g id="patch_116">
    <path clip-path="url(#p249bdeb85d)" d="M 220.258924 339.64 
L 224.010938 339.64 
L 224.010938 257.222222 
L 220.258924 257.222222 
z
" style="fill:#348abd;opacity:0.8;"/>
   </g>
   <g id="patch_117">
    <path clip-path="url(#p249bdeb85d)" d="M 224.010938 339.64 
L 227.762952 339.64 
L 227.762952 255.161778 
L 224.010938 255.161778 
z
" style="fill:#348abd;opacity:0.8;"/>
   </g>
   <g id="patch_118">
    <path clip-path="url(#p249bdeb85d)" d="M 227.762952 339.64 
L 231.514965 339.64 
L 231.514965 267.524444 
L 227.762952 267.524444 
z
" style="fill:#348abd;opacity:0.8;"/>
   </g>
   <g id="patch_119">
    <path clip-path="url(#p249bdeb85d)" d="M 231.514965 339.64 
L 235.266979 339.64 
L 235.266979 265.464 
L 231.514965 265.464 
z
" style="fill:#348abd;opacity:0.8;"/>
   </g>
   <g id="patch_120">
    <path clip-path="url(#p249bdeb85d)" d="M 235.266979 339.64 
L 239.018993 339.64 
L 239.018993 279.887111 
L 235.266979 279.887111 
z
" style="fill:#348abd;opacity:0.8;"/>
   </g>
   <g id="patch_121">
    <path clip-path="url(#p249bdeb85d)" d="M 239.018993 339.64 
L 242.771007 339.64 
L 242.771007 257.222222 
L 239.018993 257.222222 
z
" style="fill:#348abd;opacity:0.8;"/>
   </g>
   <g id="patch_122">
    <path clip-path="url(#p249bdeb85d)" d="M 242.771007 339.64 
L 246.523021 339.64 
L 246.523021 246.92 
L 242.771007 246.92 
z
" style="fill:#348abd;opacity:0.8;"/>
   </g>
   <g id="patch_123">
    <path clip-path="url(#p249bdeb85d)" d="M 246.523021 339.64 
L 250.275035 339.64 
L 250.275035 255.161778 
L 246.523021 255.161778 
z
" style="fill:#348abd;opacity:0.8;"/>
   </g>
   <g id="patch_124">
    <path clip-path="url(#p249bdeb85d)" d="M 250.275035 339.64 
L 254.027048 339.64 
L 254.027048 275.766222 
L 250.275035 275.766222 
z
" style="fill:#348abd;opacity:0.8;"/>
   </g>
   <g id="patch_125">
    <path clip-path="url(#p249bdeb85d)" d="M 254.027048 339.64 
L 257.779062 339.64 
L 257.779062 251.040889 
L 254.027048 251.040889 
z
" style="fill:#348abd;opacity:0.8;"/>
   </g>
   <g id="patch_126">
    <path clip-path="url(#p249bdeb85d)" d="M 257.779062 339.64 
L 261.531076 339.64 
L 261.531076 244.859556 
L 257.779062 244.859556 
z
" style="fill:#348abd;opacity:0.8;"/>
   </g>
   <g id="patch_127">
    <path clip-path="url(#p249bdeb85d)" d="M 261.531076 339.64 
L 265.28309 339.64 
L 265.28309 259.282667 
L 261.531076 259.282667 
z
" style="fill:#348abd;opacity:0.8;"/>
   </g>
   <g id="patch_128">
    <path clip-path="url(#p249bdeb85d)" d="M 265.28309 339.64 
L 269.035104 339.64 
L 269.035104 275.766222 
L 265.28309 275.766222 
z
" style="fill:#348abd;opacity:0.8;"/>
   </g>
   <g id="patch_129">
    <path clip-path="url(#p249bdeb85d)" d="M 269.035104 339.64 
L 272.787117 339.64 
L 272.787117 286.068444 
L 269.035104 286.068444 
z
" style="fill:#348abd;opacity:0.8;"/>
   </g>
   <g id="patch_130">
    <path clip-path="url(#p249bdeb85d)" d="M 272.787117 339.64 
L 276.539131 339.64 
L 276.539131 284.008 
L 272.787117 284.008 
z
" style="fill:#348abd;opacity:0.8;"/>
   </g>
   <g id="patch_131">
    <path clip-path="url(#p249bdeb85d)" d="M 276.539131 339.64 
L 280.291145 339.64 
L 280.291145 312.854222 
L 276.539131 312.854222 
z
" style="fill:#348abd;opacity:0.8;"/>
   </g>
   <g id="patch_132">
    <path clip-path="url(#p249bdeb85d)" d="M 280.291145 339.64 
L 284.043159 339.64 
L 284.043159 314.914667 
L 280.291145 314.914667 
z
" style="fill:#348abd;opacity:0.8;"/>
   </g>
   <g id="patch_133">
    <path clip-path="url(#p249bdeb85d)" d="M 284.043159 339.64 
L 287.795173 339.64 
L 287.795173 323.156444 
L 284.043159 323.156444 
z
" style="fill:#348abd;opacity:0.8;"/>
   </g>
   <g id="patch_134">
    <path clip-path="url(#p249bdeb85d)" d="M 287.795173 339.64 
L 291.547186 339.64 
L 291.547186 312.854222 
L 287.795173 312.854222 
z
" style="fill:#348abd;opacity:0.8;"/>
   </g>
   <g id="patch_135">
    <path clip-path="url(#p249bdeb85d)" d="M 291.547186 339.64 
L 295.2992 339.64 
L 295.2992 312.854222 
L 291.547186 312.854222 
z
" style="fill:#348abd;opacity:0.8;"/>
   </g>
   <g id="patch_136">
    <path clip-path="url(#p249bdeb85d)" d="M 295.2992 339.64 
L 299.051214 339.64 
L 299.051214 316.975111 
L 295.2992 316.975111 
z
" style="fill:#348abd;opacity:0.8;"/>
   </g>
   <g id="patch_137">
    <path clip-path="url(#p249bdeb85d)" d="M 299.051214 339.64 
L 302.803228 339.64 
L 302.803228 321.096 
L 299.051214 321.096 
z
" style="fill:#348abd;opacity:0.8;"/>
   </g>
   <g id="patch_138">
    <path clip-path="url(#p249bdeb85d)" d="M 302.803228 339.64 
L 306.555242 339.64 
L 306.555242 337.579556 
L 302.803228 337.579556 
z
" style="fill:#348abd;opacity:0.8;"/>
   </g>
   <g id="patch_139">
    <path clip-path="url(#p249bdeb85d)" d="M 306.555242 339.64 
L 310.307255 339.64 
L 310.307255 329.337778 
L 306.555242 329.337778 
z
" style="fill:#348abd;opacity:0.8;"/>
   </g>
   <g id="patch_140">
    <path clip-path="url(#p249bdeb85d)" d="M 310.307255 339.64 
L 314.059269 339.64 
L 314.059269 331.398222 
L 310.307255 331.398222 
z
" style="fill:#348abd;opacity:0.8;"/>
   </g>
   <g id="patch_141">
    <path clip-path="url(#p249bdeb85d)" d="M 314.059269 339.64 
L 317.811283 339.64 
L 317.811283 337.579556 
L 314.059269 337.579556 
z
" style="fill:#348abd;opacity:0.8;"/>
   </g>
   <g id="patch_142">
    <path clip-path="url(#p249bdeb85d)" d="M 317.811283 339.64 
L 321.563297 339.64 
L 321.563297 337.579556 
L 317.811283 337.579556 
z
" style="fill:#348abd;opacity:0.8;"/>
   </g>
   <g id="patch_143">
    <path clip-path="url(#p249bdeb85d)" d="M 321.563297 339.64 
L 325.315311 339.64 
L 325.315311 329.337778 
L 321.563297 329.337778 
z
" style="fill:#348abd;opacity:0.8;"/>
   </g>
   <g id="patch_144">
    <path clip-path="url(#p249bdeb85d)" d="M 325.315311 339.64 
L 329.067325 339.64 
L 329.067325 333.458667 
L 325.315311 333.458667 
z
" style="fill:#348abd;opacity:0.8;"/>
   </g>
   <g id="patch_145">
    <path clip-path="url(#p249bdeb85d)" d="M 329.067325 339.64 
L 332.819338 339.64 
L 332.819338 335.519111 
L 329.067325 335.519111 
z
" style="fill:#348abd;opacity:0.8;"/>
   </g>
   <g id="patch_146">
    <path clip-path="url(#p249bdeb85d)" d="M 332.819338 339.64 
L 336.571352 339.64 
L 336.571352 337.579556 
L 332.819338 337.579556 
z
" style="fill:#348abd;opacity:0.8;"/>
   </g>
   <g id="patch_147">
    <path clip-path="url(#p249bdeb85d)" d="M 336.571352 339.64 
L 340.323366 339.64 
L 340.323366 335.519111 
L 336.571352 335.519111 
z
" style="fill:#348abd;opacity:0.8;"/>
   </g>
   <g id="patch_148">
    <path clip-path="url(#p249bdeb85d)" d="M 340.323366 339.64 
L 344.07538 339.64 
L 344.07538 339.64 
L 340.323366 339.64 
z
" style="fill:#348abd;opacity:0.8;"/>
   </g>
   <g id="patch_149">
    <path clip-path="url(#p249bdeb85d)" d="M 344.07538 339.64 
L 347.827394 339.64 
L 347.827394 339.64 
L 344.07538 339.64 
z
" style="fill:#348abd;opacity:0.8;"/>
   </g>
   <g id="patch_150">
    <path clip-path="url(#p249bdeb85d)" d="M 347.827394 339.64 
L 351.579407 339.64 
L 351.579407 339.64 
L 347.827394 339.64 
z
" style="fill:#348abd;opacity:0.8;"/>
   </g>
   <g id="patch_151">
    <path clip-path="url(#p249bdeb85d)" d="M 351.579407 339.64 
L 355.331421 339.64 
L 355.331421 339.64 
L 351.579407 339.64 
z
" style="fill:#348abd;opacity:0.8;"/>
   </g>
   <g id="patch_152">
    <path clip-path="url(#p249bdeb85d)" d="M 355.331421 339.64 
L 359.083435 339.64 
L 359.083435 337.579556 
L 355.331421 337.579556 
z
" style="fill:#348abd;opacity:0.8;"/>
   </g>
   <g id="patch_153">
    <path clip-path="url(#p249bdeb85d)" d="M 359.083435 339.64 
L 362.835449 339.64 
L 362.835449 335.519111 
L 359.083435 335.519111 
z
" style="fill:#348abd;opacity:0.8;"/>
   </g>
   <g id="patch_154">
    <path clip-path="url(#p249bdeb85d)" d="M 362.835449 339.64 
L 366.587463 339.64 
L 366.587463 339.64 
L 362.835449 339.64 
z
" style="fill:#348abd;opacity:0.8;"/>
   </g>
   <g id="patch_155">
    <path clip-path="url(#p249bdeb85d)" d="M 366.587463 339.64 
L 370.339476 339.64 
L 370.339476 339.64 
L 366.587463 339.64 
z
" style="fill:#348abd;opacity:0.8;"/>
   </g>
   <g id="patch_156">
    <path clip-path="url(#p249bdeb85d)" d="M 370.339476 339.64 
L 374.09149 339.64 
L 374.09149 339.64 
L 370.339476 339.64 
z
" style="fill:#348abd;opacity:0.8;"/>
   </g>
   <g id="patch_157">
    <path clip-path="url(#p249bdeb85d)" d="M 374.09149 339.64 
L 377.843504 339.64 
L 377.843504 339.64 
L 374.09149 339.64 
z
" style="fill:#348abd;opacity:0.8;"/>
   </g>
   <g id="patch_158">
    <path clip-path="url(#p249bdeb85d)" d="M 377.843504 339.64 
L 381.595518 339.64 
L 381.595518 339.64 
L 377.843504 339.64 
z
" style="fill:#348abd;opacity:0.8;"/>
   </g>
   <g id="patch_159">
    <path clip-path="url(#p249bdeb85d)" d="M 381.595518 339.64 
L 385.347532 339.64 
L 385.347532 339.64 
L 381.595518 339.64 
z
" style="fill:#348abd;opacity:0.8;"/>
   </g>
   <g id="patch_160">
    <path clip-path="url(#p249bdeb85d)" d="M 385.347532 339.64 
L 389.099545 339.64 
L 389.099545 339.64 
L 385.347532 339.64 
z
" style="fill:#348abd;opacity:0.8;"/>
   </g>
   <g id="patch_161">
    <path d="M 77.87 339.64 
L 77.87 15.12 
" style="fill:none;stroke:#ffffff;stroke-linecap:square;stroke-linejoin:miter;"/>
   </g>
   <g id="patch_162">
    <path d="M 403.92 339.64 
L 403.92 15.12 
" style="fill:none;stroke:#ffffff;stroke-linecap:square;stroke-linejoin:miter;"/>
   </g>
   <g id="patch_163">
    <path d="M 77.87 339.64 
L 403.92 339.64 
" style="fill:none;stroke:#ffffff;stroke-linecap:square;stroke-linejoin:miter;"/>
   </g>
   <g id="patch_164">
    <path d="M 77.87 15.12 
L 403.92 15.12 
" style="fill:none;stroke:#ffffff;stroke-linecap:square;stroke-linejoin:miter;"/>
   </g>
   <g id="legend_1">
    <g id="patch_165">
     <path d="M 334.34 60.41875 
L 394.12 60.41875 
Q 396.92 60.41875 396.92 57.61875 
L 396.92 24.92 
Q 396.92 22.12 394.12 22.12 
L 334.34 22.12 
Q 331.54 22.12 331.54 24.92 
L 331.54 57.61875 
Q 331.54 60.41875 334.34 60.41875 
z
" style="fill:#e5e5e5;opacity:0.8;stroke:#cccccc;stroke-linejoin:miter;stroke-width:0.5;"/>
    </g>
    <g id="patch_166">
     <path d="M 337.14 38.357812 
L 365.14 38.357812 
L 365.14 28.557812 
L 337.14 28.557812 
z
" style="fill:#e24a33;opacity:0.8;"/>
    </g>
    <g id="text_14">
     <!-- $x_1$ -->
     <g transform="translate(376.34 38.357812)scale(0.14 -0.14)">
      <defs>
       <path d="M 60.015625 54.6875 
L 34.90625 27.875 
L 50.296875 0 
L 39.984375 0 
L 28.421875 21.6875 
L 8.296875 0 
L -2.59375 0 
L 24.3125 28.8125 
L 10.015625 54.6875 
L 20.3125 54.6875 
L 30.8125 34.90625 
L 49.125 54.6875 
z
" id="DejaVuSans-Oblique-120"/>
      </defs>
      <use transform="translate(0 0.3125)" xlink:href="#DejaVuSans-Oblique-120"/>
      <use transform="translate(59.179688 -16.09375)scale(0.7)" xlink:href="#DejaVuSans-49"/>
     </g>
    </g>
    <g id="patch_167">
     <path d="M 337.14 51.907187 
L 365.14 51.907187 
L 365.14 42.107187 
L 337.14 42.107187 
z
" style="fill:#348abd;opacity:0.8;"/>
    </g>
    <g id="text_15">
     <!-- $x_2$ -->
     <g transform="translate(376.34 51.907187)scale(0.14 -0.14)">
      <use transform="translate(0 0.3125)" xlink:href="#DejaVuSans-Oblique-120"/>
      <use transform="translate(59.179688 -16.09375)scale(0.7)" xlink:href="#DejaVuSans-50"/>
     </g>
    </g>
   </g>
  </g>
 </g>
 <defs>
  <clipPath id="p249bdeb85d">
   <rect height="324.52" width="326.05" x="77.87" y="15.12"/>
  </clipPath>
 </defs>
</svg>
