<?xml version="1.0" encoding="utf-8" standalone="no"?>
<!DOCTYPE svg PUBLIC "-//W3C//DTD SVG 1.1//EN"
  "http://www.w3.org/Graphics/SVG/1.1/DTD/svg11.dtd">
<!-- Created with matplotlib (https://matplotlib.org/) -->
<svg height="396pt" version="1.1" viewBox="0 0 432 396" width="432pt" xmlns="http://www.w3.org/2000/svg" xmlns:xlink="http://www.w3.org/1999/xlink">
 <metadata>
  <rdf:RDF xmlns:cc="http://creativecommons.org/ns#" xmlns:dc="http://purl.org/dc/elements/1.1/" xmlns:rdf="http://www.w3.org/1999/02/22-rdf-syntax-ns#">
   <cc:Work>
    <dc:type rdf:resource="http://purl.org/dc/dcmitype/StillImage"/>
    <dc:date>2021-03-14T01:48:55.370625</dc:date>
    <dc:format>image/svg+xml</dc:format>
    <dc:creator>
     <cc:Agent>
      <dc:title>Matplotlib v3.3.2, https://matplotlib.org/</dc:title>
     </cc:Agent>
    </dc:creator>
   </cc:Work>
  </rdf:RDF>
 </metadata>
 <defs>
  <style type="text/css">*{stroke-linecap:butt;stroke-linejoin:round;}</style>
 </defs>
 <g id="figure_1">
  <g id="patch_1">
   <path d="M 0 396 
L 432 396 
L 432 0 
L 0 0 
z
" style="fill:#ffffff;"/>
  </g>
  <g id="axes_1">
   <g id="patch_2">
    <path d="M 88.602482 338.1 
L 398.558802 338.1 
L 398.558802 17.28 
L 88.602482 17.28 
z
" style="fill:#eeeeee;"/>
   </g>
   <g id="PolyCollection_1">
    <defs>
     <path d="M 102.691406 -363.999384 
L 102.691406 -274.701459 
L 105.537653 -241.425279 
L 108.3839 -239.323929 
L 111.230147 -238.132048 
L 114.076395 -236.178387 
L 116.922642 -239.929514 
L 119.768889 -220.153754 
L 122.615136 -225.727034 
L 125.461383 -225.965326 
L 128.307631 -226.526906 
L 131.153878 -204.142951 
L 134.000125 -215.628948 
L 136.846372 -217.891595 
L 139.692619 -206.265135 
L 142.538867 -194.021425 
L 145.385114 -201.770412 
L 148.231361 -194.419084 
L 151.077608 -197.075695 
L 153.923855 -180.41312 
L 156.770103 -173.10678 
L 159.61635 -176.15076 
L 162.462597 -181.462108 
L 165.308844 -174.747562 
L 168.155091 -171.815102 
L 171.001338 -172.948607 
L 173.847586 -173.620169 
L 176.693833 -161.849943 
L 179.54008 -165.412958 
L 182.386327 -166.212279 
L 185.232574 -159.467832 
L 188.078822 -154.791832 
L 190.925069 -151.795284 
L 193.771316 -139.820256 
L 196.617563 -137.065352 
L 199.46381 -140.776827 
L 202.310058 -139.194172 
L 205.156305 -140.41856 
L 208.002552 -134.784349 
L 210.848799 -120.153833 
L 213.695046 -127.591087 
L 216.541294 -134.451698 
L 219.387541 -109.476166 
L 222.233788 -111.762518 
L 225.080035 -110.647555 
L 227.926282 -121.805055 
L 230.77253 -122.35007 
L 233.618777 -112.162572 
L 236.465024 -109.825006 
L 239.311271 -113.665082 
L 242.157518 -112.477485 
L 245.003766 -107.92128 
L 247.850013 -107.45417 
L 250.69626 -102.921406 
L 253.542507 -103.605168 
L 256.388754 -100.199634 
L 259.235002 -96.500142 
L 262.081249 -100.28613 
L 264.927496 -101.318047 
L 267.773743 -95.278532 
L 270.61999 -93.229276 
L 273.466237 -93.435852 
L 276.312485 -91.98622 
L 279.158732 -91.470415 
L 282.004979 -94.092709 
L 284.851226 -88.515577 
L 287.697473 -85.389563 
L 290.543721 -78.104093 
L 293.389968 -83.374322 
L 296.236215 -87.730303 
L 299.082462 -84.17922 
L 301.928709 -78.893558 
L 304.774957 -83.154474 
L 307.621204 -80.061259 
L 310.467451 -77.824837 
L 313.313698 -80.668783 
L 316.159945 -77.386449 
L 319.006193 -77.478182 
L 321.85244 -78.361456 
L 324.698687 -79.011912 
L 327.544934 -74.402867 
L 330.391181 -78.900567 
L 333.237429 -77.963862 
L 336.083676 -73.192658 
L 338.929923 -73.982233 
L 341.77617 -73.061309 
L 344.622417 -74.632949 
L 347.468665 -72.482727 
L 350.314912 -74.424334 
L 353.161159 -74.903563 
L 356.007406 -73.603568 
L 358.853653 -74.384989 
L 361.6999 -73.775326 
L 364.546148 -73.680097 
L 367.392395 -73.520518 
L 370.238642 -74.765225 
L 373.084889 -73.25331 
L 375.931136 -74.546003 
L 378.777384 -74.544129 
L 381.623631 -75.267234 
L 384.469878 -75.767326 
L 384.469878 -76.614003 
L 384.469878 -76.614003 
L 381.623631 -76.89525 
L 378.777384 -77.714787 
L 375.931136 -78.759905 
L 373.084889 -79.232497 
L 370.238642 -80.620871 
L 367.392395 -80.3357 
L 364.546148 -82.072328 
L 361.6999 -82.819923 
L 358.853653 -84.639649 
L 356.007406 -83.768553 
L 353.161159 -84.878599 
L 350.314912 -86.947207 
L 347.468665 -87.032603 
L 344.622417 -89.273236 
L 341.77617 -89.932283 
L 338.929923 -91.281868 
L 336.083676 -93.857477 
L 333.237429 -93.460612 
L 330.391181 -99.164396 
L 327.544934 -93.666023 
L 324.698687 -97.786213 
L 321.85244 -100.6781 
L 319.006193 -101.508492 
L 316.159945 -101.357385 
L 313.313698 -105.867253 
L 310.467451 -104.604229 
L 307.621204 -106.840149 
L 304.774957 -106.010507 
L 301.928709 -110.793507 
L 299.082462 -116.240215 
L 296.236215 -118.210541 
L 293.389968 -112.42751 
L 290.543721 -121.028129 
L 287.697473 -123.073296 
L 284.851226 -120.569707 
L 282.004979 -129.969926 
L 279.158732 -126.126939 
L 276.312485 -134.791424 
L 273.466237 -135.81592 
L 270.61999 -151.132106 
L 267.773743 -134.974827 
L 264.927496 -145.31267 
L 262.081249 -138.062588 
L 259.235002 -145.109658 
L 256.388754 -146.214277 
L 253.542507 -152.500485 
L 250.69626 -154.468874 
L 247.850013 -159.029488 
L 245.003766 -155.736531 
L 242.157518 -169.745642 
L 239.311271 -178.970197 
L 236.465024 -165.080834 
L 233.618777 -173.898832 
L 230.77253 -169.921962 
L 227.926282 -179.895133 
L 225.080035 -172.663642 
L 222.233788 -175.661617 
L 219.387541 -183.033378 
L 216.541294 -189.260098 
L 213.695046 -189.483133 
L 210.848799 -188.432427 
L 208.002552 -189.541136 
L 205.156305 -207.819359 
L 202.310058 -203.561691 
L 199.46381 -217.516375 
L 196.617563 -217.101183 
L 193.771316 -209.425903 
L 190.925069 -226.839418 
L 188.078822 -223.687422 
L 185.232574 -224.839036 
L 182.386327 -241.073047 
L 179.54008 -228.599618 
L 176.693833 -256.662838 
L 173.847586 -234.895086 
L 171.001338 -246.597432 
L 168.155091 -251.77884 
L 165.308844 -251.611345 
L 162.462597 -267.992795 
L 159.61635 -263.707393 
L 156.770103 -256.085703 
L 153.923855 -279.626477 
L 151.077608 -270.444997 
L 148.231361 -280.501146 
L 145.385114 -280.044344 
L 142.538867 -277.187236 
L 139.692619 -290.267874 
L 136.846372 -309.611932 
L 134.000125 -285.802727 
L 131.153878 -325.625025 
L 128.307631 -296.176591 
L 125.461383 -314.203558 
L 122.615136 -311.187015 
L 119.768889 -316.220525 
L 116.922642 -325.397219 
L 114.076395 -364.137273 
L 111.230147 -337.142744 
L 108.3839 -340.156168 
L 105.537653 -339.808281 
L 102.691406 -363.999384 
z
" id="m1f43294e8b" style="stroke:#348abd;stroke-opacity:0.3;stroke-width:0.5;"/>
    </defs>
    <g clip-path="url(#pcc3819936b)">
     <use style="fill:#348abd;fill-opacity:0.3;stroke:#348abd;stroke-opacity:0.3;stroke-width:0.5;" x="0" xlink:href="#m1f43294e8b" y="396"/>
    </g>
   </g>
   <g id="PolyCollection_2">
    <defs>
     <path d="M 102.691406 -326.201555 
L 102.691406 -265.900445 
L 105.537653 -281.91356 
L 108.3839 -287.385274 
L 111.230147 -277.934481 
L 114.076395 -281.58915 
L 116.922642 -276.90034 
L 119.768889 -275.845951 
L 122.615136 -274.141079 
L 125.461383 -275.532414 
L 128.307631 -264.74551 
L 131.153878 -274.381941 
L 134.000125 -267.637138 
L 136.846372 -267.964258 
L 139.692619 -266.679158 
L 142.538867 -266.565982 
L 145.385114 -261.751086 
L 148.231361 -264.961293 
L 151.077608 -260.827209 
L 153.923855 -265.33145 
L 156.770103 -262.523988 
L 159.61635 -256.77271 
L 162.462597 -249.399482 
L 165.308844 -257.524646 
L 168.155091 -251.522953 
L 171.001338 -254.170608 
L 173.847586 -255.451594 
L 176.693833 -250.345413 
L 179.54008 -252.752363 
L 182.386327 -247.938289 
L 185.232574 -252.982535 
L 188.078822 -246.771012 
L 190.925069 -247.594214 
L 193.771316 -245.682937 
L 196.617563 -243.022706 
L 199.46381 -247.662703 
L 202.310058 -234.047853 
L 205.156305 -238.855637 
L 208.002552 -241.127008 
L 210.848799 -235.584383 
L 213.695046 -236.922737 
L 216.541294 -239.563158 
L 219.387541 -239.709034 
L 222.233788 -233.802387 
L 225.080035 -235.558216 
L 227.926282 -234.586667 
L 230.77253 -235.276127 
L 233.618777 -234.731575 
L 236.465024 -234.236153 
L 239.311271 -233.428085 
L 242.157518 -228.825399 
L 245.003766 -231.306956 
L 247.850013 -227.69784 
L 250.69626 -229.727518 
L 253.542507 -226.150653 
L 256.388754 -225.162101 
L 259.235002 -228.499008 
L 262.081249 -226.623669 
L 264.927496 -225.279135 
L 267.773743 -222.693463 
L 270.61999 -221.70226 
L 273.466237 -224.763363 
L 276.312485 -223.336085 
L 279.158732 -223.950755 
L 282.004979 -223.214174 
L 284.851226 -223.106015 
L 287.697473 -221.756293 
L 290.543721 -222.855071 
L 293.389968 -221.808719 
L 296.236215 -218.686951 
L 299.082462 -220.678237 
L 301.928709 -220.295988 
L 304.774957 -219.67851 
L 307.621204 -219.695605 
L 310.467451 -219.880096 
L 313.313698 -217.061251 
L 316.159945 -220.629404 
L 319.006193 -218.778279 
L 321.85244 -219.201679 
L 324.698687 -218.84639 
L 327.544934 -218.565491 
L 330.391181 -217.457116 
L 333.237429 -219.454786 
L 336.083676 -218.191258 
L 338.929923 -217.312479 
L 341.77617 -218.590696 
L 344.622417 -216.767285 
L 347.468665 -217.613884 
L 350.314912 -217.006363 
L 353.161159 -217.42515 
L 356.007406 -217.347866 
L 358.853653 -217.752669 
L 361.6999 -217.615057 
L 364.546148 -217.875124 
L 367.392395 -217.477348 
L 370.238642 -218.017556 
L 373.084889 -217.784843 
L 375.931136 -217.702028 
L 378.777384 -217.927387 
L 381.623631 -218.181375 
L 384.469878 -218.417235 
L 384.469878 -218.754094 
L 384.469878 -218.754094 
L 381.623631 -219.006095 
L 378.777384 -219.124125 
L 375.931136 -219.479465 
L 373.084889 -220.035551 
L 370.238642 -219.909863 
L 367.392395 -220.896171 
L 364.546148 -220.795321 
L 361.6999 -220.704706 
L 358.853653 -221.991426 
L 356.007406 -221.75511 
L 353.161159 -221.791927 
L 350.314912 -222.614117 
L 347.468665 -223.249333 
L 344.622417 -222.952756 
L 341.77617 -223.98591 
L 338.929923 -225.291489 
L 336.083676 -225.241863 
L 333.237429 -227.003594 
L 330.391181 -224.70778 
L 327.544934 -225.675761 
L 324.698687 -227.109267 
L 321.85244 -228.594149 
L 319.006193 -227.398747 
L 316.159945 -229.841112 
L 313.313698 -228.585304 
L 310.467451 -227.994491 
L 307.621204 -229.405394 
L 304.774957 -231.150195 
L 301.928709 -232.552899 
L 299.082462 -230.838551 
L 296.236215 -232.042628 
L 293.389968 -235.995617 
L 290.543721 -235.858783 
L 287.697473 -236.504383 
L 284.851226 -236.087473 
L 282.004979 -237.092512 
L 279.158732 -236.131981 
L 276.312485 -237.48865 
L 273.466237 -240.683498 
L 270.61999 -243.189726 
L 267.773743 -241.757458 
L 264.927496 -240.959241 
L 262.081249 -242.316825 
L 259.235002 -243.976822 
L 256.388754 -245.476137 
L 253.542507 -245.831006 
L 250.69626 -247.607816 
L 247.850013 -246.67724 
L 245.003766 -251.107248 
L 242.157518 -249.179993 
L 239.311271 -248.636171 
L 236.465024 -254.025975 
L 233.618777 -254.973171 
L 230.77253 -250.90462 
L 227.926282 -257.20071 
L 225.080035 -258.407528 
L 222.233788 -257.705171 
L 219.387541 -258.292144 
L 216.541294 -261.728341 
L 213.695046 -262.108768 
L 210.848799 -259.728568 
L 208.002552 -263.030296 
L 205.156305 -264.114256 
L 202.310058 -264.833456 
L 199.46381 -270.845877 
L 196.617563 -268.418689 
L 193.771316 -271.109747 
L 190.925069 -279.826708 
L 188.078822 -269.048691 
L 185.232574 -273.671849 
L 182.386327 -273.591714 
L 179.54008 -274.663997 
L 176.693833 -275.931372 
L 173.847586 -279.985788 
L 171.001338 -282.634977 
L 168.155091 -280.214877 
L 165.308844 -284.97097 
L 162.462597 -282.808816 
L 159.61635 -290.723423 
L 156.770103 -283.972241 
L 153.923855 -293.128592 
L 151.077608 -293.75257 
L 148.231361 -295.231395 
L 145.385114 -296.057126 
L 142.538867 -293.804937 
L 139.692619 -296.670162 
L 136.846372 -297.597968 
L 134.000125 -301.528798 
L 131.153878 -306.635599 
L 128.307631 -304.055926 
L 125.461383 -303.089741 
L 122.615136 -302.008689 
L 119.768889 -313.703459 
L 116.922642 -310.657115 
L 114.076395 -312.167009 
L 111.230147 -314.791363 
L 108.3839 -322.934941 
L 105.537653 -319.74285 
L 102.691406 -326.201555 
z
" id="mc3bb83fd19" style="stroke:#a60628;stroke-opacity:0.3;stroke-width:0.5;"/>
    </defs>
    <g clip-path="url(#pcc3819936b)">
     <use style="fill:#a60628;fill-opacity:0.3;stroke:#a60628;stroke-opacity:0.3;stroke-width:0.5;" x="0" xlink:href="#mc3bb83fd19" y="396"/>
    </g>
   </g>
   <g id="PolyCollection_3">
    <defs>
     <path d="M 102.691406 -311.965847 
L 102.691406 -287.697907 
L 105.537653 -290.911717 
L 108.3839 -287.172957 
L 111.230147 -287.391021 
L 114.076395 -283.24424 
L 116.922642 -280.986781 
L 119.768889 -282.411267 
L 122.615136 -277.918087 
L 125.461383 -276.583225 
L 128.307631 -280.617741 
L 131.153878 -278.463169 
L 134.000125 -279.096902 
L 136.846372 -277.348029 
L 139.692619 -275.42472 
L 142.538867 -276.893295 
L 145.385114 -273.709838 
L 148.231361 -275.117467 
L 151.077608 -274.553889 
L 153.923855 -272.311206 
L 156.770103 -268.427839 
L 159.61635 -272.118785 
L 162.462597 -271.050009 
L 165.308844 -267.786419 
L 168.155091 -265.622863 
L 171.001338 -265.939759 
L 173.847586 -264.105994 
L 176.693833 -263.947029 
L 179.54008 -265.127373 
L 182.386327 -265.577982 
L 185.232574 -259.87587 
L 188.078822 -263.291231 
L 190.925069 -260.546127 
L 193.771316 -263.140283 
L 196.617563 -259.897817 
L 199.46381 -262.511098 
L 202.310058 -260.074238 
L 205.156305 -258.669284 
L 208.002552 -259.956047 
L 210.848799 -256.952046 
L 213.695046 -258.615937 
L 216.541294 -258.204819 
L 219.387541 -256.599634 
L 222.233788 -253.306371 
L 225.080035 -256.064152 
L 227.926282 -255.762897 
L 230.77253 -256.839796 
L 233.618777 -254.126091 
L 236.465024 -256.06679 
L 239.311271 -254.660738 
L 242.157518 -250.067218 
L 245.003766 -253.038557 
L 247.850013 -248.439541 
L 250.69626 -250.375905 
L 253.542507 -251.021856 
L 256.388754 -251.008786 
L 259.235002 -251.124852 
L 262.081249 -250.24052 
L 264.927496 -249.63936 
L 267.773743 -249.473652 
L 270.61999 -248.786606 
L 273.466237 -248.743247 
L 276.312485 -248.041652 
L 279.158732 -249.269825 
L 282.004979 -247.600131 
L 284.851226 -247.027586 
L 287.697473 -246.974665 
L 290.543721 -244.702387 
L 293.389968 -247.355436 
L 296.236215 -244.008478 
L 299.082462 -246.503554 
L 301.928709 -246.242316 
L 304.774957 -245.678608 
L 307.621204 -245.579561 
L 310.467451 -245.678521 
L 313.313698 -244.006174 
L 316.159945 -245.12637 
L 319.006193 -244.970624 
L 321.85244 -243.147598 
L 324.698687 -243.61504 
L 327.544934 -244.448939 
L 330.391181 -244.385209 
L 333.237429 -243.954991 
L 336.083676 -244.188805 
L 338.929923 -243.596347 
L 341.77617 -244.01636 
L 344.622417 -243.340431 
L 347.468665 -244.215792 
L 350.314912 -244.325221 
L 353.161159 -244.392153 
L 356.007406 -243.734016 
L 358.853653 -243.950165 
L 361.6999 -243.698934 
L 364.546148 -243.914274 
L 367.392395 -244.030671 
L 370.238642 -243.794912 
L 373.084889 -244.327689 
L 375.931136 -244.279257 
L 378.777384 -244.371276 
L 381.623631 -244.436201 
L 384.469878 -244.51245 
L 384.469878 -244.75418 
L 384.469878 -244.75418 
L 381.623631 -244.844914 
L 378.777384 -245.111133 
L 375.931136 -245.150381 
L 373.084889 -245.292425 
L 370.238642 -245.562264 
L 367.392395 -245.888548 
L 364.546148 -245.950025 
L 361.6999 -246.329765 
L 358.853653 -246.401507 
L 356.007406 -246.644484 
L 353.161159 -246.577329 
L 350.314912 -246.905831 
L 347.468665 -247.329775 
L 344.622417 -247.486022 
L 341.77617 -247.580822 
L 338.929923 -248.827991 
L 336.083676 -248.337344 
L 333.237429 -248.87939 
L 330.391181 -249.749206 
L 327.544934 -251.262152 
L 324.698687 -249.68611 
L 321.85244 -250.709927 
L 319.006193 -249.937735 
L 316.159945 -251.781788 
L 313.313698 -252.506573 
L 310.467451 -251.790847 
L 307.621204 -252.189517 
L 304.774957 -252.647245 
L 301.928709 -253.597692 
L 299.082462 -253.885459 
L 296.236215 -253.395306 
L 293.389968 -255.051546 
L 290.543721 -255.710243 
L 287.697473 -255.532123 
L 284.851226 -255.575833 
L 282.004979 -257.209576 
L 279.158732 -258.239838 
L 276.312485 -256.89431 
L 273.466237 -258.914284 
L 270.61999 -258.426381 
L 267.773743 -260.499212 
L 264.927496 -258.728203 
L 262.081249 -261.197815 
L 259.235002 -260.871053 
L 256.388754 -262.899624 
L 253.542507 -264.21206 
L 250.69626 -262.45742 
L 247.850013 -264.689697 
L 245.003766 -263.313079 
L 242.157518 -264.938402 
L 239.311271 -265.774526 
L 236.465024 -266.638062 
L 233.618777 -265.982194 
L 230.77253 -267.004965 
L 227.926282 -269.322702 
L 225.080035 -268.291749 
L 222.233788 -270.505198 
L 219.387541 -274.20364 
L 216.541294 -273.166671 
L 213.695046 -271.452751 
L 210.848799 -270.584827 
L 208.002552 -274.547513 
L 205.156305 -274.958216 
L 202.310058 -276.17247 
L 199.46381 -275.360512 
L 196.617563 -278.500442 
L 193.771316 -277.36397 
L 190.925069 -277.136202 
L 188.078822 -278.671078 
L 185.232574 -277.425042 
L 182.386327 -285.883309 
L 179.54008 -283.379381 
L 176.693833 -282.728906 
L 173.847586 -282.818525 
L 171.001338 -290.226486 
L 168.155091 -286.062114 
L 165.308844 -287.896962 
L 162.462597 -288.720559 
L 159.61635 -292.265344 
L 156.770103 -290.881931 
L 153.923855 -293.314211 
L 151.077608 -289.583009 
L 148.231361 -292.568993 
L 145.385114 -293.793892 
L 142.538867 -298.598975 
L 139.692619 -294.092753 
L 136.846372 -295.010181 
L 134.000125 -300.888852 
L 131.153878 -299.858302 
L 128.307631 -299.750411 
L 125.461383 -300.519838 
L 122.615136 -302.676246 
L 119.768889 -306.387559 
L 116.922642 -303.646367 
L 114.076395 -302.697746 
L 111.230147 -305.93326 
L 108.3839 -310.648564 
L 105.537653 -314.488423 
L 102.691406 -311.965847 
z
" id="m7c050422a2" style="stroke:#7a68a6;stroke-opacity:0.3;stroke-width:0.5;"/>
    </defs>
    <g clip-path="url(#pcc3819936b)">
     <use style="fill:#7a68a6;fill-opacity:0.3;stroke:#7a68a6;stroke-opacity:0.3;stroke-width:0.5;" x="0" xlink:href="#m7c050422a2" y="396"/>
    </g>
   </g>
   <g id="matplotlib.axis_1">
    <g id="xtick_1">
     <g id="line2d_1">
      <path clip-path="url(#pcc3819936b)" d="M 102.691406 338.1 
L 102.691406 17.28 
" style="fill:none;stroke:#b2b2b2;stroke-dasharray:1.85,0.8;stroke-dashoffset:0;stroke-width:0.5;"/>
     </g>
     <g id="line2d_2">
      <defs>
       <path d="M 0 0 
L 0 -3.5 
" id="m31db52898e" style="stroke:#000000;stroke-width:0.8;"/>
      </defs>
      <g>
       <use style="stroke:#000000;stroke-width:0.8;" x="102.691406" xlink:href="#m31db52898e" y="338.1"/>
      </g>
     </g>
     <g id="text_1">
      <!-- 0 -->
      <g transform="translate(97.601406 353.7575)scale(0.16 -0.16)">
       <defs>
        <path d="M 31.78125 66.40625 
Q 24.171875 66.40625 20.328125 58.90625 
Q 16.5 51.421875 16.5 36.375 
Q 16.5 21.390625 20.328125 13.890625 
Q 24.171875 6.390625 31.78125 6.390625 
Q 39.453125 6.390625 43.28125 13.890625 
Q 47.125 21.390625 47.125 36.375 
Q 47.125 51.421875 43.28125 58.90625 
Q 39.453125 66.40625 31.78125 66.40625 
z
M 31.78125 74.21875 
Q 44.046875 74.21875 50.515625 64.515625 
Q 56.984375 54.828125 56.984375 36.375 
Q 56.984375 17.96875 50.515625 8.265625 
Q 44.046875 -1.421875 31.78125 -1.421875 
Q 19.53125 -1.421875 13.0625 8.265625 
Q 6.59375 17.96875 6.59375 36.375 
Q 6.59375 54.828125 13.0625 64.515625 
Q 19.53125 74.21875 31.78125 74.21875 
z
" id="DejaVuSans-48"/>
       </defs>
       <use xlink:href="#DejaVuSans-48"/>
      </g>
     </g>
    </g>
    <g id="xtick_2">
     <g id="line2d_3">
      <path clip-path="url(#pcc3819936b)" d="M 159.61635 338.1 
L 159.61635 17.28 
" style="fill:none;stroke:#b2b2b2;stroke-dasharray:1.85,0.8;stroke-dashoffset:0;stroke-width:0.5;"/>
     </g>
     <g id="line2d_4">
      <g>
       <use style="stroke:#000000;stroke-width:0.8;" x="159.61635" xlink:href="#m31db52898e" y="338.1"/>
      </g>
     </g>
     <g id="text_2">
      <!-- 20 -->
      <g transform="translate(149.43635 353.7575)scale(0.16 -0.16)">
       <defs>
        <path d="M 19.1875 8.296875 
L 53.609375 8.296875 
L 53.609375 0 
L 7.328125 0 
L 7.328125 8.296875 
Q 12.9375 14.109375 22.625 23.890625 
Q 32.328125 33.6875 34.8125 36.53125 
Q 39.546875 41.84375 41.421875 45.53125 
Q 43.3125 49.21875 43.3125 52.78125 
Q 43.3125 58.59375 39.234375 62.25 
Q 35.15625 65.921875 28.609375 65.921875 
Q 23.96875 65.921875 18.8125 64.3125 
Q 13.671875 62.703125 7.8125 59.421875 
L 7.8125 69.390625 
Q 13.765625 71.78125 18.9375 73 
Q 24.125 74.21875 28.421875 74.21875 
Q 39.75 74.21875 46.484375 68.546875 
Q 53.21875 62.890625 53.21875 53.421875 
Q 53.21875 48.921875 51.53125 44.890625 
Q 49.859375 40.875 45.40625 35.40625 
Q 44.1875 33.984375 37.640625 27.21875 
Q 31.109375 20.453125 19.1875 8.296875 
z
" id="DejaVuSans-50"/>
       </defs>
       <use xlink:href="#DejaVuSans-50"/>
       <use x="63.623047" xlink:href="#DejaVuSans-48"/>
      </g>
     </g>
    </g>
    <g id="xtick_3">
     <g id="line2d_5">
      <path clip-path="url(#pcc3819936b)" d="M 216.541294 338.1 
L 216.541294 17.28 
" style="fill:none;stroke:#b2b2b2;stroke-dasharray:1.85,0.8;stroke-dashoffset:0;stroke-width:0.5;"/>
     </g>
     <g id="line2d_6">
      <g>
       <use style="stroke:#000000;stroke-width:0.8;" x="216.541294" xlink:href="#m31db52898e" y="338.1"/>
      </g>
     </g>
     <g id="text_3">
      <!-- 40 -->
      <g transform="translate(206.361294 353.7575)scale(0.16 -0.16)">
       <defs>
        <path d="M 37.796875 64.3125 
L 12.890625 25.390625 
L 37.796875 25.390625 
z
M 35.203125 72.90625 
L 47.609375 72.90625 
L 47.609375 25.390625 
L 58.015625 25.390625 
L 58.015625 17.1875 
L 47.609375 17.1875 
L 47.609375 0 
L 37.796875 0 
L 37.796875 17.1875 
L 4.890625 17.1875 
L 4.890625 26.703125 
z
" id="DejaVuSans-52"/>
       </defs>
       <use xlink:href="#DejaVuSans-52"/>
       <use x="63.623047" xlink:href="#DejaVuSans-48"/>
      </g>
     </g>
    </g>
    <g id="xtick_4">
     <g id="line2d_7">
      <path clip-path="url(#pcc3819936b)" d="M 273.466237 338.1 
L 273.466237 17.28 
" style="fill:none;stroke:#b2b2b2;stroke-dasharray:1.85,0.8;stroke-dashoffset:0;stroke-width:0.5;"/>
     </g>
     <g id="line2d_8">
      <g>
       <use style="stroke:#000000;stroke-width:0.8;" x="273.466237" xlink:href="#m31db52898e" y="338.1"/>
      </g>
     </g>
     <g id="text_4">
      <!-- 60 -->
      <g transform="translate(263.286237 353.7575)scale(0.16 -0.16)">
       <defs>
        <path d="M 33.015625 40.375 
Q 26.375 40.375 22.484375 35.828125 
Q 18.609375 31.296875 18.609375 23.390625 
Q 18.609375 15.53125 22.484375 10.953125 
Q 26.375 6.390625 33.015625 6.390625 
Q 39.65625 6.390625 43.53125 10.953125 
Q 47.40625 15.53125 47.40625 23.390625 
Q 47.40625 31.296875 43.53125 35.828125 
Q 39.65625 40.375 33.015625 40.375 
z
M 52.59375 71.296875 
L 52.59375 62.3125 
Q 48.875 64.0625 45.09375 64.984375 
Q 41.3125 65.921875 37.59375 65.921875 
Q 27.828125 65.921875 22.671875 59.328125 
Q 17.53125 52.734375 16.796875 39.40625 
Q 19.671875 43.65625 24.015625 45.921875 
Q 28.375 48.1875 33.59375 48.1875 
Q 44.578125 48.1875 50.953125 41.515625 
Q 57.328125 34.859375 57.328125 23.390625 
Q 57.328125 12.15625 50.6875 5.359375 
Q 44.046875 -1.421875 33.015625 -1.421875 
Q 20.359375 -1.421875 13.671875 8.265625 
Q 6.984375 17.96875 6.984375 36.375 
Q 6.984375 53.65625 15.1875 63.9375 
Q 23.390625 74.21875 37.203125 74.21875 
Q 40.921875 74.21875 44.703125 73.484375 
Q 48.484375 72.75 52.59375 71.296875 
z
" id="DejaVuSans-54"/>
       </defs>
       <use xlink:href="#DejaVuSans-54"/>
       <use x="63.623047" xlink:href="#DejaVuSans-48"/>
      </g>
     </g>
    </g>
    <g id="xtick_5">
     <g id="line2d_9">
      <path clip-path="url(#pcc3819936b)" d="M 330.391181 338.1 
L 330.391181 17.28 
" style="fill:none;stroke:#b2b2b2;stroke-dasharray:1.85,0.8;stroke-dashoffset:0;stroke-width:0.5;"/>
     </g>
     <g id="line2d_10">
      <g>
       <use style="stroke:#000000;stroke-width:0.8;" x="330.391181" xlink:href="#m31db52898e" y="338.1"/>
      </g>
     </g>
     <g id="text_5">
      <!-- 80 -->
      <g transform="translate(320.211181 353.7575)scale(0.16 -0.16)">
       <defs>
        <path d="M 31.78125 34.625 
Q 24.75 34.625 20.71875 30.859375 
Q 16.703125 27.09375 16.703125 20.515625 
Q 16.703125 13.921875 20.71875 10.15625 
Q 24.75 6.390625 31.78125 6.390625 
Q 38.8125 6.390625 42.859375 10.171875 
Q 46.921875 13.96875 46.921875 20.515625 
Q 46.921875 27.09375 42.890625 30.859375 
Q 38.875 34.625 31.78125 34.625 
z
M 21.921875 38.8125 
Q 15.578125 40.375 12.03125 44.71875 
Q 8.5 49.078125 8.5 55.328125 
Q 8.5 64.0625 14.71875 69.140625 
Q 20.953125 74.21875 31.78125 74.21875 
Q 42.671875 74.21875 48.875 69.140625 
Q 55.078125 64.0625 55.078125 55.328125 
Q 55.078125 49.078125 51.53125 44.71875 
Q 48 40.375 41.703125 38.8125 
Q 48.828125 37.15625 52.796875 32.3125 
Q 56.78125 27.484375 56.78125 20.515625 
Q 56.78125 9.90625 50.3125 4.234375 
Q 43.84375 -1.421875 31.78125 -1.421875 
Q 19.734375 -1.421875 13.25 4.234375 
Q 6.78125 9.90625 6.78125 20.515625 
Q 6.78125 27.484375 10.78125 32.3125 
Q 14.796875 37.15625 21.921875 38.8125 
z
M 18.3125 54.390625 
Q 18.3125 48.734375 21.84375 45.5625 
Q 25.390625 42.390625 31.78125 42.390625 
Q 38.140625 42.390625 41.71875 45.5625 
Q 45.3125 48.734375 45.3125 54.390625 
Q 45.3125 60.0625 41.71875 63.234375 
Q 38.140625 66.40625 31.78125 66.40625 
Q 25.390625 66.40625 21.84375 63.234375 
Q 18.3125 60.0625 18.3125 54.390625 
z
" id="DejaVuSans-56"/>
       </defs>
       <use xlink:href="#DejaVuSans-56"/>
       <use x="63.623047" xlink:href="#DejaVuSans-48"/>
      </g>
     </g>
    </g>
    <g id="xtick_6">
     <g id="line2d_11">
      <path clip-path="url(#pcc3819936b)" d="M 387.316125 338.1 
L 387.316125 17.28 
" style="fill:none;stroke:#b2b2b2;stroke-dasharray:1.85,0.8;stroke-dashoffset:0;stroke-width:0.5;"/>
     </g>
     <g id="line2d_12">
      <g>
       <use style="stroke:#000000;stroke-width:0.8;" x="387.316125" xlink:href="#m31db52898e" y="338.1"/>
      </g>
     </g>
     <g id="text_6">
      <!-- 100 -->
      <g transform="translate(372.046125 353.7575)scale(0.16 -0.16)">
       <defs>
        <path d="M 12.40625 8.296875 
L 28.515625 8.296875 
L 28.515625 63.921875 
L 10.984375 60.40625 
L 10.984375 69.390625 
L 28.421875 72.90625 
L 38.28125 72.90625 
L 38.28125 8.296875 
L 54.390625 8.296875 
L 54.390625 0 
L 12.40625 0 
z
" id="DejaVuSans-49"/>
       </defs>
       <use xlink:href="#DejaVuSans-49"/>
       <use x="63.623047" xlink:href="#DejaVuSans-48"/>
       <use x="127.246094" xlink:href="#DejaVuSans-48"/>
      </g>
     </g>
    </g>
    <g id="text_7">
     <!-- Step -->
     <g transform="translate(221.721142 375.674)scale(0.192 -0.192)">
      <defs>
       <path d="M 53.515625 70.515625 
L 53.515625 60.890625 
Q 47.90625 63.578125 42.921875 64.890625 
Q 37.9375 66.21875 33.296875 66.21875 
Q 25.25 66.21875 20.875 63.09375 
Q 16.5 59.96875 16.5 54.203125 
Q 16.5 49.359375 19.40625 46.890625 
Q 22.3125 44.4375 30.421875 42.921875 
L 36.375 41.703125 
Q 47.40625 39.59375 52.65625 34.296875 
Q 57.90625 29 57.90625 20.125 
Q 57.90625 9.515625 50.796875 4.046875 
Q 43.703125 -1.421875 29.984375 -1.421875 
Q 24.8125 -1.421875 18.96875 -0.25 
Q 13.140625 0.921875 6.890625 3.21875 
L 6.890625 13.375 
Q 12.890625 10.015625 18.65625 8.296875 
Q 24.421875 6.59375 29.984375 6.59375 
Q 38.421875 6.59375 43.015625 9.90625 
Q 47.609375 13.234375 47.609375 19.390625 
Q 47.609375 24.75 44.3125 27.78125 
Q 41.015625 30.8125 33.5 32.328125 
L 27.484375 33.5 
Q 16.453125 35.6875 11.515625 40.375 
Q 6.59375 45.0625 6.59375 53.421875 
Q 6.59375 63.09375 13.40625 68.65625 
Q 20.21875 74.21875 32.171875 74.21875 
Q 37.3125 74.21875 42.625 73.28125 
Q 47.953125 72.359375 53.515625 70.515625 
z
" id="DejaVuSans-83"/>
       <path d="M 18.3125 70.21875 
L 18.3125 54.6875 
L 36.8125 54.6875 
L 36.8125 47.703125 
L 18.3125 47.703125 
L 18.3125 18.015625 
Q 18.3125 11.328125 20.140625 9.421875 
Q 21.96875 7.515625 27.59375 7.515625 
L 36.8125 7.515625 
L 36.8125 0 
L 27.59375 0 
Q 17.1875 0 13.234375 3.875 
Q 9.28125 7.765625 9.28125 18.015625 
L 9.28125 47.703125 
L 2.6875 47.703125 
L 2.6875 54.6875 
L 9.28125 54.6875 
L 9.28125 70.21875 
z
" id="DejaVuSans-116"/>
       <path d="M 56.203125 29.59375 
L 56.203125 25.203125 
L 14.890625 25.203125 
Q 15.484375 15.921875 20.484375 11.0625 
Q 25.484375 6.203125 34.421875 6.203125 
Q 39.59375 6.203125 44.453125 7.46875 
Q 49.3125 8.734375 54.109375 11.28125 
L 54.109375 2.78125 
Q 49.265625 0.734375 44.1875 -0.34375 
Q 39.109375 -1.421875 33.890625 -1.421875 
Q 20.796875 -1.421875 13.15625 6.1875 
Q 5.515625 13.8125 5.515625 26.8125 
Q 5.515625 40.234375 12.765625 48.109375 
Q 20.015625 56 32.328125 56 
Q 43.359375 56 49.78125 48.890625 
Q 56.203125 41.796875 56.203125 29.59375 
z
M 47.21875 32.234375 
Q 47.125 39.59375 43.09375 43.984375 
Q 39.0625 48.390625 32.421875 48.390625 
Q 24.90625 48.390625 20.390625 44.140625 
Q 15.875 39.890625 15.1875 32.171875 
z
" id="DejaVuSans-101"/>
       <path d="M 18.109375 8.203125 
L 18.109375 -20.796875 
L 9.078125 -20.796875 
L 9.078125 54.6875 
L 18.109375 54.6875 
L 18.109375 46.390625 
Q 20.953125 51.265625 25.265625 53.625 
Q 29.59375 56 35.59375 56 
Q 45.5625 56 51.78125 48.09375 
Q 58.015625 40.1875 58.015625 27.296875 
Q 58.015625 14.40625 51.78125 6.484375 
Q 45.5625 -1.421875 35.59375 -1.421875 
Q 29.59375 -1.421875 25.265625 0.953125 
Q 20.953125 3.328125 18.109375 8.203125 
z
M 48.6875 27.296875 
Q 48.6875 37.203125 44.609375 42.84375 
Q 40.53125 48.484375 33.40625 48.484375 
Q 26.265625 48.484375 22.1875 42.84375 
Q 18.109375 37.203125 18.109375 27.296875 
Q 18.109375 17.390625 22.1875 11.75 
Q 26.265625 6.109375 33.40625 6.109375 
Q 40.53125 6.109375 44.609375 11.75 
Q 48.6875 17.390625 48.6875 27.296875 
z
" id="DejaVuSans-112"/>
      </defs>
      <use xlink:href="#DejaVuSans-83"/>
      <use x="63.476562" xlink:href="#DejaVuSans-116"/>
      <use x="102.685547" xlink:href="#DejaVuSans-101"/>
      <use x="164.208984" xlink:href="#DejaVuSans-112"/>
     </g>
    </g>
   </g>
   <g id="matplotlib.axis_2">
    <g id="ytick_1">
     <g id="line2d_13">
      <path clip-path="url(#pcc3819936b)" d="M 88.602482 311.854979 
L 398.558802 311.854979 
" style="fill:none;stroke:#b2b2b2;stroke-dasharray:1.85,0.8;stroke-dashoffset:0;stroke-width:0.5;"/>
     </g>
     <g id="line2d_14">
      <defs>
       <path d="M 0 0 
L 3.5 0 
" id="me419d12858" style="stroke:#000000;stroke-width:0.8;"/>
      </defs>
      <g>
       <use style="stroke:#000000;stroke-width:0.8;" x="88.602482" xlink:href="#me419d12858" y="311.854979"/>
      </g>
     </g>
     <g id="text_8">
      <!-- $\mathdefault{10^{-3}}$ -->
      <g transform="translate(52.942482 317.933729)scale(0.16 -0.16)">
       <defs>
        <path d="M 4.890625 31.390625 
L 31.203125 31.390625 
L 31.203125 23.390625 
L 4.890625 23.390625 
z
" id="DejaVuSans-45"/>
        <path d="M 40.578125 39.3125 
Q 47.65625 37.796875 51.625 33 
Q 55.609375 28.21875 55.609375 21.1875 
Q 55.609375 10.40625 48.1875 4.484375 
Q 40.765625 -1.421875 27.09375 -1.421875 
Q 22.515625 -1.421875 17.65625 -0.515625 
Q 12.796875 0.390625 7.625 2.203125 
L 7.625 11.71875 
Q 11.71875 9.328125 16.59375 8.109375 
Q 21.484375 6.890625 26.8125 6.890625 
Q 36.078125 6.890625 40.9375 10.546875 
Q 45.796875 14.203125 45.796875 21.1875 
Q 45.796875 27.640625 41.28125 31.265625 
Q 36.765625 34.90625 28.71875 34.90625 
L 20.21875 34.90625 
L 20.21875 43.015625 
L 29.109375 43.015625 
Q 36.375 43.015625 40.234375 45.921875 
Q 44.09375 48.828125 44.09375 54.296875 
Q 44.09375 59.90625 40.109375 62.90625 
Q 36.140625 65.921875 28.71875 65.921875 
Q 24.65625 65.921875 20.015625 65.03125 
Q 15.375 64.15625 9.8125 62.3125 
L 9.8125 71.09375 
Q 15.4375 72.65625 20.34375 73.4375 
Q 25.25 74.21875 29.59375 74.21875 
Q 40.828125 74.21875 47.359375 69.109375 
Q 53.90625 64.015625 53.90625 55.328125 
Q 53.90625 49.265625 50.4375 45.09375 
Q 46.96875 40.921875 40.578125 39.3125 
z
" id="DejaVuSans-51"/>
       </defs>
       <use transform="translate(0 0.765625)" xlink:href="#DejaVuSans-49"/>
       <use transform="translate(63.623047 0.765625)" xlink:href="#DejaVuSans-48"/>
       <use transform="translate(128.203125 39.046875)scale(0.7)" xlink:href="#DejaVuSans-45"/>
       <use transform="translate(153.461914 39.046875)scale(0.7)" xlink:href="#DejaVuSans-51"/>
      </g>
     </g>
    </g>
    <g id="ytick_2">
     <g id="line2d_15">
      <path clip-path="url(#pcc3819936b)" d="M 88.602482 265.41202 
L 398.558802 265.41202 
" style="fill:none;stroke:#b2b2b2;stroke-dasharray:1.85,0.8;stroke-dashoffset:0;stroke-width:0.5;"/>
     </g>
     <g id="line2d_16">
      <g>
       <use style="stroke:#000000;stroke-width:0.8;" x="88.602482" xlink:href="#me419d12858" y="265.41202"/>
      </g>
     </g>
     <g id="text_9">
      <!-- $\mathdefault{10^{-2}}$ -->
      <g transform="translate(52.942482 271.49077)scale(0.16 -0.16)">
       <use transform="translate(0 0.765625)" xlink:href="#DejaVuSans-49"/>
       <use transform="translate(63.623047 0.765625)" xlink:href="#DejaVuSans-48"/>
       <use transform="translate(128.203125 39.046875)scale(0.7)" xlink:href="#DejaVuSans-45"/>
       <use transform="translate(153.461914 39.046875)scale(0.7)" xlink:href="#DejaVuSans-50"/>
      </g>
     </g>
    </g>
    <g id="ytick_3">
     <g id="line2d_17">
      <path clip-path="url(#pcc3819936b)" d="M 88.602482 218.969061 
L 398.558802 218.969061 
" style="fill:none;stroke:#b2b2b2;stroke-dasharray:1.85,0.8;stroke-dashoffset:0;stroke-width:0.5;"/>
     </g>
     <g id="line2d_18">
      <g>
       <use style="stroke:#000000;stroke-width:0.8;" x="88.602482" xlink:href="#me419d12858" y="218.969061"/>
      </g>
     </g>
     <g id="text_10">
      <!-- $\mathdefault{10^{-1}}$ -->
      <g transform="translate(52.942482 225.047811)scale(0.16 -0.16)">
       <use transform="translate(0 0.684375)" xlink:href="#DejaVuSans-49"/>
       <use transform="translate(63.623047 0.684375)" xlink:href="#DejaVuSans-48"/>
       <use transform="translate(128.203125 38.965625)scale(0.7)" xlink:href="#DejaVuSans-45"/>
       <use transform="translate(153.461914 38.965625)scale(0.7)" xlink:href="#DejaVuSans-49"/>
      </g>
     </g>
    </g>
    <g id="ytick_4">
     <g id="line2d_19">
      <path clip-path="url(#pcc3819936b)" d="M 88.602482 172.526102 
L 398.558802 172.526102 
" style="fill:none;stroke:#b2b2b2;stroke-dasharray:1.85,0.8;stroke-dashoffset:0;stroke-width:0.5;"/>
     </g>
     <g id="line2d_20">
      <g>
       <use style="stroke:#000000;stroke-width:0.8;" x="88.602482" xlink:href="#me419d12858" y="172.526102"/>
      </g>
     </g>
     <g id="text_11">
      <!-- $\mathdefault{10^{0}}$ -->
      <g transform="translate(56.942482 178.604852)scale(0.16 -0.16)">
       <use transform="translate(0 0.765625)" xlink:href="#DejaVuSans-49"/>
       <use transform="translate(63.623047 0.765625)" xlink:href="#DejaVuSans-48"/>
       <use transform="translate(128.203125 39.046875)scale(0.7)" xlink:href="#DejaVuSans-48"/>
      </g>
     </g>
    </g>
    <g id="ytick_5">
     <g id="line2d_21">
      <path clip-path="url(#pcc3819936b)" d="M 88.602482 126.083143 
L 398.558802 126.083143 
" style="fill:none;stroke:#b2b2b2;stroke-dasharray:1.85,0.8;stroke-dashoffset:0;stroke-width:0.5;"/>
     </g>
     <g id="line2d_22">
      <g>
       <use style="stroke:#000000;stroke-width:0.8;" x="88.602482" xlink:href="#me419d12858" y="126.083143"/>
      </g>
     </g>
     <g id="text_12">
      <!-- $\mathdefault{10^{1}}$ -->
      <g transform="translate(56.942482 132.161893)scale(0.16 -0.16)">
       <use transform="translate(0 0.684375)" xlink:href="#DejaVuSans-49"/>
       <use transform="translate(63.623047 0.684375)" xlink:href="#DejaVuSans-48"/>
       <use transform="translate(128.203125 38.965625)scale(0.7)" xlink:href="#DejaVuSans-49"/>
      </g>
     </g>
    </g>
    <g id="ytick_6">
     <g id="line2d_23">
      <path clip-path="url(#pcc3819936b)" d="M 88.602482 79.640184 
L 398.558802 79.640184 
" style="fill:none;stroke:#b2b2b2;stroke-dasharray:1.85,0.8;stroke-dashoffset:0;stroke-width:0.5;"/>
     </g>
     <g id="line2d_24">
      <g>
       <use style="stroke:#000000;stroke-width:0.8;" x="88.602482" xlink:href="#me419d12858" y="79.640184"/>
      </g>
     </g>
     <g id="text_13">
      <!-- $\mathdefault{10^{2}}$ -->
      <g transform="translate(56.942482 85.718934)scale(0.16 -0.16)">
       <use transform="translate(0 0.765625)" xlink:href="#DejaVuSans-49"/>
       <use transform="translate(63.623047 0.765625)" xlink:href="#DejaVuSans-48"/>
       <use transform="translate(128.203125 39.046875)scale(0.7)" xlink:href="#DejaVuSans-50"/>
      </g>
     </g>
    </g>
    <g id="ytick_7">
     <g id="line2d_25">
      <path clip-path="url(#pcc3819936b)" d="M 88.602482 33.197225 
L 398.558802 33.197225 
" style="fill:none;stroke:#b2b2b2;stroke-dasharray:1.85,0.8;stroke-dashoffset:0;stroke-width:0.5;"/>
     </g>
     <g id="line2d_26">
      <g>
       <use style="stroke:#000000;stroke-width:0.8;" x="88.602482" xlink:href="#me419d12858" y="33.197225"/>
      </g>
     </g>
     <g id="text_14">
      <!-- $\mathdefault{10^{3}}$ -->
      <g transform="translate(56.942482 39.275975)scale(0.16 -0.16)">
       <use transform="translate(0 0.765625)" xlink:href="#DejaVuSans-49"/>
       <use transform="translate(63.623047 0.765625)" xlink:href="#DejaVuSans-48"/>
       <use transform="translate(128.203125 39.046875)scale(0.7)" xlink:href="#DejaVuSans-51"/>
      </g>
     </g>
    </g>
    <g id="ytick_8">
     <g id="line2d_27">
      <defs>
       <path d="M 0 0 
L 2 0 
" id="m2d3b210945" style="stroke:#000000;stroke-width:0.6;"/>
      </defs>
      <g>
       <use style="stroke:#000000;stroke-width:0.6;" x="88.602482" xlink:href="#m2d3b210945" y="336.139015"/>
      </g>
     </g>
    </g>
    <g id="ytick_9">
     <g id="line2d_28">
      <g>
       <use style="stroke:#000000;stroke-width:0.6;" x="88.602482" xlink:href="#m2d3b210945" y="330.336491"/>
      </g>
     </g>
    </g>
    <g id="ytick_10">
     <g id="line2d_29">
      <g>
       <use style="stroke:#000000;stroke-width:0.6;" x="88.602482" xlink:href="#m2d3b210945" y="325.835703"/>
      </g>
     </g>
    </g>
    <g id="ytick_11">
     <g id="line2d_30">
      <g>
       <use style="stroke:#000000;stroke-width:0.6;" x="88.602482" xlink:href="#m2d3b210945" y="322.158292"/>
      </g>
     </g>
    </g>
    <g id="ytick_12">
     <g id="line2d_31">
      <g>
       <use style="stroke:#000000;stroke-width:0.6;" x="88.602482" xlink:href="#m2d3b210945" y="319.049085"/>
      </g>
     </g>
    </g>
    <g id="ytick_13">
     <g id="line2d_32">
      <g>
       <use style="stroke:#000000;stroke-width:0.6;" x="88.602482" xlink:href="#m2d3b210945" y="316.355767"/>
      </g>
     </g>
    </g>
    <g id="ytick_14">
     <g id="line2d_33">
      <g>
       <use style="stroke:#000000;stroke-width:0.6;" x="88.602482" xlink:href="#m2d3b210945" y="313.980093"/>
      </g>
     </g>
    </g>
    <g id="ytick_15">
     <g id="line2d_34">
      <g>
       <use style="stroke:#000000;stroke-width:0.6;" x="88.602482" xlink:href="#m2d3b210945" y="297.874256"/>
      </g>
     </g>
    </g>
    <g id="ytick_16">
     <g id="line2d_35">
      <g>
       <use style="stroke:#000000;stroke-width:0.6;" x="88.602482" xlink:href="#m2d3b210945" y="289.696056"/>
      </g>
     </g>
    </g>
    <g id="ytick_17">
     <g id="line2d_36">
      <g>
       <use style="stroke:#000000;stroke-width:0.6;" x="88.602482" xlink:href="#m2d3b210945" y="283.893532"/>
      </g>
     </g>
    </g>
    <g id="ytick_18">
     <g id="line2d_37">
      <g>
       <use style="stroke:#000000;stroke-width:0.6;" x="88.602482" xlink:href="#m2d3b210945" y="279.392744"/>
      </g>
     </g>
    </g>
    <g id="ytick_19">
     <g id="line2d_38">
      <g>
       <use style="stroke:#000000;stroke-width:0.6;" x="88.602482" xlink:href="#m2d3b210945" y="275.715333"/>
      </g>
     </g>
    </g>
    <g id="ytick_20">
     <g id="line2d_39">
      <g>
       <use style="stroke:#000000;stroke-width:0.6;" x="88.602482" xlink:href="#m2d3b210945" y="272.606126"/>
      </g>
     </g>
    </g>
    <g id="ytick_21">
     <g id="line2d_40">
      <g>
       <use style="stroke:#000000;stroke-width:0.6;" x="88.602482" xlink:href="#m2d3b210945" y="269.912808"/>
      </g>
     </g>
    </g>
    <g id="ytick_22">
     <g id="line2d_41">
      <g>
       <use style="stroke:#000000;stroke-width:0.6;" x="88.602482" xlink:href="#m2d3b210945" y="267.537134"/>
      </g>
     </g>
    </g>
    <g id="ytick_23">
     <g id="line2d_42">
      <g>
       <use style="stroke:#000000;stroke-width:0.6;" x="88.602482" xlink:href="#m2d3b210945" y="251.431297"/>
      </g>
     </g>
    </g>
    <g id="ytick_24">
     <g id="line2d_43">
      <g>
       <use style="stroke:#000000;stroke-width:0.6;" x="88.602482" xlink:href="#m2d3b210945" y="243.253097"/>
      </g>
     </g>
    </g>
    <g id="ytick_25">
     <g id="line2d_44">
      <g>
       <use style="stroke:#000000;stroke-width:0.6;" x="88.602482" xlink:href="#m2d3b210945" y="237.450573"/>
      </g>
     </g>
    </g>
    <g id="ytick_26">
     <g id="line2d_45">
      <g>
       <use style="stroke:#000000;stroke-width:0.6;" x="88.602482" xlink:href="#m2d3b210945" y="232.949785"/>
      </g>
     </g>
    </g>
    <g id="ytick_27">
     <g id="line2d_46">
      <g>
       <use style="stroke:#000000;stroke-width:0.6;" x="88.602482" xlink:href="#m2d3b210945" y="229.272374"/>
      </g>
     </g>
    </g>
    <g id="ytick_28">
     <g id="line2d_47">
      <g>
       <use style="stroke:#000000;stroke-width:0.6;" x="88.602482" xlink:href="#m2d3b210945" y="226.163167"/>
      </g>
     </g>
    </g>
    <g id="ytick_29">
     <g id="line2d_48">
      <g>
       <use style="stroke:#000000;stroke-width:0.6;" x="88.602482" xlink:href="#m2d3b210945" y="223.469849"/>
      </g>
     </g>
    </g>
    <g id="ytick_30">
     <g id="line2d_49">
      <g>
       <use style="stroke:#000000;stroke-width:0.6;" x="88.602482" xlink:href="#m2d3b210945" y="221.094175"/>
      </g>
     </g>
    </g>
    <g id="ytick_31">
     <g id="line2d_50">
      <g>
       <use style="stroke:#000000;stroke-width:0.6;" x="88.602482" xlink:href="#m2d3b210945" y="204.988338"/>
      </g>
     </g>
    </g>
    <g id="ytick_32">
     <g id="line2d_51">
      <g>
       <use style="stroke:#000000;stroke-width:0.6;" x="88.602482" xlink:href="#m2d3b210945" y="196.810138"/>
      </g>
     </g>
    </g>
    <g id="ytick_33">
     <g id="line2d_52">
      <g>
       <use style="stroke:#000000;stroke-width:0.6;" x="88.602482" xlink:href="#m2d3b210945" y="191.007614"/>
      </g>
     </g>
    </g>
    <g id="ytick_34">
     <g id="line2d_53">
      <g>
       <use style="stroke:#000000;stroke-width:0.6;" x="88.602482" xlink:href="#m2d3b210945" y="186.506826"/>
      </g>
     </g>
    </g>
    <g id="ytick_35">
     <g id="line2d_54">
      <g>
       <use style="stroke:#000000;stroke-width:0.6;" x="88.602482" xlink:href="#m2d3b210945" y="182.829415"/>
      </g>
     </g>
    </g>
    <g id="ytick_36">
     <g id="line2d_55">
      <g>
       <use style="stroke:#000000;stroke-width:0.6;" x="88.602482" xlink:href="#m2d3b210945" y="179.720208"/>
      </g>
     </g>
    </g>
    <g id="ytick_37">
     <g id="line2d_56">
      <g>
       <use style="stroke:#000000;stroke-width:0.6;" x="88.602482" xlink:href="#m2d3b210945" y="177.02689"/>
      </g>
     </g>
    </g>
    <g id="ytick_38">
     <g id="line2d_57">
      <g>
       <use style="stroke:#000000;stroke-width:0.6;" x="88.602482" xlink:href="#m2d3b210945" y="174.651216"/>
      </g>
     </g>
    </g>
    <g id="ytick_39">
     <g id="line2d_58">
      <g>
       <use style="stroke:#000000;stroke-width:0.6;" x="88.602482" xlink:href="#m2d3b210945" y="158.545379"/>
      </g>
     </g>
    </g>
    <g id="ytick_40">
     <g id="line2d_59">
      <g>
       <use style="stroke:#000000;stroke-width:0.6;" x="88.602482" xlink:href="#m2d3b210945" y="150.367179"/>
      </g>
     </g>
    </g>
    <g id="ytick_41">
     <g id="line2d_60">
      <g>
       <use style="stroke:#000000;stroke-width:0.6;" x="88.602482" xlink:href="#m2d3b210945" y="144.564655"/>
      </g>
     </g>
    </g>
    <g id="ytick_42">
     <g id="line2d_61">
      <g>
       <use style="stroke:#000000;stroke-width:0.6;" x="88.602482" xlink:href="#m2d3b210945" y="140.063867"/>
      </g>
     </g>
    </g>
    <g id="ytick_43">
     <g id="line2d_62">
      <g>
       <use style="stroke:#000000;stroke-width:0.6;" x="88.602482" xlink:href="#m2d3b210945" y="136.386456"/>
      </g>
     </g>
    </g>
    <g id="ytick_44">
     <g id="line2d_63">
      <g>
       <use style="stroke:#000000;stroke-width:0.6;" x="88.602482" xlink:href="#m2d3b210945" y="133.277249"/>
      </g>
     </g>
    </g>
    <g id="ytick_45">
     <g id="line2d_64">
      <g>
       <use style="stroke:#000000;stroke-width:0.6;" x="88.602482" xlink:href="#m2d3b210945" y="130.583931"/>
      </g>
     </g>
    </g>
    <g id="ytick_46">
     <g id="line2d_65">
      <g>
       <use style="stroke:#000000;stroke-width:0.6;" x="88.602482" xlink:href="#m2d3b210945" y="128.208257"/>
      </g>
     </g>
    </g>
    <g id="ytick_47">
     <g id="line2d_66">
      <g>
       <use style="stroke:#000000;stroke-width:0.6;" x="88.602482" xlink:href="#m2d3b210945" y="112.10242"/>
      </g>
     </g>
    </g>
    <g id="ytick_48">
     <g id="line2d_67">
      <g>
       <use style="stroke:#000000;stroke-width:0.6;" x="88.602482" xlink:href="#m2d3b210945" y="103.92422"/>
      </g>
     </g>
    </g>
    <g id="ytick_49">
     <g id="line2d_68">
      <g>
       <use style="stroke:#000000;stroke-width:0.6;" x="88.602482" xlink:href="#m2d3b210945" y="98.121696"/>
      </g>
     </g>
    </g>
    <g id="ytick_50">
     <g id="line2d_69">
      <g>
       <use style="stroke:#000000;stroke-width:0.6;" x="88.602482" xlink:href="#m2d3b210945" y="93.620908"/>
      </g>
     </g>
    </g>
    <g id="ytick_51">
     <g id="line2d_70">
      <g>
       <use style="stroke:#000000;stroke-width:0.6;" x="88.602482" xlink:href="#m2d3b210945" y="89.943497"/>
      </g>
     </g>
    </g>
    <g id="ytick_52">
     <g id="line2d_71">
      <g>
       <use style="stroke:#000000;stroke-width:0.6;" x="88.602482" xlink:href="#m2d3b210945" y="86.83429"/>
      </g>
     </g>
    </g>
    <g id="ytick_53">
     <g id="line2d_72">
      <g>
       <use style="stroke:#000000;stroke-width:0.6;" x="88.602482" xlink:href="#m2d3b210945" y="84.140972"/>
      </g>
     </g>
    </g>
    <g id="ytick_54">
     <g id="line2d_73">
      <g>
       <use style="stroke:#000000;stroke-width:0.6;" x="88.602482" xlink:href="#m2d3b210945" y="81.765298"/>
      </g>
     </g>
    </g>
    <g id="ytick_55">
     <g id="line2d_74">
      <g>
       <use style="stroke:#000000;stroke-width:0.6;" x="88.602482" xlink:href="#m2d3b210945" y="65.659461"/>
      </g>
     </g>
    </g>
    <g id="ytick_56">
     <g id="line2d_75">
      <g>
       <use style="stroke:#000000;stroke-width:0.6;" x="88.602482" xlink:href="#m2d3b210945" y="57.481261"/>
      </g>
     </g>
    </g>
    <g id="ytick_57">
     <g id="line2d_76">
      <g>
       <use style="stroke:#000000;stroke-width:0.6;" x="88.602482" xlink:href="#m2d3b210945" y="51.678737"/>
      </g>
     </g>
    </g>
    <g id="ytick_58">
     <g id="line2d_77">
      <g>
       <use style="stroke:#000000;stroke-width:0.6;" x="88.602482" xlink:href="#m2d3b210945" y="47.177949"/>
      </g>
     </g>
    </g>
    <g id="ytick_59">
     <g id="line2d_78">
      <g>
       <use style="stroke:#000000;stroke-width:0.6;" x="88.602482" xlink:href="#m2d3b210945" y="43.500538"/>
      </g>
     </g>
    </g>
    <g id="ytick_60">
     <g id="line2d_79">
      <g>
       <use style="stroke:#000000;stroke-width:0.6;" x="88.602482" xlink:href="#m2d3b210945" y="40.391331"/>
      </g>
     </g>
    </g>
    <g id="ytick_61">
     <g id="line2d_80">
      <g>
       <use style="stroke:#000000;stroke-width:0.6;" x="88.602482" xlink:href="#m2d3b210945" y="37.698013"/>
      </g>
     </g>
    </g>
    <g id="ytick_62">
     <g id="line2d_81">
      <g>
       <use style="stroke:#000000;stroke-width:0.6;" x="88.602482" xlink:href="#m2d3b210945" y="35.322339"/>
      </g>
     </g>
    </g>
    <g id="ytick_63">
     <g id="line2d_82">
      <g>
       <use style="stroke:#000000;stroke-width:0.6;" x="88.602482" xlink:href="#m2d3b210945" y="19.216502"/>
      </g>
     </g>
    </g>
    <g id="text_15">
     <!-- $\mathcal{L}$ -->
     <g transform="translate(44.949482 184.314)rotate(-90)scale(0.192 -0.192)">
      <defs>
       <path d="M 3.71875 -2.203125 
Q 3.078125 -2.203125 3.078125 -1.515625 
Q 3.078125 -1.125 3.421875 -0.59375 
Q 4.15625 0.59375 5.609375 2.03125 
Q 7.078125 3.46875 7.71875 4.296875 
Q 10.25 7.953125 11.71875 10.796875 
Q 14.265625 16.0625 16.109375 22.90625 
Q 18.84375 33.796875 21.0625 40.578125 
Q 23.296875 47.359375 26.90625 53.421875 
Q 29.734375 58.109375 33.875 61.984375 
Q 38.03125 65.875 43.078125 68.1875 
Q 48.140625 70.515625 53.421875 70.515625 
L 54 70.515625 
Q 56.59375 70.515625 58.34375 69.21875 
Q 60.109375 67.921875 61.015625 65.75 
Q 61.921875 63.578125 61.921875 61.078125 
Q 61.921875 57.28125 60.6875 55.8125 
Q 57.234375 52.046875 52.484375 51.421875 
L 51.90625 51.421875 
Q 51.3125 51.421875 51.3125 52.09375 
Q 51.3125 52.203125 51.5625 53.609375 
Q 51.8125 55.03125 51.8125 56 
Q 51.8125 59.234375 50.1875 61.625 
Q 48.578125 64.015625 45.40625 64.015625 
Q 41.703125 64.015625 41.703125 63.375 
Q 38.96875 61.46875 36.453125 57.046875 
Q 33.9375 52.640625 32.046875 47.484375 
Q 30.171875 42.328125 28.703125 37.125 
Q 27.25 31.9375 26.125 27.390625 
Q 24.90625 22.46875 22.96875 17.9375 
Q 21.046875 13.421875 18.40625 9.421875 
Q 19.578125 9.8125 21.296875 9.8125 
L 21.921875 9.8125 
Q 25.390625 9.8125 28.859375 9.109375 
Q 32.328125 8.40625 37.15625 7.03125 
Q 42 5.671875 45.21875 5 
Q 48.4375 4.34375 52 4.296875 
Q 53.078125 4.296875 53.75 5.265625 
Q 54.4375 6.25 55.09375 7.984375 
Q 55.765625 9.71875 56.203125 10.296875 
Q 57.71875 11.96875 59.90625 13.1875 
Q 62.109375 14.40625 64.3125 14.703125 
L 64.890625 14.703125 
Q 65.1875 14.703125 65.375 14.5 
Q 65.578125 14.3125 65.578125 14.015625 
Q 65.578125 14.015625 65.484375 13.71875 
Q 64.5 9.8125 60.890625 6.03125 
Q 57.28125 2.25 52.65625 0.015625 
Q 48.046875 -2.203125 44.1875 -2.203125 
L 43.609375 -2.203125 
Q 40.140625 -2.203125 36.8125 -1.5625 
Q 33.5 -0.921875 28.65625 0.4375 
Q 23.828125 1.8125 20.375 2.53125 
Q 16.9375 3.265625 13.484375 3.328125 
Q 9.03125 -1.5625 4.296875 -2.203125 
z
" id="Cmsy10-76"/>
      </defs>
      <use transform="translate(0 0.484375)" xlink:href="#Cmsy10-76"/>
     </g>
    </g>
   </g>
   <g id="line2d_83">
    <path clip-path="url(#pcc3819936b)" d="M 102.691406 68.158056 
L 105.537653 87.046833 
L 108.3839 89.350778 
L 111.230147 100.111418 
L 114.076395 90.815095 
L 116.922642 106.407589 
L 119.768889 109.838673 
L 122.615136 121.600068 
L 125.461383 112.082672 
L 128.307631 123.823897 
L 131.153878 114.128088 
L 134.000125 132.611542 
L 136.846372 130.948227 
L 139.692619 135.52752 
L 142.538867 144.795132 
L 145.385114 147.586417 
L 148.231361 149.92567 
L 151.077608 151.899349 
L 153.923855 154.75153 
L 156.770103 162.05462 
L 159.61635 167.224787 
L 162.462597 169.163207 
L 165.308844 173.635588 
L 168.155091 176.86716 
L 171.001338 181.698194 
L 173.847586 186.125354 
L 176.693833 186.908157 
L 179.54008 195.647739 
L 182.386327 191.701194 
L 185.232574 198.200254 
L 188.078822 202.155236 
L 190.925069 198.604359 
L 193.771316 212.54131 
L 196.617563 205.921572 
L 199.46381 211.509328 
L 202.310058 219.666039 
L 205.156305 217.336365 
L 208.002552 227.409358 
L 210.848799 229.437889 
L 213.695046 227.903199 
L 216.541294 231.810486 
L 219.387541 238.436576 
L 222.233788 242.911066 
L 225.080035 242.328076 
L 227.926282 242.506678 
L 230.77253 247.180345 
L 233.618777 250.026505 
L 236.465024 252.850585 
L 239.311271 252.870347 
L 242.157518 254.890304 
L 245.003766 259.378314 
L 247.850013 260.879359 
L 250.69626 262.387947 
L 253.542507 267.830505 
L 256.388754 269.356918 
L 259.235002 270.063959 
L 262.081249 273.040038 
L 264.927496 275.547062 
L 267.773743 277.073927 
L 270.61999 276.66469 
L 273.466237 281.730564 
L 276.312485 279.923244 
L 279.158732 282.347321 
L 282.004979 286.862722 
L 284.851226 288.36652 
L 287.697473 290.255523 
L 290.543721 291.826407 
L 293.389968 294.491674 
L 296.236215 292.65748 
L 299.082462 296.131858 
L 301.928709 297.828389 
L 304.774957 300.045061 
L 307.621204 300.473682 
L 310.467451 301.218523 
L 313.313698 304.317601 
L 316.159945 303.775753 
L 319.006193 306.447016 
L 321.85244 305.910902 
L 324.698687 307.468076 
L 327.544934 309.919246 
L 330.391181 309.615027 
L 333.237429 310.020414 
L 336.083676 311.960287 
L 338.929923 313.455086 
L 341.77617 314.40571 
L 344.622417 314.301814 
L 347.468665 314.730157 
L 350.314912 315.788662 
L 353.161159 316.12958 
L 356.007406 317.054459 
L 358.853653 317.581162 
L 361.6999 317.71611 
L 364.546148 319.212034 
L 367.392395 318.220687 
L 370.238642 318.932017 
L 373.084889 319.221468 
L 375.931136 319.575469 
L 378.777384 319.597168 
L 381.623631 319.801951 
L 384.469878 319.819724 
" style="fill:none;stroke:#348abd;stroke-linecap:square;stroke-width:2;"/>
    <defs>
     <path d="M 0 3.5 
C 0.928211 3.5 1.81853 3.131218 2.474874 2.474874 
C 3.131218 1.81853 3.5 0.928211 3.5 0 
C 3.5 -0.928211 3.131218 -1.81853 2.474874 -2.474874 
C 1.81853 -3.131218 0.928211 -3.5 0 -3.5 
C -0.928211 -3.5 -1.81853 -3.131218 -2.474874 -2.474874 
C -3.131218 -1.81853 -3.5 -0.928211 -3.5 0 
C -3.5 0.928211 -3.131218 1.81853 -2.474874 2.474874 
C -1.81853 3.131218 -0.928211 3.5 0 3.5 
z
" id="m1984eb35b1" style="stroke:#348abd;"/>
    </defs>
    <g clip-path="url(#pcc3819936b)">
     <use style="fill:#348abd;stroke:#348abd;" x="102.691406" xlink:href="#m1984eb35b1" y="68.158056"/>
     <use style="fill:#348abd;stroke:#348abd;" x="134.000125" xlink:href="#m1984eb35b1" y="132.611542"/>
     <use style="fill:#348abd;stroke:#348abd;" x="165.308844" xlink:href="#m1984eb35b1" y="173.635588"/>
     <use style="fill:#348abd;stroke:#348abd;" x="196.617563" xlink:href="#m1984eb35b1" y="205.921572"/>
     <use style="fill:#348abd;stroke:#348abd;" x="227.926282" xlink:href="#m1984eb35b1" y="242.506678"/>
     <use style="fill:#348abd;stroke:#348abd;" x="259.235002" xlink:href="#m1984eb35b1" y="270.063959"/>
     <use style="fill:#348abd;stroke:#348abd;" x="290.543721" xlink:href="#m1984eb35b1" y="291.826407"/>
     <use style="fill:#348abd;stroke:#348abd;" x="321.85244" xlink:href="#m1984eb35b1" y="305.910902"/>
     <use style="fill:#348abd;stroke:#348abd;" x="353.161159" xlink:href="#m1984eb35b1" y="316.12958"/>
     <use style="fill:#348abd;stroke:#348abd;" x="384.469878" xlink:href="#m1984eb35b1" y="319.819724"/>
    </g>
   </g>
   <g id="line2d_84">
    <path clip-path="url(#pcc3819936b)" d="M 102.691406 91.036374 
L 105.537653 91.427826 
L 108.3839 91.395576 
L 111.230147 97.341442 
L 114.076395 97.404005 
L 116.922642 100.015248 
L 119.768889 101.868653 
L 122.615136 104.819068 
L 125.461383 105.398967 
L 128.307631 106.838424 
L 131.153878 104.467309 
L 134.000125 111.079443 
L 136.846372 109.969961 
L 139.692619 113.85503 
L 142.538867 113.54474 
L 145.385114 114.708848 
L 148.231361 115.976615 
L 151.077608 118.986576 
L 153.923855 117.193835 
L 156.770103 123.127945 
L 159.61635 120.6819 
L 162.462597 124.517657 
L 165.308844 124.579684 
L 168.155091 126.48209 
L 171.001338 127.898437 
L 173.847586 126.960359 
L 176.693833 129.754785 
L 179.54008 131.57108 
L 182.386327 132.807344 
L 185.232574 133.576035 
L 188.078822 136.797769 
L 190.925069 136.62778 
L 193.771316 137.249437 
L 196.617563 139.099449 
L 199.46381 138.456414 
L 202.310058 141.718163 
L 205.156305 142.767308 
L 208.002552 142.913903 
L 210.848799 144.758168 
L 213.695046 144.313871 
L 216.541294 145.58232 
L 219.387541 147.640835 
L 222.233788 148.235113 
L 225.080035 149.029442 
L 227.926282 149.567469 
L 230.77253 152.348799 
L 233.618777 152.95084 
L 236.465024 153.373763 
L 239.311271 154.879077 
L 242.157518 155.859479 
L 245.003766 156.095931 
L 247.850013 157.42304 
L 250.69626 157.283713 
L 253.542507 159.004436 
L 256.388754 159.093429 
L 259.235002 160.257521 
L 262.081249 161.173966 
L 264.927496 161.394415 
L 267.773743 162.80535 
L 270.61999 162.506537 
L 273.466237 162.257611 
L 276.312485 164.390286 
L 279.158732 164.686564 
L 282.004979 165.513268 
L 284.851226 165.94218 
L 287.697473 167.313764 
L 290.543721 167.746437 
L 293.389968 167.263909 
L 296.236215 168.803677 
L 299.082462 169.269236 
L 301.928709 169.846812 
L 304.774957 169.423602 
L 307.621204 170.590513 
L 310.467451 171.221417 
L 313.313698 171.377948 
L 316.159945 171.606755 
L 319.006193 172.396062 
L 321.85244 173.055333 
L 324.698687 173.640599 
L 327.544934 173.745176 
L 330.391181 173.826463 
L 333.237429 174.013388 
L 336.083676 174.518909 
L 338.929923 174.696583 
L 341.77617 175.016474 
L 344.622417 175.56502 
L 347.468665 175.834125 
L 350.314912 175.948128 
L 353.161159 176.269753 
L 356.007406 176.269608 
L 358.853653 176.482659 
L 361.6999 176.654327 
L 364.546148 176.683971 
L 367.392395 176.921957 
L 370.238642 177.044628 
L 373.084889 177.137853 
L 375.931136 177.21775 
L 378.777384 177.40848 
L 381.623631 177.417314 
L 384.469878 177.419459 
" style="fill:none;stroke:#a60628;stroke-linecap:square;stroke-width:2;"/>
    <defs>
     <path d="M 0 -3.5 
L -3.5 3.5 
L 3.5 3.5 
z
" id="m2d3cff8b2a" style="stroke:#a60628;stroke-linejoin:miter;"/>
    </defs>
    <g clip-path="url(#pcc3819936b)">
     <use style="fill:#a60628;stroke:#a60628;stroke-linejoin:miter;" x="102.691406" xlink:href="#m2d3cff8b2a" y="91.036374"/>
     <use style="fill:#a60628;stroke:#a60628;stroke-linejoin:miter;" x="134.000125" xlink:href="#m2d3cff8b2a" y="111.079443"/>
     <use style="fill:#a60628;stroke:#a60628;stroke-linejoin:miter;" x="165.308844" xlink:href="#m2d3cff8b2a" y="124.579684"/>
     <use style="fill:#a60628;stroke:#a60628;stroke-linejoin:miter;" x="196.617563" xlink:href="#m2d3cff8b2a" y="139.099449"/>
     <use style="fill:#a60628;stroke:#a60628;stroke-linejoin:miter;" x="227.926282" xlink:href="#m2d3cff8b2a" y="149.567469"/>
     <use style="fill:#a60628;stroke:#a60628;stroke-linejoin:miter;" x="259.235002" xlink:href="#m2d3cff8b2a" y="160.257521"/>
     <use style="fill:#a60628;stroke:#a60628;stroke-linejoin:miter;" x="290.543721" xlink:href="#m2d3cff8b2a" y="167.746437"/>
     <use style="fill:#a60628;stroke:#a60628;stroke-linejoin:miter;" x="321.85244" xlink:href="#m2d3cff8b2a" y="173.055333"/>
     <use style="fill:#a60628;stroke:#a60628;stroke-linejoin:miter;" x="353.161159" xlink:href="#m2d3cff8b2a" y="176.269753"/>
     <use style="fill:#a60628;stroke:#a60628;stroke-linejoin:miter;" x="384.469878" xlink:href="#m2d3cff8b2a" y="177.419459"/>
    </g>
   </g>
   <g id="line2d_85">
    <path clip-path="url(#pcc3819936b)" d="M 102.691406 95.908846 
L 105.537653 95.826308 
L 108.3839 97.722231 
L 111.230147 98.785495 
L 114.076395 101.160022 
L 116.922642 102.132688 
L 119.768889 102.420697 
L 122.615136 102.781909 
L 125.461383 104.306544 
L 128.307631 104.939352 
L 131.153878 106.06895 
L 134.000125 105.288661 
L 136.846372 109.95356 
L 139.692619 109.947037 
L 142.538867 109.05031 
L 145.385114 111.72423 
L 148.231361 112.935411 
L 151.077608 112.982081 
L 153.923855 114.618456 
L 156.770103 115.060832 
L 159.61635 115.161242 
L 162.462597 116.244982 
L 165.308844 117.801318 
L 168.155091 117.9358 
L 171.001338 117.962642 
L 173.847586 120.688801 
L 176.693833 122.196652 
L 179.54008 121.176373 
L 182.386327 122.735074 
L 185.232574 124.093885 
L 188.078822 123.404126 
L 190.925069 125.244549 
L 193.771316 126.050398 
L 196.617563 127.061926 
L 199.46381 127.395224 
L 202.310058 127.266248 
L 205.156305 128.214037 
L 208.002552 129.273555 
L 210.848799 130.485504 
L 213.695046 130.855131 
L 216.541294 131.112038 
L 219.387541 131.369065 
L 222.233788 132.921911 
L 225.080035 132.831386 
L 227.926282 133.610596 
L 230.77253 133.888236 
L 233.618777 135.784067 
L 236.465024 135.145151 
L 239.311271 135.858638 
L 242.157518 136.340027 
L 245.003766 137.783451 
L 247.850013 137.853333 
L 250.69626 138.680629 
L 253.542507 138.736771 
L 256.388754 138.991687 
L 259.235002 140.108936 
L 262.081249 140.319346 
L 264.927496 141.477093 
L 267.773743 142.034971 
L 270.61999 142.128113 
L 273.466237 142.373965 
L 276.312485 143.812139 
L 279.158732 142.723819 
L 282.004979 143.670848 
L 284.851226 144.298725 
L 287.697473 144.473558 
L 290.543721 145.523025 
L 293.389968 145.239584 
L 296.236215 145.66663 
L 299.082462 145.854612 
L 301.928709 146.205473 
L 304.774957 147.15837 
L 307.621204 146.94986 
L 310.467451 147.273758 
L 313.313698 147.278423 
L 316.159945 147.975165 
L 319.006193 148.284898 
L 321.85244 148.446027 
L 324.698687 148.66131 
L 327.544934 148.771488 
L 330.391181 149.111746 
L 333.237429 149.393567 
L 336.083676 149.499918 
L 338.929923 149.817796 
L 341.77617 150.01288 
L 344.622417 150.158917 
L 347.468665 150.262848 
L 350.314912 150.471239 
L 353.161159 150.513904 
L 356.007406 150.805817 
L 358.853653 150.930676 
L 361.6999 150.87776 
L 364.546148 150.921224 
L 367.392395 151.214766 
L 370.238642 151.151164 
L 373.084889 151.220255 
L 375.931136 151.285212 
L 378.777384 151.320434 
L 381.623631 151.354783 
L 384.469878 151.376375 
" style="fill:none;stroke:#7a68a6;stroke-linecap:square;stroke-width:2;"/>
    <defs>
     <path d="M -3.5 3.5 
L 3.5 3.5 
L 3.5 -3.5 
L -3.5 -3.5 
z
" id="m33a89f1d52" style="stroke:#7a68a6;stroke-linejoin:miter;"/>
    </defs>
    <g clip-path="url(#pcc3819936b)">
     <use style="fill:#7a68a6;stroke:#7a68a6;stroke-linejoin:miter;" x="102.691406" xlink:href="#m33a89f1d52" y="95.908846"/>
     <use style="fill:#7a68a6;stroke:#7a68a6;stroke-linejoin:miter;" x="134.000125" xlink:href="#m33a89f1d52" y="105.288661"/>
     <use style="fill:#7a68a6;stroke:#7a68a6;stroke-linejoin:miter;" x="165.308844" xlink:href="#m33a89f1d52" y="117.801318"/>
     <use style="fill:#7a68a6;stroke:#7a68a6;stroke-linejoin:miter;" x="196.617563" xlink:href="#m33a89f1d52" y="127.061926"/>
     <use style="fill:#7a68a6;stroke:#7a68a6;stroke-linejoin:miter;" x="227.926282" xlink:href="#m33a89f1d52" y="133.610596"/>
     <use style="fill:#7a68a6;stroke:#7a68a6;stroke-linejoin:miter;" x="259.235002" xlink:href="#m33a89f1d52" y="140.108936"/>
     <use style="fill:#7a68a6;stroke:#7a68a6;stroke-linejoin:miter;" x="290.543721" xlink:href="#m33a89f1d52" y="145.523025"/>
     <use style="fill:#7a68a6;stroke:#7a68a6;stroke-linejoin:miter;" x="321.85244" xlink:href="#m33a89f1d52" y="148.446027"/>
     <use style="fill:#7a68a6;stroke:#7a68a6;stroke-linejoin:miter;" x="353.161159" xlink:href="#m33a89f1d52" y="150.513904"/>
     <use style="fill:#7a68a6;stroke:#7a68a6;stroke-linejoin:miter;" x="384.469878" xlink:href="#m33a89f1d52" y="151.376375"/>
    </g>
   </g>
   <g id="patch_3">
    <path d="M 88.602482 338.1 
L 88.602482 17.28 
" style="fill:none;stroke:#bcbcbc;stroke-linecap:square;stroke-linejoin:miter;stroke-width:0.8;"/>
   </g>
   <g id="patch_4">
    <path d="M 398.558802 338.1 
L 398.558802 17.28 
" style="fill:none;stroke:#bcbcbc;stroke-linecap:square;stroke-linejoin:miter;stroke-width:0.8;"/>
   </g>
   <g id="patch_5">
    <path d="M 88.602482 338.1 
L 398.558802 338.1 
" style="fill:none;stroke:#bcbcbc;stroke-linecap:square;stroke-linejoin:miter;stroke-width:0.8;"/>
   </g>
   <g id="patch_6">
    <path d="M 88.602482 17.28 
L 398.558802 17.28 
" style="fill:none;stroke:#bcbcbc;stroke-linecap:square;stroke-linejoin:miter;stroke-width:0.8;"/>
   </g>
   <g id="legend_1">
    <g id="patch_7">
     <path d="M 320.318802 84.535 
L 387.358802 84.535 
Q 390.558802 84.535 390.558802 81.335 
L 390.558802 28.48 
Q 390.558802 25.28 387.358802 25.28 
L 320.318802 25.28 
Q 317.118802 25.28 317.118802 28.48 
L 317.118802 81.335 
Q 317.118802 84.535 320.318802 84.535 
z
" style="fill:#eeeeee;opacity:0.8;stroke:#cccccc;stroke-linejoin:miter;stroke-width:0.5;"/>
    </g>
    <g id="line2d_86">
     <path d="M 323.518802 38.2375 
L 355.518802 38.2375 
" style="fill:none;stroke:#348abd;stroke-linecap:square;stroke-width:2;"/>
    </g>
    <g id="line2d_87">
     <g>
      <use style="fill:#348abd;stroke:#348abd;" x="339.518802" xlink:href="#m1984eb35b1" y="38.2375"/>
     </g>
    </g>
    <g id="text_16">
     <!-- $x_{1}$ -->
     <g transform="translate(368.318802 43.8375)scale(0.16 -0.16)">
      <defs>
       <path d="M 7.8125 2.875 
Q 9.578125 1.515625 12.796875 1.515625 
Q 15.921875 1.515625 18.3125 4.515625 
Q 20.703125 7.515625 21.578125 11.078125 
L 26.125 28.8125 
Q 27.203125 33.640625 27.203125 35.40625 
Q 27.203125 37.890625 25.8125 39.75 
Q 24.421875 41.609375 21.921875 41.609375 
Q 18.75 41.609375 15.96875 39.625 
Q 13.1875 37.640625 11.28125 34.59375 
Q 9.375 31.546875 8.59375 28.421875 
Q 8.40625 27.78125 7.8125 27.78125 
L 6.59375 27.78125 
Q 5.8125 27.78125 5.8125 28.71875 
L 5.8125 29 
Q 6.78125 32.71875 9.125 36.25 
Q 11.46875 39.796875 14.859375 41.984375 
Q 18.265625 44.1875 22.125 44.1875 
Q 25.78125 44.1875 28.734375 42.234375 
Q 31.6875 40.28125 32.90625 36.921875 
Q 34.625 39.984375 37.28125 42.078125 
Q 39.9375 44.1875 43.109375 44.1875 
Q 45.265625 44.1875 47.5 43.421875 
Q 49.75 42.671875 51.171875 41.109375 
Q 52.59375 39.546875 52.59375 37.203125 
Q 52.59375 34.671875 50.953125 32.828125 
Q 49.3125 31 46.78125 31 
Q 45.171875 31 44.09375 32.03125 
Q 43.015625 33.0625 43.015625 34.625 
Q 43.015625 36.71875 44.453125 38.296875 
Q 45.90625 39.890625 47.90625 40.1875 
Q 46.09375 41.609375 42.921875 41.609375 
Q 39.703125 41.609375 37.328125 38.625 
Q 34.96875 35.640625 33.984375 31.984375 
L 29.59375 14.3125 
Q 28.515625 10.296875 28.515625 7.71875 
Q 28.515625 5.171875 29.953125 3.34375 
Q 31.390625 1.515625 33.796875 1.515625 
Q 38.484375 1.515625 42.15625 5.640625 
Q 45.84375 9.765625 47.015625 14.703125 
Q 47.21875 15.28125 47.796875 15.28125 
L 49.03125 15.28125 
Q 49.421875 15.28125 49.65625 15.015625 
Q 49.90625 14.75 49.90625 14.40625 
Q 49.90625 14.3125 49.8125 14.109375 
Q 48.390625 8.15625 43.84375 3.515625 
Q 39.3125 -1.125 33.59375 -1.125 
Q 29.9375 -1.125 26.984375 0.84375 
Q 24.03125 2.828125 22.796875 6.203125 
Q 21.234375 3.265625 18.46875 1.0625 
Q 15.71875 -1.125 12.59375 -1.125 
Q 10.453125 -1.125 8.171875 -0.359375 
Q 5.90625 0.390625 4.484375 1.953125 
Q 3.078125 3.515625 3.078125 5.90625 
Q 3.078125 8.25 4.703125 10.171875 
Q 6.34375 12.109375 8.796875 12.109375 
Q 10.453125 12.109375 11.578125 11.109375 
Q 12.703125 10.109375 12.703125 8.5 
Q 12.703125 6.390625 11.296875 4.828125 
Q 9.90625 3.265625 7.8125 2.875 
z
" id="Cmmi10-120"/>
       <path d="M 9.28125 0 
L 9.28125 3.515625 
Q 21.78125 3.515625 21.78125 6.6875 
L 21.78125 59.1875 
Q 16.609375 56.6875 8.6875 56.6875 
L 8.6875 60.203125 
Q 20.953125 60.203125 27.203125 66.609375 
L 28.609375 66.609375 
Q 28.953125 66.609375 29.265625 66.328125 
Q 29.59375 66.0625 29.59375 65.71875 
L 29.59375 6.6875 
Q 29.59375 3.515625 42.09375 3.515625 
L 42.09375 0 
z
" id="Cmr10-49"/>
      </defs>
      <use transform="translate(0 0.8125)" xlink:href="#Cmmi10-120"/>
      <use transform="translate(57.080078 -16.19375)scale(0.7)" xlink:href="#Cmr10-49"/>
     </g>
    </g>
    <g id="line2d_88">
     <path d="M 323.518802 53.7225 
L 355.518802 53.7225 
" style="fill:none;stroke:#a60628;stroke-linecap:square;stroke-width:2;"/>
    </g>
    <g id="line2d_89">
     <g>
      <use style="fill:#a60628;stroke:#a60628;stroke-linejoin:miter;" x="339.518802" xlink:href="#m2d3cff8b2a" y="53.7225"/>
     </g>
    </g>
    <g id="text_17">
     <!-- $x_{2}$ -->
     <g transform="translate(368.318802 59.3225)scale(0.16 -0.16)">
      <defs>
       <path d="M 4.984375 0 
L 4.984375 2.6875 
Q 4.984375 2.9375 5.171875 3.21875 
L 20.703125 20.40625 
Q 24.21875 24.21875 26.40625 26.796875 
Q 28.609375 29.390625 30.75 32.765625 
Q 32.90625 36.140625 34.15625 39.625 
Q 35.40625 43.109375 35.40625 47.015625 
Q 35.40625 51.125 33.890625 54.859375 
Q 32.375 58.59375 29.375 60.84375 
Q 26.375 63.09375 22.125 63.09375 
Q 17.78125 63.09375 14.3125 60.46875 
Q 10.84375 57.859375 9.421875 53.71875 
Q 9.8125 53.8125 10.5 53.8125 
Q 12.75 53.8125 14.328125 52.296875 
Q 15.921875 50.78125 15.921875 48.390625 
Q 15.921875 46.09375 14.328125 44.5 
Q 12.75 42.921875 10.5 42.921875 
Q 8.15625 42.921875 6.5625 44.546875 
Q 4.984375 46.1875 4.984375 48.390625 
Q 4.984375 52.15625 6.390625 55.4375 
Q 7.8125 58.734375 10.46875 61.296875 
Q 13.140625 63.875 16.484375 65.234375 
Q 19.828125 66.609375 23.578125 66.609375 
Q 29.296875 66.609375 34.21875 64.1875 
Q 39.15625 61.765625 42.03125 57.34375 
Q 44.921875 52.9375 44.921875 47.015625 
Q 44.921875 42.671875 43.015625 38.765625 
Q 41.109375 34.859375 38.125 31.65625 
Q 35.15625 28.46875 30.515625 24.40625 
Q 25.875 20.359375 24.421875 19 
L 13.09375 8.109375 
L 22.703125 8.109375 
Q 29.78125 8.109375 34.546875 8.21875 
Q 39.3125 8.34375 39.59375 8.59375 
Q 40.765625 9.859375 42 17.828125 
L 44.921875 17.828125 
L 42.09375 0 
z
" id="Cmr10-50"/>
      </defs>
      <use transform="translate(0 0.8125)" xlink:href="#Cmmi10-120"/>
      <use transform="translate(57.080078 -16.19375)scale(0.7)" xlink:href="#Cmr10-50"/>
     </g>
    </g>
    <g id="line2d_90">
     <path d="M 323.518802 69.2075 
L 355.518802 69.2075 
" style="fill:none;stroke:#7a68a6;stroke-linecap:square;stroke-width:2;"/>
    </g>
    <g id="line2d_91">
     <g>
      <use style="fill:#7a68a6;stroke:#7a68a6;stroke-linejoin:miter;" x="339.518802" xlink:href="#m33a89f1d52" y="69.2075"/>
     </g>
    </g>
    <g id="text_18">
     <!-- $x_{3}$ -->
     <g transform="translate(368.318802 74.8075)scale(0.16 -0.16)">
      <defs>
       <path d="M 9.515625 7.71875 
Q 11.859375 4.296875 15.8125 2.640625 
Q 19.78125 0.984375 24.3125 0.984375 
Q 30.125 0.984375 32.5625 5.9375 
Q 35.015625 10.890625 35.015625 17.1875 
Q 35.015625 20.015625 34.5 22.84375 
Q 33.984375 25.6875 32.765625 28.125 
Q 31.546875 30.5625 29.421875 32.03125 
Q 27.296875 33.5 24.21875 33.5 
L 17.578125 33.5 
Q 16.703125 33.5 16.703125 34.421875 
L 16.703125 35.296875 
Q 16.703125 36.078125 17.578125 36.078125 
L 23.09375 36.53125 
Q 26.609375 36.53125 28.921875 39.15625 
Q 31.25 41.796875 32.328125 45.578125 
Q 33.40625 49.359375 33.40625 52.78125 
Q 33.40625 57.5625 31.15625 60.640625 
Q 28.90625 63.71875 24.3125 63.71875 
Q 20.515625 63.71875 17.046875 62.28125 
Q 13.578125 60.84375 11.53125 57.90625 
Q 11.71875 57.953125 11.859375 57.984375 
Q 12.015625 58.015625 12.203125 58.015625 
Q 14.453125 58.015625 15.96875 56.453125 
Q 17.484375 54.890625 17.484375 52.6875 
Q 17.484375 50.53125 15.96875 48.96875 
Q 14.453125 47.40625 12.203125 47.40625 
Q 10.015625 47.40625 8.453125 48.96875 
Q 6.890625 50.53125 6.890625 52.6875 
Q 6.890625 56.984375 9.46875 60.15625 
Q 12.0625 63.328125 16.140625 64.96875 
Q 20.21875 66.609375 24.3125 66.609375 
Q 27.34375 66.609375 30.703125 65.703125 
Q 34.078125 64.796875 36.8125 63.109375 
Q 39.546875 61.421875 41.28125 58.78125 
Q 43.015625 56.15625 43.015625 52.78125 
Q 43.015625 48.578125 41.140625 45.015625 
Q 39.265625 41.453125 35.984375 38.859375 
Q 32.71875 36.28125 28.8125 35.015625 
Q 33.15625 34.1875 37.0625 31.734375 
Q 40.96875 29.296875 43.328125 25.484375 
Q 45.703125 21.6875 45.703125 17.28125 
Q 45.703125 11.765625 42.671875 7.296875 
Q 39.65625 2.828125 34.71875 0.3125 
Q 29.78125 -2.203125 24.3125 -2.203125 
Q 19.625 -2.203125 14.90625 -0.40625 
Q 10.203125 1.375 7.203125 4.9375 
Q 4.203125 8.5 4.203125 13.484375 
Q 4.203125 15.96875 5.859375 17.625 
Q 7.515625 19.28125 10.015625 19.28125 
Q 11.625 19.28125 12.96875 18.53125 
Q 14.3125 17.78125 15.0625 16.40625 
Q 15.828125 15.046875 15.828125 13.484375 
Q 15.828125 11.03125 14.109375 9.375 
Q 12.40625 7.71875 10.015625 7.71875 
z
" id="Cmr10-51"/>
      </defs>
      <use transform="translate(0 0.8125)" xlink:href="#Cmmi10-120"/>
      <use transform="translate(57.080078 -16.19375)scale(0.7)" xlink:href="#Cmr10-51"/>
     </g>
    </g>
   </g>
  </g>
 </g>
 <defs>
  <clipPath id="pcc3819936b">
   <rect height="320.82" width="309.956319" x="88.602482" y="17.28"/>
  </clipPath>
 </defs>
</svg>
