<?xml version="1.0" encoding="utf-8" standalone="no"?>
<!DOCTYPE svg PUBLIC "-//W3C//DTD SVG 1.1//EN"
  "http://www.w3.org/Graphics/SVG/1.1/DTD/svg11.dtd">
<!-- Created with matplotlib (https://matplotlib.org/) -->
<svg height="396pt" version="1.1" viewBox="0 0 432 396" width="432pt" xmlns="http://www.w3.org/2000/svg" xmlns:xlink="http://www.w3.org/1999/xlink">
 <metadata>
  <rdf:RDF xmlns:cc="http://creativecommons.org/ns#" xmlns:dc="http://purl.org/dc/elements/1.1/" xmlns:rdf="http://www.w3.org/1999/02/22-rdf-syntax-ns#">
   <cc:Work>
    <dc:type rdf:resource="http://purl.org/dc/dcmitype/StillImage"/>
    <dc:date>2021-03-14T01:46:33.842932</dc:date>
    <dc:format>image/svg+xml</dc:format>
    <dc:creator>
     <cc:Agent>
      <dc:title>Matplotlib v3.3.2, https://matplotlib.org/</dc:title>
     </cc:Agent>
    </dc:creator>
   </cc:Work>
  </rdf:RDF>
 </metadata>
 <defs>
  <style type="text/css">*{stroke-linecap:butt;stroke-linejoin:round;}</style>
 </defs>
 <g id="figure_1">
  <g id="patch_1">
   <path d="M 0 396 
L 432 396 
L 432 0 
L 0 0 
z
" style="fill:#fdf6e3;"/>
  </g>
  <g id="axes_1">
   <g id="patch_2">
    <path d="M 85.152491 343.24 
L 402.788802 343.24 
L 402.788802 15.12 
L 85.152491 15.12 
z
" style="fill:#eee8d5;"/>
   </g>
   <g id="matplotlib.axis_1">
    <g id="xtick_1">
     <g id="line2d_1">
      <path clip-path="url(#p257951292a)" d="M 99.590505 343.24 
L 99.590505 15.12 
" style="fill:none;stroke:#fdf6e3;"/>
     </g>
     <g id="line2d_2">
      <defs>
       <path d="M 0 0 
L 0 3.5 
" id="m3cde752ba8" style="stroke:#657b83;stroke-width:0.8;"/>
      </defs>
      <g>
       <use style="fill:#657b83;stroke:#657b83;stroke-width:0.8;" x="99.590505" xlink:href="#m3cde752ba8" y="343.24"/>
      </g>
     </g>
     <g id="text_1">
      <!-- 0 -->
      <g style="fill:#657b83;" transform="translate(95.136755 360.877813)scale(0.14 -0.14)">
       <defs>
        <path d="M 31.78125 66.40625 
Q 24.171875 66.40625 20.328125 58.90625 
Q 16.5 51.421875 16.5 36.375 
Q 16.5 21.390625 20.328125 13.890625 
Q 24.171875 6.390625 31.78125 6.390625 
Q 39.453125 6.390625 43.28125 13.890625 
Q 47.125 21.390625 47.125 36.375 
Q 47.125 51.421875 43.28125 58.90625 
Q 39.453125 66.40625 31.78125 66.40625 
z
M 31.78125 74.21875 
Q 44.046875 74.21875 50.515625 64.515625 
Q 56.984375 54.828125 56.984375 36.375 
Q 56.984375 17.96875 50.515625 8.265625 
Q 44.046875 -1.421875 31.78125 -1.421875 
Q 19.53125 -1.421875 13.0625 8.265625 
Q 6.59375 17.96875 6.59375 36.375 
Q 6.59375 54.828125 13.0625 64.515625 
Q 19.53125 74.21875 31.78125 74.21875 
z
" id="DejaVuSans-48"/>
       </defs>
       <use xlink:href="#DejaVuSans-48"/>
      </g>
     </g>
    </g>
    <g id="xtick_2">
     <g id="line2d_3">
      <path clip-path="url(#p257951292a)" d="M 157.925915 343.24 
L 157.925915 15.12 
" style="fill:none;stroke:#fdf6e3;"/>
     </g>
     <g id="line2d_4">
      <g>
       <use style="fill:#657b83;stroke:#657b83;stroke-width:0.8;" x="157.925915" xlink:href="#m3cde752ba8" y="343.24"/>
      </g>
     </g>
     <g id="text_2">
      <!-- 20 -->
      <g style="fill:#657b83;" transform="translate(149.018415 360.877813)scale(0.14 -0.14)">
       <defs>
        <path d="M 19.1875 8.296875 
L 53.609375 8.296875 
L 53.609375 0 
L 7.328125 0 
L 7.328125 8.296875 
Q 12.9375 14.109375 22.625 23.890625 
Q 32.328125 33.6875 34.8125 36.53125 
Q 39.546875 41.84375 41.421875 45.53125 
Q 43.3125 49.21875 43.3125 52.78125 
Q 43.3125 58.59375 39.234375 62.25 
Q 35.15625 65.921875 28.609375 65.921875 
Q 23.96875 65.921875 18.8125 64.3125 
Q 13.671875 62.703125 7.8125 59.421875 
L 7.8125 69.390625 
Q 13.765625 71.78125 18.9375 73 
Q 24.125 74.21875 28.421875 74.21875 
Q 39.75 74.21875 46.484375 68.546875 
Q 53.21875 62.890625 53.21875 53.421875 
Q 53.21875 48.921875 51.53125 44.890625 
Q 49.859375 40.875 45.40625 35.40625 
Q 44.1875 33.984375 37.640625 27.21875 
Q 31.109375 20.453125 19.1875 8.296875 
z
" id="DejaVuSans-50"/>
       </defs>
       <use xlink:href="#DejaVuSans-50"/>
       <use x="63.623047" xlink:href="#DejaVuSans-48"/>
      </g>
     </g>
    </g>
    <g id="xtick_3">
     <g id="line2d_5">
      <path clip-path="url(#p257951292a)" d="M 216.261326 343.24 
L 216.261326 15.12 
" style="fill:none;stroke:#fdf6e3;"/>
     </g>
     <g id="line2d_6">
      <g>
       <use style="fill:#657b83;stroke:#657b83;stroke-width:0.8;" x="216.261326" xlink:href="#m3cde752ba8" y="343.24"/>
      </g>
     </g>
     <g id="text_3">
      <!-- 40 -->
      <g style="fill:#657b83;" transform="translate(207.353826 360.877813)scale(0.14 -0.14)">
       <defs>
        <path d="M 37.796875 64.3125 
L 12.890625 25.390625 
L 37.796875 25.390625 
z
M 35.203125 72.90625 
L 47.609375 72.90625 
L 47.609375 25.390625 
L 58.015625 25.390625 
L 58.015625 17.1875 
L 47.609375 17.1875 
L 47.609375 0 
L 37.796875 0 
L 37.796875 17.1875 
L 4.890625 17.1875 
L 4.890625 26.703125 
z
" id="DejaVuSans-52"/>
       </defs>
       <use xlink:href="#DejaVuSans-52"/>
       <use x="63.623047" xlink:href="#DejaVuSans-48"/>
      </g>
     </g>
    </g>
    <g id="xtick_4">
     <g id="line2d_7">
      <path clip-path="url(#p257951292a)" d="M 274.596737 343.24 
L 274.596737 15.12 
" style="fill:none;stroke:#fdf6e3;"/>
     </g>
     <g id="line2d_8">
      <g>
       <use style="fill:#657b83;stroke:#657b83;stroke-width:0.8;" x="274.596737" xlink:href="#m3cde752ba8" y="343.24"/>
      </g>
     </g>
     <g id="text_4">
      <!-- 60 -->
      <g style="fill:#657b83;" transform="translate(265.689237 360.877813)scale(0.14 -0.14)">
       <defs>
        <path d="M 33.015625 40.375 
Q 26.375 40.375 22.484375 35.828125 
Q 18.609375 31.296875 18.609375 23.390625 
Q 18.609375 15.53125 22.484375 10.953125 
Q 26.375 6.390625 33.015625 6.390625 
Q 39.65625 6.390625 43.53125 10.953125 
Q 47.40625 15.53125 47.40625 23.390625 
Q 47.40625 31.296875 43.53125 35.828125 
Q 39.65625 40.375 33.015625 40.375 
z
M 52.59375 71.296875 
L 52.59375 62.3125 
Q 48.875 64.0625 45.09375 64.984375 
Q 41.3125 65.921875 37.59375 65.921875 
Q 27.828125 65.921875 22.671875 59.328125 
Q 17.53125 52.734375 16.796875 39.40625 
Q 19.671875 43.65625 24.015625 45.921875 
Q 28.375 48.1875 33.59375 48.1875 
Q 44.578125 48.1875 50.953125 41.515625 
Q 57.328125 34.859375 57.328125 23.390625 
Q 57.328125 12.15625 50.6875 5.359375 
Q 44.046875 -1.421875 33.015625 -1.421875 
Q 20.359375 -1.421875 13.671875 8.265625 
Q 6.984375 17.96875 6.984375 36.375 
Q 6.984375 53.65625 15.1875 63.9375 
Q 23.390625 74.21875 37.203125 74.21875 
Q 40.921875 74.21875 44.703125 73.484375 
Q 48.484375 72.75 52.59375 71.296875 
z
" id="DejaVuSans-54"/>
       </defs>
       <use xlink:href="#DejaVuSans-54"/>
       <use x="63.623047" xlink:href="#DejaVuSans-48"/>
      </g>
     </g>
    </g>
    <g id="xtick_5">
     <g id="line2d_9">
      <path clip-path="url(#p257951292a)" d="M 332.932147 343.24 
L 332.932147 15.12 
" style="fill:none;stroke:#fdf6e3;"/>
     </g>
     <g id="line2d_10">
      <g>
       <use style="fill:#657b83;stroke:#657b83;stroke-width:0.8;" x="332.932147" xlink:href="#m3cde752ba8" y="343.24"/>
      </g>
     </g>
     <g id="text_5">
      <!-- 80 -->
      <g style="fill:#657b83;" transform="translate(324.024647 360.877813)scale(0.14 -0.14)">
       <defs>
        <path d="M 31.78125 34.625 
Q 24.75 34.625 20.71875 30.859375 
Q 16.703125 27.09375 16.703125 20.515625 
Q 16.703125 13.921875 20.71875 10.15625 
Q 24.75 6.390625 31.78125 6.390625 
Q 38.8125 6.390625 42.859375 10.171875 
Q 46.921875 13.96875 46.921875 20.515625 
Q 46.921875 27.09375 42.890625 30.859375 
Q 38.875 34.625 31.78125 34.625 
z
M 21.921875 38.8125 
Q 15.578125 40.375 12.03125 44.71875 
Q 8.5 49.078125 8.5 55.328125 
Q 8.5 64.0625 14.71875 69.140625 
Q 20.953125 74.21875 31.78125 74.21875 
Q 42.671875 74.21875 48.875 69.140625 
Q 55.078125 64.0625 55.078125 55.328125 
Q 55.078125 49.078125 51.53125 44.71875 
Q 48 40.375 41.703125 38.8125 
Q 48.828125 37.15625 52.796875 32.3125 
Q 56.78125 27.484375 56.78125 20.515625 
Q 56.78125 9.90625 50.3125 4.234375 
Q 43.84375 -1.421875 31.78125 -1.421875 
Q 19.734375 -1.421875 13.25 4.234375 
Q 6.78125 9.90625 6.78125 20.515625 
Q 6.78125 27.484375 10.78125 32.3125 
Q 14.796875 37.15625 21.921875 38.8125 
z
M 18.3125 54.390625 
Q 18.3125 48.734375 21.84375 45.5625 
Q 25.390625 42.390625 31.78125 42.390625 
Q 38.140625 42.390625 41.71875 45.5625 
Q 45.3125 48.734375 45.3125 54.390625 
Q 45.3125 60.0625 41.71875 63.234375 
Q 38.140625 66.40625 31.78125 66.40625 
Q 25.390625 66.40625 21.84375 63.234375 
Q 18.3125 60.0625 18.3125 54.390625 
z
" id="DejaVuSans-56"/>
       </defs>
       <use xlink:href="#DejaVuSans-56"/>
       <use x="63.623047" xlink:href="#DejaVuSans-48"/>
      </g>
     </g>
    </g>
    <g id="xtick_6">
     <g id="line2d_11">
      <path clip-path="url(#p257951292a)" d="M 391.267558 343.24 
L 391.267558 15.12 
" style="fill:none;stroke:#fdf6e3;"/>
     </g>
     <g id="line2d_12">
      <g>
       <use style="fill:#657b83;stroke:#657b83;stroke-width:0.8;" x="391.267558" xlink:href="#m3cde752ba8" y="343.24"/>
      </g>
     </g>
     <g id="text_6">
      <!-- 100 -->
      <g style="fill:#657b83;" transform="translate(377.906308 360.877813)scale(0.14 -0.14)">
       <defs>
        <path d="M 12.40625 8.296875 
L 28.515625 8.296875 
L 28.515625 63.921875 
L 10.984375 60.40625 
L 10.984375 69.390625 
L 28.421875 72.90625 
L 38.28125 72.90625 
L 38.28125 8.296875 
L 54.390625 8.296875 
L 54.390625 0 
L 12.40625 0 
z
" id="DejaVuSans-49"/>
       </defs>
       <use xlink:href="#DejaVuSans-49"/>
       <use x="63.623047" xlink:href="#DejaVuSans-48"/>
       <use x="127.246094" xlink:href="#DejaVuSans-48"/>
      </g>
     </g>
    </g>
    <g id="text_7">
     <!-- Step -->
     <g style="fill:#657b83;" transform="translate(230.308459 376.9075)scale(0.12 -0.12)">
      <defs>
       <path d="M 53.515625 70.515625 
L 53.515625 60.890625 
Q 47.90625 63.578125 42.921875 64.890625 
Q 37.9375 66.21875 33.296875 66.21875 
Q 25.25 66.21875 20.875 63.09375 
Q 16.5 59.96875 16.5 54.203125 
Q 16.5 49.359375 19.40625 46.890625 
Q 22.3125 44.4375 30.421875 42.921875 
L 36.375 41.703125 
Q 47.40625 39.59375 52.65625 34.296875 
Q 57.90625 29 57.90625 20.125 
Q 57.90625 9.515625 50.796875 4.046875 
Q 43.703125 -1.421875 29.984375 -1.421875 
Q 24.8125 -1.421875 18.96875 -0.25 
Q 13.140625 0.921875 6.890625 3.21875 
L 6.890625 13.375 
Q 12.890625 10.015625 18.65625 8.296875 
Q 24.421875 6.59375 29.984375 6.59375 
Q 38.421875 6.59375 43.015625 9.90625 
Q 47.609375 13.234375 47.609375 19.390625 
Q 47.609375 24.75 44.3125 27.78125 
Q 41.015625 30.8125 33.5 32.328125 
L 27.484375 33.5 
Q 16.453125 35.6875 11.515625 40.375 
Q 6.59375 45.0625 6.59375 53.421875 
Q 6.59375 63.09375 13.40625 68.65625 
Q 20.21875 74.21875 32.171875 74.21875 
Q 37.3125 74.21875 42.625 73.28125 
Q 47.953125 72.359375 53.515625 70.515625 
z
" id="DejaVuSans-83"/>
       <path d="M 18.3125 70.21875 
L 18.3125 54.6875 
L 36.8125 54.6875 
L 36.8125 47.703125 
L 18.3125 47.703125 
L 18.3125 18.015625 
Q 18.3125 11.328125 20.140625 9.421875 
Q 21.96875 7.515625 27.59375 7.515625 
L 36.8125 7.515625 
L 36.8125 0 
L 27.59375 0 
Q 17.1875 0 13.234375 3.875 
Q 9.28125 7.765625 9.28125 18.015625 
L 9.28125 47.703125 
L 2.6875 47.703125 
L 2.6875 54.6875 
L 9.28125 54.6875 
L 9.28125 70.21875 
z
" id="DejaVuSans-116"/>
       <path d="M 56.203125 29.59375 
L 56.203125 25.203125 
L 14.890625 25.203125 
Q 15.484375 15.921875 20.484375 11.0625 
Q 25.484375 6.203125 34.421875 6.203125 
Q 39.59375 6.203125 44.453125 7.46875 
Q 49.3125 8.734375 54.109375 11.28125 
L 54.109375 2.78125 
Q 49.265625 0.734375 44.1875 -0.34375 
Q 39.109375 -1.421875 33.890625 -1.421875 
Q 20.796875 -1.421875 13.15625 6.1875 
Q 5.515625 13.8125 5.515625 26.8125 
Q 5.515625 40.234375 12.765625 48.109375 
Q 20.015625 56 32.328125 56 
Q 43.359375 56 49.78125 48.890625 
Q 56.203125 41.796875 56.203125 29.59375 
z
M 47.21875 32.234375 
Q 47.125 39.59375 43.09375 43.984375 
Q 39.0625 48.390625 32.421875 48.390625 
Q 24.90625 48.390625 20.390625 44.140625 
Q 15.875 39.890625 15.1875 32.171875 
z
" id="DejaVuSans-101"/>
       <path d="M 18.109375 8.203125 
L 18.109375 -20.796875 
L 9.078125 -20.796875 
L 9.078125 54.6875 
L 18.109375 54.6875 
L 18.109375 46.390625 
Q 20.953125 51.265625 25.265625 53.625 
Q 29.59375 56 35.59375 56 
Q 45.5625 56 51.78125 48.09375 
Q 58.015625 40.1875 58.015625 27.296875 
Q 58.015625 14.40625 51.78125 6.484375 
Q 45.5625 -1.421875 35.59375 -1.421875 
Q 29.59375 -1.421875 25.265625 0.953125 
Q 20.953125 3.328125 18.109375 8.203125 
z
M 48.6875 27.296875 
Q 48.6875 37.203125 44.609375 42.84375 
Q 40.53125 48.484375 33.40625 48.484375 
Q 26.265625 48.484375 22.1875 42.84375 
Q 18.109375 37.203125 18.109375 27.296875 
Q 18.109375 17.390625 22.1875 11.75 
Q 26.265625 6.109375 33.40625 6.109375 
Q 40.53125 6.109375 44.609375 11.75 
Q 48.6875 17.390625 48.6875 27.296875 
z
" id="DejaVuSans-112"/>
      </defs>
      <use xlink:href="#DejaVuSans-83"/>
      <use x="63.476562" xlink:href="#DejaVuSans-116"/>
      <use x="102.685547" xlink:href="#DejaVuSans-101"/>
      <use x="164.208984" xlink:href="#DejaVuSans-112"/>
     </g>
    </g>
   </g>
   <g id="matplotlib.axis_2">
    <g id="ytick_1">
     <g id="line2d_13">
      <path clip-path="url(#p257951292a)" d="M 85.152491 323.760629 
L 402.788802 323.760629 
" style="fill:none;stroke:#fdf6e3;"/>
     </g>
     <g id="line2d_14">
      <defs>
       <path d="M 0 0 
L -3.5 0 
" id="m4777d2a728" style="stroke:#657b83;stroke-width:0.8;"/>
      </defs>
      <g>
       <use style="fill:#657b83;stroke:#657b83;stroke-width:0.8;" x="85.152491" xlink:href="#m4777d2a728" y="323.760629"/>
      </g>
     </g>
     <g id="text_8">
      <!-- $\mathdefault{10^{-3}}$ -->
      <g style="fill:#657b83;" transform="translate(45.252491 329.079535)scale(0.14 -0.14)">
       <defs>
        <path d="M 10.59375 35.5 
L 73.1875 35.5 
L 73.1875 27.203125 
L 10.59375 27.203125 
z
" id="DejaVuSans-8722"/>
        <path d="M 40.578125 39.3125 
Q 47.65625 37.796875 51.625 33 
Q 55.609375 28.21875 55.609375 21.1875 
Q 55.609375 10.40625 48.1875 4.484375 
Q 40.765625 -1.421875 27.09375 -1.421875 
Q 22.515625 -1.421875 17.65625 -0.515625 
Q 12.796875 0.390625 7.625 2.203125 
L 7.625 11.71875 
Q 11.71875 9.328125 16.59375 8.109375 
Q 21.484375 6.890625 26.8125 6.890625 
Q 36.078125 6.890625 40.9375 10.546875 
Q 45.796875 14.203125 45.796875 21.1875 
Q 45.796875 27.640625 41.28125 31.265625 
Q 36.765625 34.90625 28.71875 34.90625 
L 20.21875 34.90625 
L 20.21875 43.015625 
L 29.109375 43.015625 
Q 36.375 43.015625 40.234375 45.921875 
Q 44.09375 48.828125 44.09375 54.296875 
Q 44.09375 59.90625 40.109375 62.90625 
Q 36.140625 65.921875 28.71875 65.921875 
Q 24.65625 65.921875 20.015625 65.03125 
Q 15.375 64.15625 9.8125 62.3125 
L 9.8125 71.09375 
Q 15.4375 72.65625 20.34375 73.4375 
Q 25.25 74.21875 29.59375 74.21875 
Q 40.828125 74.21875 47.359375 69.109375 
Q 53.90625 64.015625 53.90625 55.328125 
Q 53.90625 49.265625 50.4375 45.09375 
Q 46.96875 40.921875 40.578125 39.3125 
z
" id="DejaVuSans-51"/>
       </defs>
       <use transform="translate(0 0.765625)" xlink:href="#DejaVuSans-49"/>
       <use transform="translate(63.623047 0.765625)" xlink:href="#DejaVuSans-48"/>
       <use transform="translate(128.203125 39.046875)scale(0.7)" xlink:href="#DejaVuSans-8722"/>
       <use transform="translate(186.855469 39.046875)scale(0.7)" xlink:href="#DejaVuSans-51"/>
      </g>
     </g>
    </g>
    <g id="ytick_2">
     <g id="line2d_15">
      <path clip-path="url(#p257951292a)" d="M 85.152491 264.290877 
L 402.788802 264.290877 
" style="fill:none;stroke:#fdf6e3;"/>
     </g>
     <g id="line2d_16">
      <g>
       <use style="fill:#657b83;stroke:#657b83;stroke-width:0.8;" x="85.152491" xlink:href="#m4777d2a728" y="264.290877"/>
      </g>
     </g>
     <g id="text_9">
      <!-- $\mathdefault{10^{-2}}$ -->
      <g style="fill:#657b83;" transform="translate(45.252491 269.609783)scale(0.14 -0.14)">
       <use transform="translate(0 0.765625)" xlink:href="#DejaVuSans-49"/>
       <use transform="translate(63.623047 0.765625)" xlink:href="#DejaVuSans-48"/>
       <use transform="translate(128.203125 39.046875)scale(0.7)" xlink:href="#DejaVuSans-8722"/>
       <use transform="translate(186.855469 39.046875)scale(0.7)" xlink:href="#DejaVuSans-50"/>
      </g>
     </g>
    </g>
    <g id="ytick_3">
     <g id="line2d_17">
      <path clip-path="url(#p257951292a)" d="M 85.152491 204.821124 
L 402.788802 204.821124 
" style="fill:none;stroke:#fdf6e3;"/>
     </g>
     <g id="line2d_18">
      <g>
       <use style="fill:#657b83;stroke:#657b83;stroke-width:0.8;" x="85.152491" xlink:href="#m4777d2a728" y="204.821124"/>
      </g>
     </g>
     <g id="text_10">
      <!-- $\mathdefault{10^{-1}}$ -->
      <g style="fill:#657b83;" transform="translate(45.252491 210.140031)scale(0.14 -0.14)">
       <use transform="translate(0 0.684375)" xlink:href="#DejaVuSans-49"/>
       <use transform="translate(63.623047 0.684375)" xlink:href="#DejaVuSans-48"/>
       <use transform="translate(128.203125 38.965625)scale(0.7)" xlink:href="#DejaVuSans-8722"/>
       <use transform="translate(186.855469 38.965625)scale(0.7)" xlink:href="#DejaVuSans-49"/>
      </g>
     </g>
    </g>
    <g id="ytick_4">
     <g id="line2d_19">
      <path clip-path="url(#p257951292a)" d="M 85.152491 145.351372 
L 402.788802 145.351372 
" style="fill:none;stroke:#fdf6e3;"/>
     </g>
     <g id="line2d_20">
      <g>
       <use style="fill:#657b83;stroke:#657b83;stroke-width:0.8;" x="85.152491" xlink:href="#m4777d2a728" y="145.351372"/>
      </g>
     </g>
     <g id="text_11">
      <!-- $\mathdefault{10^{0}}$ -->
      <g style="fill:#657b83;" transform="translate(53.512491 150.670278)scale(0.14 -0.14)">
       <use transform="translate(0 0.765625)" xlink:href="#DejaVuSans-49"/>
       <use transform="translate(63.623047 0.765625)" xlink:href="#DejaVuSans-48"/>
       <use transform="translate(128.203125 39.046875)scale(0.7)" xlink:href="#DejaVuSans-48"/>
      </g>
     </g>
    </g>
    <g id="ytick_5">
     <g id="line2d_21">
      <path clip-path="url(#p257951292a)" d="M 85.152491 85.881619 
L 402.788802 85.881619 
" style="fill:none;stroke:#fdf6e3;"/>
     </g>
     <g id="line2d_22">
      <g>
       <use style="fill:#657b83;stroke:#657b83;stroke-width:0.8;" x="85.152491" xlink:href="#m4777d2a728" y="85.881619"/>
      </g>
     </g>
     <g id="text_12">
      <!-- $\mathdefault{10^{1}}$ -->
      <g style="fill:#657b83;" transform="translate(53.512491 91.200526)scale(0.14 -0.14)">
       <use transform="translate(0 0.684375)" xlink:href="#DejaVuSans-49"/>
       <use transform="translate(63.623047 0.684375)" xlink:href="#DejaVuSans-48"/>
       <use transform="translate(128.203125 38.965625)scale(0.7)" xlink:href="#DejaVuSans-49"/>
      </g>
     </g>
    </g>
    <g id="ytick_6">
     <g id="line2d_23">
      <path clip-path="url(#p257951292a)" d="M 85.152491 26.411867 
L 402.788802 26.411867 
" style="fill:none;stroke:#fdf6e3;"/>
     </g>
     <g id="line2d_24">
      <g>
       <use style="fill:#657b83;stroke:#657b83;stroke-width:0.8;" x="85.152491" xlink:href="#m4777d2a728" y="26.411867"/>
      </g>
     </g>
     <g id="text_13">
      <!-- $\mathdefault{10^{2}}$ -->
      <g style="fill:#657b83;" transform="translate(53.512491 31.730773)scale(0.14 -0.14)">
       <use transform="translate(0 0.765625)" xlink:href="#DejaVuSans-49"/>
       <use transform="translate(63.623047 0.765625)" xlink:href="#DejaVuSans-48"/>
       <use transform="translate(128.203125 39.046875)scale(0.7)" xlink:href="#DejaVuSans-50"/>
      </g>
     </g>
    </g>
    <g id="ytick_7">
     <g id="line2d_25">
      <defs>
       <path d="M 0 0 
L -2 0 
" id="m0f43728c55" style="stroke:#657b83;stroke-width:0.6;"/>
      </defs>
      <g>
       <use style="fill:#657b83;stroke:#657b83;stroke-width:0.6;" x="85.152491" xlink:href="#m0f43728c55" y="341.662809"/>
      </g>
     </g>
    </g>
    <g id="ytick_8">
     <g id="line2d_26">
      <g>
       <use style="fill:#657b83;stroke:#657b83;stroke-width:0.6;" x="85.152491" xlink:href="#m0f43728c55" y="336.953919"/>
      </g>
     </g>
    </g>
    <g id="ytick_9">
     <g id="line2d_27">
      <g>
       <use style="fill:#657b83;stroke:#657b83;stroke-width:0.6;" x="85.152491" xlink:href="#m0f43728c55" y="332.97261"/>
      </g>
     </g>
    </g>
    <g id="ytick_10">
     <g id="line2d_28">
      <g>
       <use style="fill:#657b83;stroke:#657b83;stroke-width:0.6;" x="85.152491" xlink:href="#m0f43728c55" y="329.523844"/>
      </g>
     </g>
    </g>
    <g id="ytick_11">
     <g id="line2d_29">
      <g>
       <use style="fill:#657b83;stroke:#657b83;stroke-width:0.6;" x="85.152491" xlink:href="#m0f43728c55" y="326.481816"/>
      </g>
     </g>
    </g>
    <g id="ytick_12">
     <g id="line2d_30">
      <g>
       <use style="fill:#657b83;stroke:#657b83;stroke-width:0.6;" x="85.152491" xlink:href="#m0f43728c55" y="305.85845"/>
      </g>
     </g>
    </g>
    <g id="ytick_13">
     <g id="line2d_31">
      <g>
       <use style="fill:#657b83;stroke:#657b83;stroke-width:0.6;" x="85.152491" xlink:href="#m0f43728c55" y="295.386346"/>
      </g>
     </g>
    </g>
    <g id="ytick_14">
     <g id="line2d_32">
      <g>
       <use style="fill:#657b83;stroke:#657b83;stroke-width:0.6;" x="85.152491" xlink:href="#m0f43728c55" y="287.956271"/>
      </g>
     </g>
    </g>
    <g id="ytick_15">
     <g id="line2d_33">
      <g>
       <use style="fill:#657b83;stroke:#657b83;stroke-width:0.6;" x="85.152491" xlink:href="#m0f43728c55" y="282.193056"/>
      </g>
     </g>
    </g>
    <g id="ytick_16">
     <g id="line2d_34">
      <g>
       <use style="fill:#657b83;stroke:#657b83;stroke-width:0.6;" x="85.152491" xlink:href="#m0f43728c55" y="277.484167"/>
      </g>
     </g>
    </g>
    <g id="ytick_17">
     <g id="line2d_35">
      <g>
       <use style="fill:#657b83;stroke:#657b83;stroke-width:0.6;" x="85.152491" xlink:href="#m0f43728c55" y="273.502858"/>
      </g>
     </g>
    </g>
    <g id="ytick_18">
     <g id="line2d_36">
      <g>
       <use style="fill:#657b83;stroke:#657b83;stroke-width:0.6;" x="85.152491" xlink:href="#m0f43728c55" y="270.054091"/>
      </g>
     </g>
    </g>
    <g id="ytick_19">
     <g id="line2d_37">
      <g>
       <use style="fill:#657b83;stroke:#657b83;stroke-width:0.6;" x="85.152491" xlink:href="#m0f43728c55" y="267.012063"/>
      </g>
     </g>
    </g>
    <g id="ytick_20">
     <g id="line2d_38">
      <g>
       <use style="fill:#657b83;stroke:#657b83;stroke-width:0.6;" x="85.152491" xlink:href="#m0f43728c55" y="246.388697"/>
      </g>
     </g>
    </g>
    <g id="ytick_21">
     <g id="line2d_39">
      <g>
       <use style="fill:#657b83;stroke:#657b83;stroke-width:0.6;" x="85.152491" xlink:href="#m0f43728c55" y="235.916594"/>
      </g>
     </g>
    </g>
    <g id="ytick_22">
     <g id="line2d_40">
      <g>
       <use style="fill:#657b83;stroke:#657b83;stroke-width:0.6;" x="85.152491" xlink:href="#m0f43728c55" y="228.486518"/>
      </g>
     </g>
    </g>
    <g id="ytick_23">
     <g id="line2d_41">
      <g>
       <use style="fill:#657b83;stroke:#657b83;stroke-width:0.6;" x="85.152491" xlink:href="#m0f43728c55" y="222.723304"/>
      </g>
     </g>
    </g>
    <g id="ytick_24">
     <g id="line2d_42">
      <g>
       <use style="fill:#657b83;stroke:#657b83;stroke-width:0.6;" x="85.152491" xlink:href="#m0f43728c55" y="218.014415"/>
      </g>
     </g>
    </g>
    <g id="ytick_25">
     <g id="line2d_43">
      <g>
       <use style="fill:#657b83;stroke:#657b83;stroke-width:0.6;" x="85.152491" xlink:href="#m0f43728c55" y="214.033105"/>
      </g>
     </g>
    </g>
    <g id="ytick_26">
     <g id="line2d_44">
      <g>
       <use style="fill:#657b83;stroke:#657b83;stroke-width:0.6;" x="85.152491" xlink:href="#m0f43728c55" y="210.584339"/>
      </g>
     </g>
    </g>
    <g id="ytick_27">
     <g id="line2d_45">
      <g>
       <use style="fill:#657b83;stroke:#657b83;stroke-width:0.6;" x="85.152491" xlink:href="#m0f43728c55" y="207.542311"/>
      </g>
     </g>
    </g>
    <g id="ytick_28">
     <g id="line2d_46">
      <g>
       <use style="fill:#657b83;stroke:#657b83;stroke-width:0.6;" x="85.152491" xlink:href="#m0f43728c55" y="186.918945"/>
      </g>
     </g>
    </g>
    <g id="ytick_29">
     <g id="line2d_47">
      <g>
       <use style="fill:#657b83;stroke:#657b83;stroke-width:0.6;" x="85.152491" xlink:href="#m0f43728c55" y="176.446841"/>
      </g>
     </g>
    </g>
    <g id="ytick_30">
     <g id="line2d_48">
      <g>
       <use style="fill:#657b83;stroke:#657b83;stroke-width:0.6;" x="85.152491" xlink:href="#m0f43728c55" y="169.016766"/>
      </g>
     </g>
    </g>
    <g id="ytick_31">
     <g id="line2d_49">
      <g>
       <use style="fill:#657b83;stroke:#657b83;stroke-width:0.6;" x="85.152491" xlink:href="#m0f43728c55" y="163.253551"/>
      </g>
     </g>
    </g>
    <g id="ytick_32">
     <g id="line2d_50">
      <g>
       <use style="fill:#657b83;stroke:#657b83;stroke-width:0.6;" x="85.152491" xlink:href="#m0f43728c55" y="158.544662"/>
      </g>
     </g>
    </g>
    <g id="ytick_33">
     <g id="line2d_51">
      <g>
       <use style="fill:#657b83;stroke:#657b83;stroke-width:0.6;" x="85.152491" xlink:href="#m0f43728c55" y="154.563353"/>
      </g>
     </g>
    </g>
    <g id="ytick_34">
     <g id="line2d_52">
      <g>
       <use style="fill:#657b83;stroke:#657b83;stroke-width:0.6;" x="85.152491" xlink:href="#m0f43728c55" y="151.114586"/>
      </g>
     </g>
    </g>
    <g id="ytick_35">
     <g id="line2d_53">
      <g>
       <use style="fill:#657b83;stroke:#657b83;stroke-width:0.6;" x="85.152491" xlink:href="#m0f43728c55" y="148.072558"/>
      </g>
     </g>
    </g>
    <g id="ytick_36">
     <g id="line2d_54">
      <g>
       <use style="fill:#657b83;stroke:#657b83;stroke-width:0.6;" x="85.152491" xlink:href="#m0f43728c55" y="127.449193"/>
      </g>
     </g>
    </g>
    <g id="ytick_37">
     <g id="line2d_55">
      <g>
       <use style="fill:#657b83;stroke:#657b83;stroke-width:0.6;" x="85.152491" xlink:href="#m0f43728c55" y="116.977089"/>
      </g>
     </g>
    </g>
    <g id="ytick_38">
     <g id="line2d_56">
      <g>
       <use style="fill:#657b83;stroke:#657b83;stroke-width:0.6;" x="85.152491" xlink:href="#m0f43728c55" y="109.547013"/>
      </g>
     </g>
    </g>
    <g id="ytick_39">
     <g id="line2d_57">
      <g>
       <use style="fill:#657b83;stroke:#657b83;stroke-width:0.6;" x="85.152491" xlink:href="#m0f43728c55" y="103.783799"/>
      </g>
     </g>
    </g>
    <g id="ytick_40">
     <g id="line2d_58">
      <g>
       <use style="fill:#657b83;stroke:#657b83;stroke-width:0.6;" x="85.152491" xlink:href="#m0f43728c55" y="99.07491"/>
      </g>
     </g>
    </g>
    <g id="ytick_41">
     <g id="line2d_59">
      <g>
       <use style="fill:#657b83;stroke:#657b83;stroke-width:0.6;" x="85.152491" xlink:href="#m0f43728c55" y="95.093601"/>
      </g>
     </g>
    </g>
    <g id="ytick_42">
     <g id="line2d_60">
      <g>
       <use style="fill:#657b83;stroke:#657b83;stroke-width:0.6;" x="85.152491" xlink:href="#m0f43728c55" y="91.644834"/>
      </g>
     </g>
    </g>
    <g id="ytick_43">
     <g id="line2d_61">
      <g>
       <use style="fill:#657b83;stroke:#657b83;stroke-width:0.6;" x="85.152491" xlink:href="#m0f43728c55" y="88.602806"/>
      </g>
     </g>
    </g>
    <g id="ytick_44">
     <g id="line2d_62">
      <g>
       <use style="fill:#657b83;stroke:#657b83;stroke-width:0.6;" x="85.152491" xlink:href="#m0f43728c55" y="67.97944"/>
      </g>
     </g>
    </g>
    <g id="ytick_45">
     <g id="line2d_63">
      <g>
       <use style="fill:#657b83;stroke:#657b83;stroke-width:0.6;" x="85.152491" xlink:href="#m0f43728c55" y="57.507336"/>
      </g>
     </g>
    </g>
    <g id="ytick_46">
     <g id="line2d_64">
      <g>
       <use style="fill:#657b83;stroke:#657b83;stroke-width:0.6;" x="85.152491" xlink:href="#m0f43728c55" y="50.077261"/>
      </g>
     </g>
    </g>
    <g id="ytick_47">
     <g id="line2d_65">
      <g>
       <use style="fill:#657b83;stroke:#657b83;stroke-width:0.6;" x="85.152491" xlink:href="#m0f43728c55" y="44.314046"/>
      </g>
     </g>
    </g>
    <g id="ytick_48">
     <g id="line2d_66">
      <g>
       <use style="fill:#657b83;stroke:#657b83;stroke-width:0.6;" x="85.152491" xlink:href="#m0f43728c55" y="39.605157"/>
      </g>
     </g>
    </g>
    <g id="ytick_49">
     <g id="line2d_67">
      <g>
       <use style="fill:#657b83;stroke:#657b83;stroke-width:0.6;" x="85.152491" xlink:href="#m0f43728c55" y="35.623848"/>
      </g>
     </g>
    </g>
    <g id="ytick_50">
     <g id="line2d_68">
      <g>
       <use style="fill:#657b83;stroke:#657b83;stroke-width:0.6;" x="85.152491" xlink:href="#m0f43728c55" y="32.175081"/>
      </g>
     </g>
    </g>
    <g id="ytick_51">
     <g id="line2d_69">
      <g>
       <use style="fill:#657b83;stroke:#657b83;stroke-width:0.6;" x="85.152491" xlink:href="#m0f43728c55" y="29.133054"/>
      </g>
     </g>
    </g>
    <g id="text_14">
     <!-- Batch $\mathcal{L}$ -->
     <g style="fill:#657b83;" transform="translate(38.756866 202.52)rotate(-90)scale(0.12 -0.12)">
      <defs>
       <path d="M 19.671875 34.8125 
L 19.671875 8.109375 
L 35.5 8.109375 
Q 43.453125 8.109375 47.28125 11.40625 
Q 51.125 14.703125 51.125 21.484375 
Q 51.125 28.328125 47.28125 31.5625 
Q 43.453125 34.8125 35.5 34.8125 
z
M 19.671875 64.796875 
L 19.671875 42.828125 
L 34.28125 42.828125 
Q 41.5 42.828125 45.03125 45.53125 
Q 48.578125 48.25 48.578125 53.8125 
Q 48.578125 59.328125 45.03125 62.0625 
Q 41.5 64.796875 34.28125 64.796875 
z
M 9.8125 72.90625 
L 35.015625 72.90625 
Q 46.296875 72.90625 52.390625 68.21875 
Q 58.5 63.53125 58.5 54.890625 
Q 58.5 48.1875 55.375 44.234375 
Q 52.25 40.28125 46.1875 39.3125 
Q 53.46875 37.75 57.5 32.78125 
Q 61.53125 27.828125 61.53125 20.40625 
Q 61.53125 10.640625 54.890625 5.3125 
Q 48.25 0 35.984375 0 
L 9.8125 0 
z
" id="DejaVuSans-66"/>
       <path d="M 34.28125 27.484375 
Q 23.390625 27.484375 19.1875 25 
Q 14.984375 22.515625 14.984375 16.5 
Q 14.984375 11.71875 18.140625 8.90625 
Q 21.296875 6.109375 26.703125 6.109375 
Q 34.1875 6.109375 38.703125 11.40625 
Q 43.21875 16.703125 43.21875 25.484375 
L 43.21875 27.484375 
z
M 52.203125 31.203125 
L 52.203125 0 
L 43.21875 0 
L 43.21875 8.296875 
Q 40.140625 3.328125 35.546875 0.953125 
Q 30.953125 -1.421875 24.3125 -1.421875 
Q 15.921875 -1.421875 10.953125 3.296875 
Q 6 8.015625 6 15.921875 
Q 6 25.140625 12.171875 29.828125 
Q 18.359375 34.515625 30.609375 34.515625 
L 43.21875 34.515625 
L 43.21875 35.40625 
Q 43.21875 41.609375 39.140625 45 
Q 35.0625 48.390625 27.6875 48.390625 
Q 23 48.390625 18.546875 47.265625 
Q 14.109375 46.140625 10.015625 43.890625 
L 10.015625 52.203125 
Q 14.9375 54.109375 19.578125 55.046875 
Q 24.21875 56 28.609375 56 
Q 40.484375 56 46.34375 49.84375 
Q 52.203125 43.703125 52.203125 31.203125 
z
" id="DejaVuSans-97"/>
       <path d="M 48.78125 52.59375 
L 48.78125 44.1875 
Q 44.96875 46.296875 41.140625 47.34375 
Q 37.3125 48.390625 33.40625 48.390625 
Q 24.65625 48.390625 19.8125 42.84375 
Q 14.984375 37.3125 14.984375 27.296875 
Q 14.984375 17.28125 19.8125 11.734375 
Q 24.65625 6.203125 33.40625 6.203125 
Q 37.3125 6.203125 41.140625 7.25 
Q 44.96875 8.296875 48.78125 10.40625 
L 48.78125 2.09375 
Q 45.015625 0.34375 40.984375 -0.53125 
Q 36.96875 -1.421875 32.421875 -1.421875 
Q 20.0625 -1.421875 12.78125 6.34375 
Q 5.515625 14.109375 5.515625 27.296875 
Q 5.515625 40.671875 12.859375 48.328125 
Q 20.21875 56 33.015625 56 
Q 37.15625 56 41.109375 55.140625 
Q 45.0625 54.296875 48.78125 52.59375 
z
" id="DejaVuSans-99"/>
       <path d="M 54.890625 33.015625 
L 54.890625 0 
L 45.90625 0 
L 45.90625 32.71875 
Q 45.90625 40.484375 42.875 44.328125 
Q 39.84375 48.1875 33.796875 48.1875 
Q 26.515625 48.1875 22.3125 43.546875 
Q 18.109375 38.921875 18.109375 30.90625 
L 18.109375 0 
L 9.078125 0 
L 9.078125 75.984375 
L 18.109375 75.984375 
L 18.109375 46.1875 
Q 21.34375 51.125 25.703125 53.5625 
Q 30.078125 56 35.796875 56 
Q 45.21875 56 50.046875 50.171875 
Q 54.890625 44.34375 54.890625 33.015625 
z
" id="DejaVuSans-104"/>
       <path id="DejaVuSans-32"/>
       <path d="M 63.59375 14.296875 
L 65.296875 12.5 
Q 52.296875 -0.703125 37.703125 -0.703125 
Q 33.703125 -0.703125 28.90625 0.40625 
Q 21.796875 1.90625 17.90625 1.90625 
Q 15.703125 1.90625 10.5 0.953125 
Q 5.296875 0 3 0 
L 3.59375 2.40625 
Q 9.09375 2.40625 11.40625 11.703125 
L 18.40625 40.09375 
Q 20.09375 47 23.6875 52.390625 
Q 27.296875 57.796875 31.640625 60.84375 
Q 36 63.90625 40.390625 65.453125 
Q 44.796875 67 48.796875 67 
Q 53.796875 67 56.140625 63.796875 
Q 58.5 60.59375 58.5 56 
Q 58.5 52.296875 56.140625 50 
Q 53.796875 47.703125 50.40625 47.703125 
Q 48.203125 47.703125 46.796875 49.203125 
Q 45.40625 50.703125 45.40625 52.796875 
Q 45.40625 54.40625 46.203125 55.5 
Q 47 56.59375 47.890625 56.9375 
Q 48.796875 57.296875 49.59375 57.890625 
Q 50.40625 58.5 50.40625 59.203125 
Q 50.40625 63 44.59375 63 
Q 39.40625 63 36.09375 59.140625 
Q 32.796875 55.296875 31.09375 48.9375 
Q 29.40625 42.59375 28.046875 35.6875 
Q 26.703125 28.796875 24.203125 21.296875 
Q 21.703125 13.796875 18.09375 9.203125 
L 18.09375 8.796875 
Q 21.296875 11 29.5 11 
Q 34.796875 11 38.4375 8.5 
Q 42.09375 6 46.296875 6 
Q 54.796875 6 63.59375 14.296875 
z
" id="STIXNonUnicode-Italic-57912"/>
      </defs>
      <use transform="translate(0 0.015625)" xlink:href="#DejaVuSans-66"/>
      <use transform="translate(68.603516 0.015625)" xlink:href="#DejaVuSans-97"/>
      <use transform="translate(129.882812 0.015625)" xlink:href="#DejaVuSans-116"/>
      <use transform="translate(169.091797 0.015625)" xlink:href="#DejaVuSans-99"/>
      <use transform="translate(224.072266 0.015625)" xlink:href="#DejaVuSans-104"/>
      <use transform="translate(287.451172 0.015625)" xlink:href="#DejaVuSans-32"/>
      <use transform="translate(319.238281 0.015625)" xlink:href="#STIXNonUnicode-Italic-57912"/>
     </g>
    </g>
   </g>
   <g id="line2d_70">
    <path clip-path="url(#p257951292a)" d="M 99.590505 79.531726 
L 102.507275 84.483216 
L 105.424046 89.384943 
L 108.340816 94.236906 
L 111.257587 99.039105 
L 114.174357 103.791541 
L 117.091128 108.494212 
L 120.007898 113.14712 
L 122.924669 117.750265 
L 125.84144 122.303645 
L 128.75821 126.807262 
L 131.674981 131.261115 
L 134.591751 135.665205 
L 137.508522 140.01953 
L 140.425292 144.324092 
L 143.342063 148.57889 
L 146.258833 152.783925 
L 149.175604 156.939196 
L 152.092374 161.044703 
L 155.009145 165.100446 
L 157.925915 169.106426 
L 160.842686 173.062642 
L 163.759456 176.969094 
L 166.676227 180.825782 
L 169.592998 184.632707 
L 172.509768 188.389868 
L 175.426539 192.097265 
L 178.343309 195.754899 
L 181.26008 199.362769 
L 184.17685 202.920875 
L 187.093621 206.429217 
L 190.010391 209.887796 
L 192.927162 213.296611 
L 195.843932 216.655662 
L 198.760703 219.96495 
L 201.677473 223.224474 
L 204.594244 226.434234 
L 207.511014 229.59423 
L 210.427785 232.704463 
L 213.344556 235.764931 
L 216.261326 238.775637 
L 219.178097 241.736578 
L 222.094867 244.647756 
L 225.011638 247.50917 
L 227.928408 250.32082 
L 230.845179 253.082707 
L 233.761949 255.79483 
L 236.67872 258.457189 
L 239.59549 261.069784 
L 242.512261 263.632616 
L 245.429031 266.145684 
L 248.345802 268.608988 
L 251.262572 271.022529 
L 254.179343 273.386305 
L 257.096114 275.700318 
L 260.012884 277.964568 
L 262.929655 280.179053 
L 265.846425 282.343775 
L 268.763196 284.458734 
L 271.679966 286.523928 
L 274.596737 288.539359 
L 277.513507 290.505026 
L 280.430278 292.420929 
L 283.347048 294.287069 
L 286.263819 296.103445 
L 289.180589 297.870057 
L 292.09736 299.586905 
L 295.01413 301.25399 
L 297.930901 302.871311 
L 300.847672 304.438868 
L 303.764442 305.956661 
L 306.681213 307.424691 
L 309.597983 308.842957 
L 312.514754 310.21146 
L 315.431524 311.530198 
L 318.348295 312.799173 
L 321.265065 314.018384 
L 324.181836 315.187832 
L 327.098606 316.307516 
L 330.015377 317.377436 
L 332.932147 318.397592 
L 335.848918 319.367985 
L 338.765688 320.288613 
L 341.682459 321.159479 
L 344.59923 321.98058 
L 347.516 322.751918 
L 350.432771 323.473492 
L 353.349541 324.145302 
L 356.266312 324.767348 
L 359.183082 325.339631 
L 362.099853 325.86215 
L 365.016623 326.334906 
L 367.933394 326.757897 
L 370.850164 327.131125 
L 373.766935 327.454589 
L 376.683705 327.72829 
L 379.600476 327.952227 
L 382.517246 328.1264 
L 385.434017 328.250809 
L 388.350788 328.325455 
" style="fill:none;stroke:#268bd2;stroke-width:2;"/>
    <defs>
     <path d="M 0 3.5 
C 0.928211 3.5 1.81853 3.131218 2.474874 2.474874 
C 3.131218 1.81853 3.5 0.928211 3.5 0 
C 3.5 -0.928211 3.131218 -1.81853 2.474874 -2.474874 
C 1.81853 -3.131218 0.928211 -3.5 0 -3.5 
C -0.928211 -3.5 -1.81853 -3.131218 -2.474874 -2.474874 
C -3.131218 -1.81853 -3.5 -0.928211 -3.5 0 
C -3.5 0.928211 -3.131218 1.81853 -2.474874 2.474874 
C -1.81853 3.131218 -0.928211 3.5 0 3.5 
z
" id="m48a3d4fb6c" style="stroke:#268bd2;"/>
    </defs>
    <g clip-path="url(#p257951292a)">
     <use style="fill:#268bd2;stroke:#268bd2;" x="99.590505" xlink:href="#m48a3d4fb6c" y="79.531726"/>
     <use style="fill:#268bd2;stroke:#268bd2;" x="131.674981" xlink:href="#m48a3d4fb6c" y="131.261115"/>
     <use style="fill:#268bd2;stroke:#268bd2;" x="163.759456" xlink:href="#m48a3d4fb6c" y="176.969094"/>
     <use style="fill:#268bd2;stroke:#268bd2;" x="195.843932" xlink:href="#m48a3d4fb6c" y="216.655662"/>
     <use style="fill:#268bd2;stroke:#268bd2;" x="227.928408" xlink:href="#m48a3d4fb6c" y="250.32082"/>
     <use style="fill:#268bd2;stroke:#268bd2;" x="260.012884" xlink:href="#m48a3d4fb6c" y="277.964568"/>
     <use style="fill:#268bd2;stroke:#268bd2;" x="292.09736" xlink:href="#m48a3d4fb6c" y="299.586905"/>
     <use style="fill:#268bd2;stroke:#268bd2;" x="324.181836" xlink:href="#m48a3d4fb6c" y="315.187832"/>
     <use style="fill:#268bd2;stroke:#268bd2;" x="356.266312" xlink:href="#m48a3d4fb6c" y="324.767348"/>
     <use style="fill:#268bd2;stroke:#268bd2;" x="388.350788" xlink:href="#m48a3d4fb6c" y="328.325455"/>
    </g>
   </g>
   <g id="line2d_71">
    <path clip-path="url(#p257951292a)" d="M 99.590505 67.831556 
L 102.507275 71.529171 
L 105.424046 75.189623 
L 108.340816 78.812913 
L 111.257587 82.399042 
L 114.174357 85.948008 
L 117.091128 89.459812 
L 120.007898 92.934455 
L 122.924669 96.371936 
L 125.84144 99.772254 
L 128.75821 103.135411 
L 131.674981 106.461405 
L 134.591751 109.750238 
L 137.508522 113.001909 
L 140.425292 116.216418 
L 143.342063 119.393765 
L 146.258833 122.53395 
L 149.175604 125.636973 
L 152.092374 128.702834 
L 155.009145 131.731533 
L 157.925915 134.72307 
L 160.842686 137.677445 
L 163.759456 140.594658 
L 166.676227 143.47471 
L 169.592998 146.317599 
L 172.509768 149.123326 
L 175.426539 151.891892 
L 178.343309 154.623295 
L 181.26008 157.317537 
L 184.17685 159.974616 
L 187.093621 162.594534 
L 190.010391 165.17729 
L 192.927162 167.722883 
L 195.843932 170.231315 
L 198.760703 172.702585 
L 201.677473 175.136693 
L 204.594244 177.533639 
L 207.511014 179.893423 
L 210.427785 182.216045 
L 213.344556 184.501505 
L 216.261326 186.749803 
L 219.178097 188.960939 
L 222.094867 191.134913 
L 225.011638 193.271725 
L 227.928408 195.371376 
L 230.845179 197.433864 
L 233.761949 199.45919 
L 236.67872 201.447355 
L 239.59549 203.398357 
L 242.512261 205.312198 
L 245.429031 207.188876 
L 248.345802 209.028393 
L 251.262572 210.830748 
L 254.179343 212.59594 
L 257.096114 214.323971 
L 260.012884 216.01484 
L 262.929655 217.668547 
L 265.846425 219.285092 
L 268.763196 220.864475 
L 271.679966 222.406696 
L 274.596737 223.911755 
L 277.513507 225.379652 
L 280.430278 226.810387 
L 283.347048 228.20396 
L 286.263819 229.560371 
L 289.180589 230.879621 
L 292.09736 232.161708 
L 295.01413 233.406633 
L 297.930901 234.614397 
L 300.847672 235.784998 
L 303.764442 236.918438 
L 306.681213 238.014716 
L 309.597983 239.073831 
L 312.514754 240.095785 
L 315.431524 241.080577 
L 318.348295 242.028206 
L 321.265065 242.938674 
L 324.181836 243.81198 
L 327.098606 244.648124 
L 330.015377 245.447106 
L 332.932147 246.208926 
L 335.848918 246.933584 
L 338.765688 247.62108 
L 341.682459 248.271414 
L 344.59923 248.884586 
L 347.516 249.460597 
L 350.432771 249.999445 
L 353.349541 250.501131 
L 356.266312 250.965656 
L 359.183082 251.393018 
L 362.099853 251.783219 
L 365.016623 252.136257 
L 367.933394 252.452134 
L 370.850164 252.730849 
L 373.766935 252.972401 
L 376.683705 253.176792 
L 379.600476 253.344021 
L 382.517246 253.474088 
L 385.434017 253.566992 
L 388.350788 253.622735 
" style="fill:none;stroke:#2aa198;stroke-width:2;"/>
    <defs>
     <path d="M 0 -3.5 
L -3.5 3.5 
L 3.5 3.5 
z
" id="m774854ffda" style="stroke:#2aa198;stroke-linejoin:miter;"/>
    </defs>
    <g clip-path="url(#p257951292a)">
     <use style="fill:#2aa198;stroke:#2aa198;stroke-linejoin:miter;" x="99.590505" xlink:href="#m774854ffda" y="67.831556"/>
     <use style="fill:#2aa198;stroke:#2aa198;stroke-linejoin:miter;" x="131.674981" xlink:href="#m774854ffda" y="106.461405"/>
     <use style="fill:#2aa198;stroke:#2aa198;stroke-linejoin:miter;" x="163.759456" xlink:href="#m774854ffda" y="140.594658"/>
     <use style="fill:#2aa198;stroke:#2aa198;stroke-linejoin:miter;" x="195.843932" xlink:href="#m774854ffda" y="170.231315"/>
     <use style="fill:#2aa198;stroke:#2aa198;stroke-linejoin:miter;" x="227.928408" xlink:href="#m774854ffda" y="195.371376"/>
     <use style="fill:#2aa198;stroke:#2aa198;stroke-linejoin:miter;" x="260.012884" xlink:href="#m774854ffda" y="216.01484"/>
     <use style="fill:#2aa198;stroke:#2aa198;stroke-linejoin:miter;" x="292.09736" xlink:href="#m774854ffda" y="232.161708"/>
     <use style="fill:#2aa198;stroke:#2aa198;stroke-linejoin:miter;" x="324.181836" xlink:href="#m774854ffda" y="243.81198"/>
     <use style="fill:#2aa198;stroke:#2aa198;stroke-linejoin:miter;" x="356.266312" xlink:href="#m774854ffda" y="250.965656"/>
     <use style="fill:#2aa198;stroke:#2aa198;stroke-linejoin:miter;" x="388.350788" xlink:href="#m774854ffda" y="253.622735"/>
    </g>
   </g>
   <g id="line2d_72">
    <path clip-path="url(#p257951292a)" d="M 99.590505 30.034545 
L 102.507275 35.364406 
L 105.424046 40.6407 
L 108.340816 45.863428 
L 111.257587 51.032589 
L 114.174357 56.148184 
L 117.091128 61.210212 
L 120.007898 66.218674 
L 122.924669 71.173569 
L 125.84144 76.074898 
L 128.75821 80.922661 
L 131.674981 85.716857 
L 134.591751 90.457487 
L 137.508522 95.14455 
L 140.425292 99.778047 
L 143.342063 104.357977 
L 146.258833 108.884341 
L 149.175604 113.357139 
L 152.092374 117.77637 
L 155.009145 122.142034 
L 157.925915 126.454132 
L 160.842686 130.712664 
L 163.759456 134.91763 
L 166.676227 139.069028 
L 169.592998 143.166861 
L 172.509768 147.211127 
L 175.426539 151.201826 
L 178.343309 155.13896 
L 181.26008 159.022526 
L 184.17685 162.852527 
L 187.093621 166.62896 
L 190.010391 170.351828 
L 192.927162 174.021129 
L 195.843932 177.636863 
L 198.760703 181.199031 
L 201.677473 184.707633 
L 204.594244 188.162668 
L 207.511014 191.564137 
L 210.427785 194.912039 
L 213.344556 198.206375 
L 216.261326 201.447145 
L 219.178097 204.634348 
L 222.094867 207.767984 
L 225.011638 210.848054 
L 227.928408 213.874558 
L 230.845179 216.847495 
L 233.761949 219.766866 
L 236.67872 222.632671 
L 239.59549 225.444909 
L 242.512261 228.20358 
L 245.429031 230.908685 
L 248.345802 233.560224 
L 251.262572 236.158196 
L 254.179343 238.702602 
L 257.096114 241.193441 
L 260.012884 243.630714 
L 262.929655 246.01442 
L 265.846425 248.34456 
L 268.763196 250.621134 
L 271.679966 252.844141 
L 274.596737 255.013582 
L 277.513507 257.129456 
L 280.430278 259.191764 
L 283.347048 261.200505 
L 286.263819 263.15568 
L 289.180589 265.057289 
L 292.09736 266.905331 
L 295.01413 268.699807 
L 297.930901 270.440716 
L 300.847672 272.128059 
L 303.764442 273.761835 
L 306.681213 275.342045 
L 309.597983 276.868688 
L 312.514754 278.341765 
L 315.431524 279.761276 
L 318.348295 281.12722 
L 321.265065 282.439598 
L 324.181836 283.698409 
L 327.098606 284.903654 
L 330.015377 286.055332 
L 332.932147 287.153444 
L 335.848918 288.19799 
L 338.765688 289.188969 
L 341.682459 290.126381 
L 344.59923 291.010228 
L 347.516 291.840507 
L 350.432771 292.617221 
L 353.349541 293.340368 
L 356.266312 294.009948 
L 359.183082 294.625962 
L 362.099853 295.18841 
L 365.016623 295.697291 
L 367.933394 296.152606 
L 370.850164 296.554354 
L 373.766935 296.902536 
L 376.683705 297.197151 
L 379.600476 297.4382 
L 382.517246 297.625683 
L 385.434017 297.759599 
L 388.350788 297.839948 
" style="fill:none;stroke:#859900;stroke-width:2;"/>
    <defs>
     <path d="M -3.5 3.5 
L 3.5 3.5 
L 3.5 -3.5 
L -3.5 -3.5 
z
" id="mc0a2286512" style="stroke:#859900;stroke-linejoin:miter;"/>
    </defs>
    <g clip-path="url(#p257951292a)">
     <use style="fill:#859900;stroke:#859900;stroke-linejoin:miter;" x="99.590505" xlink:href="#mc0a2286512" y="30.034545"/>
     <use style="fill:#859900;stroke:#859900;stroke-linejoin:miter;" x="131.674981" xlink:href="#mc0a2286512" y="85.716857"/>
     <use style="fill:#859900;stroke:#859900;stroke-linejoin:miter;" x="163.759456" xlink:href="#mc0a2286512" y="134.91763"/>
     <use style="fill:#859900;stroke:#859900;stroke-linejoin:miter;" x="195.843932" xlink:href="#mc0a2286512" y="177.636863"/>
     <use style="fill:#859900;stroke:#859900;stroke-linejoin:miter;" x="227.928408" xlink:href="#mc0a2286512" y="213.874558"/>
     <use style="fill:#859900;stroke:#859900;stroke-linejoin:miter;" x="260.012884" xlink:href="#mc0a2286512" y="243.630714"/>
     <use style="fill:#859900;stroke:#859900;stroke-linejoin:miter;" x="292.09736" xlink:href="#mc0a2286512" y="266.905331"/>
     <use style="fill:#859900;stroke:#859900;stroke-linejoin:miter;" x="324.181836" xlink:href="#mc0a2286512" y="283.698409"/>
     <use style="fill:#859900;stroke:#859900;stroke-linejoin:miter;" x="356.266312" xlink:href="#mc0a2286512" y="294.009948"/>
     <use style="fill:#859900;stroke:#859900;stroke-linejoin:miter;" x="388.350788" xlink:href="#mc0a2286512" y="297.839948"/>
    </g>
   </g>
   <g id="patch_3">
    <path d="M 85.152491 343.24 
L 85.152491 15.12 
" style="fill:none;stroke:#eee8d5;stroke-linecap:square;stroke-linejoin:miter;stroke-width:0.8;"/>
   </g>
   <g id="patch_4">
    <path d="M 402.788802 343.24 
L 402.788802 15.12 
" style="fill:none;stroke:#eee8d5;stroke-linecap:square;stroke-linejoin:miter;stroke-width:0.8;"/>
   </g>
   <g id="patch_5">
    <path d="M 85.152491 343.24 
L 402.788802 343.24 
" style="fill:none;stroke:#eee8d5;stroke-linecap:square;stroke-linejoin:miter;stroke-width:0.8;"/>
   </g>
   <g id="patch_6">
    <path d="M 85.152491 15.12 
L 402.788802 15.12 
" style="fill:none;stroke:#eee8d5;stroke-linecap:square;stroke-linejoin:miter;stroke-width:0.8;"/>
   </g>
   <g id="legend_1">
    <g id="patch_7">
     <path d="M 333.208802 73.968125 
L 392.988802 73.968125 
Q 395.788802 73.968125 395.788802 71.168125 
L 395.788802 24.92 
Q 395.788802 22.12 392.988802 22.12 
L 333.208802 22.12 
Q 330.408802 22.12 330.408802 24.92 
L 330.408802 71.168125 
Q 330.408802 73.968125 333.208802 73.968125 
z
" style="fill:#eee8d5;opacity:0.8;stroke:#cccccc;stroke-linejoin:miter;"/>
    </g>
    <g id="line2d_73">
     <path d="M 336.008802 33.457812 
L 364.008802 33.457812 
" style="fill:none;stroke:#268bd2;stroke-width:2;"/>
    </g>
    <g id="line2d_74">
     <g>
      <use style="fill:#268bd2;stroke:#268bd2;" x="350.008802" xlink:href="#m48a3d4fb6c" y="33.457812"/>
     </g>
    </g>
    <g id="text_15">
     <!-- $x_{1}$ -->
     <g transform="translate(375.208802 38.357812)scale(0.14 -0.14)">
      <defs>
       <path d="M 60.015625 54.6875 
L 34.90625 27.875 
L 50.296875 0 
L 39.984375 0 
L 28.421875 21.6875 
L 8.296875 0 
L -2.59375 0 
L 24.3125 28.8125 
L 10.015625 54.6875 
L 20.3125 54.6875 
L 30.8125 34.90625 
L 49.125 54.6875 
z
" id="DejaVuSans-Oblique-120"/>
      </defs>
      <use transform="translate(0 0.3125)" xlink:href="#DejaVuSans-Oblique-120"/>
      <use transform="translate(59.179688 -16.09375)scale(0.7)" xlink:href="#DejaVuSans-49"/>
     </g>
    </g>
    <g id="line2d_75">
     <path d="M 336.008802 47.007187 
L 364.008802 47.007187 
" style="fill:none;stroke:#2aa198;stroke-width:2;"/>
    </g>
    <g id="line2d_76">
     <g>
      <use style="fill:#2aa198;stroke:#2aa198;stroke-linejoin:miter;" x="350.008802" xlink:href="#m774854ffda" y="47.007187"/>
     </g>
    </g>
    <g id="text_16">
     <!-- $x_{2}$ -->
     <g transform="translate(375.208802 51.907187)scale(0.14 -0.14)">
      <use transform="translate(0 0.3125)" xlink:href="#DejaVuSans-Oblique-120"/>
      <use transform="translate(59.179688 -16.09375)scale(0.7)" xlink:href="#DejaVuSans-50"/>
     </g>
    </g>
    <g id="line2d_77">
     <path d="M 336.008802 60.556562 
L 364.008802 60.556562 
" style="fill:none;stroke:#859900;stroke-width:2;"/>
    </g>
    <g id="line2d_78">
     <g>
      <use style="fill:#859900;stroke:#859900;stroke-linejoin:miter;" x="350.008802" xlink:href="#mc0a2286512" y="60.556562"/>
     </g>
    </g>
    <g id="text_17">
     <!-- $x_{3}$ -->
     <g transform="translate(375.208802 65.456562)scale(0.14 -0.14)">
      <use transform="translate(0 0.3125)" xlink:href="#DejaVuSans-Oblique-120"/>
      <use transform="translate(59.179688 -16.09375)scale(0.7)" xlink:href="#DejaVuSans-51"/>
     </g>
    </g>
   </g>
  </g>
 </g>
 <defs>
  <clipPath id="p257951292a">
   <rect height="328.12" width="317.636311" x="85.152491" y="15.12"/>
  </clipPath>
 </defs>
</svg>
