<?xml version="1.0" encoding="utf-8" standalone="no"?>
<!DOCTYPE svg PUBLIC "-//W3C//DTD SVG 1.1//EN"
  "http://www.w3.org/Graphics/SVG/1.1/DTD/svg11.dtd">
<!-- Created with matplotlib (https://matplotlib.org/) -->
<svg height="396pt" version="1.1" viewBox="0 0 432 396" width="432pt" xmlns="http://www.w3.org/2000/svg" xmlns:xlink="http://www.w3.org/1999/xlink">
 <metadata>
  <rdf:RDF xmlns:cc="http://creativecommons.org/ns#" xmlns:dc="http://purl.org/dc/elements/1.1/" xmlns:rdf="http://www.w3.org/1999/02/22-rdf-syntax-ns#">
   <cc:Work>
    <dc:type rdf:resource="http://purl.org/dc/dcmitype/StillImage"/>
    <dc:date>2021-03-14T01:44:58.648061</dc:date>
    <dc:format>image/svg+xml</dc:format>
    <dc:creator>
     <cc:Agent>
      <dc:title>Matplotlib v3.3.2, https://matplotlib.org/</dc:title>
     </cc:Agent>
    </dc:creator>
   </cc:Work>
  </rdf:RDF>
 </metadata>
 <defs>
  <style type="text/css">*{stroke-linecap:butt;stroke-linejoin:round;}</style>
 </defs>
 <g id="figure_1">
  <g id="patch_1">
   <path d="M 0 396 
L 432 396 
L 432 0 
L 0 0 
z
" style="fill:#ffffff;"/>
  </g>
  <g id="axes_1">
   <g id="patch_2">
    <path d="M 87.835155 337.32 
L 386.51625 337.32 
L 386.51625 26.325 
L 87.835155 26.325 
z
" style="fill:#ffffff;"/>
   </g>
   <g id="PolyCollection_1">
    <defs>
     <path d="M 87.835155 -335.883082 
L 87.835155 -278.398709 
L 90.821966 -261.973093 
L 93.808777 -251.749104 
L 96.795588 -255.598381 
L 99.782399 -246.343539 
L 102.76921 -247.382604 
L 105.756021 -250.535378 
L 108.742832 -238.82743 
L 111.729643 -225.200215 
L 114.716454 -231.803872 
L 117.703265 -229.522306 
L 120.690075 -232.700489 
L 123.676886 -233.741306 
L 126.663697 -219.813419 
L 129.650508 -222.855086 
L 132.637319 -216.034074 
L 135.62413 -205.030184 
L 138.610941 -209.820965 
L 141.597752 -203.308519 
L 144.584563 -207.232922 
L 147.571374 -208.193781 
L 150.558185 -203.544625 
L 153.544996 -193.95413 
L 156.531807 -196.056897 
L 159.518618 -186.899431 
L 162.505429 -191.971041 
L 165.49224 -185.557347 
L 168.479051 -184.632761 
L 171.465862 -183.31347 
L 174.452673 -182.261023 
L 177.439484 -178.557025 
L 180.426294 -172.571071 
L 183.413105 -177.80558 
L 186.399916 -169.446655 
L 189.386727 -168.942798 
L 192.373538 -163.660977 
L 195.360349 -158.005329 
L 198.34716 -157.73012 
L 201.333971 -162.844073 
L 204.320782 -159.993488 
L 207.307593 -146.112683 
L 210.294404 -162.277258 
L 213.281215 -154.461744 
L 216.268026 -149.974734 
L 219.254837 -144.099347 
L 222.241648 -142.573977 
L 225.228459 -148.796488 
L 228.21527 -138.575328 
L 231.202081 -142.635271 
L 234.188892 -143.05155 
L 237.175703 -140.325642 
L 240.162513 -136.627411 
L 243.149324 -131.819227 
L 246.136135 -128.589802 
L 249.122946 -129.181281 
L 252.109757 -126.364278 
L 255.096568 -131.44351 
L 258.083379 -125.791652 
L 261.07019 -128.306866 
L 264.057001 -128.683301 
L 267.043812 -116.684647 
L 270.030623 -124.857297 
L 273.017434 -122.653408 
L 276.004245 -116.850279 
L 278.991056 -119.957681 
L 281.977867 -119.605182 
L 284.964678 -116.969211 
L 287.951489 -115.081122 
L 290.9383 -115.727105 
L 293.925111 -113.356007 
L 296.911922 -114.26774 
L 299.898732 -111.194028 
L 302.885543 -114.052545 
L 305.872354 -114.013441 
L 308.859165 -114.060358 
L 311.845976 -112.943978 
L 314.832787 -109.356789 
L 317.819598 -107.634545 
L 320.806409 -109.046533 
L 323.79322 -109.012943 
L 326.780031 -106.582391 
L 329.766842 -108.677464 
L 332.753653 -106.934537 
L 335.740464 -108.373033 
L 338.727275 -104.537663 
L 341.714086 -107.621661 
L 344.700897 -106.612232 
L 347.687708 -107.428832 
L 350.674519 -106.654755 
L 353.66133 -106.731394 
L 356.648141 -106.84146 
L 359.634951 -105.280694 
L 362.621762 -106.477516 
L 365.608573 -106.38248 
L 368.595384 -106.660836 
L 371.582195 -106.514398 
L 374.569006 -107.261119 
L 377.555817 -107.424767 
L 380.542628 -107.514006 
L 383.529439 -107.795433 
L 383.529439 -108.799359 
L 383.529439 -108.799359 
L 380.542628 -109.158654 
L 377.555817 -109.719029 
L 374.569006 -110.490523 
L 371.582195 -111.165169 
L 368.595384 -111.603608 
L 365.608573 -112.125248 
L 362.621762 -112.706439 
L 359.634951 -112.605768 
L 356.648141 -113.697051 
L 353.66133 -113.625996 
L 350.674519 -116.323873 
L 347.687708 -118.106645 
L 344.700897 -116.966829 
L 341.714086 -119.430086 
L 338.727275 -119.32078 
L 335.740464 -121.151303 
L 332.753653 -121.534876 
L 329.766842 -122.463452 
L 326.780031 -124.84044 
L 323.79322 -125.099698 
L 320.806409 -127.79821 
L 317.819598 -128.980502 
L 314.832787 -129.133804 
L 311.845976 -131.328027 
L 308.859165 -132.459366 
L 305.872354 -135.09936 
L 302.885543 -136.556177 
L 299.898732 -133.874959 
L 296.911922 -136.242531 
L 293.925111 -139.509578 
L 290.9383 -141.180216 
L 287.951489 -140.810767 
L 284.964678 -145.813088 
L 281.977867 -143.597558 
L 278.991056 -146.57277 
L 276.004245 -150.047653 
L 273.017434 -151.035207 
L 270.030623 -148.724456 
L 267.043812 -159.001418 
L 264.057001 -155.623185 
L 261.07019 -157.256634 
L 258.083379 -164.963226 
L 255.096568 -162.877622 
L 252.109757 -173.835044 
L 249.122946 -170.954597 
L 246.136135 -173.683967 
L 243.149324 -172.610261 
L 240.162513 -174.983215 
L 237.175703 -177.211294 
L 234.188892 -178.422775 
L 231.202081 -177.405783 
L 228.21527 -181.116284 
L 225.228459 -194.379133 
L 222.241648 -190.833407 
L 219.254837 -182.637882 
L 216.268026 -199.739929 
L 213.281215 -196.245154 
L 210.294404 -199.921686 
L 207.307593 -195.614214 
L 204.320782 -211.612717 
L 201.333971 -206.503769 
L 198.34716 -210.098829 
L 195.360349 -213.022247 
L 192.373538 -213.095003 
L 189.386727 -222.489213 
L 186.399916 -214.972068 
L 183.413105 -224.4176 
L 180.426294 -230.063572 
L 177.439484 -237.819233 
L 174.452673 -236.704171 
L 171.465862 -238.172994 
L 168.479051 -239.993281 
L 165.49224 -253.338831 
L 162.505429 -244.924882 
L 159.518618 -248.609925 
L 156.531807 -249.039295 
L 153.544996 -264.401043 
L 150.558185 -265.871584 
L 147.571374 -265.186141 
L 144.584563 -269.341139 
L 141.597752 -276.961072 
L 138.610941 -270.196742 
L 135.62413 -276.670675 
L 132.637319 -285.310941 
L 129.650508 -288.390263 
L 126.663697 -285.859471 
L 123.676886 -294.21998 
L 120.690075 -290.760072 
L 117.703265 -297.364545 
L 114.716454 -306.117829 
L 111.729643 -311.841676 
L 108.742832 -307.30204 
L 105.756021 -328.329284 
L 102.76921 -325.659698 
L 99.782399 -324.478659 
L 96.795588 -335.583123 
L 93.808777 -338.806078 
L 90.821966 -330.947463 
L 87.835155 -335.883082 
z
" id="m9e5dc4a804" style="stroke:#0000ff;stroke-opacity:0.2;"/>
    </defs>
    <g clip-path="url(#pe921f079e6)">
     <use style="fill:#0000ff;fill-opacity:0.2;stroke:#0000ff;stroke-opacity:0.2;" x="0" xlink:href="#m9e5dc4a804" y="396"/>
    </g>
   </g>
   <g id="PolyCollection_2">
    <defs>
     <path d="M 87.835155 -321.888863 
L 87.835155 -287.851123 
L 90.821966 -276.873957 
L 93.808777 -274.028518 
L 96.795588 -267.752567 
L 99.782399 -266.493003 
L 102.76921 -253.60429 
L 105.756021 -262.009305 
L 108.742832 -253.743279 
L 111.729643 -250.273105 
L 114.716454 -251.515194 
L 117.703265 -243.146605 
L 120.690075 -243.576059 
L 123.676886 -244.768295 
L 126.663697 -232.686779 
L 129.650508 -233.753802 
L 132.637319 -230.124015 
L 135.62413 -220.736902 
L 138.610941 -220.727181 
L 141.597752 -214.651033 
L 144.584563 -219.347529 
L 147.571374 -218.007345 
L 150.558185 -214.592369 
L 153.544996 -203.144986 
L 156.531807 -205.190967 
L 159.518618 -199.681353 
L 162.505429 -201.33451 
L 165.49224 -196.22745 
L 168.479051 -194.768947 
L 171.465862 -193.545964 
L 174.452673 -190.939884 
L 177.439484 -186.908221 
L 180.426294 -184.45958 
L 183.413105 -181.993977 
L 186.399916 -179.245007 
L 189.386727 -177.719889 
L 192.373538 -171.508599 
L 195.360349 -170.546152 
L 198.34716 -170.124476 
L 201.333971 -171.927332 
L 204.320782 -168.376063 
L 207.307593 -163.142922 
L 210.294404 -165.836081 
L 213.281215 -161.400653 
L 216.268026 -158.291978 
L 219.254837 -152.731731 
L 222.241648 -153.561675 
L 225.228459 -153.912103 
L 228.21527 -147.049184 
L 231.202081 -152.181979 
L 234.188892 -148.676107 
L 237.175703 -147.093842 
L 240.162513 -143.523606 
L 243.149324 -142.017856 
L 246.136135 -137.443093 
L 249.122946 -137.620332 
L 252.109757 -137.069213 
L 255.096568 -136.710679 
L 258.083379 -136.204802 
L 261.07019 -134.634855 
L 264.057001 -132.803414 
L 267.043812 -127.356169 
L 270.030623 -128.08431 
L 273.017434 -128.334045 
L 276.004245 -124.052908 
L 278.991056 -124.883034 
L 281.977867 -124.426491 
L 284.964678 -122.058296 
L 287.951489 -121.113673 
L 290.9383 -119.669723 
L 293.925111 -119.671744 
L 296.911922 -118.607841 
L 299.898732 -116.157616 
L 302.885543 -116.868002 
L 305.872354 -116.859892 
L 308.859165 -116.756391 
L 311.845976 -115.548726 
L 314.832787 -113.244557 
L 317.819598 -112.72555 
L 320.806409 -111.921133 
L 323.79322 -112.56476 
L 326.780031 -109.393544 
L 329.766842 -111.427859 
L 332.753653 -109.30021 
L 335.740464 -109.861655 
L 338.727275 -108.24107 
L 341.714086 -108.448684 
L 344.700897 -108.469533 
L 347.687708 -108.541037 
L 350.674519 -108.177092 
L 353.66133 -108.221065 
L 356.648141 -108.109675 
L 359.634951 -106.857325 
L 362.621762 -107.609723 
L 365.608573 -108.077968 
L 368.595384 -107.564718 
L 371.582195 -107.512154 
L 374.569006 -107.765322 
L 377.555817 -107.737568 
L 380.542628 -107.826601 
L 383.529439 -108.07748 
L 383.529439 -108.55505 
L 383.529439 -108.55505 
L 380.542628 -108.827422 
L 377.555817 -109.338536 
L 374.569006 -109.65913 
L 371.582195 -110.329706 
L 368.595384 -110.568333 
L 365.608573 -111.190874 
L 362.621762 -111.369855 
L 359.634951 -111.743527 
L 356.648141 -112.492388 
L 353.66133 -113.017888 
L 350.674519 -113.774894 
L 347.687708 -115.818269 
L 344.700897 -115.42482 
L 341.714086 -116.493755 
L 338.727275 -116.537734 
L 335.740464 -118.221206 
L 332.753653 -119.31023 
L 329.766842 -120.81428 
L 326.780031 -121.37438 
L 323.79322 -121.931217 
L 320.806409 -123.459793 
L 317.819598 -125.181147 
L 314.832787 -125.614025 
L 311.845976 -127.844426 
L 308.859165 -129.459438 
L 305.872354 -129.42608 
L 302.885543 -131.714047 
L 299.898732 -130.853956 
L 296.911922 -132.599654 
L 293.925111 -133.644353 
L 290.9383 -136.66313 
L 287.951489 -137.09416 
L 284.964678 -139.618202 
L 281.977867 -138.539811 
L 278.991056 -142.388162 
L 276.004245 -144.400404 
L 273.017434 -145.238003 
L 270.030623 -145.395833 
L 267.043812 -149.034012 
L 264.057001 -149.310688 
L 261.07019 -153.15326 
L 258.083379 -156.427823 
L 255.096568 -158.02961 
L 252.109757 -162.543623 
L 249.122946 -162.489326 
L 246.136135 -166.433947 
L 243.149324 -166.065287 
L 240.162513 -168.780679 
L 237.175703 -169.44215 
L 234.188892 -172.954818 
L 231.202081 -171.860252 
L 228.21527 -176.5829 
L 225.228459 -179.949371 
L 222.241648 -182.110476 
L 219.254837 -178.422426 
L 216.268026 -189.663996 
L 213.281215 -188.074942 
L 210.294404 -192.428715 
L 207.307593 -189.111101 
L 204.320782 -199.582556 
L 201.333971 -198.917292 
L 198.34716 -200.929471 
L 195.360349 -203.998759 
L 192.373538 -202.750976 
L 189.386727 -211.951012 
L 186.399916 -208.720036 
L 183.413105 -216.154536 
L 180.426294 -219.377603 
L 177.439484 -227.909674 
L 174.452673 -227.095818 
L 171.465862 -230.782503 
L 168.479051 -232.901296 
L 165.49224 -238.281636 
L 162.505429 -236.555365 
L 159.518618 -238.661523 
L 156.531807 -236.693664 
L 153.544996 -247.234223 
L 150.558185 -254.303236 
L 147.571374 -253.070838 
L 144.584563 -259.138122 
L 141.597752 -265.61143 
L 138.610941 -263.524708 
L 135.62413 -264.149753 
L 132.637319 -275.951313 
L 129.650508 -277.225758 
L 126.663697 -276.156464 
L 123.676886 -279.265497 
L 120.690075 -281.522903 
L 117.703265 -291.075253 
L 114.716454 -295.859963 
L 111.729643 -301.172123 
L 108.742832 -297.846392 
L 105.756021 -309.484123 
L 102.76921 -307.234149 
L 99.782399 -310.680205 
L 96.795588 -318.291243 
L 93.808777 -320.136682 
L 90.821966 -322.283961 
L 87.835155 -321.888863 
z
" id="mceb8681b2e" style="stroke:#0000ff;stroke-opacity:0.2;"/>
    </defs>
    <g clip-path="url(#pe921f079e6)">
     <use style="fill:#0000ff;fill-opacity:0.2;stroke:#0000ff;stroke-opacity:0.2;" x="0" xlink:href="#mceb8681b2e" y="396"/>
    </g>
   </g>
   <g id="PolyCollection_3">
    <defs>
     <path d="M 87.835155 -317.083242 
L 87.835155 -293.127608 
L 90.821966 -284.632308 
L 93.808777 -282.128642 
L 96.795588 -275.970027 
L 99.782399 -273.328928 
L 102.76921 -260.810761 
L 105.756021 -269.447294 
L 108.742832 -260.135292 
L 111.729643 -258.366106 
L 114.716454 -258.086205 
L 117.703265 -251.266029 
L 120.690075 -248.824864 
L 123.676886 -249.739093 
L 126.663697 -240.000168 
L 129.650508 -241.976963 
L 132.637319 -236.760261 
L 135.62413 -228.555483 
L 138.610941 -226.558718 
L 141.597752 -224.552988 
L 144.584563 -225.98161 
L 147.571374 -222.69167 
L 150.558185 -221.320443 
L 153.544996 -209.310914 
L 156.531807 -209.770478 
L 159.518618 -206.750523 
L 162.505429 -206.660434 
L 165.49224 -203.633065 
L 168.479051 -200.208432 
L 171.465862 -199.097738 
L 174.452673 -195.750873 
L 177.439484 -192.908817 
L 180.426294 -190.191571 
L 183.413105 -185.997955 
L 186.399916 -184.100863 
L 189.386727 -181.743414 
L 192.373538 -176.593235 
L 195.360349 -175.593941 
L 198.34716 -175.227589 
L 201.333971 -175.221192 
L 204.320782 -172.709131 
L 207.307593 -167.852226 
L 210.294404 -169.19453 
L 213.281215 -165.78207 
L 216.268026 -162.032031 
L 219.254837 -156.561043 
L 222.241648 -157.374177 
L 225.228459 -157.452333 
L 228.21527 -151.570936 
L 231.202081 -154.73984 
L 234.188892 -152.074623 
L 237.175703 -150.268892 
L 240.162513 -146.957956 
L 243.149324 -145.884669 
L 246.136135 -141.8773 
L 249.122946 -141.53504 
L 252.109757 -139.996484 
L 255.096568 -140.332405 
L 258.083379 -139.324306 
L 261.07019 -137.915694 
L 264.057001 -135.337016 
L 267.043812 -131.160888 
L 270.030623 -130.81767 
L 273.017434 -130.618672 
L 276.004245 -127.05886 
L 278.991056 -126.992827 
L 281.977867 -126.262166 
L 284.964678 -124.854291 
L 287.951489 -123.968007 
L 290.9383 -121.802066 
L 293.925111 -121.636891 
L 296.911922 -120.518894 
L 299.898732 -118.472865 
L 302.885543 -118.759492 
L 305.872354 -118.428995 
L 308.859165 -118.364639 
L 311.845976 -117.316346 
L 314.832787 -115.596573 
L 317.819598 -114.577118 
L 320.806409 -113.673121 
L 323.79322 -113.912175 
L 326.780031 -111.309628 
L 329.766842 -112.923961 
L 332.753653 -110.675882 
L 335.740464 -111.07228 
L 338.727275 -109.823598 
L 341.714086 -109.726169 
L 344.700897 -109.476438 
L 347.687708 -109.408617 
L 350.674519 -108.911415 
L 353.66133 -109.148379 
L 356.648141 -108.722676 
L 359.634951 -107.784737 
L 362.621762 -108.152562 
L 365.608573 -108.687646 
L 368.595384 -108.003817 
L 371.582195 -107.819974 
L 374.569006 -108.068177 
L 377.555817 -107.933766 
L 380.542628 -107.986906 
L 383.529439 -108.144766 
L 383.529439 -108.481111 
L 383.529439 -108.481111 
L 380.542628 -108.665288 
L 377.555817 -109.058325 
L 374.569006 -109.435645 
L 371.582195 -109.786964 
L 368.595384 -110.007157 
L 365.608573 -110.809377 
L 362.621762 -110.724882 
L 359.634951 -111.134225 
L 356.648141 -111.6739 
L 353.66133 -112.435778 
L 350.674519 -112.875289 
L 347.687708 -114.501496 
L 344.700897 -114.473124 
L 341.714086 -115.423597 
L 338.727275 -115.521436 
L 335.740464 -116.838159 
L 332.753653 -118.008027 
L 329.766842 -119.444546 
L 326.780031 -119.787328 
L 323.79322 -120.374339 
L 320.806409 -121.797432 
L 317.819598 -123.074888 
L 314.832787 -123.954967 
L 311.845976 -125.942244 
L 308.859165 -127.433521 
L 305.872354 -127.194595 
L 302.885543 -129.250953 
L 299.898732 -128.952356 
L 296.911922 -130.277855 
L 293.925111 -131.389118 
L 290.9383 -134.154045 
L 287.951489 -135.05113 
L 284.964678 -136.676721 
L 281.977867 -135.918668 
L 278.991056 -139.169617 
L 276.004245 -141.644832 
L 273.017434 -142.160282 
L 270.030623 -143.335441 
L 267.043812 -146.545578 
L 264.057001 -146.359528 
L 261.07019 -150.423998 
L 258.083379 -153.059979 
L 255.096568 -155.118523 
L 252.109757 -158.266487 
L 249.122946 -157.921164 
L 246.136135 -162.202976 
L 243.149324 -162.446265 
L 240.162513 -164.147426 
L 237.175703 -166.258352 
L 234.188892 -169.102281 
L 231.202081 -168.61476 
L 228.21527 -173.249483 
L 225.228459 -174.988309 
L 222.241648 -177.893149 
L 219.254837 -175.053907 
L 216.268026 -185.034335 
L 213.281215 -184.972249 
L 210.294404 -187.456701 
L 207.307593 -186.285741 
L 204.320782 -194.363121 
L 201.333971 -195.108383 
L 198.34716 -196.558519 
L 195.360349 -199.011721 
L 192.373538 -198.328986 
L 189.386727 -206.969378 
L 186.399916 -204.450031 
L 183.413105 -210.858345 
L 180.426294 -214.888299 
L 177.439484 -220.936036 
L 174.452673 -221.721154 
L 171.465862 -225.193601 
L 168.479051 -228.030745 
L 165.49224 -231.745972 
L 162.505429 -231.56876 
L 159.518618 -233.711295 
L 156.531807 -231.338119 
L 153.544996 -241.113237 
L 150.558185 -248.530465 
L 147.571374 -248.721247 
L 144.584563 -253.373604 
L 141.597752 -258.656723 
L 138.610941 -257.023337 
L 135.62413 -258.598036 
L 132.637319 -270.541846 
L 129.650508 -271.697517 
L 126.663697 -269.725141 
L 123.676886 -274.091981 
L 120.690075 -276.606595 
L 117.703265 -285.447296 
L 114.716454 -289.327985 
L 111.729643 -293.59776 
L 108.742832 -291.992665 
L 105.756021 -302.201058 
L 102.76921 -300.324156 
L 99.782399 -304.22082 
L 96.795588 -310.342932 
L 93.808777 -313.579139 
L 90.821966 -317.481901 
L 87.835155 -317.083242 
z
" id="mb8e6e844c3" style="stroke:#0000ff;stroke-opacity:0.2;"/>
    </defs>
    <g clip-path="url(#pe921f079e6)">
     <use style="fill:#0000ff;fill-opacity:0.2;stroke:#0000ff;stroke-opacity:0.2;" x="0" xlink:href="#mb8e6e844c3" y="396"/>
    </g>
   </g>
   <g id="PolyCollection_4">
    <defs>
     <path d="M 87.835155 -313.854011 
L 87.835155 -297.297318 
L 90.821966 -291.92367 
L 93.808777 -287.064173 
L 96.795588 -281.173183 
L 99.782399 -278.537371 
L 102.76921 -268.119599 
L 105.756021 -274.69443 
L 108.742832 -265.933291 
L 111.729643 -263.538291 
L 114.716454 -263.44733 
L 117.703265 -257.914509 
L 120.690075 -253.634102 
L 123.676886 -253.533822 
L 126.663697 -245.307945 
L 129.650508 -247.839818 
L 132.637319 -242.305514 
L 135.62413 -233.615224 
L 138.610941 -231.564444 
L 141.597752 -230.417903 
L 144.584563 -230.567818 
L 147.571374 -227.249872 
L 150.558185 -225.44308 
L 153.544996 -215.263823 
L 156.531807 -212.676942 
L 159.518618 -212.223093 
L 162.505429 -211.397641 
L 165.49224 -208.171063 
L 168.479051 -205.104473 
L 171.465862 -202.920244 
L 174.452673 -200.186238 
L 177.439484 -196.8643 
L 180.426294 -194.594959 
L 183.413105 -190.039547 
L 186.399916 -187.356006 
L 189.386727 -186.003651 
L 192.373538 -180.7203 
L 195.360349 -179.449365 
L 198.34716 -179.008251 
L 201.333971 -178.690649 
L 204.320782 -175.874988 
L 207.307593 -171.588292 
L 210.294404 -172.008436 
L 213.281215 -169.565067 
L 216.268026 -165.411091 
L 219.254837 -160.060719 
L 222.241648 -160.482091 
L 225.228459 -159.753837 
L 228.21527 -155.315005 
L 231.202081 -156.890037 
L 234.188892 -155.105964 
L 237.175703 -152.973927 
L 240.162513 -149.132536 
L 243.149324 -148.572923 
L 246.136135 -145.471646 
L 249.122946 -143.779924 
L 252.109757 -142.551516 
L 255.096568 -142.934683 
L 258.083379 -141.289366 
L 261.07019 -139.848513 
L 264.057001 -137.021435 
L 267.043812 -134.384386 
L 270.030623 -133.18432 
L 273.017434 -132.332896 
L 276.004245 -129.374453 
L 278.991056 -128.556303 
L 281.977867 -127.553321 
L 284.964678 -126.621114 
L 287.951489 -125.93002 
L 290.9383 -123.740052 
L 293.925111 -123.163103 
L 296.911922 -122.121512 
L 299.898732 -120.378699 
L 302.885543 -120.384492 
L 305.872354 -119.694337 
L 308.859165 -119.643142 
L 311.845976 -118.589614 
L 314.832787 -116.875339 
L 317.819598 -115.908806 
L 320.806409 -115.027845 
L 323.79322 -114.799681 
L 326.780031 -112.632829 
L 329.766842 -113.998634 
L 332.753653 -111.903143 
L 335.740464 -111.916845 
L 338.727275 -110.85014 
L 341.714086 -110.670314 
L 344.700897 -110.233465 
L 347.687708 -110.197354 
L 350.674519 -109.534358 
L 353.66133 -109.761959 
L 356.648141 -109.100205 
L 359.634951 -108.347662 
L 362.621762 -108.561577 
L 365.608573 -109.069074 
L 368.595384 -108.309308 
L 371.582195 -108.122955 
L 374.569006 -108.314148 
L 377.555817 -108.099163 
L 380.542628 -108.093665 
L 383.529439 -108.196001 
L 383.529439 -108.424222 
L 383.529439 -108.424222 
L 380.542628 -108.560941 
L 377.555817 -108.86535 
L 374.569006 -109.237674 
L 371.582195 -109.466973 
L 368.595384 -109.691641 
L 365.608573 -110.512577 
L 362.621762 -110.310328 
L 359.634951 -110.654392 
L 356.648141 -111.15284 
L 353.66133 -112.000156 
L 350.674519 -112.233304 
L 347.687708 -113.649007 
L 344.700897 -113.650676 
L 341.714086 -114.603891 
L 338.727275 -114.728686 
L 335.740464 -115.920598 
L 332.753653 -116.87879 
L 329.766842 -118.497697 
L 326.780031 -118.48134 
L 323.79322 -119.264255 
L 320.806409 -120.581752 
L 317.819598 -121.755805 
L 314.832787 -122.706619 
L 311.845976 -124.539207 
L 308.859165 -125.893828 
L 305.872354 -125.751004 
L 302.885543 -127.557139 
L 299.898732 -127.454123 
L 296.911922 -128.819265 
L 293.925111 -129.857744 
L 290.9383 -132.184902 
L 287.951489 -133.487412 
L 284.964678 -134.784016 
L 281.977867 -134.293442 
L 278.991056 -137.06102 
L 276.004245 -139.425241 
L 273.017434 -140.302226 
L 270.030623 -141.618137 
L 267.043812 -144.6002 
L 264.057001 -144.656741 
L 261.07019 -148.527176 
L 258.083379 -150.823793 
L 255.096568 -153.011686 
L 252.109757 -155.310907 
L 249.122946 -155.401967 
L 246.136135 -159.442215 
L 243.149324 -159.974694 
L 240.162513 -161.256621 
L 237.175703 -163.934317 
L 234.188892 -166.656618 
L 231.202081 -166.445655 
L 228.21527 -170.03025 
L 225.228459 -172.147977 
L 222.241648 -174.683186 
L 219.254837 -172.512968 
L 216.268026 -181.500865 
L 213.281215 -182.467251 
L 210.294404 -184.694986 
L 207.307593 -183.930615 
L 204.320782 -190.986097 
L 201.333971 -192.263812 
L 198.34716 -193.633203 
L 195.360349 -195.695579 
L 192.373538 -195.406236 
L 189.386727 -203.324973 
L 186.399916 -201.476719 
L 183.413105 -207.278158 
L 180.426294 -211.501473 
L 177.439484 -216.853439 
L 174.452673 -218.060251 
L 171.465862 -221.28752 
L 168.479051 -224.069127 
L 165.49224 -227.780722 
L 162.505429 -228.291862 
L 159.518618 -230.389848 
L 156.531807 -227.959427 
L 153.544996 -236.940274 
L 150.558185 -244.598849 
L 147.571374 -245.030576 
L 144.584563 -249.671436 
L 141.597752 -254.233037 
L 138.610941 -252.815898 
L 135.62413 -254.41509 
L 132.637319 -265.906995 
L 129.650508 -267.951657 
L 126.663697 -265.790883 
L 123.676886 -270.455996 
L 120.690075 -272.666941 
L 117.703265 -280.957423 
L 114.716454 -285.106466 
L 111.729643 -288.62974 
L 108.742832 -287.790727 
L 105.756021 -297.738804 
L 102.76921 -295.341092 
L 99.782399 -299.946971 
L 96.795588 -305.660161 
L 93.808777 -309.213784 
L 90.821966 -313.667117 
L 87.835155 -313.854011 
z
" id="mbb507051ea" style="stroke:#0000ff;stroke-opacity:0.2;"/>
    </defs>
    <g clip-path="url(#pe921f079e6)">
     <use style="fill:#0000ff;fill-opacity:0.2;stroke:#0000ff;stroke-opacity:0.2;" x="0" xlink:href="#mbb507051ea" y="396"/>
    </g>
   </g>
   <g id="PolyCollection_5">
    <defs>
     <path d="M 87.835155 -310.699554 
L 87.835155 -301.340077 
L 90.821966 -298.114924 
L 93.808777 -292.27139 
L 96.795588 -286.286115 
L 99.782399 -283.502226 
L 102.76921 -275.602593 
L 105.756021 -279.578593 
L 108.742832 -271.495366 
L 111.729643 -269.571146 
L 114.716454 -268.886811 
L 117.703265 -264.345806 
L 120.690075 -258.819436 
L 123.676886 -257.490107 
L 126.663697 -249.862224 
L 129.650508 -252.801461 
L 132.637319 -249.742039 
L 135.62413 -238.984697 
L 138.610941 -236.988732 
L 141.597752 -236.016412 
L 144.584563 -235.101011 
L 147.571374 -232.077678 
L 150.558185 -230.149985 
L 153.544996 -220.4332 
L 156.531807 -216.005511 
L 159.518618 -216.467928 
L 162.505429 -215.451196 
L 165.49224 -212.306145 
L 168.479051 -210.297977 
L 171.465862 -207.578305 
L 174.452673 -204.424471 
L 177.439484 -201.130993 
L 180.426294 -198.921322 
L 183.413105 -194.110321 
L 186.399916 -190.742408 
L 189.386727 -190.263135 
L 192.373538 -183.990361 
L 195.360349 -183.597474 
L 198.34716 -182.532244 
L 201.333971 -182.19755 
L 204.320782 -179.08477 
L 207.307593 -174.77936 
L 210.294404 -174.288875 
L 213.281215 -172.8016 
L 216.268026 -169.603167 
L 219.254837 -163.295261 
L 222.241648 -164.061055 
L 225.228459 -162.038474 
L 228.21527 -159.492992 
L 231.202081 -158.995094 
L 234.188892 -157.609547 
L 237.175703 -155.61034 
L 240.162513 -151.801558 
L 243.149324 -151.129238 
L 246.136135 -148.721955 
L 249.122946 -146.069777 
L 252.109757 -145.40572 
L 255.096568 -145.359683 
L 258.083379 -143.323662 
L 261.07019 -141.852838 
L 264.057001 -138.502423 
L 267.043812 -136.793998 
L 270.030623 -135.263881 
L 273.017434 -133.927136 
L 276.004245 -131.909877 
L 278.991056 -130.441906 
L 281.977867 -128.980931 
L 284.964678 -128.302424 
L 287.951489 -127.760804 
L 290.9383 -125.872545 
L 293.925111 -124.649105 
L 296.911922 -123.584561 
L 299.898732 -122.079012 
L 302.885543 -121.98479 
L 305.872354 -120.982895 
L 308.859165 -121.153724 
L 311.845976 -119.966249 
L 314.832787 -118.331247 
L 317.819598 -117.121824 
L 320.806409 -116.291106 
L 323.79322 -115.787962 
L 326.780031 -114.065892 
L 329.766842 -115.046818 
L 332.753653 -113.128554 
L 335.740464 -112.793215 
L 338.727275 -111.749599 
L 341.714086 -111.58927 
L 344.700897 -111.062118 
L 347.687708 -110.920763 
L 350.674519 -110.084647 
L 353.66133 -110.26938 
L 356.648141 -109.549034 
L 359.634951 -108.88603 
L 362.621762 -108.915156 
L 365.608573 -109.381593 
L 368.595384 -108.575011 
L 371.582195 -108.385057 
L 374.569006 -108.521719 
L 377.555817 -108.262911 
L 380.542628 -108.192929 
L 383.529439 -108.244599 
L 383.529439 -108.375167 
L 383.529439 -108.375167 
L 380.542628 -108.46439 
L 377.555817 -108.689222 
L 374.569006 -109.02845 
L 371.582195 -109.155966 
L 368.595384 -109.395054 
L 365.608573 -110.228063 
L 362.621762 -109.942648 
L 359.634951 -110.202597 
L 356.648141 -110.736013 
L 353.66133 -111.540303 
L 350.674519 -111.630596 
L 347.687708 -112.898719 
L 344.700897 -112.934712 
L 341.714086 -113.72705 
L 338.727275 -113.97233 
L 335.740464 -115.06788 
L 332.753653 -115.789747 
L 329.766842 -117.534482 
L 326.780031 -117.265402 
L 323.79322 -118.356823 
L 320.806409 -119.384757 
L 317.819598 -120.552324 
L 314.832787 -121.60597 
L 311.845976 -123.322912 
L 308.859165 -124.589198 
L 305.872354 -124.479922 
L 302.885543 -126.057493 
L 299.898732 -125.978578 
L 296.911922 -127.392344 
L 293.925111 -128.494611 
L 290.9383 -130.444109 
L 287.951489 -131.99298 
L 284.964678 -133.261306 
L 281.977867 -132.926328 
L 278.991056 -135.406098 
L 276.004245 -137.42425 
L 273.017434 -138.725943 
L 270.030623 -139.82363 
L 267.043812 -142.485494 
L 264.057001 -143.174099 
L 261.07019 -146.916613 
L 258.083379 -149.073644 
L 255.096568 -151.03125 
L 252.109757 -152.848306 
L 249.122946 -153.249479 
L 246.136135 -156.731173 
L 243.149324 -157.821496 
L 240.162513 -159.065094 
L 237.175703 -161.685885 
L 234.188892 -164.402148 
L 231.202081 -164.548637 
L 228.21527 -167.254643 
L 225.228459 -169.861685 
L 222.241648 -172.030178 
L 219.254837 -170.070343 
L 216.268026 -178.481767 
L 213.281215 -179.875912 
L 210.294404 -182.153177 
L 207.307593 -181.499475 
L 204.320782 -188.268426 
L 201.333971 -189.538672 
L 198.34716 -190.915516 
L 195.360349 -192.719018 
L 192.373538 -192.591173 
L 189.386727 -200.050102 
L 186.399916 -198.858222 
L 183.413105 -203.989348 
L 180.426294 -208.345477 
L 177.439484 -213.399798 
L 174.452673 -214.779811 
L 171.465862 -218.031148 
L 168.479051 -220.690044 
L 165.49224 -224.466105 
L 162.505429 -225.063138 
L 159.518618 -227.058641 
L 156.531807 -225.22832 
L 153.544996 -233.095631 
L 150.558185 -241.411007 
L 147.571374 -241.665294 
L 144.584563 -246.235019 
L 141.597752 -250.33764 
L 138.610941 -249.112858 
L 135.62413 -250.917908 
L 132.637319 -261.977406 
L 129.650508 -264.378634 
L 126.663697 -262.229959 
L 123.676886 -267.363616 
L 120.690075 -269.283399 
L 117.703265 -277.052654 
L 114.716454 -281.413168 
L 111.729643 -284.716126 
L 108.742832 -283.940447 
L 105.756021 -293.894307 
L 102.76921 -290.800082 
L 99.782399 -296.29459 
L 96.795588 -301.646434 
L 93.808777 -305.555056 
L 90.821966 -309.657782 
L 87.835155 -310.699554 
z
" id="ma50e326d71" style="stroke:#0000ff;stroke-opacity:0.2;"/>
    </defs>
    <g clip-path="url(#pe921f079e6)">
     <use style="fill:#0000ff;fill-opacity:0.2;stroke:#0000ff;stroke-opacity:0.2;" x="0" xlink:href="#ma50e326d71" y="396"/>
    </g>
   </g>
   <g id="line2d_1">
    <path clip-path="url(#pe921f079e6)" d="M 87.835155 88.689269 
L 90.821966 90.531744 
L 93.808777 94.601913 
L 96.795588 98.598861 
L 99.782399 103.73367 
L 102.76921 109.640333 
L 105.756021 106.275471 
L 108.742832 116.065121 
L 111.729643 115.663723 
L 114.716454 118.624571 
L 117.703265 123.240573 
L 120.690075 130.413467 
L 123.676886 131.979038 
L 126.663697 137.760826 
L 129.650508 135.681105 
L 132.637319 138.17437 
L 135.62413 149.124018 
L 138.610941 150.790799 
L 141.597752 150.06697 
L 144.584563 153.504421 
L 147.571374 157.773904 
L 150.558185 158.429985 
L 153.544996 166.908981 
L 156.531807 173.884106 
L 159.518618 172.77017 
L 162.505429 174.40089 
L 165.49224 175.402934 
L 168.479051 179.014547 
L 171.465862 181.48742 
L 174.452673 184.716335 
L 177.439484 186.328521 
L 180.426294 191.138109 
L 183.413105 195.271865 
L 186.399916 200.187396 
L 189.386727 199.251863 
L 192.373538 206.628743 
L 195.360349 206.625999 
L 198.34716 208.276899 
L 201.333971 209.279055 
L 204.320782 210.838305 
L 207.307593 217.440824 
L 210.294404 216.463691 
L 213.281215 219.077726 
L 216.268026 220.627433 
L 219.254837 228.758078 
L 222.241648 226.89939 
L 225.228459 228.765427 
L 228.21527 231.886207 
L 231.202081 233.618712 
L 234.188892 234.236396 
L 237.175703 236.752287 
L 240.162513 239.538872 
L 243.149324 240.8198 
L 246.136135 242.289666 
L 249.122946 245.352172 
L 252.109757 245.759737 
L 255.096568 247.387613 
L 258.083379 249.212439 
L 261.07019 251.264052 
L 264.057001 254.715331 
L 267.043812 256.042628 
L 270.030623 258.245492 
L 273.017434 259.154822 
L 276.004245 260.874455 
L 278.991056 262.499415 
L 281.977867 264.641693 
L 284.964678 264.7646 
L 287.951489 265.977641 
L 290.9383 267.478781 
L 293.925111 269.138663 
L 296.911922 270.219079 
L 299.898732 271.809593 
L 302.885543 271.60626 
L 305.872354 272.94097 
L 308.859165 272.871449 
L 311.845976 274.13677 
L 314.832787 275.967336 
L 317.819598 276.910481 
L 320.806409 278.012549 
L 323.79322 278.763815 
L 326.780031 280.199292 
L 329.766842 279.630386 
L 332.753653 281.448354 
L 335.740464 281.938907 
L 338.727275 283.1645 
L 341.714086 283.285309 
L 344.700897 283.953777 
L 347.687708 283.959765 
L 350.674519 285.06011 
L 353.66133 285.133657 
L 356.648141 285.799498 
L 359.634951 286.483714 
L 362.621762 286.540764 
L 365.608573 286.218607 
L 368.595384 286.980606 
L 371.582195 287.18213 
L 374.569006 287.232846 
L 377.555817 287.505704 
L 380.542628 287.671303 
L 383.529439 287.688272 
" style="fill:none;stroke:#0000ff;stroke-linecap:square;"/>
    <defs>
     <path d="M 0 3.5 
C 0.928211 3.5 1.81853 3.131218 2.474874 2.474874 
C 3.131218 1.81853 3.5 0.928211 3.5 0 
C 3.5 -0.928211 3.131218 -1.81853 2.474874 -2.474874 
C 1.81853 -3.131218 0.928211 -3.5 0 -3.5 
C -0.928211 -3.5 -1.81853 -3.131218 -2.474874 -2.474874 
C -3.131218 -1.81853 -3.5 -0.928211 -3.5 0 
C -3.5 0.928211 -3.131218 1.81853 -2.474874 2.474874 
C -1.81853 3.131218 -0.928211 3.5 0 3.5 
z
" id="m095dd740d1" style="stroke:#000000;stroke-width:0.5;"/>
    </defs>
    <g clip-path="url(#pe921f079e6)">
     <use style="fill:#0000ff;stroke:#000000;stroke-width:0.5;" x="87.835155" xlink:href="#m095dd740d1" y="88.689269"/>
     <use style="fill:#0000ff;stroke:#000000;stroke-width:0.5;" x="120.690075" xlink:href="#m095dd740d1" y="130.413467"/>
     <use style="fill:#0000ff;stroke:#000000;stroke-width:0.5;" x="153.544996" xlink:href="#m095dd740d1" y="166.908981"/>
     <use style="fill:#0000ff;stroke:#000000;stroke-width:0.5;" x="186.399916" xlink:href="#m095dd740d1" y="200.187396"/>
     <use style="fill:#0000ff;stroke:#000000;stroke-width:0.5;" x="219.254837" xlink:href="#m095dd740d1" y="228.758078"/>
     <use style="fill:#0000ff;stroke:#000000;stroke-width:0.5;" x="252.109757" xlink:href="#m095dd740d1" y="245.759737"/>
     <use style="fill:#0000ff;stroke:#000000;stroke-width:0.5;" x="284.964678" xlink:href="#m095dd740d1" y="264.7646"/>
     <use style="fill:#0000ff;stroke:#000000;stroke-width:0.5;" x="317.819598" xlink:href="#m095dd740d1" y="276.910481"/>
     <use style="fill:#0000ff;stroke:#000000;stroke-width:0.5;" x="350.674519" xlink:href="#m095dd740d1" y="285.06011"/>
     <use style="fill:#0000ff;stroke:#000000;stroke-width:0.5;" x="383.529439" xlink:href="#m095dd740d1" y="287.688272"/>
    </g>
   </g>
   <g id="patch_3">
    <path d="M 87.835155 337.32 
L 87.835155 26.325 
" style="fill:none;stroke:#000000;stroke-linecap:square;stroke-linejoin:miter;"/>
   </g>
   <g id="patch_4">
    <path d="M 386.51625 337.32 
L 386.51625 26.325 
" style="fill:none;stroke:#000000;stroke-linecap:square;stroke-linejoin:miter;"/>
   </g>
   <g id="patch_5">
    <path d="M 87.835155 337.32 
L 386.51625 337.32 
" style="fill:none;stroke:#000000;stroke-linecap:square;stroke-linejoin:miter;"/>
   </g>
   <g id="patch_6">
    <path d="M 87.835155 26.325 
L 386.51625 26.325 
" style="fill:none;stroke:#000000;stroke-linecap:square;stroke-linejoin:miter;"/>
   </g>
   <g id="matplotlib.axis_1">
    <g id="xtick_1">
     <g id="line2d_2">
      <defs>
       <path d="M 0 0 
L 0 -4 
" id="me6884e046c" style="stroke:#000000;stroke-width:0.5;"/>
      </defs>
      <g>
       <use style="stroke:#000000;stroke-width:0.5;" x="87.835155" xlink:href="#me6884e046c" y="337.32"/>
      </g>
     </g>
     <g id="line2d_3">
      <defs>
       <path d="M 0 0 
L 0 4 
" id="m35a24acc17" style="stroke:#000000;stroke-width:0.5;"/>
      </defs>
      <g>
       <use style="stroke:#000000;stroke-width:0.5;" x="87.835155" xlink:href="#m35a24acc17" y="26.325"/>
      </g>
     </g>
     <g id="text_1">
      <!-- 0 -->
      <g transform="translate(82.745155 353.4775)scale(0.16 -0.16)">
       <defs>
        <path d="M 31.78125 66.40625 
Q 24.171875 66.40625 20.328125 58.90625 
Q 16.5 51.421875 16.5 36.375 
Q 16.5 21.390625 20.328125 13.890625 
Q 24.171875 6.390625 31.78125 6.390625 
Q 39.453125 6.390625 43.28125 13.890625 
Q 47.125 21.390625 47.125 36.375 
Q 47.125 51.421875 43.28125 58.90625 
Q 39.453125 66.40625 31.78125 66.40625 
z
M 31.78125 74.21875 
Q 44.046875 74.21875 50.515625 64.515625 
Q 56.984375 54.828125 56.984375 36.375 
Q 56.984375 17.96875 50.515625 8.265625 
Q 44.046875 -1.421875 31.78125 -1.421875 
Q 19.53125 -1.421875 13.0625 8.265625 
Q 6.59375 17.96875 6.59375 36.375 
Q 6.59375 54.828125 13.0625 64.515625 
Q 19.53125 74.21875 31.78125 74.21875 
z
" id="DejaVuSans-48"/>
       </defs>
       <use xlink:href="#DejaVuSans-48"/>
      </g>
     </g>
    </g>
    <g id="xtick_2">
     <g id="line2d_4">
      <g>
       <use style="stroke:#000000;stroke-width:0.5;" x="147.571374" xlink:href="#me6884e046c" y="337.32"/>
      </g>
     </g>
     <g id="line2d_5">
      <g>
       <use style="stroke:#000000;stroke-width:0.5;" x="147.571374" xlink:href="#m35a24acc17" y="26.325"/>
      </g>
     </g>
     <g id="text_2">
      <!-- 20 -->
      <g transform="translate(137.391374 353.4775)scale(0.16 -0.16)">
       <defs>
        <path d="M 19.1875 8.296875 
L 53.609375 8.296875 
L 53.609375 0 
L 7.328125 0 
L 7.328125 8.296875 
Q 12.9375 14.109375 22.625 23.890625 
Q 32.328125 33.6875 34.8125 36.53125 
Q 39.546875 41.84375 41.421875 45.53125 
Q 43.3125 49.21875 43.3125 52.78125 
Q 43.3125 58.59375 39.234375 62.25 
Q 35.15625 65.921875 28.609375 65.921875 
Q 23.96875 65.921875 18.8125 64.3125 
Q 13.671875 62.703125 7.8125 59.421875 
L 7.8125 69.390625 
Q 13.765625 71.78125 18.9375 73 
Q 24.125 74.21875 28.421875 74.21875 
Q 39.75 74.21875 46.484375 68.546875 
Q 53.21875 62.890625 53.21875 53.421875 
Q 53.21875 48.921875 51.53125 44.890625 
Q 49.859375 40.875 45.40625 35.40625 
Q 44.1875 33.984375 37.640625 27.21875 
Q 31.109375 20.453125 19.1875 8.296875 
z
" id="DejaVuSans-50"/>
       </defs>
       <use xlink:href="#DejaVuSans-50"/>
       <use x="63.623047" xlink:href="#DejaVuSans-48"/>
      </g>
     </g>
    </g>
    <g id="xtick_3">
     <g id="line2d_6">
      <g>
       <use style="stroke:#000000;stroke-width:0.5;" x="207.307593" xlink:href="#me6884e046c" y="337.32"/>
      </g>
     </g>
     <g id="line2d_7">
      <g>
       <use style="stroke:#000000;stroke-width:0.5;" x="207.307593" xlink:href="#m35a24acc17" y="26.325"/>
      </g>
     </g>
     <g id="text_3">
      <!-- 40 -->
      <g transform="translate(197.127593 353.4775)scale(0.16 -0.16)">
       <defs>
        <path d="M 37.796875 64.3125 
L 12.890625 25.390625 
L 37.796875 25.390625 
z
M 35.203125 72.90625 
L 47.609375 72.90625 
L 47.609375 25.390625 
L 58.015625 25.390625 
L 58.015625 17.1875 
L 47.609375 17.1875 
L 47.609375 0 
L 37.796875 0 
L 37.796875 17.1875 
L 4.890625 17.1875 
L 4.890625 26.703125 
z
" id="DejaVuSans-52"/>
       </defs>
       <use xlink:href="#DejaVuSans-52"/>
       <use x="63.623047" xlink:href="#DejaVuSans-48"/>
      </g>
     </g>
    </g>
    <g id="xtick_4">
     <g id="line2d_8">
      <g>
       <use style="stroke:#000000;stroke-width:0.5;" x="267.043812" xlink:href="#me6884e046c" y="337.32"/>
      </g>
     </g>
     <g id="line2d_9">
      <g>
       <use style="stroke:#000000;stroke-width:0.5;" x="267.043812" xlink:href="#m35a24acc17" y="26.325"/>
      </g>
     </g>
     <g id="text_4">
      <!-- 60 -->
      <g transform="translate(256.863812 353.4775)scale(0.16 -0.16)">
       <defs>
        <path d="M 33.015625 40.375 
Q 26.375 40.375 22.484375 35.828125 
Q 18.609375 31.296875 18.609375 23.390625 
Q 18.609375 15.53125 22.484375 10.953125 
Q 26.375 6.390625 33.015625 6.390625 
Q 39.65625 6.390625 43.53125 10.953125 
Q 47.40625 15.53125 47.40625 23.390625 
Q 47.40625 31.296875 43.53125 35.828125 
Q 39.65625 40.375 33.015625 40.375 
z
M 52.59375 71.296875 
L 52.59375 62.3125 
Q 48.875 64.0625 45.09375 64.984375 
Q 41.3125 65.921875 37.59375 65.921875 
Q 27.828125 65.921875 22.671875 59.328125 
Q 17.53125 52.734375 16.796875 39.40625 
Q 19.671875 43.65625 24.015625 45.921875 
Q 28.375 48.1875 33.59375 48.1875 
Q 44.578125 48.1875 50.953125 41.515625 
Q 57.328125 34.859375 57.328125 23.390625 
Q 57.328125 12.15625 50.6875 5.359375 
Q 44.046875 -1.421875 33.015625 -1.421875 
Q 20.359375 -1.421875 13.671875 8.265625 
Q 6.984375 17.96875 6.984375 36.375 
Q 6.984375 53.65625 15.1875 63.9375 
Q 23.390625 74.21875 37.203125 74.21875 
Q 40.921875 74.21875 44.703125 73.484375 
Q 48.484375 72.75 52.59375 71.296875 
z
" id="DejaVuSans-54"/>
       </defs>
       <use xlink:href="#DejaVuSans-54"/>
       <use x="63.623047" xlink:href="#DejaVuSans-48"/>
      </g>
     </g>
    </g>
    <g id="xtick_5">
     <g id="line2d_10">
      <g>
       <use style="stroke:#000000;stroke-width:0.5;" x="326.780031" xlink:href="#me6884e046c" y="337.32"/>
      </g>
     </g>
     <g id="line2d_11">
      <g>
       <use style="stroke:#000000;stroke-width:0.5;" x="326.780031" xlink:href="#m35a24acc17" y="26.325"/>
      </g>
     </g>
     <g id="text_5">
      <!-- 80 -->
      <g transform="translate(316.600031 353.4775)scale(0.16 -0.16)">
       <defs>
        <path d="M 31.78125 34.625 
Q 24.75 34.625 20.71875 30.859375 
Q 16.703125 27.09375 16.703125 20.515625 
Q 16.703125 13.921875 20.71875 10.15625 
Q 24.75 6.390625 31.78125 6.390625 
Q 38.8125 6.390625 42.859375 10.171875 
Q 46.921875 13.96875 46.921875 20.515625 
Q 46.921875 27.09375 42.890625 30.859375 
Q 38.875 34.625 31.78125 34.625 
z
M 21.921875 38.8125 
Q 15.578125 40.375 12.03125 44.71875 
Q 8.5 49.078125 8.5 55.328125 
Q 8.5 64.0625 14.71875 69.140625 
Q 20.953125 74.21875 31.78125 74.21875 
Q 42.671875 74.21875 48.875 69.140625 
Q 55.078125 64.0625 55.078125 55.328125 
Q 55.078125 49.078125 51.53125 44.71875 
Q 48 40.375 41.703125 38.8125 
Q 48.828125 37.15625 52.796875 32.3125 
Q 56.78125 27.484375 56.78125 20.515625 
Q 56.78125 9.90625 50.3125 4.234375 
Q 43.84375 -1.421875 31.78125 -1.421875 
Q 19.734375 -1.421875 13.25 4.234375 
Q 6.78125 9.90625 6.78125 20.515625 
Q 6.78125 27.484375 10.78125 32.3125 
Q 14.796875 37.15625 21.921875 38.8125 
z
M 18.3125 54.390625 
Q 18.3125 48.734375 21.84375 45.5625 
Q 25.390625 42.390625 31.78125 42.390625 
Q 38.140625 42.390625 41.71875 45.5625 
Q 45.3125 48.734375 45.3125 54.390625 
Q 45.3125 60.0625 41.71875 63.234375 
Q 38.140625 66.40625 31.78125 66.40625 
Q 25.390625 66.40625 21.84375 63.234375 
Q 18.3125 60.0625 18.3125 54.390625 
z
" id="DejaVuSans-56"/>
       </defs>
       <use xlink:href="#DejaVuSans-56"/>
       <use x="63.623047" xlink:href="#DejaVuSans-48"/>
      </g>
     </g>
    </g>
    <g id="xtick_6">
     <g id="line2d_12">
      <g>
       <use style="stroke:#000000;stroke-width:0.5;" x="386.51625" xlink:href="#me6884e046c" y="337.32"/>
      </g>
     </g>
     <g id="line2d_13">
      <g>
       <use style="stroke:#000000;stroke-width:0.5;" x="386.51625" xlink:href="#m35a24acc17" y="26.325"/>
      </g>
     </g>
     <g id="text_6">
      <!-- 100 -->
      <g transform="translate(371.24625 353.4775)scale(0.16 -0.16)">
       <defs>
        <path d="M 12.40625 8.296875 
L 28.515625 8.296875 
L 28.515625 63.921875 
L 10.984375 60.40625 
L 10.984375 69.390625 
L 28.421875 72.90625 
L 38.28125 72.90625 
L 38.28125 8.296875 
L 54.390625 8.296875 
L 54.390625 0 
L 12.40625 0 
z
" id="DejaVuSans-49"/>
       </defs>
       <use xlink:href="#DejaVuSans-49"/>
       <use x="63.623047" xlink:href="#DejaVuSans-48"/>
       <use x="127.246094" xlink:href="#DejaVuSans-48"/>
      </g>
     </g>
    </g>
    <g id="text_7">
     <!-- Step -->
     <g transform="translate(218.959453 373.9625)scale(0.16 -0.16)">
      <defs>
       <path d="M 53.515625 70.515625 
L 53.515625 60.890625 
Q 47.90625 63.578125 42.921875 64.890625 
Q 37.9375 66.21875 33.296875 66.21875 
Q 25.25 66.21875 20.875 63.09375 
Q 16.5 59.96875 16.5 54.203125 
Q 16.5 49.359375 19.40625 46.890625 
Q 22.3125 44.4375 30.421875 42.921875 
L 36.375 41.703125 
Q 47.40625 39.59375 52.65625 34.296875 
Q 57.90625 29 57.90625 20.125 
Q 57.90625 9.515625 50.796875 4.046875 
Q 43.703125 -1.421875 29.984375 -1.421875 
Q 24.8125 -1.421875 18.96875 -0.25 
Q 13.140625 0.921875 6.890625 3.21875 
L 6.890625 13.375 
Q 12.890625 10.015625 18.65625 8.296875 
Q 24.421875 6.59375 29.984375 6.59375 
Q 38.421875 6.59375 43.015625 9.90625 
Q 47.609375 13.234375 47.609375 19.390625 
Q 47.609375 24.75 44.3125 27.78125 
Q 41.015625 30.8125 33.5 32.328125 
L 27.484375 33.5 
Q 16.453125 35.6875 11.515625 40.375 
Q 6.59375 45.0625 6.59375 53.421875 
Q 6.59375 63.09375 13.40625 68.65625 
Q 20.21875 74.21875 32.171875 74.21875 
Q 37.3125 74.21875 42.625 73.28125 
Q 47.953125 72.359375 53.515625 70.515625 
z
" id="DejaVuSans-83"/>
       <path d="M 18.3125 70.21875 
L 18.3125 54.6875 
L 36.8125 54.6875 
L 36.8125 47.703125 
L 18.3125 47.703125 
L 18.3125 18.015625 
Q 18.3125 11.328125 20.140625 9.421875 
Q 21.96875 7.515625 27.59375 7.515625 
L 36.8125 7.515625 
L 36.8125 0 
L 27.59375 0 
Q 17.1875 0 13.234375 3.875 
Q 9.28125 7.765625 9.28125 18.015625 
L 9.28125 47.703125 
L 2.6875 47.703125 
L 2.6875 54.6875 
L 9.28125 54.6875 
L 9.28125 70.21875 
z
" id="DejaVuSans-116"/>
       <path d="M 56.203125 29.59375 
L 56.203125 25.203125 
L 14.890625 25.203125 
Q 15.484375 15.921875 20.484375 11.0625 
Q 25.484375 6.203125 34.421875 6.203125 
Q 39.59375 6.203125 44.453125 7.46875 
Q 49.3125 8.734375 54.109375 11.28125 
L 54.109375 2.78125 
Q 49.265625 0.734375 44.1875 -0.34375 
Q 39.109375 -1.421875 33.890625 -1.421875 
Q 20.796875 -1.421875 13.15625 6.1875 
Q 5.515625 13.8125 5.515625 26.8125 
Q 5.515625 40.234375 12.765625 48.109375 
Q 20.015625 56 32.328125 56 
Q 43.359375 56 49.78125 48.890625 
Q 56.203125 41.796875 56.203125 29.59375 
z
M 47.21875 32.234375 
Q 47.125 39.59375 43.09375 43.984375 
Q 39.0625 48.390625 32.421875 48.390625 
Q 24.90625 48.390625 20.390625 44.140625 
Q 15.875 39.890625 15.1875 32.171875 
z
" id="DejaVuSans-101"/>
       <path d="M 18.109375 8.203125 
L 18.109375 -20.796875 
L 9.078125 -20.796875 
L 9.078125 54.6875 
L 18.109375 54.6875 
L 18.109375 46.390625 
Q 20.953125 51.265625 25.265625 53.625 
Q 29.59375 56 35.59375 56 
Q 45.5625 56 51.78125 48.09375 
Q 58.015625 40.1875 58.015625 27.296875 
Q 58.015625 14.40625 51.78125 6.484375 
Q 45.5625 -1.421875 35.59375 -1.421875 
Q 29.59375 -1.421875 25.265625 0.953125 
Q 20.953125 3.328125 18.109375 8.203125 
z
M 48.6875 27.296875 
Q 48.6875 37.203125 44.609375 42.84375 
Q 40.53125 48.484375 33.40625 48.484375 
Q 26.265625 48.484375 22.1875 42.84375 
Q 18.109375 37.203125 18.109375 27.296875 
Q 18.109375 17.390625 22.1875 11.75 
Q 26.265625 6.109375 33.40625 6.109375 
Q 40.53125 6.109375 44.609375 11.75 
Q 48.6875 17.390625 48.6875 27.296875 
z
" id="DejaVuSans-112"/>
      </defs>
      <use xlink:href="#DejaVuSans-83"/>
      <use x="63.476562" xlink:href="#DejaVuSans-116"/>
      <use x="102.685547" xlink:href="#DejaVuSans-101"/>
      <use x="164.208984" xlink:href="#DejaVuSans-112"/>
     </g>
    </g>
   </g>
   <g id="matplotlib.axis_2">
    <g id="ytick_1">
     <g id="line2d_14">
      <defs>
       <path d="M 0 0 
L 4 0 
" id="m77289416bc" style="stroke:#000000;stroke-width:0.5;"/>
      </defs>
      <g>
       <use style="stroke:#000000;stroke-width:0.5;" x="87.835155" xlink:href="#m77289416bc" y="337.32"/>
      </g>
     </g>
     <g id="line2d_15">
      <defs>
       <path d="M 0 0 
L -4 0 
" id="m0795b060bb" style="stroke:#000000;stroke-width:0.5;"/>
      </defs>
      <g>
       <use style="stroke:#000000;stroke-width:0.5;" x="386.51625" xlink:href="#m0795b060bb" y="337.32"/>
      </g>
     </g>
     <g id="text_8">
      <!-- $\mathdefault{10^{-2}}$ -->
      <g transform="translate(51.675155 341.735)scale(0.16 -0.16)">
       <defs>
        <path d="M 4.890625 31.390625 
L 31.203125 31.390625 
L 31.203125 23.390625 
L 4.890625 23.390625 
z
" id="DejaVuSans-45"/>
       </defs>
       <use transform="translate(0 0.765625)" xlink:href="#DejaVuSans-49"/>
       <use transform="translate(63.623047 0.765625)" xlink:href="#DejaVuSans-48"/>
       <use transform="translate(128.203125 39.046875)scale(0.7)" xlink:href="#DejaVuSans-45"/>
       <use transform="translate(153.461914 39.046875)scale(0.7)" xlink:href="#DejaVuSans-50"/>
      </g>
     </g>
    </g>
    <g id="ytick_2">
     <g id="line2d_16">
      <g>
       <use style="stroke:#000000;stroke-width:0.5;" x="87.835155" xlink:href="#m77289416bc" y="275.121"/>
      </g>
     </g>
     <g id="line2d_17">
      <g>
       <use style="stroke:#000000;stroke-width:0.5;" x="386.51625" xlink:href="#m0795b060bb" y="275.121"/>
      </g>
     </g>
     <g id="text_9">
      <!-- $\mathdefault{10^{-1}}$ -->
      <g transform="translate(51.675155 279.536)scale(0.16 -0.16)">
       <use transform="translate(0 0.684375)" xlink:href="#DejaVuSans-49"/>
       <use transform="translate(63.623047 0.684375)" xlink:href="#DejaVuSans-48"/>
       <use transform="translate(128.203125 38.965625)scale(0.7)" xlink:href="#DejaVuSans-45"/>
       <use transform="translate(153.461914 38.965625)scale(0.7)" xlink:href="#DejaVuSans-49"/>
      </g>
     </g>
    </g>
    <g id="ytick_3">
     <g id="line2d_18">
      <g>
       <use style="stroke:#000000;stroke-width:0.5;" x="87.835155" xlink:href="#m77289416bc" y="212.922"/>
      </g>
     </g>
     <g id="line2d_19">
      <g>
       <use style="stroke:#000000;stroke-width:0.5;" x="386.51625" xlink:href="#m0795b060bb" y="212.922"/>
      </g>
     </g>
     <g id="text_10">
      <!-- $\mathdefault{10^{0}}$ -->
      <g transform="translate(55.675155 217.337)scale(0.16 -0.16)">
       <use transform="translate(0 0.765625)" xlink:href="#DejaVuSans-49"/>
       <use transform="translate(63.623047 0.765625)" xlink:href="#DejaVuSans-48"/>
       <use transform="translate(128.203125 39.046875)scale(0.7)" xlink:href="#DejaVuSans-48"/>
      </g>
     </g>
    </g>
    <g id="ytick_4">
     <g id="line2d_20">
      <g>
       <use style="stroke:#000000;stroke-width:0.5;" x="87.835155" xlink:href="#m77289416bc" y="150.723"/>
      </g>
     </g>
     <g id="line2d_21">
      <g>
       <use style="stroke:#000000;stroke-width:0.5;" x="386.51625" xlink:href="#m0795b060bb" y="150.723"/>
      </g>
     </g>
     <g id="text_11">
      <!-- $\mathdefault{10^{1}}$ -->
      <g transform="translate(55.675155 155.138)scale(0.16 -0.16)">
       <use transform="translate(0 0.684375)" xlink:href="#DejaVuSans-49"/>
       <use transform="translate(63.623047 0.684375)" xlink:href="#DejaVuSans-48"/>
       <use transform="translate(128.203125 38.965625)scale(0.7)" xlink:href="#DejaVuSans-49"/>
      </g>
     </g>
    </g>
    <g id="ytick_5">
     <g id="line2d_22">
      <g>
       <use style="stroke:#000000;stroke-width:0.5;" x="87.835155" xlink:href="#m77289416bc" y="88.524"/>
      </g>
     </g>
     <g id="line2d_23">
      <g>
       <use style="stroke:#000000;stroke-width:0.5;" x="386.51625" xlink:href="#m0795b060bb" y="88.524"/>
      </g>
     </g>
     <g id="text_12">
      <!-- $\mathdefault{10^{2}}$ -->
      <g transform="translate(55.675155 92.939)scale(0.16 -0.16)">
       <use transform="translate(0 0.765625)" xlink:href="#DejaVuSans-49"/>
       <use transform="translate(63.623047 0.765625)" xlink:href="#DejaVuSans-48"/>
       <use transform="translate(128.203125 39.046875)scale(0.7)" xlink:href="#DejaVuSans-50"/>
      </g>
     </g>
    </g>
    <g id="ytick_6">
     <g id="line2d_24">
      <g>
       <use style="stroke:#000000;stroke-width:0.5;" x="87.835155" xlink:href="#m77289416bc" y="26.325"/>
      </g>
     </g>
     <g id="line2d_25">
      <g>
       <use style="stroke:#000000;stroke-width:0.5;" x="386.51625" xlink:href="#m0795b060bb" y="26.325"/>
      </g>
     </g>
     <g id="text_13">
      <!-- $\mathdefault{10^{3}}$ -->
      <g transform="translate(55.675155 30.74)scale(0.16 -0.16)">
       <defs>
        <path d="M 40.578125 39.3125 
Q 47.65625 37.796875 51.625 33 
Q 55.609375 28.21875 55.609375 21.1875 
Q 55.609375 10.40625 48.1875 4.484375 
Q 40.765625 -1.421875 27.09375 -1.421875 
Q 22.515625 -1.421875 17.65625 -0.515625 
Q 12.796875 0.390625 7.625 2.203125 
L 7.625 11.71875 
Q 11.71875 9.328125 16.59375 8.109375 
Q 21.484375 6.890625 26.8125 6.890625 
Q 36.078125 6.890625 40.9375 10.546875 
Q 45.796875 14.203125 45.796875 21.1875 
Q 45.796875 27.640625 41.28125 31.265625 
Q 36.765625 34.90625 28.71875 34.90625 
L 20.21875 34.90625 
L 20.21875 43.015625 
L 29.109375 43.015625 
Q 36.375 43.015625 40.234375 45.921875 
Q 44.09375 48.828125 44.09375 54.296875 
Q 44.09375 59.90625 40.109375 62.90625 
Q 36.140625 65.921875 28.71875 65.921875 
Q 24.65625 65.921875 20.015625 65.03125 
Q 15.375 64.15625 9.8125 62.3125 
L 9.8125 71.09375 
Q 15.4375 72.65625 20.34375 73.4375 
Q 25.25 74.21875 29.59375 74.21875 
Q 40.828125 74.21875 47.359375 69.109375 
Q 53.90625 64.015625 53.90625 55.328125 
Q 53.90625 49.265625 50.4375 45.09375 
Q 46.96875 40.921875 40.578125 39.3125 
z
" id="DejaVuSans-51"/>
       </defs>
       <use transform="translate(0 0.765625)" xlink:href="#DejaVuSans-49"/>
       <use transform="translate(63.623047 0.765625)" xlink:href="#DejaVuSans-48"/>
       <use transform="translate(128.203125 39.046875)scale(0.7)" xlink:href="#DejaVuSans-51"/>
      </g>
     </g>
    </g>
    <g id="ytick_7">
     <g id="line2d_26">
      <defs>
       <path d="M 0 0 
L 2 0 
" id="m35da28c4cb" style="stroke:#000000;stroke-width:0.5;"/>
      </defs>
      <g>
       <use style="stroke:#000000;stroke-width:0.5;" x="87.835155" xlink:href="#m35da28c4cb" y="318.596235"/>
      </g>
     </g>
     <g id="line2d_27">
      <defs>
       <path d="M 0 0 
L -2 0 
" id="m179a3e9764" style="stroke:#000000;stroke-width:0.5;"/>
      </defs>
      <g>
       <use style="stroke:#000000;stroke-width:0.5;" x="386.51625" xlink:href="#m179a3e9764" y="318.596235"/>
      </g>
     </g>
    </g>
    <g id="ytick_8">
     <g id="line2d_28">
      <g>
       <use style="stroke:#000000;stroke-width:0.5;" x="87.835155" xlink:href="#m35da28c4cb" y="307.643535"/>
      </g>
     </g>
     <g id="line2d_29">
      <g>
       <use style="stroke:#000000;stroke-width:0.5;" x="386.51625" xlink:href="#m179a3e9764" y="307.643535"/>
      </g>
     </g>
    </g>
    <g id="ytick_9">
     <g id="line2d_30">
      <g>
       <use style="stroke:#000000;stroke-width:0.5;" x="87.835155" xlink:href="#m35da28c4cb" y="299.872471"/>
      </g>
     </g>
     <g id="line2d_31">
      <g>
       <use style="stroke:#000000;stroke-width:0.5;" x="386.51625" xlink:href="#m179a3e9764" y="299.872471"/>
      </g>
     </g>
    </g>
    <g id="ytick_10">
     <g id="line2d_32">
      <g>
       <use style="stroke:#000000;stroke-width:0.5;" x="87.835155" xlink:href="#m35da28c4cb" y="293.844765"/>
      </g>
     </g>
     <g id="line2d_33">
      <g>
       <use style="stroke:#000000;stroke-width:0.5;" x="386.51625" xlink:href="#m179a3e9764" y="293.844765"/>
      </g>
     </g>
    </g>
    <g id="ytick_11">
     <g id="line2d_34">
      <g>
       <use style="stroke:#000000;stroke-width:0.5;" x="87.835155" xlink:href="#m35da28c4cb" y="288.91977"/>
      </g>
     </g>
     <g id="line2d_35">
      <g>
       <use style="stroke:#000000;stroke-width:0.5;" x="386.51625" xlink:href="#m179a3e9764" y="288.91977"/>
      </g>
     </g>
    </g>
    <g id="ytick_12">
     <g id="line2d_36">
      <g>
       <use style="stroke:#000000;stroke-width:0.5;" x="87.835155" xlink:href="#m35da28c4cb" y="284.755747"/>
      </g>
     </g>
     <g id="line2d_37">
      <g>
       <use style="stroke:#000000;stroke-width:0.5;" x="386.51625" xlink:href="#m179a3e9764" y="284.755747"/>
      </g>
     </g>
    </g>
    <g id="ytick_13">
     <g id="line2d_38">
      <g>
       <use style="stroke:#000000;stroke-width:0.5;" x="87.835155" xlink:href="#m35da28c4cb" y="281.148706"/>
      </g>
     </g>
     <g id="line2d_39">
      <g>
       <use style="stroke:#000000;stroke-width:0.5;" x="386.51625" xlink:href="#m179a3e9764" y="281.148706"/>
      </g>
     </g>
    </g>
    <g id="ytick_14">
     <g id="line2d_40">
      <g>
       <use style="stroke:#000000;stroke-width:0.5;" x="87.835155" xlink:href="#m35da28c4cb" y="277.96707"/>
      </g>
     </g>
     <g id="line2d_41">
      <g>
       <use style="stroke:#000000;stroke-width:0.5;" x="386.51625" xlink:href="#m179a3e9764" y="277.96707"/>
      </g>
     </g>
    </g>
    <g id="ytick_15">
     <g id="line2d_42">
      <g>
       <use style="stroke:#000000;stroke-width:0.5;" x="87.835155" xlink:href="#m35da28c4cb" y="256.397235"/>
      </g>
     </g>
     <g id="line2d_43">
      <g>
       <use style="stroke:#000000;stroke-width:0.5;" x="386.51625" xlink:href="#m179a3e9764" y="256.397235"/>
      </g>
     </g>
    </g>
    <g id="ytick_16">
     <g id="line2d_44">
      <g>
       <use style="stroke:#000000;stroke-width:0.5;" x="87.835155" xlink:href="#m35da28c4cb" y="245.444535"/>
      </g>
     </g>
     <g id="line2d_45">
      <g>
       <use style="stroke:#000000;stroke-width:0.5;" x="386.51625" xlink:href="#m179a3e9764" y="245.444535"/>
      </g>
     </g>
    </g>
    <g id="ytick_17">
     <g id="line2d_46">
      <g>
       <use style="stroke:#000000;stroke-width:0.5;" x="87.835155" xlink:href="#m35da28c4cb" y="237.673471"/>
      </g>
     </g>
     <g id="line2d_47">
      <g>
       <use style="stroke:#000000;stroke-width:0.5;" x="386.51625" xlink:href="#m179a3e9764" y="237.673471"/>
      </g>
     </g>
    </g>
    <g id="ytick_18">
     <g id="line2d_48">
      <g>
       <use style="stroke:#000000;stroke-width:0.5;" x="87.835155" xlink:href="#m35da28c4cb" y="231.645765"/>
      </g>
     </g>
     <g id="line2d_49">
      <g>
       <use style="stroke:#000000;stroke-width:0.5;" x="386.51625" xlink:href="#m179a3e9764" y="231.645765"/>
      </g>
     </g>
    </g>
    <g id="ytick_19">
     <g id="line2d_50">
      <g>
       <use style="stroke:#000000;stroke-width:0.5;" x="87.835155" xlink:href="#m35da28c4cb" y="226.72077"/>
      </g>
     </g>
     <g id="line2d_51">
      <g>
       <use style="stroke:#000000;stroke-width:0.5;" x="386.51625" xlink:href="#m179a3e9764" y="226.72077"/>
      </g>
     </g>
    </g>
    <g id="ytick_20">
     <g id="line2d_52">
      <g>
       <use style="stroke:#000000;stroke-width:0.5;" x="87.835155" xlink:href="#m35da28c4cb" y="222.556747"/>
      </g>
     </g>
     <g id="line2d_53">
      <g>
       <use style="stroke:#000000;stroke-width:0.5;" x="386.51625" xlink:href="#m179a3e9764" y="222.556747"/>
      </g>
     </g>
    </g>
    <g id="ytick_21">
     <g id="line2d_54">
      <g>
       <use style="stroke:#000000;stroke-width:0.5;" x="87.835155" xlink:href="#m35da28c4cb" y="218.949706"/>
      </g>
     </g>
     <g id="line2d_55">
      <g>
       <use style="stroke:#000000;stroke-width:0.5;" x="386.51625" xlink:href="#m179a3e9764" y="218.949706"/>
      </g>
     </g>
    </g>
    <g id="ytick_22">
     <g id="line2d_56">
      <g>
       <use style="stroke:#000000;stroke-width:0.5;" x="87.835155" xlink:href="#m35da28c4cb" y="215.76807"/>
      </g>
     </g>
     <g id="line2d_57">
      <g>
       <use style="stroke:#000000;stroke-width:0.5;" x="386.51625" xlink:href="#m179a3e9764" y="215.76807"/>
      </g>
     </g>
    </g>
    <g id="ytick_23">
     <g id="line2d_58">
      <g>
       <use style="stroke:#000000;stroke-width:0.5;" x="87.835155" xlink:href="#m35da28c4cb" y="194.198235"/>
      </g>
     </g>
     <g id="line2d_59">
      <g>
       <use style="stroke:#000000;stroke-width:0.5;" x="386.51625" xlink:href="#m179a3e9764" y="194.198235"/>
      </g>
     </g>
    </g>
    <g id="ytick_24">
     <g id="line2d_60">
      <g>
       <use style="stroke:#000000;stroke-width:0.5;" x="87.835155" xlink:href="#m35da28c4cb" y="183.245535"/>
      </g>
     </g>
     <g id="line2d_61">
      <g>
       <use style="stroke:#000000;stroke-width:0.5;" x="386.51625" xlink:href="#m179a3e9764" y="183.245535"/>
      </g>
     </g>
    </g>
    <g id="ytick_25">
     <g id="line2d_62">
      <g>
       <use style="stroke:#000000;stroke-width:0.5;" x="87.835155" xlink:href="#m35da28c4cb" y="175.474471"/>
      </g>
     </g>
     <g id="line2d_63">
      <g>
       <use style="stroke:#000000;stroke-width:0.5;" x="386.51625" xlink:href="#m179a3e9764" y="175.474471"/>
      </g>
     </g>
    </g>
    <g id="ytick_26">
     <g id="line2d_64">
      <g>
       <use style="stroke:#000000;stroke-width:0.5;" x="87.835155" xlink:href="#m35da28c4cb" y="169.446765"/>
      </g>
     </g>
     <g id="line2d_65">
      <g>
       <use style="stroke:#000000;stroke-width:0.5;" x="386.51625" xlink:href="#m179a3e9764" y="169.446765"/>
      </g>
     </g>
    </g>
    <g id="ytick_27">
     <g id="line2d_66">
      <g>
       <use style="stroke:#000000;stroke-width:0.5;" x="87.835155" xlink:href="#m35da28c4cb" y="164.52177"/>
      </g>
     </g>
     <g id="line2d_67">
      <g>
       <use style="stroke:#000000;stroke-width:0.5;" x="386.51625" xlink:href="#m179a3e9764" y="164.52177"/>
      </g>
     </g>
    </g>
    <g id="ytick_28">
     <g id="line2d_68">
      <g>
       <use style="stroke:#000000;stroke-width:0.5;" x="87.835155" xlink:href="#m35da28c4cb" y="160.357747"/>
      </g>
     </g>
     <g id="line2d_69">
      <g>
       <use style="stroke:#000000;stroke-width:0.5;" x="386.51625" xlink:href="#m179a3e9764" y="160.357747"/>
      </g>
     </g>
    </g>
    <g id="ytick_29">
     <g id="line2d_70">
      <g>
       <use style="stroke:#000000;stroke-width:0.5;" x="87.835155" xlink:href="#m35da28c4cb" y="156.750706"/>
      </g>
     </g>
     <g id="line2d_71">
      <g>
       <use style="stroke:#000000;stroke-width:0.5;" x="386.51625" xlink:href="#m179a3e9764" y="156.750706"/>
      </g>
     </g>
    </g>
    <g id="ytick_30">
     <g id="line2d_72">
      <g>
       <use style="stroke:#000000;stroke-width:0.5;" x="87.835155" xlink:href="#m35da28c4cb" y="153.56907"/>
      </g>
     </g>
     <g id="line2d_73">
      <g>
       <use style="stroke:#000000;stroke-width:0.5;" x="386.51625" xlink:href="#m179a3e9764" y="153.56907"/>
      </g>
     </g>
    </g>
    <g id="ytick_31">
     <g id="line2d_74">
      <g>
       <use style="stroke:#000000;stroke-width:0.5;" x="87.835155" xlink:href="#m35da28c4cb" y="131.999235"/>
      </g>
     </g>
     <g id="line2d_75">
      <g>
       <use style="stroke:#000000;stroke-width:0.5;" x="386.51625" xlink:href="#m179a3e9764" y="131.999235"/>
      </g>
     </g>
    </g>
    <g id="ytick_32">
     <g id="line2d_76">
      <g>
       <use style="stroke:#000000;stroke-width:0.5;" x="87.835155" xlink:href="#m35da28c4cb" y="121.046535"/>
      </g>
     </g>
     <g id="line2d_77">
      <g>
       <use style="stroke:#000000;stroke-width:0.5;" x="386.51625" xlink:href="#m179a3e9764" y="121.046535"/>
      </g>
     </g>
    </g>
    <g id="ytick_33">
     <g id="line2d_78">
      <g>
       <use style="stroke:#000000;stroke-width:0.5;" x="87.835155" xlink:href="#m35da28c4cb" y="113.275471"/>
      </g>
     </g>
     <g id="line2d_79">
      <g>
       <use style="stroke:#000000;stroke-width:0.5;" x="386.51625" xlink:href="#m179a3e9764" y="113.275471"/>
      </g>
     </g>
    </g>
    <g id="ytick_34">
     <g id="line2d_80">
      <g>
       <use style="stroke:#000000;stroke-width:0.5;" x="87.835155" xlink:href="#m35da28c4cb" y="107.247765"/>
      </g>
     </g>
     <g id="line2d_81">
      <g>
       <use style="stroke:#000000;stroke-width:0.5;" x="386.51625" xlink:href="#m179a3e9764" y="107.247765"/>
      </g>
     </g>
    </g>
    <g id="ytick_35">
     <g id="line2d_82">
      <g>
       <use style="stroke:#000000;stroke-width:0.5;" x="87.835155" xlink:href="#m35da28c4cb" y="102.32277"/>
      </g>
     </g>
     <g id="line2d_83">
      <g>
       <use style="stroke:#000000;stroke-width:0.5;" x="386.51625" xlink:href="#m179a3e9764" y="102.32277"/>
      </g>
     </g>
    </g>
    <g id="ytick_36">
     <g id="line2d_84">
      <g>
       <use style="stroke:#000000;stroke-width:0.5;" x="87.835155" xlink:href="#m35da28c4cb" y="98.158747"/>
      </g>
     </g>
     <g id="line2d_85">
      <g>
       <use style="stroke:#000000;stroke-width:0.5;" x="386.51625" xlink:href="#m179a3e9764" y="98.158747"/>
      </g>
     </g>
    </g>
    <g id="ytick_37">
     <g id="line2d_86">
      <g>
       <use style="stroke:#000000;stroke-width:0.5;" x="87.835155" xlink:href="#m35da28c4cb" y="94.551706"/>
      </g>
     </g>
     <g id="line2d_87">
      <g>
       <use style="stroke:#000000;stroke-width:0.5;" x="386.51625" xlink:href="#m179a3e9764" y="94.551706"/>
      </g>
     </g>
    </g>
    <g id="ytick_38">
     <g id="line2d_88">
      <g>
       <use style="stroke:#000000;stroke-width:0.5;" x="87.835155" xlink:href="#m35da28c4cb" y="91.37007"/>
      </g>
     </g>
     <g id="line2d_89">
      <g>
       <use style="stroke:#000000;stroke-width:0.5;" x="386.51625" xlink:href="#m179a3e9764" y="91.37007"/>
      </g>
     </g>
    </g>
    <g id="ytick_39">
     <g id="line2d_90">
      <g>
       <use style="stroke:#000000;stroke-width:0.5;" x="87.835155" xlink:href="#m35da28c4cb" y="69.800235"/>
      </g>
     </g>
     <g id="line2d_91">
      <g>
       <use style="stroke:#000000;stroke-width:0.5;" x="386.51625" xlink:href="#m179a3e9764" y="69.800235"/>
      </g>
     </g>
    </g>
    <g id="ytick_40">
     <g id="line2d_92">
      <g>
       <use style="stroke:#000000;stroke-width:0.5;" x="87.835155" xlink:href="#m35da28c4cb" y="58.847535"/>
      </g>
     </g>
     <g id="line2d_93">
      <g>
       <use style="stroke:#000000;stroke-width:0.5;" x="386.51625" xlink:href="#m179a3e9764" y="58.847535"/>
      </g>
     </g>
    </g>
    <g id="ytick_41">
     <g id="line2d_94">
      <g>
       <use style="stroke:#000000;stroke-width:0.5;" x="87.835155" xlink:href="#m35da28c4cb" y="51.076471"/>
      </g>
     </g>
     <g id="line2d_95">
      <g>
       <use style="stroke:#000000;stroke-width:0.5;" x="386.51625" xlink:href="#m179a3e9764" y="51.076471"/>
      </g>
     </g>
    </g>
    <g id="ytick_42">
     <g id="line2d_96">
      <g>
       <use style="stroke:#000000;stroke-width:0.5;" x="87.835155" xlink:href="#m35da28c4cb" y="45.048765"/>
      </g>
     </g>
     <g id="line2d_97">
      <g>
       <use style="stroke:#000000;stroke-width:0.5;" x="386.51625" xlink:href="#m179a3e9764" y="45.048765"/>
      </g>
     </g>
    </g>
    <g id="ytick_43">
     <g id="line2d_98">
      <g>
       <use style="stroke:#000000;stroke-width:0.5;" x="87.835155" xlink:href="#m35da28c4cb" y="40.12377"/>
      </g>
     </g>
     <g id="line2d_99">
      <g>
       <use style="stroke:#000000;stroke-width:0.5;" x="386.51625" xlink:href="#m179a3e9764" y="40.12377"/>
      </g>
     </g>
    </g>
    <g id="ytick_44">
     <g id="line2d_100">
      <g>
       <use style="stroke:#000000;stroke-width:0.5;" x="87.835155" xlink:href="#m35da28c4cb" y="35.959747"/>
      </g>
     </g>
     <g id="line2d_101">
      <g>
       <use style="stroke:#000000;stroke-width:0.5;" x="386.51625" xlink:href="#m179a3e9764" y="35.959747"/>
      </g>
     </g>
    </g>
    <g id="ytick_45">
     <g id="line2d_102">
      <g>
       <use style="stroke:#000000;stroke-width:0.5;" x="87.835155" xlink:href="#m35da28c4cb" y="32.352706"/>
      </g>
     </g>
     <g id="line2d_103">
      <g>
       <use style="stroke:#000000;stroke-width:0.5;" x="386.51625" xlink:href="#m179a3e9764" y="32.352706"/>
      </g>
     </g>
    </g>
    <g id="ytick_46">
     <g id="line2d_104">
      <g>
       <use style="stroke:#000000;stroke-width:0.5;" x="87.835155" xlink:href="#m35da28c4cb" y="29.17107"/>
      </g>
     </g>
     <g id="line2d_105">
      <g>
       <use style="stroke:#000000;stroke-width:0.5;" x="386.51625" xlink:href="#m179a3e9764" y="29.17107"/>
      </g>
     </g>
    </g>
    <g id="text_14">
     <!-- $\mathcal{L}$ -->
     <g transform="translate(43.347655 187.3425)rotate(-90)scale(0.16 -0.16)">
      <defs>
       <path d="M 3.71875 -2.203125 
Q 3.078125 -2.203125 3.078125 -1.515625 
Q 3.078125 -1.125 3.421875 -0.59375 
Q 4.15625 0.59375 5.609375 2.03125 
Q 7.078125 3.46875 7.71875 4.296875 
Q 10.25 7.953125 11.71875 10.796875 
Q 14.265625 16.0625 16.109375 22.90625 
Q 18.84375 33.796875 21.0625 40.578125 
Q 23.296875 47.359375 26.90625 53.421875 
Q 29.734375 58.109375 33.875 61.984375 
Q 38.03125 65.875 43.078125 68.1875 
Q 48.140625 70.515625 53.421875 70.515625 
L 54 70.515625 
Q 56.59375 70.515625 58.34375 69.21875 
Q 60.109375 67.921875 61.015625 65.75 
Q 61.921875 63.578125 61.921875 61.078125 
Q 61.921875 57.28125 60.6875 55.8125 
Q 57.234375 52.046875 52.484375 51.421875 
L 51.90625 51.421875 
Q 51.3125 51.421875 51.3125 52.09375 
Q 51.3125 52.203125 51.5625 53.609375 
Q 51.8125 55.03125 51.8125 56 
Q 51.8125 59.234375 50.1875 61.625 
Q 48.578125 64.015625 45.40625 64.015625 
Q 41.703125 64.015625 41.703125 63.375 
Q 38.96875 61.46875 36.453125 57.046875 
Q 33.9375 52.640625 32.046875 47.484375 
Q 30.171875 42.328125 28.703125 37.125 
Q 27.25 31.9375 26.125 27.390625 
Q 24.90625 22.46875 22.96875 17.9375 
Q 21.046875 13.421875 18.40625 9.421875 
Q 19.578125 9.8125 21.296875 9.8125 
L 21.921875 9.8125 
Q 25.390625 9.8125 28.859375 9.109375 
Q 32.328125 8.40625 37.15625 7.03125 
Q 42 5.671875 45.21875 5 
Q 48.4375 4.34375 52 4.296875 
Q 53.078125 4.296875 53.75 5.265625 
Q 54.4375 6.25 55.09375 7.984375 
Q 55.765625 9.71875 56.203125 10.296875 
Q 57.71875 11.96875 59.90625 13.1875 
Q 62.109375 14.40625 64.3125 14.703125 
L 64.890625 14.703125 
Q 65.1875 14.703125 65.375 14.5 
Q 65.578125 14.3125 65.578125 14.015625 
Q 65.578125 14.015625 65.484375 13.71875 
Q 64.5 9.8125 60.890625 6.03125 
Q 57.28125 2.25 52.65625 0.015625 
Q 48.046875 -2.203125 44.1875 -2.203125 
L 43.609375 -2.203125 
Q 40.140625 -2.203125 36.8125 -1.5625 
Q 33.5 -0.921875 28.65625 0.4375 
Q 23.828125 1.8125 20.375 2.53125 
Q 16.9375 3.265625 13.484375 3.328125 
Q 9.03125 -1.5625 4.296875 -2.203125 
z
" id="Cmsy10-76"/>
      </defs>
      <use transform="translate(0 0.484375)" xlink:href="#Cmsy10-76"/>
     </g>
    </g>
   </g>
   <g id="legend_1">
    <g id="patch_7">
     <path d="M 288.78825 69.867 
L 376.91625 69.867 
L 376.91625 35.925 
L 288.78825 35.925 
z
" style="fill:#ffffff;stroke:#000000;stroke-linejoin:miter;"/>
    </g>
    <g id="line2d_106">
     <path d="M 302.22825 51.474 
L 329.10825 51.474 
" style="fill:none;stroke:#0000ff;stroke-linecap:square;"/>
    </g>
    <g id="line2d_107">
     <g>
      <use style="fill:#0000ff;stroke:#000000;stroke-width:0.5;" x="302.22825" xlink:href="#m095dd740d1" y="51.474"/>
      <use style="fill:#0000ff;stroke:#000000;stroke-width:0.5;" x="329.10825" xlink:href="#m095dd740d1" y="51.474"/>
     </g>
    </g>
    <g id="text_15">
     <!-- $x_{1}$ -->
     <g transform="translate(350.22825 58.194)scale(0.192 -0.192)">
      <defs>
       <path d="M 7.8125 2.875 
Q 9.578125 1.515625 12.796875 1.515625 
Q 15.921875 1.515625 18.3125 4.515625 
Q 20.703125 7.515625 21.578125 11.078125 
L 26.125 28.8125 
Q 27.203125 33.640625 27.203125 35.40625 
Q 27.203125 37.890625 25.8125 39.75 
Q 24.421875 41.609375 21.921875 41.609375 
Q 18.75 41.609375 15.96875 39.625 
Q 13.1875 37.640625 11.28125 34.59375 
Q 9.375 31.546875 8.59375 28.421875 
Q 8.40625 27.78125 7.8125 27.78125 
L 6.59375 27.78125 
Q 5.8125 27.78125 5.8125 28.71875 
L 5.8125 29 
Q 6.78125 32.71875 9.125 36.25 
Q 11.46875 39.796875 14.859375 41.984375 
Q 18.265625 44.1875 22.125 44.1875 
Q 25.78125 44.1875 28.734375 42.234375 
Q 31.6875 40.28125 32.90625 36.921875 
Q 34.625 39.984375 37.28125 42.078125 
Q 39.9375 44.1875 43.109375 44.1875 
Q 45.265625 44.1875 47.5 43.421875 
Q 49.75 42.671875 51.171875 41.109375 
Q 52.59375 39.546875 52.59375 37.203125 
Q 52.59375 34.671875 50.953125 32.828125 
Q 49.3125 31 46.78125 31 
Q 45.171875 31 44.09375 32.03125 
Q 43.015625 33.0625 43.015625 34.625 
Q 43.015625 36.71875 44.453125 38.296875 
Q 45.90625 39.890625 47.90625 40.1875 
Q 46.09375 41.609375 42.921875 41.609375 
Q 39.703125 41.609375 37.328125 38.625 
Q 34.96875 35.640625 33.984375 31.984375 
L 29.59375 14.3125 
Q 28.515625 10.296875 28.515625 7.71875 
Q 28.515625 5.171875 29.953125 3.34375 
Q 31.390625 1.515625 33.796875 1.515625 
Q 38.484375 1.515625 42.15625 5.640625 
Q 45.84375 9.765625 47.015625 14.703125 
Q 47.21875 15.28125 47.796875 15.28125 
L 49.03125 15.28125 
Q 49.421875 15.28125 49.65625 15.015625 
Q 49.90625 14.75 49.90625 14.40625 
Q 49.90625 14.3125 49.8125 14.109375 
Q 48.390625 8.15625 43.84375 3.515625 
Q 39.3125 -1.125 33.59375 -1.125 
Q 29.9375 -1.125 26.984375 0.84375 
Q 24.03125 2.828125 22.796875 6.203125 
Q 21.234375 3.265625 18.46875 1.0625 
Q 15.71875 -1.125 12.59375 -1.125 
Q 10.453125 -1.125 8.171875 -0.359375 
Q 5.90625 0.390625 4.484375 1.953125 
Q 3.078125 3.515625 3.078125 5.90625 
Q 3.078125 8.25 4.703125 10.171875 
Q 6.34375 12.109375 8.796875 12.109375 
Q 10.453125 12.109375 11.578125 11.109375 
Q 12.703125 10.109375 12.703125 8.5 
Q 12.703125 6.390625 11.296875 4.828125 
Q 9.90625 3.265625 7.8125 2.875 
z
" id="Cmmi10-120"/>
       <path d="M 9.28125 0 
L 9.28125 3.515625 
Q 21.78125 3.515625 21.78125 6.6875 
L 21.78125 59.1875 
Q 16.609375 56.6875 8.6875 56.6875 
L 8.6875 60.203125 
Q 20.953125 60.203125 27.203125 66.609375 
L 28.609375 66.609375 
Q 28.953125 66.609375 29.265625 66.328125 
Q 29.59375 66.0625 29.59375 65.71875 
L 29.59375 6.6875 
Q 29.59375 3.515625 42.09375 3.515625 
L 42.09375 0 
z
" id="Cmr10-49"/>
      </defs>
      <use transform="translate(0 0.8125)" xlink:href="#Cmmi10-120"/>
      <use transform="translate(57.080078 -16.19375)scale(0.7)" xlink:href="#Cmr10-49"/>
     </g>
    </g>
   </g>
  </g>
 </g>
 <defs>
  <clipPath id="pe921f079e6">
   <rect height="310.995" width="298.681095" x="87.835155" y="26.325"/>
  </clipPath>
 </defs>
</svg>
